<svg xmlns="http://www.w3.org/2000/svg" fill="none" viewBox="0 0 150 100"><rect width="50" height="22" x="50" y="16" fill="#AAA" opacity=".55" rx="2"/><path stroke="#AAA" stroke-linecap="round" stroke-linejoin="round" stroke-width="3.49" d="m91 26-3 3-3-3"/><path fill="#fff" d="M58 32.687c6.546-4.55 11.454 4.55 18 0V21.313c-6.546 4.55-11.454-4.55-18 0" opacity=".75"/><g filter="url(#a)"><path fill="#AAA" d="M96.847 40H57.373c-1.31 0-2.373.946-2.373 2.114v40.773C55 84.054 56.063 85 57.373 85h39.474c1.31 0 2.373-.946 2.373-2.114V42.115c0-1.168-1.062-2.114-2.373-2.114" opacity=".55"/></g><path stroke="#888" stroke-linecap="round" stroke-linejoin="bevel" stroke-width="3.91" d="M62.22 47.72H87.6"/><path stroke="#AAA" stroke-linecap="round" stroke-linejoin="bevel" stroke-width="3.91" d="M62.22 58h24M62.22 68h30M62.22 78h24" opacity=".75"/><defs><filter id="a" width="48.22" height="49" x="53" y="38" color-interpolation-filters="sRGB" filterUnits="userSpaceOnUse"><feFlood flood-opacity="0" result="BackgroundImageFix"/><feColorMatrix in="SourceAlpha" result="hardAlpha" values="0 0 0 0 0 0 0 0 0 0 0 0 0 0 0 0 0 0 127 0"/><feOffset/><feGaussianBlur stdDeviation="1"/><feComposite in2="hardAlpha" operator="out"/><feColorMatrix values="0 0 0 0 0 0 0 0 0 0 0 0 0 0 0 0 0 0 0.25 0"/><feBlend in2="BackgroundImageFix" result="effect1_dropShadow_84_46"/><feBlend in="SourceGraphic" in2="effect1_dropShadow_84_46" result="shape"/></filter></defs></svg>