<svg viewBox="0 0 150 100" fill="none" xmlns="http://www.w3.org/2000/svg">
<g id="form-button">
<path id="Rectangle 1" d="M16 15C16 12.7909 17.7909 11 20 11H131C132.657 11 134 12.3431 134 14V86C134 87.6569 132.657 89 131 89H19C17.3431 89 16 87.6569 16 86V15Z" stroke="#AAAAAA" stroke-width="2" stroke-linecap="round" stroke-dasharray="5 5"/>
<g id="Badge">
<g clip-path="url(#clip0_4_134)">
<rect x="23" y="18" width="39" height="13" rx="6.5" fill="#426698"/>
<path id="FORM" d="M28.7 28.5V21.3H33.1V22.66H30.06V24.22H32.5V25.58H30.06V28.5H28.7ZM37.0927 28.65C36.3727 28.65 35.7511 28.4933 35.2277 28.18C34.7077 27.8667 34.3061 27.4283 34.0227 26.865C33.7427 26.3017 33.6027 25.6467 33.6027 24.9C33.6027 24.1533 33.7427 23.4983 34.0227 22.935C34.3061 22.3717 34.7077 21.9333 35.2277 21.62C35.7511 21.3067 36.3727 21.15 37.0927 21.15C37.8127 21.15 38.4327 21.3067 38.9527 21.62C39.4761 21.9333 39.8777 22.3717 40.1577 22.935C40.4411 23.4983 40.5827 24.1533 40.5827 24.9C40.5827 25.6467 40.4411 26.3017 40.1577 26.865C39.8777 27.4283 39.4761 27.8667 38.9527 28.18C38.4327 28.4933 37.8127 28.65 37.0927 28.65ZM37.0927 27.37C37.5494 27.3767 37.9294 27.2783 38.2327 27.075C38.5361 26.8717 38.7627 26.5833 38.9127 26.21C39.0661 25.8367 39.1427 25.4 39.1427 24.9C39.1427 24.4 39.0661 23.9667 38.9127 23.6C38.7627 23.2333 38.5361 22.9483 38.2327 22.745C37.9294 22.5417 37.5494 22.4367 37.0927 22.43C36.6361 22.4233 36.2561 22.5217 35.9527 22.725C35.6494 22.9283 35.4211 23.2167 35.2677 23.59C35.1177 23.9633 35.0427 24.4 35.0427 24.9C35.0427 25.4 35.1177 25.8333 35.2677 26.2C35.4211 26.5667 35.6494 26.8517 35.9527 27.055C36.2561 27.2583 36.6361 27.3633 37.0927 27.37ZM41.5809 28.5V21.3H44.6209C44.6909 21.3 44.7842 21.3033 44.9009 21.31C45.0209 21.3133 45.1275 21.3233 45.2209 21.34C45.6509 21.4067 46.0025 21.5483 46.2759 21.765C46.5525 21.9817 46.7559 22.255 46.8859 22.585C47.0159 22.9117 47.0809 23.2767 47.0809 23.68C47.0809 24.2833 46.9309 24.8 46.6309 25.23C46.3309 25.6567 45.8609 25.92 45.2209 26.02L44.6209 26.06H42.9409V28.5H41.5809ZM45.6409 28.5L44.2209 25.57L45.6209 25.3L47.1809 28.5H45.6409ZM42.9409 24.79H44.5609C44.6309 24.79 44.7075 24.7867 44.7909 24.78C44.8742 24.7733 44.9509 24.76 45.0209 24.74C45.2042 24.69 45.3459 24.6067 45.4459 24.49C45.5459 24.37 45.6142 24.2383 45.6509 24.095C45.6909 23.9483 45.7109 23.81 45.7109 23.68C45.7109 23.55 45.6909 23.4133 45.6509 23.27C45.6142 23.1233 45.5459 22.9917 45.4459 22.875C45.3459 22.755 45.2042 22.67 45.0209 22.62C44.9509 22.6 44.8742 22.5867 44.7909 22.58C44.7075 22.5733 44.6309 22.57 44.5609 22.57H42.9409V24.79ZM48.2801 28.5V21.3H49.5001L51.8801 26.08L54.2601 21.3H55.4801V28.5H54.2101V24.2L52.1201 28.5H51.6401L49.5501 24.2V28.5H48.2801Z" fill="white"/>
</g>
</g>
<g id="Ebene_1" clip-path="url(#clip1_4_134)">
<g id="Group" opacity="0.75">
<path id="Vector" d="M124.8 61H26C24.8954 61 24 61.8954 24 63V78.92C24 80.0246 24.8954 80.92 26 80.92H124.8C125.905 80.92 126.8 80.0246 126.8 78.92V63C126.8 61.8954 125.905 61 124.8 61Z" fill="#AAAAAA"/>
<path id="Vector_2" d="M124.8 62C125.35 62 125.8 62.45 125.8 63V78.92C125.8 79.47 125.35 79.92 124.8 79.92H26C25.45 79.92 25 79.47 25 78.92V63C25 62.45 25.45 62 26 62H124.8ZM124.8 60H26C24.34 60 23 61.34 23 63V78.92C23 80.58 24.34 81.92 26 81.92H124.8C126.46 81.92 127.8 80.58 127.8 78.92V63C127.8 61.34 126.46 60 124.8 60Z" fill="#AAAAAA"/>
</g>
<path id="Button" d="M55.84 76V67.36H59.296C59.912 67.36 60.41 67.484 60.79 67.732C61.17 67.976 61.448 68.284 61.624 68.656C61.8 69.028 61.888 69.404 61.888 69.784C61.888 70.268 61.778 70.67 61.558 70.99C61.342 71.31 61.044 71.524 60.664 71.632V71.332C61.204 71.444 61.608 71.694 61.876 72.082C62.148 72.47 62.284 72.904 62.284 73.384C62.284 73.9 62.188 74.354 61.996 74.746C61.808 75.138 61.52 75.446 61.132 75.67C60.744 75.89 60.256 76 59.668 76H55.84ZM57.496 74.464H59.5C59.72 74.464 59.916 74.418 60.088 74.326C60.26 74.23 60.394 74.098 60.49 73.93C60.59 73.758 60.64 73.556 60.64 73.324C60.64 73.12 60.598 72.938 60.514 72.778C60.43 72.618 60.302 72.492 60.13 72.4C59.962 72.304 59.752 72.256 59.5 72.256H57.496V74.464ZM57.496 70.732H59.272C59.456 70.732 59.62 70.7 59.764 70.636C59.908 70.572 60.022 70.474 60.106 70.342C60.19 70.206 60.232 70.032 60.232 69.82C60.232 69.556 60.15 69.334 59.986 69.154C59.822 68.974 59.584 68.884 59.272 68.884H57.496V70.732ZM65.8926 76.192C65.3846 76.192 64.9706 76.106 64.6506 75.934C64.3306 75.762 64.0806 75.544 63.9006 75.28C63.7246 75.016 63.5986 74.742 63.5226 74.458C63.4466 74.17 63.4006 73.908 63.3846 73.672C63.3686 73.436 63.3606 73.264 63.3606 73.156V69.52H65.0166V72.58C65.0166 72.728 65.0246 72.918 65.0406 73.15C65.0566 73.378 65.1066 73.608 65.1906 73.84C65.2746 74.072 65.4106 74.266 65.5986 74.422C65.7906 74.578 66.0606 74.656 66.4086 74.656C66.5486 74.656 66.6986 74.634 66.8586 74.59C67.0186 74.546 67.1686 74.462 67.3086 74.338C67.4486 74.21 67.5626 74.024 67.6506 73.78C67.7426 73.532 67.7886 73.208 67.7886 72.808L68.7246 73.252C68.7246 73.764 68.6206 74.244 68.4126 74.692C68.2046 75.14 67.8906 75.502 67.4706 75.778C67.0546 76.054 66.5286 76.192 65.8926 76.192ZM67.9926 76V73.852H67.7886V69.52H69.4326V76H67.9926ZM74.9975 76C74.5495 76.084 74.1095 76.12 73.6775 76.108C73.2495 76.1 72.8655 76.026 72.5255 75.886C72.1895 75.742 71.9335 75.512 71.7575 75.196C71.5975 74.9 71.5135 74.6 71.5055 74.296C71.4975 73.988 71.4935 73.64 71.4935 73.252V67.72H73.1255V73.156C73.1255 73.408 73.1275 73.636 73.1315 73.84C73.1395 74.04 73.1815 74.2 73.2575 74.32C73.4015 74.548 73.6315 74.672 73.9475 74.692C74.2635 74.712 74.6135 74.696 74.9975 74.644V76ZM70.3895 70.78V69.52H74.9975V70.78H70.3895ZM79.6055 76C79.1575 76.084 78.7175 76.12 78.2855 76.108C77.8575 76.1 77.4735 76.026 77.1335 75.886C76.7975 75.742 76.5415 75.512 76.3655 75.196C76.2055 74.9 76.1215 74.6 76.1135 74.296C76.1055 73.988 76.1015 73.64 76.1015 73.252V67.72H77.7335V73.156C77.7335 73.408 77.7355 73.636 77.7395 73.84C77.7475 74.04 77.7895 74.2 77.8655 74.32C78.0095 74.548 78.2395 74.672 78.5555 74.692C78.8715 74.712 79.2215 74.696 79.6055 74.644V76ZM74.9975 70.78V69.52H79.6055V70.78H74.9975ZM83.963 76.18C83.311 76.18 82.739 76.034 82.247 75.742C81.755 75.45 81.371 75.048 81.095 74.536C80.823 74.02 80.687 73.428 80.687 72.76C80.687 72.084 80.827 71.49 81.107 70.978C81.387 70.462 81.773 70.06 82.265 69.772C82.757 69.484 83.323 69.34 83.963 69.34C84.615 69.34 85.187 69.486 85.679 69.778C86.175 70.07 86.561 70.474 86.837 70.99C87.113 71.502 87.251 72.092 87.251 72.76C87.251 73.432 87.111 74.026 86.831 74.542C86.555 75.054 86.169 75.456 85.673 75.748C85.181 76.036 84.611 76.18 83.963 76.18ZM83.963 74.656C84.487 74.656 84.877 74.48 85.133 74.128C85.393 73.772 85.523 73.316 85.523 72.76C85.523 72.184 85.391 71.724 85.127 71.38C84.867 71.036 84.479 70.864 83.963 70.864C83.607 70.864 83.315 70.944 83.087 71.104C82.859 71.264 82.689 71.486 82.577 71.77C82.469 72.054 82.415 72.384 82.415 72.76C82.415 73.34 82.545 73.802 82.805 74.146C83.069 74.486 83.455 74.656 83.963 74.656ZM92.9865 76V72.94C92.9865 72.792 92.9785 72.604 92.9625 72.376C92.9465 72.144 92.8965 71.912 92.8125 71.68C92.7285 71.448 92.5905 71.254 92.3985 71.098C92.2105 70.942 91.9425 70.864 91.5945 70.864C91.4545 70.864 91.3045 70.886 91.1445 70.93C90.9845 70.974 90.8345 71.06 90.6945 71.188C90.5545 71.312 90.4385 71.496 90.3465 71.74C90.2585 71.984 90.2145 72.308 90.2145 72.712L89.2785 72.268C89.2785 71.756 89.3825 71.276 89.5905 70.828C89.7985 70.38 90.1105 70.018 90.5265 69.742C90.9465 69.466 91.4745 69.328 92.1105 69.328C92.6185 69.328 93.0325 69.414 93.3525 69.586C93.6725 69.758 93.9205 69.976 94.0965 70.24C94.2765 70.504 94.4045 70.78 94.4805 71.068C94.5565 71.352 94.6025 71.612 94.6185 71.848C94.6345 72.084 94.6425 72.256 94.6425 72.364V76H92.9865ZM88.5585 76V69.52H90.0105V71.668H90.2145V76H88.5585Z" fill="white"/>
</g>
</g>
<defs>
<clipPath id="clip0_4_134">
<rect x="23" y="18" width="39" height="13" rx="6.5" fill="white"/>
</clipPath>
<clipPath id="clip1_4_134">
<rect width="104.8" height="21.92" fill="white" transform="translate(23 60)"/>
</clipPath>
</defs>
</svg>
