<?xml version="1.0" encoding="UTF-8"?><svg id="Ebene_1" xmlns="http://www.w3.org/2000/svg" viewBox="0 0 150 100"><defs><style>.cls-1{fill:none;stroke:#aaa;stroke-linecap:round;stroke-linejoin:bevel;stroke-width:4px;}.cls-2{fill:#aaa;stroke-width:0px;}</style></defs><line class="cls-1" x1="72.69" y1="43.42" x2="88.66" y2="43.42"/><line class="cls-1" x1="52.98" y1="43.42" x2="65.12" y2="43.42"/><line class="cls-1" x1="81.04" y1="50.85" x2="95.27" y2="50.85"/><line class="cls-1" x1="52.98" y1="50.85" x2="73.71" y2="50.85"/><line class="cls-1" x1="52.98" y1="62.29" x2="85.12" y2="62.29"/><line class="cls-1" x1="52.98" y1="69.72" x2="83.71" y2="69.72"/><line class="cls-1" x1="52.98" y1="77.16" x2="74.71" y2="77.16"/><path class="cls-2" d="m51.02,33.16l2.64-8.64h2.44l2.64,8.64h-1.68l-2.35-7.62h.31l-2.32,7.62h-1.68Zm1.58-1.8v-1.52h4.56v1.52h-4.56Z"/><path class="cls-2" d="m62.44,33.34c-.6,0-1.12-.15-1.57-.45-.45-.3-.8-.71-1.05-1.22-.25-.52-.38-1.1-.38-1.75s.13-1.25.38-1.76.61-.92,1.07-1.21,1-.44,1.62-.44,1.13.15,1.55.45c.42.3.74.71.95,1.22.22.52.32,1.1.32,1.75s-.11,1.23-.33,1.75c-.22.52-.54.92-.97,1.22-.43.3-.97.45-1.61.45Zm.26-1.45c.36,0,.65-.08.87-.25.22-.16.38-.39.47-.69s.14-.64.14-1.03-.05-.74-.14-1.03c-.1-.3-.25-.53-.46-.69s-.49-.25-.83-.25c-.36,0-.66.09-.9.27-.23.18-.41.42-.52.71-.11.3-.17.63-.17.99s.05.7.16.99c.11.3.27.54.5.71.22.18.51.26.86.26Zm1.49,1.27v-4.44h-.2v-4.2h1.64v8.64h-1.44Z"/><path class="cls-2" d="m69.94,33.34c-.6,0-1.12-.15-1.57-.45-.45-.3-.8-.71-1.05-1.22-.25-.52-.38-1.1-.38-1.75s.13-1.25.38-1.76.61-.92,1.07-1.21,1-.44,1.62-.44,1.13.15,1.55.45c.42.3.74.71.95,1.22.22.52.32,1.1.32,1.75s-.11,1.23-.33,1.75c-.22.52-.54.92-.97,1.22-.43.3-.97.45-1.61.45Zm.26-1.45c.36,0,.65-.08.87-.25.22-.16.38-.39.47-.69s.14-.64.14-1.03-.05-.74-.14-1.03c-.1-.3-.25-.53-.46-.69s-.49-.25-.83-.25c-.36,0-.66.09-.9.27-.23.18-.41.42-.52.71-.11.3-.17.63-.17.99s.05.7.16.99c.11.3.27.54.5.71.22.18.51.26.86.26Zm1.49,1.27v-4.44h-.2v-4.2h1.64v8.64h-1.44Z"/><path class="cls-2" d="m74.81,33.16v-6.48h1.44v1.58l-.16-.2c.08-.22.2-.43.34-.61s.31-.34.52-.46c.16-.1.33-.17.51-.22.18-.05.37-.09.57-.1.2-.01.39,0,.59.01v1.52c-.18-.06-.39-.08-.63-.06-.24.02-.45.07-.64.17-.19.09-.35.21-.49.35-.13.15-.23.32-.3.52-.07.2-.1.42-.1.67v3.31h-1.64Z"/><path class="cls-2" d="m82.65,33.34c-.66,0-1.25-.14-1.75-.43s-.9-.68-1.19-1.18-.43-1.08-.43-1.73c0-.71.14-1.32.42-1.85.28-.52.67-.93,1.16-1.22.49-.29,1.06-.44,1.7-.44.68,0,1.26.16,1.73.48.48.32.83.77,1.06,1.35.23.58.31,1.26.24,2.05h-1.61v-.6c0-.66-.1-1.13-.31-1.42s-.55-.44-1.03-.44c-.56,0-.96.17-1.23.51-.26.34-.39.84-.39,1.5,0,.6.13,1.07.39,1.4.26.33.65.5,1.16.5.32,0,.59-.07.82-.21.23-.14.4-.34.52-.61l1.63.47c-.24.59-.63,1.05-1.16,1.38-.53.33-1.1.49-1.73.49Zm-2.15-2.96v-1.21h4.3v1.21h-4.3Z"/><path class="cls-2" d="m89.47,33.34c-.82,0-1.48-.18-1.98-.55s-.81-.89-.91-1.57l1.67-.25c.07.3.22.54.45.71.23.17.53.26.89.26.3,0,.52-.06.68-.17.16-.11.24-.27.24-.48,0-.13-.03-.23-.1-.31-.06-.08-.21-.16-.43-.23-.22-.08-.57-.18-1.03-.3-.53-.14-.95-.29-1.27-.46-.32-.17-.54-.37-.68-.6-.14-.23-.21-.52-.21-.85,0-.42.11-.78.32-1.08s.51-.54.9-.71.84-.25,1.37-.25.96.08,1.35.23.71.38.95.67.39.63.45,1.02l-1.67.3c-.03-.24-.13-.43-.31-.57-.18-.14-.42-.22-.73-.25-.3-.02-.54.02-.72.12-.18.1-.27.24-.27.43,0,.11.04.21.12.28.08.08.24.15.49.23.25.08.62.18,1.12.31.49.13.89.28,1.18.45.3.17.52.37.65.61.14.24.2.53.2.86,0,.66-.24,1.19-.72,1.57-.48.38-1.14.57-1.99.57Z"/><path class="cls-2" d="m96.03,33.34c-.82,0-1.48-.18-1.98-.55s-.81-.89-.91-1.57l1.67-.25c.07.3.22.54.45.71.23.17.53.26.89.26.3,0,.52-.06.68-.17.16-.11.24-.27.24-.48,0-.13-.03-.23-.1-.31-.06-.08-.21-.16-.43-.23-.22-.08-.57-.18-1.03-.3-.53-.14-.95-.29-1.27-.46-.32-.17-.54-.37-.68-.6-.14-.23-.21-.52-.21-.85,0-.42.11-.78.32-1.08s.51-.54.9-.71.84-.25,1.37-.25.96.08,1.35.23.71.38.95.67.39.63.45,1.02l-1.67.3c-.03-.24-.13-.43-.31-.57-.18-.14-.42-.22-.73-.25-.3-.02-.54.02-.72.12-.18.1-.27.24-.27.43,0,.11.04.21.12.28.08.08.24.15.49.23.25.08.62.18,1.12.31.49.13.89.28,1.18.45.3.17.52.37.65.61.14.24.2.53.2.86,0,.66-.24,1.19-.72,1.57-.48.38-1.14.57-1.99.57Z"/></svg>