<svg xmlns="http://www.w3.org/2000/svg" fill="none" viewBox="0 0 150 100"><g clip-path="url(#a)"><path stroke="#AAA" stroke-linecap="round" stroke-linejoin="bevel" stroke-width="4" d="M72.7 41.89h15.98m-35.68 0h12.14m15.92 7.44h14.23m-42.29 0h20.73M53 60.76h32.14M53 68.2h30.73M53 75.63h21.73"/><path fill="#AAA" d="M51.03 31.64 53.67 23h2.44l2.64 8.64h-1.68l-2.35-7.62h.31l-2.32 7.62zm1.58-1.8v-1.52h4.56v1.52h-4.55zm9.85 1.98c-.6 0-1.12-.15-1.57-.45s-.8-.71-1.05-1.22c-.25-.52-.38-1.1-.38-1.75s.13-1.25.38-1.76.61-.92 1.07-1.21c.46-.3 1-.44 1.62-.44s1.13.15 1.55.45.74.71.95 1.22c.22.52.32 1.1.32 1.75s-.11 1.23-.33 1.75-.54.92-.97 1.22-.97.45-1.61.45zm.26-1.45c.36 0 .65-.08.87-.25.22-.16.38-.39.47-.69s.14-.64.14-1.03-.05-.74-.14-1.03c-.1-.3-.25-.53-.46-.69s-.49-.25-.83-.25q-.54 0-.9.27c-.23.18-.41.42-.52.71-.11.3-.17.63-.17.99s.05.7.16.99c.11.3.27.54.5.71.22.18.51.26.86.26zm1.49 1.27V27.2h-.2V23h1.64v8.64zm5.75.18c-.6 0-1.12-.15-1.57-.45s-.8-.71-1.05-1.22c-.25-.52-.38-1.1-.38-1.75s.13-1.25.38-1.76.61-.92 1.07-1.21c.46-.3 1-.44 1.62-.44s1.13.15 1.55.45.74.71.95 1.22c.22.52.32 1.1.32 1.75s-.11 1.23-.33 1.75-.54.92-.97 1.22-.97.45-1.61.45zm.26-1.45c.36 0 .65-.08.87-.25.22-.16.38-.39.47-.69s.14-.64.14-1.03-.05-.74-.14-1.03c-.1-.3-.25-.53-.46-.69s-.49-.25-.83-.25q-.54 0-.9.27c-.23.18-.41.42-.52.71-.11.3-.17.63-.17.99s.05.7.16.99c.11.3.27.54.5.71.22.18.51.26.86.26zm1.49 1.27V27.2h-.2V23h1.64v8.64zm3.12 0v-6.48h1.44v1.58l-.16-.2c.08-.22.2-.43.34-.61s.31-.34.52-.46c.16-.1.33-.17.51-.22s.37-.09.57-.1.39 0 .59.01v1.52q-.27-.09-.63-.06c-.24.02-.45.07-.64.17-.19.09-.35.21-.49.35-.13.15-.23.32-.3.52s-.1.42-.1.67v3.31h-1.64zm7.84.18c-.66 0-1.25-.14-1.75-.43s-.9-.68-1.19-1.18-.43-1.08-.43-1.73c0-.71.14-1.32.42-1.85.28-.52.67-.93 1.16-1.22s1.06-.44 1.7-.44c.68 0 1.26.16 1.73.48.48.32.83.77 1.06 1.35s.31 1.26.24 2.05H84v-.6c0-.66-.1-1.13-.31-1.42s-.55-.44-1.03-.44c-.56 0-.96.17-1.23.51q-.39.51-.39 1.5c0 .6.13 1.07.39 1.4s.65.5 1.16.5c.32 0 .59-.07.82-.21s.4-.34.52-.61l1.63.47c-.24.59-.63 1.05-1.16 1.38s-1.1.49-1.73.49m-2.15-2.96v-1.21h4.3v1.21zm8.96 2.96c-.82 0-1.48-.18-1.98-.55s-.81-.89-.91-1.57l1.67-.25c.07.3.22.54.45.71s.53.26.89.26c.3 0 .52-.06.68-.17q.24-.165.24-.48c0-.13-.03-.23-.1-.31-.06-.08-.21-.16-.43-.23-.22-.08-.57-.18-1.03-.3-.53-.14-.95-.29-1.27-.46s-.54-.37-.68-.6-.21-.52-.21-.85c0-.42.11-.78.32-1.08s.51-.54.9-.71.84-.25 1.37-.25.96.08 1.35.23.71.38.95.67q.36.435.45 1.02l-1.67.3a.82.82 0 0 0-.31-.57c-.18-.14-.42-.22-.73-.25q-.45-.03-.72.12c-.18.1-.27.24-.27.43 0 .11.04.21.12.28.08.08.24.15.49.23s.62.18 1.12.31c.49.13.89.28 1.18.45.3.17.52.37.65.61.14.24.2.53.2.86 0 .66-.24 1.19-.72 1.57s-1.14.57-1.99.57zm6.57 0c-.82 0-1.48-.18-1.98-.55s-.81-.89-.91-1.57l1.67-.25c.07.3.22.54.45.71s.53.26.89.26c.3 0 .52-.06.68-.17q.24-.165.24-.48c0-.13-.03-.23-.1-.31-.06-.08-.21-.16-.43-.23-.22-.08-.57-.18-1.03-.3-.53-.14-.95-.29-1.27-.46s-.54-.37-.68-.6-.21-.52-.21-.85c0-.42.11-.78.32-1.08s.51-.54.9-.71.84-.25 1.37-.25.96.08 1.35.23.71.38.95.67q.36.435.45 1.02l-1.67.3a.82.82 0 0 0-.31-.57c-.18-.14-.42-.22-.73-.25q-.45-.03-.72.12c-.18.1-.27.24-.27.43 0 .11.04.21.12.28.08.08.24.15.49.23s.62.18 1.12.31c.49.13.89.28 1.18.45.3.17.52.37.65.61.14.24.2.53.2.86 0 .66-.24 1.19-.72 1.57s-1.14.57-1.99.57z"/></g><defs><clipPath id="a"><path fill="#fff" d="M51 23h47.76v54.63H51z"/></clipPath></defs></svg>