<svg xmlns="http://www.w3.org/2000/svg" fill="none" viewBox="0 0 150 100"><rect width="113" height="81" x="19" y="10" fill="#AAA" fill-opacity=".5" opacity=".25" rx="2"/><path fill="#AAA" d="M55 10h41v10a2 2 0 0 1-2 2H57a2 2 0 0 1-2-2z" opacity=".35"/><path stroke="#AAA" stroke-linecap="round" stroke-linejoin="bevel" stroke-width="4" d="M70 16h20"/><path fill="#AAA" d="M62 19a3 3 0 1 0 0-6 3 3 0 0 0 0 6"/><g fill="#AAA"><path d="M89.518 50.895c0 .476-.075.915-.223 1.318a2.912 2.912 0 0 1-.645 1.037 2.88 2.88 0 0 1-1.007.668c-.391.152-.83.229-1.319.229a3.46 3.46 0 0 1-1.306-.235 2.95 2.95 0 0 1-1.008-.668 2.992 2.992 0 0 1-.645-1.031 3.842 3.842 0 0 1-.217-1.319c0-.484.075-.927.223-1.33.148-.402.361-.746.639-1.03a2.781 2.781 0 0 1 1.008-.657c.394-.156.83-.234 1.306-.234.485 0 .924.078 1.319.234.394.156.732.379 1.013.668.281.289.494.633.639 1.031.148.399.223.838.223 1.319m-1.606 0c0-.653-.144-1.16-.434-1.524-.285-.363-.67-.545-1.154-.545-.312 0-.588.082-.826.246-.238.16-.422.399-.55.715a2.922 2.922 0 0 0-.194 1.108c0 .417.062.783.187 1.095.13.313.311.553.545.72.239.165.518.247.838.247.485 0 .87-.182 1.154-.545.29-.367.434-.873.434-1.517M82.217 48.815v4.646c0 .531-.057.988-.17 1.371-.113.383-.295.7-.545.95-.25.25-.578.435-.984.556-.403.121-.905.181-1.506.181-.551 0-1.043-.078-1.477-.234-.433-.152-.767-.351-1.002-.597-.234-.243-.351-.493-.351-.75a.63.63 0 0 1 .199-.481.688.688 0 0 1 .48-.182c.235 0 .44.104.616.31.085.106.173.212.263.317.094.11.196.201.305.276.113.078.248.135.404.17.157.039.336.058.54.058.413 0 .734-.058.96-.175a.959.959 0 0 0 .48-.481 1.91 1.91 0 0 0 .165-.668c.015-.234.027-.613.035-1.137a2.616 2.616 0 0 1-.856.785c-.32.18-.703.27-1.148.27-.535 0-1.004-.137-1.406-.41-.399-.274-.705-.656-.92-1.149-.215-.492-.322-1.06-.322-1.705 0-.48.064-.914.193-1.3.133-.387.32-.713.562-.979.243-.266.522-.465.838-.598a2.602 2.602 0 0 1 1.043-.205c.453 0 .846.088 1.178.264.332.172.64.443.926.814v-.216c0-.278.068-.493.205-.645a.676.676 0 0 1 .527-.228c.309 0 .514.101.615.304.102.2.153.488.153.867m-4.635 2.027c0 .648.14 1.139.422 1.47.285.333.652.498 1.102.498.265 0 .515-.07.75-.21.238-.145.431-.36.58-.645.148-.289.222-.639.222-1.049 0-.652-.144-1.16-.433-1.523a1.367 1.367 0 0 0-1.131-.545c-.457 0-.825.174-1.102.521-.273.348-.41.842-.41 1.483M75.068 50.895c0 .476-.074.915-.222 1.318a2.912 2.912 0 0 1-.645 1.037 2.88 2.88 0 0 1-1.008.668c-.39.152-.83.229-1.318.229a3.46 3.46 0 0 1-1.307-.235 2.951 2.951 0 0 1-1.007-.668 2.994 2.994 0 0 1-.645-1.031 3.842 3.842 0 0 1-.217-1.319c0-.484.074-.927.223-1.33.148-.402.361-.746.639-1.03a2.782 2.782 0 0 1 1.007-.657c.395-.156.83-.234 1.307-.234.484 0 .924.078 1.318.234.395.156.733.379 1.014.668.281.289.494.633.639 1.031.148.399.222.838.222 1.319m-1.605 0c0-.653-.145-1.16-.434-1.524-.285-.363-.67-.545-1.154-.545-.312 0-.588.082-.826.246-.239.16-.422.399-.551.715a2.922 2.922 0 0 0-.193 1.108c0 .417.062.783.187 1.095.13.313.31.553.545.72.238.165.518.247.838.247.484 0 .87-.182 1.154-.545.29-.367.434-.873.434-1.517M63.643 46.318v6.252h3.527c.281 0 .496.069.644.205a.664.664 0 0 1 .229.516.66.66 0 0 1-.223.516c-.148.128-.365.193-.65.193h-4.201c-.38 0-.653-.084-.82-.252-.165-.168-.247-.44-.247-.814v-6.616c0-.351.078-.615.235-.79a.809.809 0 0 1 .627-.264c.261 0 .472.088.633.263.163.172.246.436.246.791"/></g></svg>