<svg xmlns="http://www.w3.org/2000/svg" fill="none" viewBox="0 0 150 100"><rect width="113" height="81" x="19" y="10" fill="#AAA" fill-opacity=".5" opacity=".25" rx="2"/><path fill="#AAA" d="M55 10h41v10a2 2 0 0 1-2 2H57a2 2 0 0 1-2-2z" opacity=".35"/><path stroke="#AAA" stroke-linecap="round" stroke-linejoin="bevel" stroke-width="4" d="M70 16h20"/><path fill="#AAA" d="M62 19a3 3 0 1 0 0-6 3 3 0 0 0 0 6m27.518 31.895q0 .714-.223 1.318a2.9 2.9 0 0 1-.645 1.037 2.9 2.9 0 0 1-1.007.668q-.586.228-1.319.229a3.5 3.5 0 0 1-1.306-.235 2.95 2.95 0 0 1-1.008-.668 3 3 0 0 1-.645-1.031 3.8 3.8 0 0 1-.217-1.319q0-.726.223-1.33.222-.603.639-1.03a2.8 2.8 0 0 1 1.008-.657 3.5 3.5 0 0 1 1.306-.234q.727 0 1.319.234.591.234 1.013.668t.639 1.031q.222.598.223 1.319m-1.606 0q0-.979-.434-1.524-.428-.545-1.154-.545-.468 0-.826.246-.358.24-.55.715a2.9 2.9 0 0 0-.194 1.108q0 .626.187 1.095.194.47.545.72.358.247.838.247.728 0 1.154-.545.434-.55.434-1.517m-5.695-2.08v4.646q0 .797-.17 1.371-.17.575-.545.95t-.984.556q-.605.181-1.506.181a4.4 4.4 0 0 1-1.477-.234q-.65-.228-1.002-.597-.351-.365-.351-.75a.63.63 0 0 1 .199-.481.7.7 0 0 1 .48-.182q.352 0 .616.31.128.16.263.317.141.164.305.276.17.117.404.17.235.058.54.058.62 0 .96-.175a.96.96 0 0 0 .48-.481 1.9 1.9 0 0 0 .165-.668q.023-.351.035-1.137a2.6 2.6 0 0 1-.856.785q-.48.27-1.148.27-.803 0-1.406-.41-.598-.41-.92-1.149-.322-.738-.322-1.705 0-.72.193-1.3a2.8 2.8 0 0 1 .562-.979q.364-.399.838-.598a2.6 2.6 0 0 1 1.043-.205q.68 0 1.178.264.497.258.926.814v-.216q0-.417.205-.645a.68.68 0 0 1 .527-.228q.463 0 .615.304.153.3.153.867m-4.635 2.027q0 .973.422 1.47.427.499 1.102.498.397 0 .75-.21.357-.218.58-.645.222-.434.222-1.049 0-.978-.433-1.523a1.37 1.37 0 0 0-1.131-.545q-.686 0-1.102.521-.41.522-.41 1.483m-2.514.054q0 .714-.222 1.318a2.9 2.9 0 0 1-.645 1.037 2.9 2.9 0 0 1-1.008.668q-.585.228-1.318.229a3.5 3.5 0 0 1-1.307-.235 2.95 2.95 0 0 1-1.007-.668 3 3 0 0 1-.645-1.031 3.8 3.8 0 0 1-.217-1.319q0-.726.223-1.33.222-.604.639-1.03a2.8 2.8 0 0 1 1.007-.657q.592-.234 1.307-.234.726 0 1.318.234a2.9 2.9 0 0 1 1.014.668q.422.434.639 1.031.222.598.222 1.319m-1.605 0q0-.979-.434-1.524-.428-.545-1.154-.545-.469 0-.826.246-.358.24-.551.715a2.9 2.9 0 0 0-.193 1.108q0 .626.187 1.095.194.47.545.72.358.247.838.247.727 0 1.154-.545.434-.55.434-1.517m-9.82-4.577v6.252h3.527q.422 0 .644.205a.66.66 0 0 1 .229.516.66.66 0 0 1-.223.516q-.222.192-.65.193h-4.201q-.57 0-.82-.252-.247-.252-.247-.814v-6.616q0-.527.235-.79a.8.8 0 0 1 .627-.264.82.82 0 0 1 .633.263q.245.258.246.791"/></svg>