<svg class="path" viewBox="0 0 300 300" fill="none" xmlns="http://www.w3.org/2000/svg">
<style type="text/css">
	.path {
		stroke-dasharray: 600;
		animation: dash 5s 1 linear;
		animation-fill-mode: forwards;
		animation-iteration-count: 2;
	}
	@keyframes dash {
		from{
		stroke-dashoffset: 600;
		opacity: 0.5;
		}
		to {
		stroke-dashoffset: 0;
		opacity: 1;
		}
	}
</style>
<path d="M56.0714 162.749C47.1259 147.669 43.9931 129.842 47.2613 112.615C50.5295 95.389 59.9738 79.9482 73.8209 69.1925C87.668 58.4367 104.965 53.1059 122.465 54.201C139.964 55.296 156.462 62.7417 168.86 75.1398C181.258 87.5379 188.704 104.036 189.799 121.535C190.894 139.034 185.563 156.332 174.808 170.179C164.052 184.026 148.611 193.47 131.385 196.739C114.159 200.007 96.3317 196.874 81.2517 187.929L56.3844 195.033C55.3556 195.327 54.2669 195.34 53.2311 195.072C52.1953 194.804 51.2501 194.263 50.4935 193.507C49.7369 192.75 49.1963 191.805 48.9279 190.769C48.6595 189.733 48.673 188.644 48.967 187.616L56.0714 162.749Z" stroke="white" stroke-width="15" stroke-linecap="round" stroke-linejoin="round"/>
<path d="M114.059 197.892C117.598 207.94 123.322 217.078 130.818 224.648C138.314 232.218 147.395 238.031 157.408 241.669C167.421 245.307 178.116 246.679 188.723 245.687C199.33 244.694 209.584 241.361 218.748 235.929L243.615 243.033C244.644 243.327 245.733 243.34 246.769 243.072C247.805 242.804 248.75 242.263 249.506 241.507C250.263 240.75 250.804 239.805 251.072 238.769C251.34 237.733 251.327 236.644 251.033 235.616L243.928 210.748C250.241 200.102 253.704 188.008 253.982 175.634C254.26 163.26 251.344 151.022 245.515 140.103C239.687 129.184 231.143 119.951 220.707 113.295C210.271 106.64 198.297 102.786 185.938 102.106" stroke="white" stroke-width="15" stroke-linecap="round" stroke-linejoin="round"/>
</svg>
