<svg xmlns="http://www.w3.org/2000/svg" xml:space="preserve" id="Ebene_1" x="0" y="0" style="stroke-dasharray:500;animation:dash 9s 1 linear;animation-fill-mode:forwards;animation-iteration-count:3" version="1.1" viewBox="0 0 200 160"><style>@keyframes dash{0%{stroke-dashoffset:500;fill:transparent;opacity:.1}to{stroke-dashoffset:0;fill:transparent;opacity:1}}.st1{stroke-linecap:round}.st1,.st2{fill:none;stroke:#fff;stroke-width:1.2;stroke-miterlimit:10;stroke-dasharray:500}.st3{fill:#fff}.st4{fill:#none;stroke:#fff;stroke-width:1.2;stroke-miterlimit:10;stroke-dasharray:500}</style><path d="m75.5 76.5 7.2 17.9M78 56.3s-2.5.8-3.7 2.4-1.2 4.7-1.2 4.7M90.6 113s1.6 1.7 4 1.7 34.5-9.5 34.5-9.5m5.5-16.6c.5-.1-6.7-23.9-6.7-23.9m-5.2-14.8c-.2-.5-.7-3.7-3.1-3.5-2.4.1-9.3.4-9.3.4" style="fill:none;stroke:#ccc;stroke-width:1.2;stroke-miterlimit:10;stroke-dasharray:500"/><path d="M134.4 89.2s12.2 3.1 16.1-1.4c4-4.5-6.4-8.1-3.8-14.9s9.9-5.9 14.8-5.3" class="st1"/><path d="M164.4 70.7c-1.6-.2-3.4-1.6-3.2-3s2.3-2.2 3.9-2zm1.2-3.8 2.6.3m-3 2.4 2.6.4" class="st1"/><path d="M133.4 36.1c1-.7 2.1-4.3 4.1-7.2 2.4-3.6 7.2-7.1 9.5-7.1 2.4 0 4.8 1.2 3.6 3.6s-4.8 3.6-6 4.8 1.2 1.2 1.2 1.2 3.6-2.4 8.3-3.6c4.8-1.2 6 0 6 1.2s0 3.6-3.6 4.8-4.8 2.4-4.8 2.4v1.2s3.6-1.2 5.9-1.2c2.4 0 6.3.6 4.8 3.6-1.2 2.4-3.6 2.4-6 2.4h-4.8s0 2.4-2.4 4.8-3.6 2.4-3.6 2.4 1.2 1.2 0 2.4-1.2 2.4-1.2 2.4-3.6 1.2-7.2 0-4.8-3.6-5.9-4.8c-.6-.6-.9-1.5-1-2.2-.2-.7-.2-1.3-.2-1.3s1.2-1.2 1.2-2.4c0-.3-.1-.5-.3-.5h-.3c-.6 0-1.6.1-3-.6-2.4-1.2-3.6-4.8-1.2-6s4.8-1.2 6 0c.4-.1.7-.1.9-.3zm17.2 92.9c2.4 1.2 2.4 5.9 1.2 8.3s-6 6-9.5 6c-3.6 0-8.5-3.4-11.9-6-4.8-3.6-8.3-11.9-6-15.5 1.8-2.7 4.9-3.3 6.4-3.5-.2.4-.4 1-.4 2.1 0 2.7 1.3 4.1 5.4 5.4s4 1.4 6.7 1.4 2.8-1.4 2.8-1.4l.6-.4c-.1 0 2.3 2.4 4.7 3.6z" class="st2"/><path d="M86.5 93.1c3.4-.5 7.3.1 8.2.1 1.2 0 4.8-3.6 11.9-6s21.4-2.4 21.4-2.4 2.7 1.8 6.6 3.9l1.8.9c4.8 2.4 9.5 7.1 11.9 10.7s2.4 9.5 2.4 14.3-4.8 10.7-4.8 10.7l-.6.4s-.1 1.4-2.8 1.4-2.7 0-6.7-1.4-5.4-2.7-5.4-5.4c0-1 .2-1.7.4-2.1.5-.1.8-.1.8-.1s.7-.8 1.2-2.4c1.2-3.6-.1-3.8-1.2-7.1-.6-1.8-1.2-3-2.1-4-.9-1.1-2.1-1.9-3.9-3.1-3.6-2.4-7.2-1.2-7.2-1.2s-2.4 1.2-7.1 2.4c-4.8 1.2-7.2 1.2-7.2 1.2s-3.6 2.4-8.3 4.8c-3.8 1.9-4.6 1.5-5.3 4.2-.2.7-.4 1.7-.7 2.9-1.2 6 1.2 11.9 1.2 11.9s-3.6-1.2-6-2.4-3.6-2.4-6-4.8c-1.2-1.2-1.2-4.8-3.6-7.2s-4.8-2.4-4.8-2.4 1.2-3.6 2.4-7.1c1.2-3.6 6-7.2 9.5-9.5 1.2-.6 2.6-1 4-1.2z" class="st2"/><path d="M92.2 129s2.4 5.9-.5 8.9l-.8.8c1.3-1.5 2.3-4.1-2.3-5-5.9-1.2-13.1-8.3-13.1-8.3s-3.6-4.8-7.2-7.1c-3.6-2.4-7.1 0-9.5 3.6-.7 1.1-.7 2.6-.1 4.4-.7-1.3-1.1-2.5-1.1-3.2 0-2.4 1.2-6 4.8-9.5 3.6-3.6 8.3-2.4 8.3-2.4s2.4 0 4.8 2.4 2.4 6 3.6 7.2c2.4 2.4 3.6 3.6 6 4.8s6 2.4 6 2.4z" class="st2"/><path d="M88.6 133.7c4.6.9 3.6 3.5 2.3 5-2.8 2.5-7 3.9-11.8 3.4-3.5-.4-6.5-1.3-9.2-2.9-.6-.4-1.1-.7-1.7-1.1-.1-.1-.2-.1-.2-.2-.7-.5-1.3-1.1-1.9-1.7-2.6-2.6-5.6-6.8-7.2-9.9-.6-1.8-.6-3.3.1-4.4 2.4-3.6 6-6 9.5-3.6 3.6 2.4 7.2 7.1 7.2 7.1s7 7.1 12.9 8.3zM67.2 43.2c4.8 3.6-4.2 6.5-5.9 8.3-.9.9-1.2 3.1-1.2 4.8 0 1.2 3.6 2.4 3.6 2.4v2.4c0 1.2-1.5 3.9-2.4 4.8-1.2 1.2-2.2 2.4-7.2 2.4h-3.6L49.3 67v-2.4s-1.2-1.2-2.4-1.2-2.4-2.4-2.4-2.4-3.3 1.6-4.8 2.4c-2.6 1.3-5.4-.9-6-2.4-.6-1.6 1.2-4.8 3.6-4.8s6-1.2 6-1.2l-1.2-1.2c-1.2-1.2-3.5-2.2-4.8-2.4-1.5-.2-4.8 0-3.6-4.8 1.3-4.6 7.3-1 7.3-1l5.9 3.6 1.2-1.2s-.7-1.9-1.2-2.4C45.5 44 41 42 44.6 37.2s7.1 3.6 7.1 3.6l3.6 5.9 2.4 1.2c0 .1 4.7-8.3 9.5-4.7z" class="st2"/><path d="M73.2 63.4h3.6c2.4 0 3.6-1.2 3.6-1.2l2.4-2.4 1.2-1.2c1.2-1.2 3.6-3.6 10.7-6 7.2-2.4 11.9-2.4 14.3-2.4h3.6s3.9.8 4.8 0c1.2-1.2 3.6 1.2 3.6 1.2s1-.3 2.1-.6c1-.3 2.1-.5 2.6-.5 1.2 0 2.4-2.4 2.4-3.6s2.4-1.2 2.4-1.2 0 .6.2 1.3c.1.8.4 1.6 1 2.2 1.2 1.2 2.4 3.6 5.9 4.8 3.6 1.2 7.2 0 7.2 0V55s-1.4 3.1-4.8 4.8c-2.4 1.2-7.1 4.8-11.9 4.8H121V67c0 2.4 3.6 8.3 4.8 10.7s2.4 2.4 2.4 3.6v3.6s-14.3 0-21.4 2.4-10.7 6-11.9 6c-.8 0-4.7-.6-8.2-.1.3-.8.8-2.8-.2-5.4-1.5-3.7-4.4-3.7-4.4-6.2s-1.5-6.2-1.5-6.2l-.5-.4c-1.1.6-2.6 1.1-4.6 1.4-.7.1-1.5.1-2.4.1-7.1 0-9.5 0-13.1-1.2s-9.5-4.8-9.5-5.9v-1.2h3.6c4.9 0 6-1.2 7.2-2.4.8-.8 2.4-3.6 2.4-4.8l.7-.8s.5-.4 1.7.8 2.4 2.4 4.8 2.4z" class="st2"/><path d="M146.8 99.2s-3.4-1.2-7 0-3.6 2.4-3.6 2.4m-61.8.6s2.4-.6 4.8 1.8l1.2 1.2m68.8 14.2s-1 1.2-5.8 1.2-7.1-1.2-7.1-1.2m-63.1-56s1.2 2.4 0 4.8L72 70.6m48.8-18.5v3c0 2.4 1.2 3.6 1.2 3.6" class="st1"/><path d="M130.9 42.6s1.2 0 2.4 1.2 1.2 2.4 2.4 2.4m-3-10.2s2 0 3 1.8" class="st2"/><path d="M90.8 110.8c-2.4-3.6-3.4-3.2-3.4-3.2" class="st1"/><path d="M109.9 49.8c.9-2.2 1.4-3.6 1.4-6.1 0-10.2-8.5-18.5-19-18.5s-19 8.3-19 18.5c0 6.9 3.8 12.8 9.5 16 0 0 5.5-5.5 11.5-7.5s15.6-2.4 15.6-2.4z" class="st2"/><path d="M106.2 49.2c.7-1.7 1.1-3.6 1.1-5.5 0-8-6.7-14.5-15-14.5s-15 6.5-15 14.5c0 5.4 3 10 7.5 12.5 0 0 4.8-3.4 9.5-5 4.8-1.5 11.9-2 11.9-2z" class="st2"/><path d="M94.4 45.8c.3 0 .9-.4.9-.6 0-.9-1-1.6-2.2-1.6s-2.4.9-3 1.5c-.7.7-.7 2 0 2.2 0-.1 1.9-1.9 4.3-1.5" class="st3"/><path d="M116 73.8c0 1.2 1.2 3.6 0 4.8s-21.4 7.2-21.4 7.2-2.4 0-3.6-1.2-3.6-10.7-3.6-10.7-1.2-6-1.2-7.2 11.9-4.8 11.9-4.8 9.5-2.4 10.7-2.4 1.2 0 2.4 1.2 4.8 11.9 4.8 13.1z" class="st2"/><circle cx="33.8" cy="106.8" r="2" class="st2"/><circle cx="109.8" cy="122.8" r="2" class="st2"/><circle cx="45.8" cy="111.8" r="5.5" class="st2"/><circle cx="52.8" cy="99.8" r="2" class="st2"/><circle cx="104.8" cy="18.8" r="2" class="st4"/><circle cx="119.8" cy="19.8" r="2" class="st4"/><circle cx="102.8" cy="130.8" r="2" class="st2"/><circle cx="84.7" cy="40.8" r="1.4" class="st3"/><circle cx="96.6" cy="37.7" r="1.4" class="st3"/></svg>