<svg viewBox="0 0 150 100" fill="none" xmlns="http://www.w3.org/2000/svg">
<g id="label">
<g id="Ebene_1" clip-path="url(#clip0_6_516)">
<path id="Vector" d="M57.88 50.56H92.67" stroke="#AAAAAA" stroke-width="5.63" stroke-linecap="round" stroke-linejoin="bevel"/>
<path id="Vector_2" d="M56.88 59.07H83.01" stroke="#AAAAAA" stroke-width="3.75" stroke-linecap="round" stroke-linejoin="bevel"/>
<path id="Vector_3" d="M56.88 65.89H77.6" stroke="#AAAAAA" stroke-width="3.75" stroke-linecap="round" stroke-linejoin="bevel"/>
<path id="Vector_4" d="M56.84 41.82V33.18H58.47V40.3H62.19V41.82H56.84Z" fill="#AAAAAA"/>
<path id="Vector_5" d="M65.01 42C64.55 42 64.15 41.91 63.83 41.73C63.51 41.55 63.26 41.31 63.1 41.02C62.94 40.73 62.85 40.39 62.85 40.03C62.85 39.73 62.9 39.46 62.99 39.21C63.08 38.96 63.23 38.74 63.44 38.55C63.65 38.36 63.92 38.2 64.27 38.07C64.51 37.98 64.8 37.9 65.13 37.84C65.46 37.77 65.84 37.71 66.26 37.64C66.68 37.58 67.14 37.51 67.65 37.43L67.06 37.75C67.06 37.37 66.97 37.08 66.78 36.9C66.6 36.72 66.29 36.63 65.86 36.63C65.62 36.63 65.37 36.69 65.11 36.8C64.85 36.92 64.67 37.12 64.56 37.42L63.08 36.95C63.24 36.41 63.55 35.98 64 35.64C64.45 35.3 65.07 35.14 65.85 35.14C66.42 35.14 66.93 35.23 67.37 35.4C67.81 35.58 68.15 35.88 68.38 36.31C68.51 36.55 68.58 36.79 68.61 37.03C68.63 37.27 68.65 37.54 68.65 37.83V41.79H67.22V40.46L67.42 40.74C67.1 41.18 66.76 41.49 66.4 41.68C66.03 41.87 65.57 41.97 65.01 41.97V42ZM65.36 40.72C65.66 40.72 65.91 40.67 66.12 40.56C66.33 40.45 66.49 40.33 66.61 40.2C66.73 40.07 66.82 39.95 66.86 39.86C66.94 39.68 66.99 39.48 67.01 39.24C67.02 39.01 67.03 38.81 67.03 38.66L67.51 38.78C67.03 38.86 66.63 38.93 66.33 38.98C66.03 39.03 65.79 39.08 65.6 39.13C65.42 39.17 65.25 39.22 65.11 39.27C64.95 39.33 64.82 39.4 64.72 39.48C64.62 39.55 64.55 39.63 64.5 39.72C64.45 39.81 64.43 39.91 64.43 40.01C64.43 40.16 64.47 40.28 64.54 40.39C64.61 40.5 64.72 40.58 64.86 40.63C65 40.69 65.16 40.71 65.35 40.71L65.36 40.72Z" fill="#AAAAAA"/>
<path id="Vector_6" d="M70.19 41.82V33.18H71.83V37.38H71.63V41.82H70.19ZM73.38 42C72.74 42 72.2 41.85 71.77 41.55C71.34 41.25 71.01 40.84 70.79 40.33C70.57 39.81 70.46 39.23 70.46 38.58C70.46 37.93 70.57 37.35 70.78 36.83C71 36.31 71.31 35.91 71.73 35.61C72.15 35.31 72.67 35.16 73.28 35.16C73.89 35.16 74.44 35.31 74.9 35.6C75.36 35.89 75.72 36.3 75.97 36.81C76.22 37.32 76.35 37.91 76.35 38.57C76.35 39.23 76.23 39.8 75.97 40.32C75.72 40.84 75.37 41.24 74.92 41.54C74.47 41.84 73.95 41.99 73.35 41.99L73.38 42ZM73.12 40.55C73.47 40.55 73.76 40.46 73.98 40.29C74.2 40.11 74.37 39.88 74.48 39.58C74.59 39.28 74.64 38.95 74.64 38.59C74.64 38.23 74.58 37.9 74.47 37.6C74.36 37.3 74.18 37.06 73.95 36.89C73.72 36.71 73.42 36.62 73.05 36.62C72.71 36.62 72.43 36.7 72.22 36.87C72.01 37.04 71.86 37.26 71.76 37.56C71.66 37.86 71.62 38.2 71.62 38.59C71.62 38.98 71.67 39.33 71.76 39.62C71.85 39.91 72.01 40.15 72.23 40.31C72.45 40.47 72.74 40.56 73.1 40.56L73.12 40.55Z" fill="#AAAAAA"/>
<path id="Vector_7" d="M80.7 42C80.04 42 79.45 41.86 78.95 41.57C78.45 41.28 78.05 40.89 77.76 40.39C77.47 39.89 77.33 39.31 77.33 38.66C77.33 37.95 77.47 37.34 77.75 36.81C78.03 36.29 78.42 35.88 78.91 35.59C79.4 35.3 79.97 35.15 80.61 35.15C81.29 35.15 81.87 35.31 82.34 35.63C82.82 35.95 83.17 36.4 83.4 36.98C83.63 37.56 83.71 38.24 83.64 39.03H82.03V38.43C82.03 37.77 81.93 37.3 81.72 37.01C81.51 36.72 81.17 36.57 80.69 36.57C80.13 36.57 79.73 36.74 79.46 37.08C79.2 37.42 79.07 37.92 79.07 38.58C79.07 39.18 79.2 39.65 79.46 39.98C79.72 40.31 80.11 40.48 80.62 40.48C80.94 40.48 81.21 40.41 81.44 40.27C81.67 40.13 81.84 39.93 81.96 39.66L83.59 40.13C83.35 40.72 82.96 41.18 82.43 41.51C81.9 41.84 81.33 42 80.7 42ZM78.55 39.04V37.83H82.85V39.04H78.55Z" fill="#AAAAAA"/>
<path id="Vector_8" d="M85.11 41.82V33H86.74V41.82H85.11Z" fill="#AAAAAA"/>
</g>
</g>
<defs>
<clipPath id="clip0_6_516">
<rect width="40.49" height="34.77" fill="white" transform="translate(55 33)"/>
</clipPath>
</defs>
</svg>
