<svg xmlns="http://www.w3.org/2000/svg" fill="none" viewBox="0 0 150 100"><g clip-path="url(#a)"><path fill="#AAA" d="M132.69 25H17.95A3.95 3.95 0 0 0 14 28.95v42.7a3.95 3.95 0 0 0 3.95 3.95h114.74a3.95 3.95 0 0 0 3.95-3.95v-42.7a3.95 3.95 0 0 0-3.95-3.95" opacity=".75"/><g opacity=".75"><path fill="#fff" d="M77.02 48.41H14V34.23h63.02c.81 0 1.47.66 1.47 1.47v11.25c0 .81-.66 1.47-1.47 1.47z" opacity=".55"/></g><path stroke="#fff" stroke-linecap="round" stroke-linejoin="bevel" stroke-width="6" d="M21.85 41.32h48.79"/><g opacity=".75"><path fill="#fff" d="M53.02 66.37H14V52.19h39.02c.81 0 1.47.66 1.47 1.47v11.25c0 .81-.66 1.47-1.47 1.47z" opacity=".55"/></g><path stroke="#fff" stroke-linecap="round" stroke-linejoin="bevel" stroke-width="6" d="M21.85 59.28h24.79"/></g><defs><clipPath id="a"><path fill="#fff" d="M14 25h122.64v50.6H14z"/></clipPath></defs></svg>