<svg xmlns="http://www.w3.org/2000/svg" width="14" height="14" viewBox="0 0 170 170"><path d="M134.742 81.031q11.906 5.027 21.43 14.288 9.261 9.525 14.288 21.431 5.292 12.7 5.292 26.194t-5.292 26.194q-5.027 11.906-14.287 21.43-9.525 8.997-21.431 14.288-12.7 5.292-26.194 5.292t-26.194-5.292q-11.906-5.291-21.431-14.287-8.996-9.525-14.288-21.431-5.291-12.7-5.291-26.194t5.291-26.194q5.292-11.906 14.288-21.431 9.525-9.26 21.431-14.288 12.7-5.291 26.194-5.291t26.194 5.291m6.879 140.23q15.875-6.615 26.987-18.257 11.642-11.112 18.257-26.987 6.614-15.61 6.614-33.073t-6.614-33.073q-6.615-15.875-18.257-26.988-11.112-11.641-26.987-18.256-15.61-6.615-33.073-6.615t-33.073 6.615Q59.6 71.242 48.488 82.883 36.846 93.996 30.23 109.871q-6.614 15.61-6.614 33.073 0 17.462 6.614 33.073 6.615 15.875 18.257 26.987Q59.6 214.646 75.475 221.26q15.61 6.615 33.073 6.615 17.462 0 33.073-6.615z" style="fill:#fff;fill-opacity:1;stroke:none" transform="translate(-23.548 -57.944)"/></svg>