<svg xmlns="http://www.w3.org/2000/svg" fill="none" viewBox="0 0 150 100"><g clip-path="url(#a)"><path fill="#AAA" d="M129.8 20H19.98A1.98 1.98 0 0 0 18 21.98v9.72a1.98 1.98 0 0 0 1.98 1.98H129.8a1.98 1.98 0 0 0 1.98-1.98v-9.72A1.98 1.98 0 0 0 129.8 20" opacity=".55"/><path stroke="#AAA" stroke-linecap="round" stroke-linejoin="bevel" stroke-width="5.14" d="M25.82 26.84H49.1m14.15 0h23.28m14.15 0h23.28"/><path fill="#AAA" d="M91.44 36.79h-33.1a1.99 1.99 0 0 0-1.99 1.99v38.39a1.99 1.99 0 0 0 1.99 1.99h33.1c1.1 0 1.99-.891 1.99-1.99V38.78a1.99 1.99 0 0 0-1.99-1.99" opacity=".55"/><path stroke="#AAA" stroke-linecap="round" stroke-linejoin="bevel" stroke-width="3.91" d="M62.2 43.51h25.38M62.2 53.15h20.13M62.2 62.79h25.38M62.2 72.42h20.13"/></g><defs><clipPath id="a"><path fill="#fff" d="M18 20h113.78v59.15H18z"/></clipPath></defs></svg>