<svg xmlns="http://www.w3.org/2000/svg" fill="none" viewBox="0 0 150 100"><path stroke="#AAA" stroke-dasharray="5 5" stroke-linecap="round" stroke-width="2" d="M16 15a4 4 0 0 1 4-4h111a3 3 0 0 1 3 3v72a3 3 0 0 1-3 3H19a3 3 0 0 1-3-3z"/><g clip-path="url(#a)"><rect width="36" height="13" x="23" y="18" fill="#FF9F00" rx="6.5"/><path fill="#fff" d="M28.7 28.5v-7.2h2.33l.35.005q.266.005.51.035.87.105 1.475.605t.92 1.27.315 1.685-.315 1.685-.92 1.27-1.475.605q-.244.03-.51.035l-.35.005zm1.38-1.28h.95q.135 0 .365-.005a3 3 0 0 0 .415-.045 1.32 1.32 0 0 0 .765-.44q.3-.345.44-.83a3.5 3.5 0 0 0 .145-1q0-.54-.15-1.025a2.1 2.1 0 0 0-.445-.82 1.33 1.33 0 0 0-.755-.425 2 2 0 0 0-.415-.045l-.365-.005h-.95zm5.024 1.28 2.2-7.2h2.03l2.2 7.2h-1.4l-1.96-6.35h.26l-1.93 6.35zm1.32-1.5v-1.27h3.8V27zm7.08 1.5v-5.93h-2.27V21.3h5.9v1.27h-2.27v5.93zm3.739 0 2.2-7.2h2.03l2.2 7.2h-1.4l-1.96-6.35h.26l-1.93 6.35zm1.32-1.5v-1.27h3.8V27z"/></g><g fill="#AAA" opacity=".75"><path d="M124.8 61H26a2 2 0 0 0-2 2v15.92a2 2 0 0 0 2 2h98.8a2 2 0 0 0 2-2V63a2 2 0 0 0-2-2"/><path d="M124.8 62c.55 0 1 .45 1 1v15.92c0 .55-.45 1-1 1H26c-.55 0-1-.45-1-1V63c0-.55.45-1 1-1zm0-2H26c-1.66 0-3 1.34-3 3v15.92c0 1.66 1.34 3 3 3h98.8c1.66 0 3-1.34 3-3V63c0-1.66-1.34-3-3-3"/></g><path fill="#fff" d="M55.84 75v-8.64h2.796l.42.006q.318.006.612.042 1.044.126 1.77.726t1.104 1.524a5.3 5.3 0 0 1 .378 2.022 5.3 5.3 0 0 1-.378 2.022 3.8 3.8 0 0 1-1.104 1.524q-.726.6-1.77.726-.294.036-.612.042l-.42.006zm1.656-1.536h1.14q.162 0 .438-.006.276-.012.498-.054.564-.114.918-.528.36-.414.528-.996.174-.582.174-1.2 0-.648-.18-1.23a2.54 2.54 0 0 0-.534-.984 1.6 1.6 0 0 0-.906-.51 2.6 2.6 0 0 0-.498-.054q-.276-.006-.438-.006h-1.14zm9.875 1.716q-.995 0-1.757-.426a3.15 3.15 0 0 1-1.189-1.182Q64 72.816 64 71.844q0-1.062.42-1.848t1.157-1.218q.739-.438 1.698-.438 1.02 0 1.734.48.716.48 1.056 1.35.343.87.24 2.046h-1.614v-.6q0-.99-.317-1.422-.313-.438-1.026-.438-.834 0-1.23.51-.39.504-.39 1.494 0 .906.39 1.404.396.492 1.157.492.48 0 .822-.21a1.34 1.34 0 0 0 .523-.606l1.631.468a2.87 2.87 0 0 1-1.157 1.38 3.2 3.2 0 0 1-1.722.492m-2.147-2.964v-1.212h4.295v1.212zM71.78 75v-8.82h1.632V75zm6.443.18q-.996 0-1.758-.426a3.15 3.15 0 0 1-1.188-1.182q-.426-.756-.426-1.728 0-1.062.42-1.848t1.158-1.218q.738-.438 1.698-.438 1.02 0 1.734.48t1.056 1.35.24 2.046h-1.614v-.6q0-.99-.318-1.422-.312-.438-1.026-.438-.834 0-1.23.51-.39.504-.39 1.494 0 .906.39 1.404.396.492 1.158.492.48 0 .822-.21a1.34 1.34 0 0 0 .522-.606l1.632.468a2.87 2.87 0 0 1-1.158 1.38 3.2 3.2 0 0 1-1.722.492m-2.148-2.964v-1.212h4.296v1.212zM86.4 75q-.672.126-1.32.108a3.2 3.2 0 0 1-1.152-.222 1.56 1.56 0 0 1-.768-.69 2 2 0 0 1-.252-.9 41 41 0 0 1-.012-1.044V66.72h1.632v5.436q0 .378.006.684.012.3.126.48.216.342.69.372t1.05-.048zm-4.608-5.22v-1.26H86.4v1.26zm8.7 5.4q-.996 0-1.757-.426a3.15 3.15 0 0 1-1.188-1.182q-.426-.756-.426-1.728 0-1.062.42-1.848t1.158-1.218q.738-.438 1.698-.438 1.02 0 1.734.48t1.056 1.35.24 2.046h-1.614v-.6q0-.99-.318-1.422-.312-.438-1.026-.438-.834 0-1.23.51-.39.504-.39 1.494 0 .906.39 1.404.396.492 1.158.492.48 0 .822-.21a1.34 1.34 0 0 0 .522-.606l1.632.468a2.87 2.87 0 0 1-1.158 1.38 3.2 3.2 0 0 1-1.722.492m-2.147-2.964v-1.212h4.296v1.212z"/><g stroke="#fff" stroke-linecap="round" stroke-linejoin="round" stroke-width="1.5" clip-path="url(#b)"><path d="M45.41 66.73H33.58m4.3 3.23v4.3m3.23-4.3v4.3m-4.3-9.68h5.38m2.15 2.15v10.21c0 .3-.24.54-.54.54h-8.6c-.3 0-.54-.24-.54-.54V66.73"/></g><defs><clipPath id="a"><rect width="36" height="13" x="23" y="18" fill="#fff" rx="6.5"/></clipPath><clipPath id="b"><path fill="#fff" d="M33 64h12.99v14.07H33z"/></clipPath></defs></svg>