<svg width="222" height="252" viewBox="0 0 222 252" fill="none" xmlns="http://www.w3.org/2000/svg">
<path d="M155.206 93.1595L176.395 114.598C185.224 123.678 184.719 138.307 175.386 147.891L152.935 170.591L125.692 143.099C120.142 137.55 111.314 137.55 106.016 143.099L47.2411 202.118L86.5926 241.968C98.9531 254.579 119.638 253.823 132.503 240.707L205.657 166.807C225.332 146.63 226.089 115.355 207.422 96.6906L179.422 68.4422L155.206 93.1595Z" fill="#495054"/>
<path d="M89.8721 11.1889L15.9618 86.3499C-3.20952 105.771 -4.21848 136.793 14.4483 155.71L42.1962 183.706L64.8991 160.754L43.962 139.568C35.1331 130.488 35.1331 116.616 43.962 107.788L69.1874 82.0623L95.9263 109.302C101.476 114.85 110.305 114.85 115.35 109.302L174.125 50.2826L135.53 10.6845C123.17 -2.683 102.737 -1.92647 89.8721 11.1889Z" fill="#426698"/>
</svg>
