<svg xmlns="http://www.w3.org/2000/svg" fill="none" viewBox="0 0 150 100"><g clip-path="url(#a)"><path fill="#AAA" d="M33.81 68.14c9.836 0 17.81-8.09 17.81-18.07S43.646 32 33.81 32 16 40.09 16 50.07s7.974 18.07 17.81 18.07" opacity=".55"/><path stroke="#fff" stroke-miterlimit="10" stroke-width="1.5" d="m34.71 40.84 2.39 4.84c.15.3.43.5.76.55l5.34.78c.82.12 1.15 1.13.56 1.71l-3.87 3.77c-.24.23-.34.56-.29.89l.91 5.32c.14.82-.72 1.45-1.46 1.06l-4.78-2.51c-.29-.15-.64-.15-.93 0l-4.78 2.51c-.74.39-1.6-.24-1.46-1.06l.91-5.32a.98.98 0 0 0-.29-.89l-3.87-3.77c-.6-.58-.27-1.59.56-1.71l5.34-.78c.33-.05.61-.25.76-.55l2.39-4.84c.37-.75 1.43-.75 1.8 0z" opacity=".75"/><path fill="#AAA" d="M74.87 68.14c9.836 0 17.81-8.09 17.81-18.07S84.706 32 74.87 32s-17.81 8.09-17.81 18.07 7.974 18.07 17.81 18.07" opacity=".55"/><path stroke="#fff" stroke-miterlimit="10" stroke-width="1.5" d="M79.31 59.64c-.83 0-1.51-.68-1.51-1.51v-4.76c0-.89-2.08-1.62-2.94-1.62s-2.94.73-2.94 1.62v4.76c0 .83-.68 1.51-1.51 1.51h-3.32c-.83 0-1.51-.68-1.51-1.51v-9.14c0-.42.18-.83.49-1.11l7.65-6.97c.57-.52 1.44-.53 2.02-.01 1.52 1.36 6.56 5.86 7.85 6.98.33.29.52.7.52 1.14v9.12c0 .83-.68 1.51-1.51 1.51h-1.66l-.638-.01z" opacity=".75"/><path fill="#AAA" d="M115.92 68.14c9.836 0 17.81-8.09 17.81-18.07S125.756 32 115.92 32s-17.81 8.09-17.81 18.07 7.974 18.07 17.81 18.07" opacity=".55"/><path stroke="#fff" stroke-miterlimit="10" stroke-width="1.5" d="M115.76 52.6c.16 0 .32.06.44.18l6.16 6.16c.46.46 1.22.46 1.68 0l.75-.75c.46-.46.46-1.22 0-1.68l-6.16-6.16a.63.63 0 0 1-.18-.52.6.6 0 0 1 .3-.45l2.25-1.31c.86-.5.77-1.77-.16-2.14l-12.56-4.99c-.95-.38-1.88.56-1.51 1.51l4.99 12.56c.37.93 1.64 1.02 2.14.16l1.31-2.25c.1-.17.26-.28.45-.3h.08z" opacity=".75"/></g><defs><clipPath id="a"><path fill="#fff" d="M16 32h117.73v36.15H16z"/></clipPath></defs></svg>