<svg xmlns="http://www.w3.org/2000/svg" fill="none" viewBox="0 0 150 100"><path stroke="#aaa" stroke-dasharray="5, 5" stroke-linecap="round" stroke-width="2" d="M16 15a4 4 0 0 1 4-4h111a3 3 0 0 1 3 3v72a3 3 0 0 1-3 3H19a3 3 0 0 1-3-3z"/><g fill="#aaa" clip-path="url(#a)"><path fill-opacity=".75" d="M124.37 54H26.43A3.43 3.43 0 0 0 23 57.43v21.88a3.43 3.43 0 0 0 3.43 3.43h97.94a3.43 3.43 0 0 0 3.43-3.43V57.43a3.43 3.43 0 0 0-3.43-3.43z" opacity=".25"/><path d="M124.36 56.29c.63 0 1.14.51 1.14 1.14V79.3c0 .63-.51 1.14-1.14 1.14H26.43c-.63 0-1.14-.51-1.14-1.14V57.43c0-.63.51-1.14 1.14-1.14zm0-2.29H26.43C24.54 54 23 55.54 23 57.43V79.3c0 1.9 1.54 3.44 3.43 3.44h97.93c1.9 0 3.43-1.54 3.43-3.43V57.43c0-1.9-1.54-3.43-3.43-3.43z" opacity=".75"/><path d="M81.71 76.1c-.22 0-.43-.09-.59-.26L68.5 61.96a.8.8 0 0 1 .05-1.12.8.8 0 0 1 1.12.05l12.62 13.88a.8.8 0 0 1-.05 1.12c-.15.14-.34.21-.53.21z"/><path d="M75.4 72.32h-.19c-.51-.02-1.01-.15-1.47-.36-.48-.22-.91-.53-1.26-.93a3.78 3.78 0 0 1-.8-1.35 4.02 4.02 0 0 1-.22-1.5c.02-.51.15-1.01.36-1.47.22-.48.53-.91.93-1.26a.8.8 0 0 1 1.12.05.8.8 0 0 1-.05 1.12c-.47.42-.74 1-.77 1.64-.03.63.19 1.23.61 1.7s1 .74 1.64.77c.63.03 1.23-.19 1.7-.61a.8.8 0 0 1 1.12.05.8.8 0 0 1-.05 1.12c-.39.36-.85.63-1.35.8-.42.15-.86.22-1.31.22z"/><path d="M75.47 74.84h-.08c-1.56 0-3.03-.32-4.38-.96a10.57 10.57 0 0 1-2.96-2.11c-1.51-1.51-2.19-3.01-2.21-3.08a.792.792 0 0 1 0-.64c.02-.03.39-.86 1.18-1.89.46-.6.97-1.15 1.52-1.64.69-.62 1.45-1.13 2.24-1.53.39-.2.87-.04 1.07.35.2.39.04.87-.35 1.07-.66.34-1.3.77-1.88 1.28-.47.42-.91.89-1.31 1.41-.41.53-.69.99-.85 1.29.26.47.84 1.4 1.76 2.32.76.75 1.6 1.35 2.51 1.77 1.13.53 2.36.8 3.67.8.67 0 1.35-.07 2-.22a7.93 7.93 0 0 0 1.89-.69c.39-.2.87-.04 1.07.35.2.39.04.87-.35 1.07-.71.36-1.47.63-2.25.81-.75.18-1.52.26-2.29.26zm6.29-2.44c-.22 0-.43-.09-.59-.26a.8.8 0 0 1 .06-1.12 10.624 10.624 0 0 0 2.12-2.65c-.26-.47-.84-1.4-1.76-2.32-.76-.75-1.6-1.35-2.51-1.77-1.13-.53-2.36-.8-3.67-.8h-.02c-.5 0-1 .04-1.49.12a.792.792 0 0 1-.91-.65c-.07-.43.22-.84.65-.91.58-.1 1.17-.14 1.76-.14 1.56 0 3.03.32 4.38.96 1.08.51 2.07 1.22 2.96 2.11 1.51 1.51 2.19 3.01 2.21 3.08.09.21.09.44 0 .64-.03.08-.85 1.88-2.67 3.51-.15.14-.34.2-.53.2z"/><path d="M78.54 68.87a.8.8 0 0 1-.79-.72c-.05-.51-.26-.99-.6-1.37-.35-.38-.8-.63-1.3-.73a.796.796 0 0 1-.63-.93c.08-.43.5-.71.93-.63.42.08.83.23 1.2.44.36.21.69.47.98.78A4.064 4.064 0 0 1 79.34 68c.04.44-.28.82-.71.86h-.08z"/></g><defs><clipPath id="a"><path fill="#fff" d="M23 54h104.8v28.74H23z"/></clipPath><clipPath id="c" clipPathUnits="userSpaceOnUse"/><clipPath id="b" clipPathUnits="userSpaceOnUse"/><clipPath id="d"><rect width="36" height="13" x="23" y="18" fill="#fff" rx="6.5"/></clipPath></defs><g clip-path="url(#b)" opacity=".25" transform="translate(0 -36)"><path fill="#aaa" fill-opacity=".75" d="M124.37 54H26.43A3.43 3.43 0 0 0 23 57.43v21.88a3.43 3.43 0 0 0 3.43 3.43h97.94a3.43 3.43 0 0 0 3.43-3.43V57.43a3.43 3.43 0 0 0-3.43-3.43z"/></g><g clip-path="url(#c)" opacity=".75" transform="translate(0 -36)"><path fill="#aaa" d="M124.36 56.29c.63 0 1.14.51 1.14 1.14V79.3c0 .63-.51 1.14-1.14 1.14H26.43c-.63 0-1.14-.51-1.14-1.14V57.43c0-.63.51-1.14 1.14-1.14zm0-2.29H26.43C24.54 54 23 55.54 23 57.43V79.3c0 1.9 1.54 3.44 3.43 3.44h97.93c1.9 0 3.43-1.54 3.43-3.43V57.43c0-1.9-1.54-3.43-3.43-3.43z"/></g><g clip-path="url(#d)"><rect width="36" height="13" x="23" y="18" fill="#ff9f00" rx="6.5"/><path fill="#fff" d="M28.7 28.5v-7.2h2.33l.35.005c.177.003.347.015.51.035.58.07 1.072.272 1.475.605.403.333.71.757.92 1.27.21.513.315 1.075.315 1.685 0 .61-.105 1.172-.315 1.685-.21.513-.517.937-.92 1.27-.403.333-.895.535-1.475.605-.163.02-.333.032-.51.035l-.35.005zm1.38-1.28h.95c.09 0 .212-.002.365-.005a2.94 2.94 0 0 0 .415-.045c.313-.063.568-.21.765-.44.2-.23.347-.507.44-.83.097-.323.145-.657.145-1 0-.36-.05-.702-.15-1.025a2.119 2.119 0 0 0-.445-.82 1.333 1.333 0 0 0-.755-.425 2.192 2.192 0 0 0-.415-.045 17.95 17.95 0 0 0-.365-.005h-.95zm5.024 1.28 2.2-7.2h2.03l2.2 7.2h-1.4l-1.96-6.35h.26l-1.93 6.35zm1.32-1.5v-1.27h3.8V27Zm7.08 1.5v-5.93h-2.27V21.3h5.9v1.27h-2.27v5.93zm3.739 0 2.2-7.2h2.03l2.2 7.2h-1.4l-1.96-6.35h.26l-1.93 6.35zm1.32-1.5v-1.27h3.8V27Z"/></g><path d="M75.36 16.576c-3.122 0-5.68 2.559-5.68 5.68 0 2.667 1.868 4.921 4.36 5.521v5.864h2.64v-5.864c2.49-.6 4.36-2.854 4.36-5.521 0-3.121-2.56-5.68-5.68-5.68zm0 2.64a3.02 3.02 0 0 1 3.04 3.04 3.022 3.022 0 0 1-3.04 3.041 3.02 3.02 0 0 1-3.04-3.041 3.019 3.019 0 0 1 3.04-3.04z" style="color:#000;fill:#aaa;stroke-miterlimit:10;-inkscape-stroke:none;opacity:.75" transform="translate(0 20.424)"/></svg>