<svg xmlns="http://www.w3.org/2000/svg" fill="none" viewBox="0 0 150 100"><rect width="113" height="81" x="19" y="10" fill="#AAA" fill-opacity=".5" opacity=".25" rx="2"/><rect width="113" height="20" x="19" y="71" fill="#AAA" opacity=".35" rx="2"/><g stroke="#AAA" stroke-linecap="round"><path stroke-linejoin="bevel" stroke-width="3" d="M50 77h16"/><path stroke-linejoin="bevel" stroke-width="2" d="M53 82h13"/><path stroke-linejoin="round" d="m49.05 83 .872-.805a.23.23 0 0 0 0-.344L49 81"/><path stroke-linejoin="bevel" stroke-width="2" d="M53 86h11"/><path stroke-linejoin="round" d="m49.05 87 .872-.805a.23.23 0 0 0 0-.344L49 85"/></g><path stroke="#AAA" stroke-linecap="round" stroke-linejoin="bevel" stroke-width="2" d="M27 82h12m-12 4h12"/><path stroke="#AAA" stroke-linecap="round" stroke-linejoin="bevel" stroke-width="3" d="M33 77h6"/><path fill="#AAA" d="M28 79a2 2 0 1 0 0-4 2 2 0 0 0 0 4"/><g stroke="#AAA" stroke-linecap="round"><path stroke-linejoin="bevel" stroke-width="3" d="M75 77h16"/><path stroke-linejoin="bevel" stroke-width="2" d="M78 82h13"/><path stroke-linejoin="round" d="m74.05 83 .872-.805a.23.23 0 0 0 0-.344L74 81"/><path stroke-linejoin="bevel" stroke-width="2" d="M78 86h11"/><path stroke-linejoin="round" d="m74.05 87 .872-.805a.23.23 0 0 0 0-.344L74 85"/></g><g stroke="#AAA" stroke-linecap="round"><path stroke-linejoin="bevel" stroke-width="3" d="M100 77h16"/><path stroke-linejoin="bevel" stroke-width="2" d="M103 82h13"/><path stroke-linejoin="round" d="m99.05 83 .872-.805a.23.23 0 0 0 0-.344L99 81"/><path stroke-linejoin="bevel" stroke-width="2" d="M103 86h11"/><path stroke-linejoin="round" d="m99.05 87 .872-.805a.23.23 0 0 0 0-.344L99 85"/></g><path fill="#AAA" d="M91.11 51.838v1.336q0 .486-.23.732a.77.77 0 0 1-.58.24.73.73 0 0 1-.568-.246q-.222-.246-.222-.726V48.72q0-1.078.78-1.078.398 0 .573.252.176.25.194.744.286-.493.586-.745.304-.25.808-.251.504 0 .979.252.474.251.474.667a.64.64 0 0 1-.205.487.62.62 0 0 1-.433.187q-.089 0-.428-.105a1.9 1.9 0 0 0-.592-.111.86.86 0 0 0-.574.187q-.223.182-.346.545a3.8 3.8 0 0 0-.17.867q-.047.498-.047 1.219m-4.259-.55h-3.13q.007.545.218.961.217.416.568.627.357.21.785.21.287 0 .522-.063.24-.07.462-.212.223-.145.41-.31.189-.165.487-.445.124-.106.351-.106a.58.58 0 0 1 .399.135q.152.135.152.38 0 .218-.17.51a2 2 0 0 1-.515.557 2.9 2.9 0 0 1-.862.44q-.515.176-1.19.176-1.54 0-2.396-.88-.855-.878-.855-2.384 0-.709.21-1.313.212-.61.616-1.043.405-.434.996-.662a3.5 3.5 0 0 1 1.313-.234q.938 0 1.605.398.674.393 1.008 1.02t.334 1.277q0 .603-.346.785-.345.176-.972.176m-3.13-.908h2.901q-.058-.82-.445-1.225-.381-.41-1.008-.41-.599 0-.984.416-.382.41-.463 1.219m-5.502-2.596h.175v-.96q0-.388.018-.604a.9.9 0 0 1 .117-.381.7.7 0 0 1 .27-.264.75.75 0 0 1 .392-.105.8.8 0 0 1 .551.228.66.66 0 0 1 .205.375q.047.217.047.621v1.09h.586q.34 0 .516.164a.52.52 0 0 1 .181.41q0 .323-.258.452-.251.129-.726.129h-.299v2.94q0 .375.024.581a.63.63 0 0 0 .14.328q.117.123.375.123.14 0 .381-.047a2 2 0 0 1 .375-.053q.193 0 .346.159a.5.5 0 0 1 .158.38q0 .388-.422.592-.421.206-1.213.206-.75 0-1.136-.252a1.18 1.18 0 0 1-.51-.698q-.118-.445-.118-1.19v-3.07h-.21q-.346 0-.528-.164a.54.54 0 0 1-.181-.416q0-.25.187-.41.194-.165.557-.164m-1.354 3.112q0 .714-.222 1.318a2.9 2.9 0 0 1-.645 1.037q-.421.434-1.008.668-.586.228-1.318.229a3.5 3.5 0 0 1-1.307-.235 2.95 2.95 0 0 1-1.008-.668 3 3 0 0 1-.644-1.031 3.8 3.8 0 0 1-.217-1.319q0-.726.223-1.33a2.9 2.9 0 0 1 .638-1.03 2.8 2.8 0 0 1 1.008-.657q.592-.234 1.307-.234.727 0 1.318.234a2.9 2.9 0 0 1 1.014.668q.421.434.639 1.031.222.598.222 1.319m-1.605 0q0-.979-.434-1.524-.428-.545-1.154-.545a1.42 1.42 0 0 0-.826.246q-.358.24-.551.715a2.9 2.9 0 0 0-.193 1.108q0 .626.187 1.095.193.47.545.72.358.247.838.247.726 0 1.154-.545.435-.55.434-1.517m-5.649 0q0 .714-.222 1.318a2.9 2.9 0 0 1-.645 1.037q-.422.434-1.008.668-.585.229-1.318.229a3.5 3.5 0 0 1-1.307-.235 2.95 2.95 0 0 1-1.008-.668 3 3 0 0 1-.644-1.031 3.8 3.8 0 0 1-.217-1.319q0-.726.223-1.33a2.9 2.9 0 0 1 .638-1.03 2.8 2.8 0 0 1 1.008-.657q.592-.234 1.307-.234.727 0 1.318.234a2.9 2.9 0 0 1 1.014.668q.422.434.639 1.031.222.598.222 1.319m-1.605 0q0-.979-.434-1.524-.428-.545-1.154-.545-.468 0-.826.246-.358.24-.551.715a2.9 2.9 0 0 0-.193 1.108q0 .626.187 1.095.194.47.545.72.358.247.838.247.727 0 1.154-.545.435-.55.434-1.517m-5.936-4.143h-3.427v2.197h2.865q.398 0 .592.182a.6.6 0 0 1 .199.474.6.6 0 0 1-.2.475q-.199.176-.591.176h-2.865v2.83q0 .54-.246.803a.81.81 0 0 1-.622.258.83.83 0 0 1-.632-.264q-.24-.264-.24-.797v-6.61q0-.375.11-.609a.68.68 0 0 1 .346-.345q.24-.112.61-.112h4.101q.417 0 .615.188a.61.61 0 0 1 .206.48.64.64 0 0 1-.206.492q-.198.182-.615.182"/></svg>