<svg xmlns="http://www.w3.org/2000/svg" fill="none" viewBox="0 0 150 100"><rect width="113" height="81" x="19" y="10" fill="#AAA" fill-opacity=".5" opacity=".25" rx="2"/><rect width="113" height="20" x="19" y="71" fill="#AAA" opacity=".35" rx="2"/><g stroke="#AAA" stroke-linecap="round"><path stroke-linejoin="bevel" stroke-width="3" d="M50 77h16"/><path stroke-linejoin="bevel" stroke-width="2" d="M53 82h13"/><path stroke-linejoin="round" d="m49.05 83 .872-.805a.229.229 0 0 0 0-.344L49 81"/><path stroke-linejoin="bevel" stroke-width="2" d="M53 86h11"/><path stroke-linejoin="round" d="m49.05 87 .872-.805a.229.229 0 0 0 0-.344L49 85"/></g><path stroke="#AAA" stroke-linecap="round" stroke-linejoin="bevel" stroke-width="2" d="M27 82h12M27 86h12"/><path stroke="#AAA" stroke-linecap="round" stroke-linejoin="bevel" stroke-width="3" d="M33 77h6"/><path fill="#AAA" d="M28 79a2 2 0 1 0 0-4 2 2 0 0 0 0 4"/><g stroke="#AAA" stroke-linecap="round"><path stroke-linejoin="bevel" stroke-width="3" d="M75 77h16"/><path stroke-linejoin="bevel" stroke-width="2" d="M78 82h13"/><path stroke-linejoin="round" d="m74.05 83 .872-.805a.229.229 0 0 0 0-.344L74 81"/><path stroke-linejoin="bevel" stroke-width="2" d="M78 86h11"/><path stroke-linejoin="round" d="m74.05 87 .872-.805a.229.229 0 0 0 0-.344L74 85"/></g><g stroke="#AAA" stroke-linecap="round"><path stroke-linejoin="bevel" stroke-width="3" d="M100 77h16"/><path stroke-linejoin="bevel" stroke-width="2" d="M103 82h13"/><path stroke-linejoin="round" d="m99.05 83 .872-.805a.229.229 0 0 0 0-.344L99 81"/><path stroke-linejoin="bevel" stroke-width="2" d="M103 86h11"/><path stroke-linejoin="round" d="m99.05 87 .872-.805a.229.229 0 0 0 0-.344L99 85"/></g><g fill="#AAA"><path d="M91.11 51.838v1.336c0 .324-.077.568-.23.732a.766.766 0 0 1-.58.24.732.732 0 0 1-.568-.246c-.148-.164-.222-.406-.222-.726V48.72c0-.719.26-1.078.78-1.078.265 0 .456.084.573.252.118.167.182.415.194.744.191-.329.386-.577.586-.745.203-.167.472-.251.808-.251.336 0 .662.084.979.252.316.167.474.39.474.667a.64.64 0 0 1-.205.487.622.622 0 0 1-.433.187c-.059 0-.202-.035-.428-.105a1.9 1.9 0 0 0-.592-.111.86.86 0 0 0-.574.187c-.149.121-.264.303-.346.545a3.827 3.827 0 0 0-.17.867c-.031.332-.047.738-.047 1.219M86.85 51.287h-3.13c.005.363.077.684.218.961.144.277.334.486.568.627.238.14.5.21.785.21.191 0 .365-.02.522-.063.16-.047.314-.118.462-.212.149-.097.285-.2.41-.31.126-.11.288-.258.487-.445.082-.07.2-.106.351-.106.165 0 .297.045.399.135.101.09.152.217.152.38 0 .145-.056.315-.17.51a2.05 2.05 0 0 1-.515.557 2.916 2.916 0 0 1-.862.44c-.343.117-.74.176-1.19.176-1.026 0-1.825-.294-2.396-.88-.57-.585-.855-1.38-.855-2.384 0-.473.07-.91.21-1.313.141-.406.347-.754.616-1.043.27-.289.602-.51.996-.662a3.537 3.537 0 0 1 1.313-.234c.625 0 1.16.133 1.605.398.45.262.785.602 1.008 1.02.223.418.334.844.334 1.277 0 .402-.115.664-.346.785-.23.117-.554.176-.972.176m-3.13-.908h2.901c-.039-.547-.187-.955-.445-1.225-.254-.273-.59-.41-1.008-.41-.399 0-.727.139-.984.416-.254.274-.409.68-.463 1.219M78.219 47.783h.175v-.96c0-.258.006-.46.018-.604a.93.93 0 0 1 .117-.381.7.7 0 0 1 .27-.264.749.749 0 0 1 .392-.105.79.79 0 0 1 .551.228c.11.102.178.227.205.375.031.145.047.352.047.621v1.09h.586c.227 0 .398.055.516.164a.518.518 0 0 1 .181.41c0 .215-.086.366-.258.452-.167.086-.41.129-.726.129h-.299v2.94c0 .25.008.444.024.581a.63.63 0 0 0 .14.328c.078.082.203.123.375.123.094 0 .22-.015.381-.047a1.87 1.87 0 0 1 .375-.053c.129 0 .244.053.346.159a.507.507 0 0 1 .158.38c0 .258-.14.456-.422.592-.281.137-.685.206-1.213.206-.5 0-.879-.084-1.136-.252a1.182 1.182 0 0 1-.51-.698c-.078-.297-.118-.693-.118-1.19v-3.07h-.21c-.23 0-.407-.054-.528-.164a.536.536 0 0 1-.181-.416c0-.167.062-.304.187-.41.129-.11.315-.164.557-.164M76.865 50.895c0 .476-.074.915-.222 1.318a2.912 2.912 0 0 1-.645 1.037c-.281.29-.617.512-1.008.668-.39.152-.83.229-1.318.229-.484 0-.92-.079-1.307-.235a2.952 2.952 0 0 1-1.008-.668 2.992 2.992 0 0 1-.644-1.031 3.842 3.842 0 0 1-.217-1.319c0-.484.074-.927.223-1.33.148-.402.361-.746.638-1.03a2.783 2.783 0 0 1 1.008-.657c.395-.156.83-.234 1.307-.234.484 0 .924.078 1.318.234.395.156.733.379 1.014.668.281.289.494.633.639 1.031.148.399.222.838.222 1.319m-1.605 0c0-.653-.145-1.16-.434-1.524-.285-.363-.67-.545-1.154-.545-.313 0-.588.082-.826.246-.239.16-.422.399-.551.715a2.922 2.922 0 0 0-.193 1.108c0 .417.062.783.187 1.095.129.313.31.553.545.72.238.165.518.247.838.247.484 0 .869-.182 1.154-.545.29-.367.434-.873.434-1.517M69.611 50.895c0 .476-.074.915-.222 1.318a2.912 2.912 0 0 1-.645 1.037c-.281.29-.617.512-1.008.668-.39.152-.83.229-1.318.229a3.46 3.46 0 0 1-1.307-.235 2.952 2.952 0 0 1-1.008-.668 2.992 2.992 0 0 1-.644-1.031 3.842 3.842 0 0 1-.217-1.319c0-.484.074-.927.223-1.33.148-.402.361-.746.638-1.03a2.783 2.783 0 0 1 1.008-.657c.395-.156.83-.234 1.307-.234.484 0 .924.078 1.318.234.395.156.733.379 1.014.668.281.289.494.633.639 1.031.148.399.222.838.222 1.319m-1.605 0c0-.653-.145-1.16-.434-1.524-.285-.363-.67-.545-1.154-.545-.312 0-.588.082-.826.246-.239.16-.422.399-.551.715a2.922 2.922 0 0 0-.193 1.108c0 .417.062.783.187 1.095.13.313.31.553.545.72.238.165.518.247.838.247.484 0 .87-.182 1.154-.545.29-.367.434-.873.434-1.517M62.07 46.752h-3.427v2.197h2.865c.265 0 .463.06.592.182a.6.6 0 0 1 .199.474c0 .2-.067.358-.2.475-.132.117-.33.176-.591.176h-2.865v2.83c0 .36-.083.627-.246.803a.81.81 0 0 1-.622.258.827.827 0 0 1-.632-.264c-.16-.176-.24-.442-.24-.797v-6.61c0-.25.037-.453.11-.609a.678.678 0 0 1 .346-.345c.16-.075.364-.112.61-.112h4.101c.278 0 .483.063.615.188a.61.61 0 0 1 .206.48.635.635 0 0 1-.206.492c-.132.121-.337.182-.615.182"/></g></svg>