<svg xmlns="http://www.w3.org/2000/svg" fill="none" viewBox="0 0 150 100"><g stroke="#AAA" stroke-linecap="round" stroke-linejoin="round" stroke-width="4" clip-path="url(#a)"><path d="M69.36 19h52.87M28 19h30.05m47.89 8.84h15.29m-62.52 0h36.11m-66.82 0h19.28m61.79 8.84h9.16m-34.41 0h14.03m-53.06 0h27.72m-44.51 0h6.04m44.95 8.84h35.24m-86.23 0h39.56m32.38 17.69h11.29m-52.52 0h30.11m-60.82 0h19.28m36.54 8.84h24.03m-63.06 0h27.72m-44.51 0h6.04m44.95 8.84h15.24m-66.23 0h39.56m24.57-26.53h12.1m-45.75 0h22.75m-53.23 0h18.93"/></g><defs><clipPath id="a"><path fill="#fff" d="M26 17h98.23v65.89H26z"/></clipPath></defs></svg>