<svg xmlns="http://www.w3.org/2000/svg" fill="none" viewBox="0 0 150 100"><g clip-path="url(#a)"><path fill="#AAA" d="M75.04 83.06c18.247 0 33.04-15.012 33.04-33.53S93.287 16 75.04 16C56.792 16 42 31.012 42 49.53s14.792 33.53 33.04 33.53" opacity=".55"/><path fill="#fff" d="M95.88 39c-.25-.95-.74-1.79-1.41-2.46a5.3 5.3 0 0 0-2.43-1.41c-3.4-.92-17-.92-17-.92s-13.6 0-16.99.92c-1.87.5-3.34 1.98-3.84 3.87-.91 3.41-.91 10.53-.91 10.53s0 7.12.91 10.54c.5 1.88 1.97 3.36 3.84 3.87 3.39.91 16.99.91 16.99.91s13.6 0 17-.91a5.48 5.48 0 0 0 3.84-3.87c.91-3.42.91-10.54.91-10.54s0-7.12-.91-10.53M70.36 56V43.07l11.37 6.46z" opacity=".75"/></g><defs><clipPath id="a"><path fill="#fff" d="M42 16h66.09v67.06H42z"/></clipPath></defs></svg>