<svg viewBox="0 0 150 100" fill="none" xmlns="http://www.w3.org/2000/svg">
<g id="youtube">
<g id="Ebene_1" clip-path="url(#clip0_6_648)">
<path id="Vector" opacity="0.55" d="M75.04 83.06C93.2875 83.06 108.08 68.0481 108.08 49.53C108.08 31.0119 93.2875 16 75.04 16C56.7925 16 42 31.0119 42 49.53C42 68.0481 56.7925 83.06 75.04 83.06Z" fill="#AAAAAA"/>
<path id="Vector_2" opacity="0.75" d="M95.88 39C95.63 38.05 95.14 37.21 94.47 36.54C93.81 35.87 92.98 35.38 92.04 35.13C88.64 34.21 75.04 34.21 75.04 34.21C75.04 34.21 61.44 34.21 58.05 35.13C56.18 35.63 54.71 37.11 54.21 39C53.3 42.41 53.3 49.53 53.3 49.53C53.3 49.53 53.3 56.65 54.21 60.07C54.71 61.95 56.18 63.43 58.05 63.94C61.44 64.85 75.04 64.85 75.04 64.85C75.04 64.85 88.64 64.85 92.04 63.94C93.91 63.43 95.38 61.95 95.88 60.07C96.79 56.65 96.79 49.53 96.79 49.53C96.79 49.53 96.79 42.41 95.88 39ZM70.36 56V43.07L81.73 49.53L70.36 56Z" fill="white"/>
</g>
</g>
<defs>
<clipPath id="clip0_6_648">
<rect width="66.09" height="67.06" fill="white" transform="translate(42 16)"/>
</clipPath>
</defs>
</svg>
