<svg xmlns="http://www.w3.org/2000/svg" fill="none" viewBox="0 0 150 100"><g fill="#AAA"><rect width="126" height="22" x="12" y="39" opacity=".15" rx="2"/><path d="M19.84 55v-8.64h3.648q.126 0 .336.012.216.006.384.036.774.12 1.266.51.498.39.732.984.234.588.234 1.314t-.24 1.32q-.234.588-.732.978-.492.39-1.26.51a7 7 0 0 1-.72.048h-2.016V55zm1.632-4.452h1.944q.126 0 .276-.012t.276-.048q.33-.09.51-.3.18-.216.246-.474.072-.264.072-.498t-.072-.492a1.15 1.15 0 0 0-.246-.474 1 1 0 0 0-.51-.306 1.4 1.4 0 0 0-.276-.048 4 4 0 0 0-.276-.012h-1.944zm7.855 4.632q-.696 0-1.182-.264a1.9 1.9 0 0 1-.732-.714 2.03 2.03 0 0 1-.245-.99q0-.45.137-.822.139-.372.445-.654.31-.288.834-.48.36-.132.858-.234a19 19 0 0 1 1.128-.192l1.386-.21-.588.324q0-.576-.276-.846t-.924-.27q-.36 0-.75.174t-.546.618l-1.477-.468q.247-.804.925-1.308.677-.504 1.848-.504.858 0 1.524.264t1.008.912q.19.36.227.72t.037.804V55h-1.428v-1.332l.203.276q-.474.654-1.026.948-.546.288-1.386.288m.348-1.284q.45 0 .756-.156.313-.162.492-.366.187-.204.253-.342.126-.264.144-.612a9 9 0 0 0 .023-.588l.48.12q-.725.12-1.175.204-.45.078-.726.144a4 4 0 0 0-.486.144q-.24.096-.39.21a.8.8 0 0 0-.216.24.65.65 0 0 0-.066.294q0 .222.108.384a.7.7 0 0 0 .317.24q.206.084.486.084m7.62 4.164q-.55 0-1.05-.18a3 3 0 0 1-.893-.492 2.6 2.6 0 0 1-.636-.732l1.512-.732q.156.288.444.438.294.15.636.15.366 0 .69-.126.324-.12.516-.366a.86.86 0 0 0 .186-.6v-1.884h.204V48.52h1.428v6.924q0 .24-.024.45a2.6 2.6 0 0 1-.072.426 1.95 1.95 0 0 1-.582.978q-.42.384-1.032.57-.612.192-1.326.192m-.143-2.88q-.894 0-1.566-.45a3.05 3.05 0 0 1-1.05-1.224q-.372-.774-.372-1.746 0-.99.378-1.758a3 3 0 0 1 1.074-1.218q.69-.444 1.62-.444.924 0 1.554.45t.954 1.224.324 1.746-.33 1.746a2.74 2.74 0 0 1-.972 1.224q-.648.45-1.614.45m.264-1.452q.546 0 .87-.246.33-.246.474-.69a3.4 3.4 0 0 0 .144-1.032 3.4 3.4 0 0 0-.144-1.032 1.4 1.4 0 0 0-.462-.69q-.312-.246-.822-.246-.546 0-.9.27a1.55 1.55 0 0 0-.516.714 2.8 2.8 0 0 0-.168.984q0 .546.162.996.162.444.498.708t.864.264m7.608 1.452q-.996 0-1.758-.426a3.15 3.15 0 0 1-1.188-1.182q-.426-.756-.426-1.728 0-1.062.42-1.848t1.158-1.218q.738-.438 1.698-.438 1.02 0 1.734.48t1.056 1.35.24 2.046h-1.614v-.6q0-.99-.318-1.422-.312-.438-1.026-.438-.834 0-1.23.51-.39.504-.39 1.494 0 .906.39 1.404.396.492 1.158.492.48 0 .822-.21a1.34 1.34 0 0 0 .522-.606l1.632.468a2.87 2.87 0 0 1-1.158 1.38 3.2 3.2 0 0 1-1.722.492m-2.148-2.964v-1.212h4.296v1.212zM55.603 55q-.672.126-1.32.108a3.2 3.2 0 0 1-1.152-.222 1.56 1.56 0 0 1-.768-.69 2 2 0 0 1-.252-.9 41 41 0 0 1-.012-1.044V46.72h1.632v5.436q0 .378.006.684.012.3.126.48.216.342.69.372t1.05-.048zm-4.608-5.22v-1.26h4.608v1.26zm6.172-2.16v-1.44h1.632v1.44zm0 7.38v-6.48h1.632V55zm7.319 0q-.672.126-1.32.108a3.2 3.2 0 0 1-1.152-.222 1.56 1.56 0 0 1-.768-.69 2 2 0 0 1-.252-.9 41 41 0 0 1-.012-1.044V46.72h1.632v5.436q0 .378.006.684.012.3.126.48.216.342.69.372t1.05-.048zm-4.608-5.22v-1.26h4.608v1.26zM66.05 55v-8.82h1.632V55zm6.443.18q-.996 0-1.758-.426a3.15 3.15 0 0 1-1.188-1.182q-.426-.756-.426-1.728 0-1.062.42-1.848t1.158-1.218q.738-.438 1.698-.438 1.02 0 1.734.48t1.056 1.35.24 2.046h-1.614v-.6q0-.99-.318-1.422-.312-.438-1.026-.438-.834 0-1.23.51-.39.504-.39 1.494 0 .906.39 1.404.396.492 1.158.492.48 0 .822-.21a1.34 1.34 0 0 0 .522-.606l1.632.468a2.87 2.87 0 0 1-1.158 1.38 3.2 3.2 0 0 1-1.722.492m-2.148-2.964v-1.212h4.296v1.212z"/></g></svg>