<svg xmlns="http://www.w3.org/2000/svg" fill="none" viewBox="0 0 150 100"><g fill="#AAA"><rect width="126" height="22" x="12" y="39" opacity=".15" rx="2"/><path d="M19.84 55v-8.64h3.648c.084 0 .196.004.336.012.144.004.272.016.384.036.516.08.938.25 1.266.51.332.26.576.588.732.984.156.392.234.83.234 1.314 0 .484-.08.924-.24 1.32-.156.392-.4.718-.732.978-.328.26-.748.43-1.26.51a6.464 6.464 0 0 1-.72.048h-2.016V55zm1.632-4.452h1.944c.084 0 .176-.004.276-.012.1-.008.192-.024.276-.048.22-.06.39-.16.51-.3.12-.144.202-.302.246-.474.048-.176.072-.342.072-.498 0-.156-.024-.32-.072-.492a1.147 1.147 0 0 0-.246-.474.975.975 0 0 0-.51-.306 1.415 1.415 0 0 0-.276-.048 3.48 3.48 0 0 0-.276-.012h-1.944zm7.855 4.632c-.464 0-.858-.088-1.182-.264a1.877 1.877 0 0 1-.732-.714 2.03 2.03 0 0 1-.245-.99c0-.3.046-.574.137-.822.093-.248.24-.466.445-.654.207-.192.485-.352.834-.48.24-.088.526-.166.858-.234a19.21 19.21 0 0 1 1.128-.192l1.386-.21-.588.324c0-.384-.092-.666-.276-.846-.184-.18-.492-.27-.924-.27-.24 0-.49.058-.75.174-.26.116-.442.322-.546.618l-1.477-.468c.165-.536.473-.972.925-1.308.451-.336 1.067-.504 1.848-.504.572 0 1.08.088 1.524.264.444.176.78.48 1.008.912.127.24.203.48.227.72.025.24.037.508.037.804V55h-1.428v-1.332l.203.276c-.316.436-.658.752-1.026.948-.364.192-.826.288-1.386.288m.348-1.284c.3 0 .552-.052.756-.156.209-.108.372-.23.492-.366.125-.136.209-.25.253-.342.084-.176.132-.38.144-.612a8.98 8.98 0 0 0 .023-.588l.48.12c-.483.08-.875.148-1.175.204-.3.052-.543.1-.726.144a4.235 4.235 0 0 0-.486.144c-.16.064-.29.134-.39.21a.756.756 0 0 0-.216.24.648.648 0 0 0-.066.294c0 .148.035.276.108.384a.724.724 0 0 0 .317.24c.137.056.299.084.486.084m7.62 4.164c-.367 0-.717-.06-1.05-.18a2.991 2.991 0 0 1-.893-.492 2.641 2.641 0 0 1-.636-.732l1.512-.732c.104.192.252.338.444.438.196.1.408.15.636.15.244 0 .474-.042.69-.126.216-.08.388-.202.516-.366a.864.864 0 0 0 .186-.6v-1.884h.204V48.52h1.428v6.924c0 .16-.008.31-.024.45a2.562 2.562 0 0 1-.072.426 1.95 1.95 0 0 1-.582.978c-.28.256-.624.446-1.032.57-.408.128-.85.192-1.326.192m-.143-2.88c-.596 0-1.118-.15-1.566-.45a3.049 3.049 0 0 1-1.05-1.224c-.248-.516-.372-1.098-.372-1.746 0-.66.126-1.246.378-1.758a3 3 0 0 1 1.074-1.218c.46-.296 1-.444 1.62-.444.616 0 1.134.15 1.554.45.42.3.738.708.954 1.224.216.516.324 1.098.324 1.746 0 .648-.11 1.23-.33 1.746a2.74 2.74 0 0 1-.972 1.224c-.432.3-.97.45-1.614.45m.264-1.452c.364 0 .654-.082.87-.246.22-.164.378-.394.474-.69a3.35 3.35 0 0 0 .144-1.032 3.35 3.35 0 0 0-.144-1.032 1.383 1.383 0 0 0-.462-.69c-.208-.164-.482-.246-.822-.246-.364 0-.664.09-.9.27a1.554 1.554 0 0 0-.516.714 2.76 2.76 0 0 0-.168.984c0 .364.054.696.162.996.108.296.274.532.498.708.224.176.512.264.864.264m7.608 1.452c-.664 0-1.25-.142-1.758-.426a3.15 3.15 0 0 1-1.188-1.182c-.284-.504-.426-1.08-.426-1.728 0-.708.14-1.324.42-1.848.28-.524.666-.93 1.158-1.218.492-.292 1.058-.438 1.698-.438.68 0 1.258.16 1.734.48.476.32.828.77 1.056 1.35.228.58.308 1.262.24 2.046h-1.614v-.6c0-.66-.106-1.134-.318-1.422-.208-.292-.55-.438-1.026-.438-.556 0-.966.17-1.23.51-.26.336-.39.834-.39 1.494 0 .604.13 1.072.39 1.404.264.328.65.492 1.158.492.32 0 .594-.07.822-.21a1.34 1.34 0 0 0 .522-.606l1.632.468a2.866 2.866 0 0 1-1.158 1.38 3.183 3.183 0 0 1-1.722.492m-2.148-2.964v-1.212h4.296v1.212zM55.603 55c-.448.084-.888.12-1.32.108a3.16 3.16 0 0 1-1.152-.222 1.557 1.557 0 0 1-.768-.69 1.987 1.987 0 0 1-.252-.9 40.608 40.608 0 0 1-.012-1.044V46.72h1.632v5.436c0 .252.002.48.006.684.008.2.05.36.126.48.144.228.374.352.69.372.316.02.666.004 1.05-.048zm-4.608-5.22v-1.26h4.608v1.26zm6.172-2.16v-1.44h1.632v1.44zm0 7.38v-6.48h1.632V55zm7.319 0c-.448.084-.888.12-1.32.108a3.16 3.16 0 0 1-1.152-.222 1.557 1.557 0 0 1-.768-.69 1.987 1.987 0 0 1-.252-.9 40.608 40.608 0 0 1-.012-1.044V46.72h1.632v5.436c0 .252.002.48.006.684.008.2.05.36.126.48.144.228.374.352.69.372.316.02.666.004 1.05-.048zm-4.608-5.22v-1.26h4.608v1.26zM66.05 55v-8.82h1.632V55zm6.443.18c-.664 0-1.25-.142-1.758-.426a3.15 3.15 0 0 1-1.188-1.182c-.284-.504-.426-1.08-.426-1.728 0-.708.14-1.324.42-1.848.28-.524.666-.93 1.158-1.218.492-.292 1.058-.438 1.698-.438.68 0 1.258.16 1.734.48.476.32.828.77 1.056 1.35.228.58.308 1.262.24 2.046h-1.614v-.6c0-.66-.106-1.134-.318-1.422-.208-.292-.55-.438-1.026-.438-.556 0-.966.17-1.23.51-.26.336-.39.834-.39 1.494 0 .604.13 1.072.39 1.404.264.328.65.492 1.158.492.32 0 .594-.07.822-.21a1.34 1.34 0 0 0 .522-.606l1.632.468a2.866 2.866 0 0 1-1.158 1.38 3.183 3.183 0 0 1-1.722.492m-2.148-2.964v-1.212h4.296v1.212z"/></g></svg>