<svg xmlns="http://www.w3.org/2000/svg" fill="none" viewBox="0 0 150 100"><g clip-path="url(#a)"><path stroke="#AAA" stroke-linecap="round" stroke-linejoin="bevel" stroke-width="5.63" d="M55.82 44.56h34.79"/><path fill="#AAA" d="M54.78 34.82v-8.64h1.63v7.12h3.72v1.52zm6.49-7.38V26h1.63v1.44zm0 7.38v-6.48h1.63v6.48zm3.42 0v-6.48h1.45v2.15h.2v4.33h-1.66zm4.43 0v-3.06c0-.15 0-.34-.02-.57q-.03-.345-.15-.69c-.08-.23-.22-.43-.41-.58-.19-.16-.46-.23-.81-.23-.14 0-.29.02-.45.07s-.31.13-.45.25-.25.31-.34.56-.13.57-.13.97l-.94-.44c0-.51.1-.99.31-1.44s.52-.81.94-1.09.95-.41 1.58-.41c.51 0 .92.09 1.24.26s.57.39.75.65.3.54.38.83.12.55.14.78c.02.24.02.41.02.52v3.64h-1.66zm3.2 0v-8.64h1.67v5.28l2.2-3.12h2.02l-2.34 3.24 2.5 3.24h-2.12l-2.24-3.12v3.12h-1.67zm6.76 0V26h1.63v8.82zm3.55-7.38V26h1.63v1.44zm0 7.38v-6.48h1.63v6.48zm5.96.18c-.82 0-1.48-.18-1.98-.55s-.81-.89-.91-1.57l1.67-.25c.07.3.22.54.45.71s.53.26.89.26c.3 0 .52-.06.68-.17q.24-.165.24-.48c0-.13-.03-.23-.1-.31-.06-.08-.21-.16-.43-.23-.22-.08-.57-.18-1.03-.3-.53-.14-.95-.29-1.27-.46s-.54-.37-.68-.6-.21-.52-.21-.85c0-.42.11-.78.32-1.08s.51-.54.9-.71.84-.25 1.37-.25.96.08 1.35.23.71.38.95.67q.36.435.45 1.02l-1.67.3a.82.82 0 0 0-.31-.57c-.18-.14-.42-.22-.73-.25q-.45-.03-.72.12c-.18.1-.27.24-.27.43 0 .11.04.21.12.28.08.08.24.15.49.23s.62.18 1.12.31c.49.13.89.28 1.18.45.3.17.52.37.65.61.14.24.2.53.2.86 0 .66-.24 1.19-.72 1.57s-1.14.57-1.99.57zm3.31-5.4v-1.26h4.61v1.26zm4.61 5.22c-.45.08-.89.12-1.32.11s-.81-.09-1.15-.23-.59-.37-.77-.69c-.16-.3-.24-.6-.25-.9 0-.31-.01-.65-.01-1.04v-5.53h1.63v6.12c0 .2.05.36.12.48.14.23.37.35.69.37s.67 0 1.05-.05v1.36z"/><path stroke="#AAA" stroke-linecap="round" stroke-linejoin="bevel" stroke-width="3.75" d="M60.82 53.6h26.13"/><path stroke="#AAA" stroke-linecap="round" stroke-linejoin="round" stroke-width="2" d="m54.35 55.57 1.59-1.59c.19-.19.19-.5 0-.68l-1.68-1.68"/><path stroke="#AAA" stroke-linecap="round" stroke-linejoin="bevel" stroke-width="3.75" d="M60.82 62.67h26.13"/><path stroke="#AAA" stroke-linecap="round" stroke-linejoin="round" stroke-width="2" d="m54.35 64.64 1.59-1.59c.19-.19.19-.5 0-.68l-1.68-1.68"/><path stroke="#AAA" stroke-linecap="round" stroke-linejoin="bevel" stroke-width="3.75" d="M60.82 71.73h26.13"/><path stroke="#AAA" stroke-linecap="round" stroke-linejoin="round" stroke-width="2" d="m54.35 73.71 1.59-1.59c.19-.19.19-.5 0-.68l-1.68-1.68"/></g><defs><clipPath id="a"><path fill="#fff" d="M53 26h43.51v48.71H53z"/></clipPath></defs></svg>