<svg xmlns="http://www.w3.org/2000/svg" fill="none" viewBox="0 0 150 100"><path stroke="#AAA" stroke-linecap="round" stroke-linejoin="round" stroke-width="3.49" d="m19.562 52.394-2.569-2.55 2.569-2.55m109.328.001 2.569 2.55-2.569 2.549" opacity=".75"/><path fill="#AAA" fill-opacity=".75" d="M120.923 10H29.077A4.07 4.07 0 0 0 25 14.065v71.87A4.07 4.07 0 0 0 29.077 90h91.846A4.07 4.07 0 0 0 125 85.936V14.064A4.07 4.07 0 0 0 120.923 10" opacity=".55"/><g opacity=".55"><path fill="#fff" d="M79.79 34H34.857c-1.101 0-1.994.89-1.994 1.989V64.3c0 1.098.893 1.989 1.994 1.989h44.935c1.101 0 1.994-.89 1.994-1.989V35.99A1.99 1.99 0 0 0 79.791 34"/><path stroke="#AAA" stroke-linecap="round" stroke-linejoin="bevel" stroke-width="6" d="M41.344 44.126h29.045"/><path stroke="#AAA" stroke-linecap="round" stroke-linejoin="bevel" stroke-width="4" d="M59.957 52.76h6.464m-25.725 0h14.353m-2.645 5.889h11.82m-23.528 0h6.956"/></g><path fill="#AAA" fill-opacity=".3" fill-rule="evenodd" d="M25 21h-6.985C15.245 21 13 23.233 13 25.988v48.024C13 76.767 15.245 79 18.015 79H25zm100 58V21h5.985c2.77 0 5.015 2.233 5.015 4.988v48.024c0 2.755-2.245 4.988-5.015 4.988z" clip-rule="evenodd"/></svg>