<svg xmlns="http://www.w3.org/2000/svg" width="150" height="100"><path fill="none" stroke="#aaa" stroke-dasharray="5 5" stroke-linecap="round" stroke-width="2" d="M16 15a4 4 0 0 1 4-4h111a3 3 0 0 1 3 3v72a3 3 0 0 1-3 3H19a3 3 0 0 1-3-3Z"/><clipPath id="a"><path d="M29.5 18h23a6.5 6.5 0 1 1 0 13h-23a6.5 6.5 0 1 1 0-13"/></clipPath><g clip-path="url(#a)"><path fill="#ff9f00" d="M29.5 18h23a6.5 6.5 0 1 1 0 13h-23a6.5 6.5 0 1 1 0-13"/><path fill="#fff" d="M28.7 28.5v-7.2h2.33l.35.005c.177.003.347.015.51.035.58.07 1.072.272 1.475.605.403.333.71.757.92 1.27.21.513.315 1.075.315 1.685 0 .61-.105 1.172-.315 1.685-.21.513-.517.937-.92 1.27-.403.333-.895.535-1.475.605-.163.02-.333.032-.51.035l-.35.005Zm1.38-1.28h.95c.09 0 .212-.002.365-.005.14-.005.278-.02.415-.045a1.32 1.32 0 0 0 .765-.44c.2-.23.347-.507.44-.83.097-.323.145-.657.145-1 0-.36-.05-.702-.15-1.025a2.119 2.119 0 0 0-.445-.82 1.333 1.333 0 0 0-.755-.425 2.192 2.192 0 0 0-.415-.045 17.909 17.909 0 0 0-.365-.005h-.95Zm5.024 1.28 2.2-7.2h2.03l2.2 7.2h-1.4l-1.96-6.35h.26l-1.93 6.35Zm1.32-1.5v-1.27h3.8V27Zm7.08 1.5v-5.93h-2.27V21.3h5.9v1.27h-2.27v5.93Zm3.739 0 2.2-7.2h2.03l2.2 7.2h-1.4l-1.96-6.35h.26l-1.93 6.35Zm1.32-1.5v-1.27h3.8V27Z"/></g><text xml:space="preserve" x="45.43" y="78" fill="#aaa" font-family="Arial" font-size="16" font-weight="700">5 items</text></svg>