<svg xmlns="http://www.w3.org/2000/svg" fill="none" viewBox="0 0 150 100"><path stroke="#AAA" stroke-dasharray="5 5" stroke-linecap="round" stroke-width="2" d="M16 15a4 4 0 0 1 4-4h111a3 3 0 0 1 3 3v72a3 3 0 0 1-3 3H19a3 3 0 0 1-3-3z"/><g clip-path="url(#a)"><rect width="67" height="13" x="23" y="18" fill="#FF9F00" rx="6.5"/><path fill="#fff" d="M28.7 28.5v-7.2h2.33l.35.005q.266.005.51.035.87.105 1.475.605t.92 1.27.315 1.685-.315 1.685-.92 1.27-1.475.605q-.244.03-.51.035l-.35.005zm1.38-1.28h.95q.135 0 .365-.005a3 3 0 0 0 .415-.045 1.32 1.32 0 0 0 .765-.44q.3-.345.44-.83a3.5 3.5 0 0 0 .145-1q0-.54-.15-1.025a2.1 2.1 0 0 0-.445-.82 1.33 1.33 0 0 0-.755-.425 2 2 0 0 0-.415-.045l-.365-.005h-.95zm5.024 1.28 2.2-7.2h2.03l2.2 7.2h-1.4l-1.96-6.35h.26l-1.93 6.35zm1.32-1.5v-1.27h3.8V27zm7.08 1.5v-5.93h-2.27V21.3h5.9v1.27h-2.27v5.93zm3.739 0 2.2-7.2h2.03l2.2 7.2h-1.4l-1.96-6.35h.26l-1.93 6.35zm1.32-1.5v-1.27h3.8V27zm8.008 1.5v-7.2h4.4v1.36h-3.04v1.56h2.44v1.36h-2.44v2.92zm8.393.15q-1.08 0-1.865-.47a3.15 3.15 0 0 1-1.205-1.315q-.42-.844-.42-1.965t.42-1.965a3.15 3.15 0 0 1 1.205-1.315q.785-.47 1.865-.47c1.08 0 1.34.157 1.86.47a3.1 3.1 0 0 1 1.205 1.315q.425.845.425 1.965t-.425 1.965a3.1 3.1 0 0 1-1.205 1.315q-.78.47-1.86.47m0-1.28q.686.01 1.14-.295a1.83 1.83 0 0 0 .68-.865q.23-.56.23-1.31c0-.75-.077-.933-.23-1.3a1.84 1.84 0 0 0-.68-.855q-.454-.304-1.14-.315-.686-.01-1.14.295a1.86 1.86 0 0 0-.685.865q-.225.56-.225 1.31c0 .75.075.933.225 1.3q.23.55.685.855.454.305 1.14.315m4.488 1.13v-7.2h3.04q.105 0 .28.01.18.005.32.03.645.1 1.055.425.415.325.61.82.195.49.195 1.095 0 .905-.45 1.55-.45.64-1.41.79l-.6.04h-1.68v2.44zm4.06 0-1.42-2.93 1.4-.27 1.56 3.2zm-2.7-3.71h1.62q.105 0 .23-.01t.23-.04a.83.83 0 0 0 .425-.25q.15-.18.205-.395.06-.22.06-.415c0-.195-.02-.267-.06-.41a.96.96 0 0 0-.205-.395.8.8 0 0 0-.425-.255 1.2 1.2 0 0 0-.23-.04 3 3 0 0 0-.23-.01h-1.62zm5.34 3.71v-7.2h1.22l2.38 4.78 2.38-4.78h1.22v7.2h-1.27v-4.3l-2.09 4.3h-.48l-2.09-4.3v4.3z"/></g><g clip-path="url(#b)"><path fill="#AAA" fill-opacity=".75" d="M124.8 60H26a3 3 0 0 0-3 3v15.92a3 3 0 0 0 3 3h98.8a3 3 0 0 0 3-3V63a3 3 0 0 0-3-3" opacity=".25"/><path fill="#AAA" d="M124.8 62c.55 0 1 .45 1 1v15.92c0 .55-.45 1-1 1H26c-.55 0-1-.45-1-1V63c0-.55.45-1 1-1zm0-2H26c-1.66 0-3 1.34-3 3v15.92c0 1.66 1.34 3 3 3h98.8c1.66 0 3-1.34 3-3V63c0-1.66-1.34-3-3-3" opacity=".75"/><path fill="#AAA" d="M33.09 76.2c-.86 0-1.61-.19-2.23-.56-.63-.38-1.11-.9-1.45-1.58s-.51-1.46-.51-2.36.17-1.68.51-2.36.82-1.2 1.45-1.58 1.37-.56 2.23-.56 1.61.19 2.24.56 1.11.9 1.45 1.58.51 1.46.51 2.36-.17 1.68-.51 2.36-.82 1.2-1.45 1.58-1.37.56-2.24.56m0-1.54c.55 0 1-.11 1.37-.35s.64-.59.82-1.04.27-.97.27-1.57q0-.9-.27-1.56c-.18-.44-.46-.78-.82-1.03s-.82-.37-1.37-.38-1 .11-1.37.35c-.36.24-.64.59-.82 1.04s-.27.97-.27 1.57q0 .9.27 1.56c.18.44.46.78.82 1.03.36.24.82.37 1.37.38m5.38 4.24v-9.36h1.44v4.44h.2v4.92zm3.19-2.7c-.64 0-1.18-.15-1.61-.45s-.76-.71-.98-1.22c-.22-.52-.33-1.1-.33-1.75s.11-1.23.32-1.75c.22-.52.53-.92.95-1.22s.94-.45 1.55-.45 1.16.15 1.62.44c.46.3.82.7 1.07 1.21s.38 1.1.38 1.76-.12 1.23-.38 1.75c-.25.52-.6.92-1.05 1.22s-.97.45-1.57.45zm-.26-1.45c.35 0 .64-.09.86-.26.22-.18.39-.41.5-.71s.16-.63.16-.99-.06-.69-.17-.99-.29-.54-.52-.71q-.345-.27-.9-.27c-.34 0-.62.08-.83.25s-.36.39-.46.69-.14.64-.14 1.03.05.74.14 1.03.25.53.47.69.51.25.87.25zm3.85-3.95v-1.26h4.61v1.26zm4.61 5.22c-.45.08-.89.12-1.32.11s-.81-.09-1.15-.23-.59-.37-.77-.69c-.16-.3-.24-.6-.25-.9 0-.31-.01-.65-.01-1.04v-5.53h1.63v6.12c0 .2.05.36.12.48.14.23.37.35.69.37s.67 0 1.05-.05v1.36zm1.56-7.38V67.2h1.63v1.44zm0 7.38v-6.48h1.63v6.48zm6.35.18c-.65 0-1.22-.15-1.72-.44s-.88-.7-1.15-1.21-.41-1.11-.41-1.77.14-1.27.42-1.79c.28-.51.67-.92 1.16-1.2.49-.29 1.06-.43 1.7-.43s1.22.15 1.72.44c.49.29.88.7 1.16 1.21s.41 1.1.41 1.77-.14 1.27-.42 1.78-.66.92-1.16 1.21-1.06.43-1.71.43m0-1.52c.52 0 .92-.18 1.17-.53s.39-.81.39-1.37-.13-1.04-.39-1.38-.65-.52-1.17-.52c-.36 0-.65.08-.88.24s-.4.38-.51.67c-.11.28-.17.61-.17.99q0 .87.39 1.38c.26.34.65.51 1.16.51zm4.59 1.34v-6.48h1.45v2.15h.2v4.33h-1.66zm4.43 0v-3.06c0-.15 0-.34-.02-.57q-.03-.345-.15-.69c-.08-.23-.22-.43-.41-.58-.19-.16-.46-.23-.81-.23-.14 0-.29.02-.45.07s-.31.13-.45.25-.25.31-.34.56-.13.57-.13.97l-.94-.44c0-.51.1-.99.31-1.44s.52-.81.94-1.09.95-.41 1.58-.41c.51 0 .92.09 1.24.26s.57.39.75.65.3.54.38.83.12.55.14.78c.02.24.02.41.02.52v3.64h-1.66zm5.75.18c-.82 0-1.48-.18-1.98-.55s-.81-.89-.91-1.57l1.67-.25c.07.3.22.54.45.71s.53.26.89.26c.3 0 .52-.06.68-.17q.24-.165.24-.48c0-.13-.03-.23-.1-.31-.06-.08-.21-.16-.43-.23-.22-.08-.57-.18-1.03-.3-.53-.14-.95-.29-1.27-.46s-.54-.37-.68-.6-.21-.52-.21-.85c0-.42.11-.78.32-1.08s.51-.54.9-.71.84-.25 1.37-.25.96.08 1.35.23.71.38.95.67q.36.435.45 1.02l-1.67.3a.82.82 0 0 0-.31-.57c-.18-.14-.42-.22-.73-.25q-.45-.03-.72.12c-.18.1-.27.24-.27.43 0 .11.04.21.12.28.08.08.24.15.49.23s.62.18 1.12.31c.49.13.89.28 1.18.45.3.17.52.37.65.61.14.24.2.53.2.86 0 .66-.24 1.19-.72 1.57s-1.14.57-1.99.57z"/><path stroke="#AAA" stroke-linecap="round" stroke-linejoin="round" stroke-width="1.76" d="m109.31 68.63 3.98 3.98c.47.47 1.24.47 1.72 0l4.22-4.22"/></g><defs><clipPath id="a"><rect width="67" height="13" x="23" y="18" fill="#fff" rx="6.5"/></clipPath><clipPath id="b"><path fill="#fff" d="M23 60h104.8v21.92H23z"/></clipPath></defs></svg>