<svg xmlns="http://www.w3.org/2000/svg" fill="none" viewBox="0 0 150 100"><path fill="#AAA" d="M92.8 13H56.2c-1.215 0-2.2 1.556-2.2 3.476v67.048c0 1.92.985 3.476 2.2 3.476h36.6c1.215 0 2.2-1.556 2.2-3.476V16.476c0-1.92-.985-3.476-2.2-3.476" opacity=".55"/><path stroke="#AAA" stroke-linecap="round" stroke-linejoin="bevel" stroke-width="3.91" d="M68 50h19M68 40h19M68 30h19M68 20h19M68 60h15M68 70h19M68 80h15"/><path fill="#AAA" d="M60.5 22a2.5 2.5 0 1 0 0-5 2.5 2.5 0 0 0 0 5m0 10a2.5 2.5 0 1 0 0-5 2.5 2.5 0 0 0 0 5m0 10a2.5 2.5 0 1 0 0-5 2.5 2.5 0 0 0 0 5m0 10a2.5 2.5 0 1 0 0-5 2.5 2.5 0 0 0 0 5m0 10a2.5 2.5 0 1 0 0-5 2.5 2.5 0 0 0 0 5m0 10a2.5 2.5 0 1 0 0-5 2.5 2.5 0 0 0 0 5m0 10a2.5 2.5 0 1 0 0-5 2.5 2.5 0 0 0 0 5"/></svg>