<svg xmlns="http://www.w3.org/2000/svg" fill="none" viewBox="0 0 150 100"><path fill="#AAA" d="M119.877 78.947a.647.647 0 0 1-.456-.192l-7.145-7.145-2.882 4.97a.655.655 0 0 1-.603.323.629.629 0 0 1-.544-.397l-8.203-20.627a.635.635 0 0 1 .147-.691.664.664 0 0 1 .691-.148l20.627 8.205a.621.621 0 0 1 .397.543.629.629 0 0 1-.323.603l-4.97 2.882 7.146 7.145c.117.118.191.28.191.456a.647.647 0 0 1-.191.456l-3.441 3.44a.644.644 0 0 1-.456.191zm-7.733-9.013a.67.67 0 0 1 .455.191l7.278 7.278 2.529-2.529-7.278-7.278a.604.604 0 0 1-.176-.529.692.692 0 0 1 .309-.47l4.543-2.647-18.026-7.16 7.161 18.025 2.646-4.543a.609.609 0 0 1 .47-.309h.089z" opacity=".5"/><g clip-path="url(#a)"><g fill="#AAA" opacity=".75"><path d="M124.8 40H26a2 2 0 0 0-2 2v15.92a2 2 0 0 0 2 2h98.8a2 2 0 0 0 2-2V42a2 2 0 0 0-2-2"/><path d="M124.8 41c.55 0 1 .45 1 1v15.92c0 .55-.45 1-1 1H26c-.55 0-1-.45-1-1V42c0-.55.45-1 1-1zm0-2H26c-1.66 0-3 1.34-3 3v15.92c0 1.66 1.34 3 3 3h98.8c1.66 0 3-1.34 3-3V42c0-1.66-1.34-3-3-3"/></g><path fill="#fff" d="M59.96 55v-8.64h1.632v7.116h3.72V55zm9.288.18c-.652 0-1.224-.146-1.716-.438a3.067 3.067 0 0 1-1.152-1.206c-.272-.516-.408-1.108-.408-1.776 0-.676.14-1.27.42-1.782.28-.516.666-.918 1.158-1.206.492-.288 1.058-.432 1.698-.432.652 0 1.224.146 1.716.438.496.292.882.696 1.158 1.212.276.512.414 1.102.414 1.77 0 .672-.14 1.266-.42 1.782a3.054 3.054 0 0 1-1.158 1.206c-.492.288-1.062.432-1.71.432m0-1.524c.524 0 .914-.176 1.17-.528.26-.356.39-.812.39-1.368 0-.576-.132-1.036-.396-1.38-.26-.344-.648-.516-1.164-.516-.356 0-.648.08-.876.24-.228.16-.398.382-.51.666a2.777 2.777 0 0 0-.162.99c0 .58.13 1.042.39 1.386.264.34.65.51 1.158.51m7.38 4.404c-.368 0-.718-.06-1.05-.18a2.991 2.991 0 0 1-.894-.492 2.641 2.641 0 0 1-.636-.732l1.512-.732c.104.192.252.338.444.438.196.1.408.15.636.15.244 0 .474-.042.69-.126.216-.08.388-.202.516-.366a.864.864 0 0 0 .186-.6v-1.884h.204V48.52h1.428v6.924c0 .16-.008.31-.024.45a2.562 2.562 0 0 1-.072.426 1.95 1.95 0 0 1-.582.978c-.28.256-.624.446-1.032.57-.408.128-.85.192-1.326.192m-.144-2.88c-.596 0-1.118-.15-1.566-.45a3.049 3.049 0 0 1-1.05-1.224c-.248-.516-.372-1.098-.372-1.746 0-.66.126-1.246.378-1.758a3 3 0 0 1 1.074-1.218c.46-.296 1-.444 1.62-.444.616 0 1.134.15 1.554.45.42.3.738.708.954 1.224.216.516.324 1.098.324 1.746 0 .648-.11 1.23-.33 1.746a2.74 2.74 0 0 1-.972 1.224c-.432.3-.97.45-1.614.45m.264-1.452c.364 0 .654-.082.87-.246.22-.164.378-.394.474-.69a3.35 3.35 0 0 0 .144-1.032 3.35 3.35 0 0 0-.144-1.032 1.383 1.383 0 0 0-.462-.69c-.208-.164-.482-.246-.822-.246-.364 0-.664.09-.9.27a1.554 1.554 0 0 0-.516.714 2.76 2.76 0 0 0-.168.984c0 .364.054.696.162.996.108.296.274.532.498.708.224.176.512.264.864.264m7.118-6.108v-1.44h1.632v1.44zm0 7.38v-6.48h1.632V55zm7.847 0v-3.06c0-.148-.008-.336-.024-.564a2.554 2.554 0 0 0-.15-.696 1.312 1.312 0 0 0-.414-.582c-.188-.156-.456-.234-.804-.234-.14 0-.29.022-.45.066-.16.044-.31.13-.45.258-.14.124-.256.308-.348.552-.088.244-.132.568-.132.972l-.936-.444c0-.512.104-.992.312-1.44.208-.448.52-.81.936-1.086.42-.276.948-.414 1.584-.414.508 0 .922.086 1.242.258.32.172.568.39.744.654.18.264.308.54.384.828.076.284.122.544.138.78.016.236.024.408.024.516V55zm-4.428 0v-6.48h1.452v2.148h.204V55z"/></g><path fill="#fff" fill-opacity=".75" d="M112.188 70.022c.176 0 .338.074.456.191l7.395 7.396 2.573-2.573-7.396-7.396a.678.678 0 0 1-.191-.543.627.627 0 0 1 .324-.486l4.616-2.69-18.304-7.278 7.278 18.305 2.69-4.617a.665.665 0 0 1 .485-.324h.088z" opacity=".75"/><g fill="#fff" clip-path="url(#b)"><path d="M38.137 51a.688.688 0 0 0-.201-.486L35.4 47.978a.686.686 0 0 0-.973 0 .688.688 0 0 0 0 .973l1.36 1.361h-5.1a.688.688 0 0 0 0 1.376h5.1l-1.36 1.36a.688.688 0 0 0 .973.974l2.535-2.535a.688.688 0 0 0 .201-.487"/><path d="M40.83 45h-4.346a.688.688 0 0 0 0 1.376h4.14v9.248h-4.14a.688.688 0 0 0 0 1.376h4.345c.645 0 1.17-.525 1.17-1.171v-9.658c0-.646-.524-1.171-1.17-1.171z"/></g><defs><clipPath id="a"><path fill="#fff" d="M23 39h104.8v21.92H23z"/></clipPath><clipPath id="b"><path fill="#fff" d="M30 57h12V45H30z"/></clipPath></defs></svg>