<svg xmlns="http://www.w3.org/2000/svg" fill="none" viewBox="0 0 150 100"><path fill="#AAA" d="M119.877 78.947a.65.65 0 0 1-.456-.192l-7.145-7.145-2.882 4.97a.66.66 0 0 1-.603.323.63.63 0 0 1-.544-.397l-8.203-20.627a.635.635 0 0 1 .147-.691.66.66 0 0 1 .691-.148l20.627 8.205a.62.62 0 0 1 .397.543.63.63 0 0 1-.323.603l-4.97 2.882 7.146 7.145a.65.65 0 0 1 .191.456.65.65 0 0 1-.191.456l-3.441 3.44a.64.64 0 0 1-.456.191zm-7.733-9.013a.67.67 0 0 1 .455.191l7.278 7.278 2.529-2.529-7.278-7.278a.6.6 0 0 1-.176-.529.7.7 0 0 1 .309-.47l4.543-2.647-18.026-7.16 7.161 18.025 2.646-4.543a.61.61 0 0 1 .47-.309h.089z" opacity=".5"/><g clip-path="url(#a)"><g fill="#AAA" opacity=".75"><path d="M124.8 40H26a2 2 0 0 0-2 2v15.92a2 2 0 0 0 2 2h98.8a2 2 0 0 0 2-2V42a2 2 0 0 0-2-2"/><path d="M124.8 41c.55 0 1 .45 1 1v15.92c0 .55-.45 1-1 1H26c-.55 0-1-.45-1-1V42c0-.55.45-1 1-1zm0-2H26c-1.66 0-3 1.34-3 3v15.92c0 1.66 1.34 3 3 3h98.8c1.66 0 3-1.34 3-3V42c0-1.66-1.34-3-3-3"/></g><path fill="#fff" d="M59.96 55v-8.64h1.632v7.116h3.72V55zm9.288.18q-.978 0-1.716-.438a3.07 3.07 0 0 1-1.152-1.206q-.408-.774-.408-1.776 0-1.014.42-1.782.42-.774 1.158-1.206t1.698-.432q.978 0 1.716.438.744.438 1.158 1.212.414.768.414 1.77 0 1.008-.42 1.782a3.05 3.05 0 0 1-1.158 1.206q-.738.432-1.71.432m0-1.524q.786 0 1.17-.528.39-.534.39-1.368 0-.864-.396-1.38-.39-.516-1.164-.516-.534 0-.876.24t-.51.666a2.8 2.8 0 0 0-.162.99q0 .87.39 1.386.396.51 1.158.51m7.38 4.404q-.552 0-1.05-.18a3 3 0 0 1-.894-.492 2.6 2.6 0 0 1-.636-.732l1.512-.732q.156.288.444.438.294.15.636.15.366 0 .69-.126.324-.12.516-.366a.86.86 0 0 0 .186-.6v-1.884h.204V48.52h1.428v6.924q0 .24-.024.45a2.6 2.6 0 0 1-.072.426 1.95 1.95 0 0 1-.582.978q-.42.384-1.032.57-.612.192-1.326.192m-.144-2.88q-.894 0-1.566-.45a3.05 3.05 0 0 1-1.05-1.224q-.372-.774-.372-1.746 0-.99.378-1.758a3 3 0 0 1 1.074-1.218q.69-.444 1.62-.444.924 0 1.554.45t.954 1.224.324 1.746-.33 1.746a2.74 2.74 0 0 1-.972 1.224q-.648.45-1.614.45m.264-1.452q.546 0 .87-.246.33-.246.474-.69a3.4 3.4 0 0 0 .144-1.032 3.4 3.4 0 0 0-.144-1.032 1.4 1.4 0 0 0-.462-.69q-.312-.246-.822-.246-.546 0-.9.27a1.55 1.55 0 0 0-.516.714 2.8 2.8 0 0 0-.168.984q0 .546.162.996.162.444.498.708t.864.264m7.118-6.108v-1.44h1.632v1.44zm0 7.38v-6.48h1.632V55zm7.847 0v-3.06q0-.222-.024-.564a2.6 2.6 0 0 0-.15-.696 1.3 1.3 0 0 0-.414-.582q-.282-.234-.804-.234-.21 0-.45.066t-.45.258q-.21.186-.348.552-.132.366-.132.972l-.936-.444q0-.768.312-1.44t.936-1.086q.63-.414 1.584-.414.762 0 1.242.258t.744.654q.27.396.384.828.114.426.138.78t.024.516V55zm-4.428 0v-6.48h1.452v2.148h.204V55z"/></g><path fill="#fff" fill-opacity=".75" d="M112.188 70.022a.65.65 0 0 1 .456.191l7.395 7.396 2.573-2.573-7.396-7.396a.68.68 0 0 1-.191-.543.63.63 0 0 1 .324-.486l4.616-2.69-18.304-7.278 7.278 18.305 2.69-4.617a.67.67 0 0 1 .485-.324h.088z" opacity=".75"/><g fill="#fff" clip-path="url(#b)"><path d="M38.137 51a.7.7 0 0 0-.201-.486L35.4 47.978a.686.686 0 0 0-.973 0 .69.69 0 0 0 0 .973l1.36 1.361h-5.1a.688.688 0 0 0 0 1.376h5.1l-1.36 1.36a.688.688 0 0 0 .973.974l2.535-2.535a.7.7 0 0 0 .201-.487"/><path d="M40.83 45h-4.346a.688.688 0 0 0 0 1.376h4.14v9.248h-4.14a.688.688 0 0 0 0 1.376h4.345c.645 0 1.17-.525 1.17-1.171v-9.658c0-.646-.524-1.171-1.17-1.171z"/></g><defs><clipPath id="a"><path fill="#fff" d="M23 39h104.8v21.92H23z"/></clipPath><clipPath id="b"><path fill="#fff" d="M30 57h12V45H30z"/></clipPath></defs></svg>