<svg xmlns="http://www.w3.org/2000/svg" fill="none" viewBox="0 0 150 100"><path stroke="#AAA" stroke-dasharray="5 5" stroke-linecap="round" stroke-width="2" d="M16 15a4 4 0 0 1 4-4h111a3 3 0 0 1 3 3v72a3 3 0 0 1-3 3H19a3 3 0 0 1-3-3z"/><g clip-path="url(#a)"><rect width="67" height="13" x="23" y="18" fill="#FF9F00" rx="6.5"/><path fill="#fff" d="M28.7 28.5v-7.2h2.33l.35.005q.266.005.51.035.87.105 1.475.605t.92 1.27.315 1.685-.315 1.685-.92 1.27-1.475.605q-.244.03-.51.035l-.35.005zm1.38-1.28h.95q.135 0 .365-.005a3 3 0 0 0 .415-.045 1.32 1.32 0 0 0 .765-.44q.3-.345.44-.83a3.5 3.5 0 0 0 .145-1q0-.54-.15-1.025a2.1 2.1 0 0 0-.445-.82 1.33 1.33 0 0 0-.755-.425 2 2 0 0 0-.415-.045l-.365-.005h-.95zm5.024 1.28 2.2-7.2h2.03l2.2 7.2h-1.4l-1.96-6.35h.26l-1.93 6.35zm1.32-1.5v-1.27h3.8V27zm7.08 1.5v-5.93h-2.27V21.3h5.9v1.27h-2.27v5.93zm3.739 0 2.2-7.2h2.03l2.2 7.2h-1.4l-1.96-6.35h.26l-1.93 6.35zm1.32-1.5v-1.27h3.8V27zm8.008 1.5v-7.2h4.4v1.36h-3.04v1.56h2.44v1.36h-2.44v2.92zm8.393.15q-1.08 0-1.865-.47a3.15 3.15 0 0 1-1.205-1.315q-.42-.844-.42-1.965t.42-1.965a3.15 3.15 0 0 1 1.205-1.315q.785-.47 1.865-.47c1.08 0 1.34.157 1.86.47a3.1 3.1 0 0 1 1.205 1.315q.425.845.425 1.965t-.425 1.965a3.1 3.1 0 0 1-1.205 1.315q-.78.47-1.86.47m0-1.28q.686.01 1.14-.295a1.83 1.83 0 0 0 .68-.865q.23-.56.23-1.31c0-.75-.077-.933-.23-1.3a1.84 1.84 0 0 0-.68-.855q-.454-.304-1.14-.315-.686-.01-1.14.295a1.86 1.86 0 0 0-.685.865q-.225.56-.225 1.31c0 .75.075.933.225 1.3q.23.55.685.855.454.305 1.14.315m4.488 1.13v-7.2h3.04q.105 0 .28.01.18.005.32.03.645.1 1.055.425.415.325.61.82.195.49.195 1.095 0 .905-.45 1.55-.45.64-1.41.79l-.6.04h-1.68v2.44zm4.06 0-1.42-2.93 1.4-.27 1.56 3.2zm-2.7-3.71h1.62q.105 0 .23-.01t.23-.04a.83.83 0 0 0 .425-.25q.15-.18.205-.395.06-.22.06-.415c0-.195-.02-.267-.06-.41a.96.96 0 0 0-.205-.395.8.8 0 0 0-.425-.255 1.2 1.2 0 0 0-.23-.04 3 3 0 0 0-.23-.01h-1.62zm5.34 3.71v-7.2h1.22l2.38 4.78 2.38-4.78h1.22v7.2h-1.27v-4.3l-2.09 4.3h-.48l-2.09-4.3v4.3z"/></g><g fill="#AAA" clip-path="url(#b)"><path fill-opacity=".75" d="M124.37 54H26.43A3.43 3.43 0 0 0 23 57.43v21.88a3.43 3.43 0 0 0 3.43 3.43h97.94a3.43 3.43 0 0 0 3.43-3.43V57.43a3.43 3.43 0 0 0-3.43-3.43" opacity=".25"/><path d="M124.36 56.29c.63 0 1.14.51 1.14 1.14V79.3c0 .63-.51 1.14-1.14 1.14H26.43c-.63 0-1.14-.51-1.14-1.14V57.43c0-.63.51-1.14 1.14-1.14zm0-2.29H26.43C24.54 54 23 55.54 23 57.43V79.3c0 1.9 1.54 3.44 3.43 3.44h97.93c1.9 0 3.43-1.54 3.43-3.43V57.43c0-1.9-1.54-3.43-3.43-3.43" opacity=".75"/><path d="M81.71 76.1c-.22 0-.43-.09-.59-.26L68.5 61.96a.8.8 0 0 1 .05-1.12.8.8 0 0 1 1.12.05l12.62 13.88a.8.8 0 0 1-.05 1.12c-.15.14-.34.21-.53.21"/><path d="M75.4 72.32h-.19c-.51-.02-1.01-.15-1.47-.36-.48-.22-.91-.53-1.26-.93a3.8 3.8 0 0 1-.8-1.35 4 4 0 0 1-.22-1.5c.02-.51.15-1.01.36-1.47.22-.48.53-.91.93-1.26a.8.8 0 0 1 1.12.05.8.8 0 0 1-.05 1.12c-.47.42-.74 1-.77 1.64-.03.63.19 1.23.61 1.7s1 .74 1.64.77c.63.03 1.23-.19 1.7-.61a.8.8 0 0 1 1.12.05.8.8 0 0 1-.05 1.12c-.39.36-.85.63-1.35.8-.42.15-.86.22-1.31.22z"/><path d="M75.47 74.84h-.08c-1.56 0-3.03-.32-4.38-.96a10.6 10.6 0 0 1-2.96-2.11c-1.51-1.51-2.19-3.01-2.21-3.08a.8.8 0 0 1 0-.64c.02-.03.39-.86 1.18-1.89.46-.6.97-1.15 1.52-1.64.69-.62 1.45-1.13 2.24-1.53.39-.2.87-.04 1.07.35s.04.87-.35 1.07c-.66.34-1.3.77-1.88 1.28-.47.42-.91.89-1.31 1.41-.41.53-.69.99-.85 1.29.26.47.84 1.4 1.76 2.32.76.75 1.6 1.35 2.51 1.77 1.13.53 2.36.8 3.67.8.67 0 1.35-.07 2-.22a8 8 0 0 0 1.89-.69c.39-.2.87-.04 1.07.35s.04.87-.35 1.07c-.71.36-1.47.63-2.25.81-.75.18-1.52.26-2.29.26zm6.29-2.44c-.22 0-.43-.09-.59-.26a.8.8 0 0 1 .06-1.12 10.6 10.6 0 0 0 2.12-2.65c-.26-.47-.84-1.4-1.76-2.32-.76-.75-1.6-1.35-2.51-1.77-1.13-.53-2.36-.8-3.67-.8h-.02c-.5 0-1 .04-1.49.12a.79.79 0 0 1-.91-.65c-.07-.43.22-.84.65-.91.58-.1 1.17-.14 1.76-.14 1.56 0 3.03.32 4.38.96 1.08.51 2.07 1.22 2.96 2.11 1.51 1.51 2.19 3.01 2.21 3.08.09.21.09.44 0 .64-.03.08-.85 1.88-2.67 3.51-.15.14-.34.2-.53.2z"/><path d="M78.54 68.87a.8.8 0 0 1-.79-.72c-.05-.51-.26-.99-.6-1.37-.35-.38-.8-.63-1.3-.73a.796.796 0 0 1-.63-.93c.08-.43.5-.71.93-.63.42.08.83.23 1.2.44.36.21.69.47.98.78A4.06 4.06 0 0 1 79.34 68c.04.44-.28.82-.71.86h-.08z"/></g><defs><clipPath id="a"><rect width="67" height="13" x="23" y="18" fill="#fff" rx="6.5"/></clipPath><clipPath id="b"><path fill="#fff" d="M23 54h104.8v28.74H23z"/></clipPath></defs></svg>