<svg viewBox="0 0 150 100" fill="none" xmlns="http://www.w3.org/2000/svg">
<g id="search-results">
<g id="Group 9">
<path id="Vector" d="M129.8 11H19.98C18.8865 11 18 11.8865 18 12.98V22.7C18 23.7935 18.8865 24.68 19.98 24.68H129.8C130.894 24.68 131.78 23.7935 131.78 22.7V12.98C131.78 11.8865 130.894 11 129.8 11Z" fill="#AAAAAA" fill-opacity="0.55"/>
<path id="Vector_2" d="M26 18L102 18" stroke="white" stroke-width="5.14" stroke-linecap="round" stroke-linejoin="bevel"/>
<path id="Vector_3" d="M100.68 18H123.96" stroke="#AAAAAA" stroke-width="5.14" stroke-linecap="round" stroke-linejoin="bevel"/>
<path id="Vector_4" d="M33 37H62" stroke="#AAAAAA" stroke-width="5.5" stroke-linecap="round" stroke-linejoin="bevel"/>
<path id="Vector_5" d="M73 37L116 37" stroke="#AAAAAA" stroke-width="5.5" stroke-linecap="round" stroke-linejoin="bevel"/>
<g id="Group 7">
<path id="Rectangle 4" d="M27 32C27 30.3431 28.3431 29 30 29H119C120.657 29 122 30.3431 122 32V54C122 55.6569 120.657 57 119 57H30C28.3431 57 27 55.6569 27 54V32Z" fill="#AAAAAA" fill-opacity="0.55"/>
<path id="Vector_6" d="M33 44H47" stroke="#AAAAAA" stroke-width="3.91" stroke-linecap="round" stroke-linejoin="bevel"/>
<path id="Vector_7" d="M33 51H89" stroke="#AAAAAA" stroke-width="3.91" stroke-linecap="round" stroke-linejoin="bevel"/>
<path id="Vector_8" d="M53 44L109 44" stroke="#AAAAAA" stroke-width="3.91" stroke-linecap="round" stroke-linejoin="bevel"/>
</g>
<g id="Group 8">
<path id="Rectangle 5" d="M27 64C27 62.3431 28.3431 61 30 61H119C120.657 61 122 62.3431 122 64V86C122 87.6569 120.657 89 119 89H30C28.3431 89 27 87.6569 27 86V64Z" fill="#AAAAAA" fill-opacity="0.55"/>
<path id="Vector_9" d="M33 68H62" stroke="#AAAAAA" stroke-width="5.5" stroke-linecap="round" stroke-linejoin="bevel"/>
<path id="Vector_10" d="M73 68H99" stroke="#AAAAAA" stroke-width="5.5" stroke-linecap="round" stroke-linejoin="bevel"/>
<path id="Vector_11" d="M33 76H45" stroke="#AAAAAA" stroke-width="3.91" stroke-linecap="round" stroke-linejoin="bevel"/>
<path id="Vector_12" d="M33 83H75" stroke="#AAAAAA" stroke-width="3.91" stroke-linecap="round" stroke-linejoin="bevel"/>
<path id="Vector_13" d="M53 76L86 76" stroke="#AAAAAA" stroke-width="3.91" stroke-linecap="round" stroke-linejoin="bevel"/>
</g>
</g>
</g>
</svg>
