<?xml version="1.0" encoding="utf-8"?>
<!-- Generator: Adobe Illustrator 25.2.0, SVG Export Plug-In . SVG Version: 6.00 Build 0)  -->
<!DOCTYPE svg PUBLIC "-//W3C//DTD SVG 1.1//EN" "http://www.w3.org/Graphics/SVG/1.1/DTD/svg11.dtd" [
	<!ENTITY ns_extend "http://ns.adobe.com/Extensibility/1.0/">
	<!ENTITY ns_ai "http://ns.adobe.com/AdobeIllustrator/10.0/">
	<!ENTITY ns_graphs "http://ns.adobe.com/Graphs/1.0/">
	<!ENTITY ns_vars "http://ns.adobe.com/Variables/1.0/">
	<!ENTITY ns_imrep "http://ns.adobe.com/ImageReplacement/1.0/">
	<!ENTITY ns_sfw "http://ns.adobe.com/SaveForWeb/1.0/">
	<!ENTITY ns_custom "http://ns.adobe.com/GenericCustomNamespace/1.0/">
	<!ENTITY ns_adobe_xpath "http://ns.adobe.com/XPath/1.0/">
]>
<svg width="608" height="100" version="1.1" id="Layer_1" xmlns:x="&ns_extend;" xmlns:i="&ns_ai;" xmlns:graph="&ns_graphs;"
	 xmlns="http://www.w3.org/2000/svg" xmlns:xlink="http://www.w3.org/1999/xlink" x="0px" y="0px" viewBox="0 0 608.2 100.4"
	 style="enable-background:new 0 0 608.2 100.4;" xml:space="preserve">
<style type="text/css">
	.st0{fill:#FFFFFF;}
</style>
<metadata>
	<sfw  xmlns="&ns_sfw;">
		<slices></slices>
		<sliceSourceBounds  bottomLeftOrigin="true" height="99.1" width="606.8" x="381.1" y="-199.4"></sliceSourceBounds>
	</sfw>
</metadata>
<g>
	<path class="st0" d="M61.8,37.2l8.4,8.5c3.5,3.6,3.3,9.4-0.4,13.2l-8.9,9L50.1,57c-2.2-2.2-5.7-2.2-7.8,0L19,80.4l15.6,15.8
		c4.9,5,13.1,4.7,18.2-0.5l29-29.3c7.8-8,8.1-20.4,0.7-27.8L71.4,27.4L61.8,37.2z"/>
	<path class="st0" d="M35.9,4.6L6.6,34.4c-7.6,7.7-8,20-0.6,27.5L17,73l9-9.1l-8.3-8.4c-3.5-3.6-3.5-9.1,0-12.6l10-10.2l10.6,10.8
		c2.2,2.2,5.7,2.2,7.7,0l23.3-23.4L54,4.4C49.1-0.8,41-0.5,35.9,4.6z"/>
	<g>
		<path class="st0" d="M200.7,83c-2.7,0.7-6.2,1.4-10.3,2s-8.7,0.9-13.3,0.9c-4.7,0-8.7-0.6-11.7-1.8c-3.2-1.2-5.6-2.9-7.5-5.1
			c-1.9-2.1-3.2-4.7-4-7.9c-0.8-3.1-1.2-6.3-1.2-10V31.9h15.7v27.7c0,4.8,0.7,8.2,2,10.5c1.3,2.2,3.8,3.2,7.5,3.2
			c1.2,0,2.2,0,3.6-0.1c1.3-0.1,2.5-0.2,3.4-0.4V31.9h15.7L200.7,83z"/>
		<path class="st0" d="M227.7,74.2c2.9,0,4.9-0.2,6.2-0.8c1.2-0.6,1.8-1.5,1.8-3.1c0-1.2-0.8-2.2-2.2-3.2c-1.5-0.9-4-1.9-7.2-3.1
			c-2.5-0.8-4.7-1.8-6.8-2.7c-2-0.9-3.8-2-5.1-3.4c-1.4-1.3-2.5-2.8-3.2-4.7c-0.8-1.8-1.2-4-1.2-6.6c0-4.9,2-8.8,5.9-11.9
			c3.8-2.8,9.3-4.3,16-4.3c3.4,0,6.6,0.2,9.6,0.8c3.2,0.6,5.6,1.2,7.4,1.9l-2.8,11.7c-1.9-0.6-3.8-1.2-6-1.6
			c-2.1-0.5-4.6-0.7-7.2-0.7c-4.9,0-7.4,1.3-7.4,3.9c0,0.6,0.1,1.2,0.4,1.6c0.2,0.5,0.6,0.9,1.3,1.3c0.6,0.5,1.5,0.9,2.6,1.4
			s2.5,1.1,4.1,1.6c3.5,1.2,6.2,2.3,8.5,3.5c2.2,1.2,4.1,2.5,5.3,3.8c1.3,1.4,2.2,2.8,2.8,4.7c0.6,1.6,0.8,3.6,0.8,5.8
			c0,5.3-2.1,9.2-6.2,11.9c-4.1,2.7-9.9,4-17.5,4c-4.9,0-9-0.4-12.3-1.2c-3.2-0.8-5.6-1.4-6.8-2l2.7-12.2c2.7,1.1,5.5,1.8,8.3,2.3
			C222.3,73.8,225.1,74.2,227.7,74.2z"/>
		<path class="st0" d="M259,22.9h15.7l0.1,6.7H289v12h-14.1l-0.1,20c0,3.2,0.6,7.2,1.8,9.2c1.2,1.9,3.5,2.8,6.9,2.8
			c1.6,0,3.4-0.1,5.3-0.5c1.8-0.4,3.4-0.7,4.9-1.3l2.2,11.7c-1.9,0.7-4,1.4-6.2,1.9c-2.2,0.6-5.1,0.8-8.5,0.8
			c-4.3,0-7.8-0.6-10.7-1.6c-2.8-1.1-5.1-2.6-6.8-4.7c-1.6-2.1-2.9-4.3-3.5-7.2c-0.7-2.8-1.1-6-1.1-9.4L259,22.9L259,22.9z"/>
		<path class="st0" d="M485.5,29.4c4.7,0,8.5,0.5,11.6,1.5c3.2,1.1,5.6,2.5,7.5,4.3c1.9,1.9,3.2,4.1,4,6.9c0.8,2.7,1.2,6.7,1.2,10.1
			v31.2c-2.2,0.5-5.3,1.1-9.4,1.6c-4,0.6-8.8,0.9-14.6,0.9c-3.6,0-6.8-0.4-9.7-0.9c-2.9-0.6-5.5-1.5-7.5-2.9s-3.8-3.2-4.9-5.4
			c-1.2-2.2-1.8-4.9-1.8-8.2c0-3.1,0.7-7.9,2-10.1c1.3-2.1,3.1-3.9,5.3-5.1c2.2-1.3,4.7-2.2,7.5-2.7c2.8-0.6,5.6-0.8,8.7-0.8
			c2.1,0,3.8,0.1,5.5,0.2c1.6,0.1,2.9,0.4,3.8,0.7c0,0-0.4-2.6-0.6-3.3c-0.1-0.7-0.2-1.5-1.9-3.1c-1.6-1.5-4.5-2.3-8.3-2.3
			c-2.7,0-5.3,0.2-7.9,0.6s-7.2,2-9,2.7L465.1,33c2.7-1.2,4.5-1.6,5.6-2c1.4-0.4,4.6-0.9,4.6-0.9s3.4-0.4,5.1-0.5
			C482,29.5,483.9,29.4,485.5,29.4z M486.9,74.4c1.5,0,3.1,0,4.5-0.1s2.6-0.1,3.4-0.4V61.6c-0.6-0.1-1.6-0.2-2.8-0.4
			c-1.3-0.1-2.5-0.2-3.5-0.2c-1.5,0-2.9,0.1-4.1,0.2c-1.3,0.1-2.5,0.5-3.4,0.9c-0.9,0.5-1.8,1.1-2.2,1.9c-0.6,0.8-0.8,2.9-0.8,4.1
			c0,2.3,0.8,4,2.5,4.8C481.8,74,483.9,74.4,486.9,74.4z"/>
		<path class="st0" d="M518.2,22.3h15.7v7.3h14.2v12h-14.2v19.3c0,3.2,0.6,7.2,1.8,9.2c1.2,1.9,3.5,2.8,6.9,2.8
			c1.6,0,3.4-0.1,5.3-0.5c1.8-0.4,3.4-0.7,4.9-1.3l2.2,11.7c-1.9,0.7-4,1.4-6.2,1.9c-2.2,0.6-5.1,0.8-8.5,0.8
			c-4.3,0-7.8-0.6-10.7-1.6c-2.8-1.1-5.1-2.6-6.8-4.7c-1.6-2-2.9-4.3-3.5-7.2c-0.7-2.8-1.1-6-1.1-9.4L518.2,22.3L518.2,22.3
			L518.2,22.3L518.2,22.3z"/>
		<path class="st0" d="M127.5,49.9V14.4h15.7v48.9c0,3.4-0.4,6.6-1.1,9.4s-1.9,5.3-3.5,7.2c-1.6,2-4,3.5-6.8,4.7
			c-2.8,1.1-6.5,1.6-10.7,1.6c-3.4,0-6.2-0.2-8.5-0.8c-2.2-0.6-4.5-1.2-6.2-1.9l2.2-11.7c1.5,0.6,3.2,0.9,4.9,1.3
			c1.8,0.4,3.5,0.5,5.3,0.5c3.5,0,5.9-0.9,6.9-2.8c1.2-1.9,1.8-6,1.8-9.2V62L127.5,49.9L127.5,49.9z"/>
		<path class="st0" d="M437.6,62.2v-0.3c0,3.2,0.6,7.2,1.8,9.2c1.2,1.9,3.5,2.8,6.9,2.8c1.6,0,3.5-0.1,5.3-0.5
			c1.9-0.4,2.2-0.7,3.8-1.3l2.2,11.7c-2,0.8-2.8,1.3-5.1,1.9c-2.3,0.6-5.1,0.8-8.5,0.8c-4.3,0-7.8-0.6-10.7-1.6
			c-2.8-1.1-5.1-2.6-6.8-4.7c-1.6-2-2.9-4.3-3.5-7.2c-0.7-2.8-1.1-6-1.1-9.4V22.3h15.6v28.1L437.6,62.2L437.6,62.2z"/>
		<path class="st0" d="M319.2,28.1c0.8-0.1,1.8-0.1,2.7-0.2c1.1-0.1,2.1-0.1,3.2-0.1c5.3,0,9,0,11.9,2.2c2.6,1.8,4.1,3.9,4.1,7.3
			c0,3.5-1.5,9.2-4,10.9c-2.2,1.6-5.5,2.1-9.9,2.2v11.3l1.5,2c0.4,0.4,0.7,0.8,1.3,1.6l1.5,2c1.1,1.4,2.2,2.8,3.2,4.2L344.9,85h17.9
			c-1.3-2.6-2.6-5.3-4.1-7.9c-1.4-2.7-3.1-5.3-4.6-7.6c-1.5-2.5-3.2-4.8-4.7-7c-1.6-2.2-3.2-4.3-4.7-6c4.5-1.8,7.8-4.1,10.2-7.2
			c2.2-3.1,3.5-7,3.5-12c0-7.9-2.9-13.6-8.7-17.4c-6-3.6-16.7-5.6-27.6-5.6c-3.1,0-6.6,0.1-10.2,0.5c-3.8,0.2-5.3,0.7-8.8,1.4V85
			h16.3V50.3L319.2,28.1L319.2,28.1z"/>
		<path class="st0" d="M557.4,57.4c0-4.8,0.7-8.9,2.2-12.7c1.4-3.6,3.4-6.6,5.6-9c2.2-2.3,5.1-4.2,8.1-5.4c3.1-1.2,6.2-1.9,9.6-1.9
			c7.5,0,13.6,2.3,18,7c4.5,4.7,6.6,11.6,6.6,20.8c0,0.9,0,1.9-0.1,2.9s-0.1,2-0.2,2.8h-34.3c0.4,3.2,1.8,5.6,4.5,7.5
			c2.6,1.9,6,2.8,10.3,2.8c2.8,0,5.5-0.2,8.1-0.8c2.7-0.5,4.9-1.2,6.6-1.9l2,12.6c-0.8,0.4-1.9,0.8-3.2,1.2
			c-1.4,0.4-2.9,0.8-4.6,1.1c-1.6,0.4-3.5,0.6-5.3,0.8c-1.9,0.2-3.8,0.4-5.6,0.4c-4.7,0-9-0.7-12.6-2.1s-6.6-3.4-8.8-6
			c-2.2-2.5-4.1-5.4-5.1-8.8C558,65,557.4,61.4,557.4,57.4z M593,51.5c-0.1-1.3-0.2-2.6-0.7-3.8c-0.4-1.2-0.9-2.3-1.8-3.4
			c-0.8-0.9-1.8-1.8-2.9-2.3c-1.2-0.6-2.7-0.9-4.5-0.9s-3.2,0.2-4.5,0.8c-1.2,0.6-2.2,1.3-3.1,2.3c-0.8,1.1-1.4,2.1-1.9,3.3
			c-0.5,1.3-0.8,2.6-0.9,3.9L593,51.5z"/>
		<path class="st0" d="M363.8,57.4c0-4.8,0.7-8.9,2.2-12.7c1.4-3.6,3.4-6.6,5.6-9c2.2-2.3,5.1-4.2,8.1-5.4c3.1-1.2,6.2-1.9,9.6-1.9
			c7.5,0,13.6,2.3,18,7c4.5,4.7,6.6,11.6,6.6,20.8c0,0.9,0,1.9-0.1,2.9s-0.1,2-0.2,2.8h-34.3c0.4,3.2,1.8,5.6,4.5,7.5
			c2.6,1.9,6,2.8,10.3,2.8c2.8,0,5.5-0.2,8.1-0.8c2.7-0.5,4.9-1.2,6.6-1.9l2,12.6c-0.8,0.4-1.9,0.8-3.2,1.2
			c-1.4,0.4-2.9,0.8-4.6,1.1c-1.6,0.4-3.5,0.6-5.3,0.8c-1.9,0.2-3.8,0.4-5.6,0.4c-4.7,0-9-0.7-12.6-2.1s-6.6-3.4-8.8-6
			c-2.2-2.5-4.1-5.4-5.1-8.8C364.4,65,363.8,61.4,363.8,57.4z M399.4,51.5c-0.1-1.3-0.2-2.6-0.7-3.8c-0.4-1.2-0.9-2.3-1.8-3.4
			c-0.8-0.9-1.8-1.8-2.9-2.3c-1.2-0.6-2.7-0.9-4.5-0.9s-3.2,0.2-4.5,0.8c-1.2,0.6-2.2,1.3-3.1,2.3c-0.8,1.2-1.4,2.1-1.9,3.3
			c-0.5,1.3-0.8,2.6-0.9,3.9L399.4,51.5z"/>
	</g>
</g>
</svg>
