<svg xmlns="http://www.w3.org/2000/svg" xmlns:xlink="http://www.w3.org/1999/xlink" width="900" height="250" viewBox="0 0 900 250"><defs><clipPath id="a"><rect width="888.29" height="218.598" fill="#fff"/></clipPath><clipPath id="c"><rect width="900" height="250"/></clipPath></defs><g id="b" clip-path="url(#c)"><g transform="translate(5.855 15.701)"><g clip-path="url(#a)"><path d="M186.58,32.011a109.3,109.3,0,1,0,0,154.57,109.3,109.3,0,0,0,0-154.57m-14.39,87.87h-35.7v54.3h-53v-54.3H42.69l-17.5-50.3h168.2Z" fill="#fff"/><path d="M268.99,70.681h63.8v17.8h-21.4v54.4h-21v-54.4h-21.4Z" fill="#fff"/><path d="M338.99,70.681h23.3l13.7,24.4,13.7-24.4h23.2l-26.4,42v30.2h-21v-30.2Z" fill="#fff"/><path d="M423.39,70.681h19.6l25.6,40v-40h19.8v72.2h-19.8l-25.4-39.7v39.7h-19.8Z" fill="#fff"/><path d="M546.59,130.981h-23.8l-3.3,11.9h-21.4l25.5-72.2h22.9l25.5,72.2h-22Zm-4.3-15.7-7.5-26-7.4,26Z" fill="#fff"/><path d="M625.79,113.281l18.4,5.9a36.594,36.594,0,0,1-5.8,13.7,25.392,25.392,0,0,1-9.9,8.3c-3.9,1.8-8.9,2.8-15,2.8-7.4,0-13.4-1.1-18.1-3.4s-8.7-6.3-12.1-12-5.1-13.1-5.1-22.1c0-11.9,3-21.1,9-27.5s14.4-9.6,25.4-9.6c8.6,0,15.3,1.8,20.2,5.5s8.5,9.3,10.9,16.9l-18.5,4.4a16,16,0,0,0-2-4.8,12.267,12.267,0,0,0-4.3-3.9,12.641,12.641,0,0,0-16.6,4.7c-1.9,3-2.9,7.8-2.9,14.2,0,8,1.1,13.5,3.4,16.5a11.413,11.413,0,0,0,9.6,4.5c4,0,7-1.2,9.1-3.6a27.208,27.208,0,0,0,4.3-10.5" fill="#fff"/><path d="M655.29,106.781c0-11.8,3.1-21,9.3-27.5q9.3-9.9,25.8-9.9c11.3,0,20,3.2,26.1,9.7s9.2,15.5,9.2,27.1c0,8.4-1.3,15.4-4,20.8a29.466,29.466,0,0,1-11.6,12.6q-7.5,4.5-18.9,4.5c-7.7,0-14-1.3-19-3.9a29.518,29.518,0,0,1-12.2-12.3c-3.1-5.6-4.7-12.6-4.7-21.1m21,.1c0,7.3,1.3,12.5,3.8,15.7a12.5,12.5,0,0,0,10.4,4.8,12.767,12.767,0,0,0,10.5-4.7c2.5-3.1,3.7-8.7,3.7-16.8,0-6.8-1.3-11.8-3.9-14.9a13.036,13.036,0,0,0-10.5-4.7,12.514,12.514,0,0,0-10.2,4.8c-2.5,3.2-3.8,8.5-3.8,15.8" fill="#fff"/><path d="M737.89,106.781c0-11.8,3.1-21,9.3-27.5q9.3-9.9,25.8-9.9c11.3,0,20,3.2,26.1,9.7s9.2,15.5,9.2,27.1c0,8.4-1.3,15.4-4,20.8a29.466,29.466,0,0,1-11.6,12.6q-7.5,4.5-18.9,4.5c-7.7,0-14-1.3-19-3.9a29.517,29.517,0,0,1-12.2-12.3c-3.1-5.6-4.7-12.6-4.7-21.1m21,.1c0,7.3,1.3,12.5,3.8,15.7a12.5,12.5,0,0,0,10.4,4.8,12.767,12.767,0,0,0,10.5-4.7c2.5-3.1,3.7-8.7,3.7-16.8,0-6.8-1.3-11.8-3.9-14.9a13.036,13.036,0,0,0-10.5-4.7,12.514,12.514,0,0,0-10.2,4.8c-2.5,3.2-3.8,8.5-3.8,15.8" fill="#fff"/><path d="M823.29,70.681h19.6l25.6,40v-40h19.8v72.2h-19.9l-25.4-39.7v39.7h-19.7Z" fill="#fff"/></g></g></g></svg>