<?xml version="1.0" encoding="UTF-8"?><svg id="Ebene_1" xmlns="http://www.w3.org/2000/svg" viewBox="0 0 150 100"><defs><style>.cls-1{opacity:.65;}.cls-1,.cls-2,.cls-3,.cls-4{stroke-width:0px;}.cls-1,.cls-2,.cls-4{fill:#aaa;}.cls-5{stroke-width:6px;}.cls-5,.cls-6{fill:none;stroke:#aaa;stroke-linecap:round;stroke-linejoin:bevel;}.cls-6{stroke-width:4px;}.cls-7{opacity:.55;}.cls-8{opacity:.75;}.cls-3{fill:#fff;}.cls-4{opacity:.66;}</style></defs><g class="cls-7"><rect class="cls-2" x="42.42" y="9.06" width="65.4" height="81.19" rx="3.65" ry="3.65"/></g><g class="cls-8"><rect class="cls-3" x="48.73" y="16.01" width="51.76" height="34.26" rx="2.11" ry="2.11"/><circle class="cls-4" cx="81.57" cy="28.25" r="4.17"/><path class="cls-1" d="m73.24,50.28l11.22-11.28c1.51-1.52,3.97-1.52,5.48,0l8,8.04,2.27,2.19c-.36.62-1.04,1.04-1.81,1.04h-25.18"/><path class="cls-2" d="m84.02,50.28h-33.07c-1.23,0-2.22-1-2.22-2.22v-2.89s.01-.06.03-.08l.42-.41,11.66-11.66c1.71-1.71,4.48-1.71,6.19,0l17.25,17.25h-.26Z"/></g><line class="cls-5" x1="51.73" y1="59.82" x2="96.52" y2="59.82"/><line class="cls-6" x1="80.43" y1="71.75" x2="90.4" y2="71.75"/><line class="cls-6" x1="50.73" y1="71.75" x2="72.86" y2="71.75"/><line class="cls-6" x1="68.78" y1="79.49" x2="87.01" y2="79.49"/><line class="cls-6" x1="50.73" y1="79.49" x2="61.45" y2="79.49"/></svg>