<svg xmlns="http://www.w3.org/2000/svg" fill="none" viewBox="0 0 150 100"><g clip-path="url(#a)"><path fill="#AAA" d="M103.75 9h-58.1A3.65 3.65 0 0 0 42 12.65v73.89a3.65 3.65 0 0 0 3.65 3.65h58.1a3.65 3.65 0 0 0 3.65-3.65V12.65A3.65 3.65 0 0 0 103.75 9" opacity=".55"/><g opacity=".75"><path fill="#fff" d="M97.96 15.96H50.42a2.11 2.11 0 0 0-2.11 2.11v30.04a2.11 2.11 0 0 0 2.11 2.11h47.54a2.11 2.11 0 0 0 2.11-2.11V18.07a2.11 2.11 0 0 0-2.11-2.11"/><path fill="#AAA" d="M81.16 32.36a4.17 4.17 0 1 0 0-8.34 4.17 4.17 0 0 0 0 8.34" opacity=".66"/><path fill="#AAA" d="m72.83 50.22 11.22-11.28a3.863 3.863 0 0 1 5.48 0l8 8.04 2.27 2.19c-.36.62-1.04 1.04-1.81 1.04H72.81" opacity=".65"/><path fill="#AAA" d="M83.61 50.22H50.53c-1.23 0-2.22-1-2.22-2.22v-2.89s.01-.06.03-.08l.42-.41 11.66-11.66a4.376 4.376 0 0 1 6.19 0l17.25 17.25h-.26z"/></g><path stroke="#AAA" stroke-linecap="round" stroke-linejoin="bevel" stroke-width="6" d="M51.31 59.76h44.8"/><path stroke="#AAA" stroke-linecap="round" stroke-linejoin="bevel" stroke-width="4" d="M80.02 71.69h9.97m-39.68 0h22.14m-4.08 7.74H86.6m-36.29 0h10.73"/></g><defs><clipPath id="a"><path fill="#fff" d="M42 9h65.4v81.19H42z"/></clipPath></defs></svg>