<svg xmlns="http://www.w3.org/2000/svg" width="150" height="100"><g fill="none" fill-rule="evenodd"><path stroke="#aaa" stroke-width="2" d="M49 17h52v67H49z"/><path fill="#aaa" d="m70.303 27.202 5.757 9.647c.07.119.224.15.337.072l4.884-3.332a.485.485 0 0 1 .685.13l8.875 10.049c.15.228.042.413-.223.413h-31.21c-.275 0-.394-.193-.265-.436l10.672-16.537c.128-.24.35-.239.488-.006M55.455 66.75h39.091v4.514H55.455z"/><path stroke="#aaa" stroke-linecap="square" stroke-width=".9" d="M58.636 75.326h31.819M59.545 61.785H65M72.273 61.785h5.454M85 61.785h5.455"/><g fill="#aaa" transform="translate(58.182 51.403)"><ellipse cx="4.091" cy="4.063" rx="4.091" ry="4.063"/><ellipse cx="16.818" cy="4.063" rx="4.091" ry="4.063"/><ellipse cx="29.545" cy="4.063" rx="4.091" ry="4.063"/></g><path fill="#aaa" d="M87.273 28.833A2.718 2.718 0 0 0 90 26.125a2.718 2.718 0 0 0-2.727-2.708 2.718 2.718 0 0 0-2.728 2.708 2.718 2.718 0 0 0 2.728 2.708"/></g></svg>