<svg xmlns="http://www.w3.org/2000/svg" fill="none" viewBox="0 0 150 100"><g clip-path="url(#clip0_5_77)"><rect width="36" height="13" x="23" y="18" fill="#FF9F00" rx="6.5"/><path fill="#fff" d="M28.7 28.5v-7.2h2.33l.35.005q.266.005.51.035.87.105 1.475.605t.92 1.27.315 1.685-.315 1.685-.92 1.27-1.475.605q-.244.03-.51.035l-.35.005zm1.38-1.28h.95q.135 0 .365-.005a3 3 0 0 0 .415-.045 1.32 1.32 0 0 0 .765-.44q.3-.345.44-.83a3.5 3.5 0 0 0 .145-1q0-.54-.15-1.025a2.1 2.1 0 0 0-.445-.82 1.33 1.33 0 0 0-.755-.425 2 2 0 0 0-.415-.045l-.365-.005h-.95zm5.024 1.28 2.2-7.2h2.03l2.2 7.2h-1.4l-1.96-6.35h.26l-1.93 6.35zm1.32-1.5v-1.27h3.8V27zm7.08 1.5v-5.93h-2.27V21.3h5.9v1.27h-2.27v5.93zm3.739 0 2.2-7.2h2.03l2.2 7.2h-1.4l-1.96-6.35h.26l-1.93 6.35zm1.32-1.5v-1.27h3.8V27z"/></g><g clip-path="url(#a)"><path stroke="#AAA" stroke-linecap="round" stroke-width="4.64" d="M17.32 17.88c0-2.52 2.11-4.56 4.71-4.56h106.2c2.6 0 4.71 2.04 4.71 4.56m.01 64.99c0 2.52-2.11 4.56-4.71 4.56H22.03c-2.6 0-4.71-2.04-4.71-4.56" opacity=".55"/><path fill="#AAA" d="M52.34 56.63c-.91 0-1.77-.16-2.59-.48s-1.54-.8-2.17-1.44c-.63-.63-1.13-1.42-1.49-2.35s-.54-2.01-.54-3.23c0-1.59.31-2.95.92-4.06.61-1.12 1.43-1.97 2.46-2.56s2.17-.88 3.43-.88c1.85 0 3.31.43 4.37 1.29s1.77 2.08 2.13 3.65l-2.78.4c-.26-.84-.69-1.51-1.28-2.01s-1.34-.76-2.26-.76c-.91-.01-1.67.18-2.28.59s-1.06.98-1.37 1.73c-.3.75-.45 1.62-.45 2.62s.15 1.87.45 2.6.76 1.3 1.37 1.71q.915.615 2.28.63c.62.01 1.18-.09 1.68-.32s.93-.58 1.28-1.07.59-1.11.74-1.87h-2.28v-2.1h5.18c.01.09.02.24.03.46s0 .35 0 .38c0 1.38-.28 2.6-.84 3.67a6.14 6.14 0 0 1-2.37 2.5c-1.02.6-2.22.91-3.61.91zm8.82-.3v-10.8h2.4v2.64l-.26-.34c.14-.37.33-.71.56-1.02s.52-.56.86-.76c.26-.16.54-.29.85-.38s.62-.15.95-.17.65-.01.98.03v2.54c-.3-.09-.65-.12-1.04-.1-.4.03-.75.12-1.08.28-.32.15-.59.34-.81.58s-.39.53-.5.86-.17.7-.17 1.12v5.52zm12.89.3c-1.09 0-2.04-.24-2.86-.73a5.1 5.1 0 0 1-1.92-2.02c-.46-.86-.69-1.84-.69-2.96s.23-2.12.7-2.97 1.11-1.53 1.93-2c.82-.48 1.76-.72 2.83-.72s2.04.24 2.87.73q1.23.735 1.92 2.01c.46.86.69 1.84.69 2.96s-.23 2.11-.7 2.97c-.46.86-1.11 1.53-1.93 2.01s-1.78.72-2.86.72zm0-2.54c.87 0 1.53-.29 1.96-.88s.65-1.35.65-2.28-.22-1.73-.66-2.3-1.08-.86-1.95-.86c-.59 0-1.08.13-1.46.4q-.57.405-.84 1.11c-.18.47-.28 1.02-.28 1.65q0 1.455.66 2.31c.44.57 1.08.85 1.92.85m11.7 2.56c-.85 0-1.54-.14-2.07-.43s-.95-.65-1.24-1.09c-.3-.44-.51-.9-.64-1.38s-.2-.91-.23-1.3-.04-.68-.04-.86v-6.06h2.76v5.1c0 .25.01.56.04.95s.11.77.25 1.16.37.71.68.97q.48.39 1.35.39c.23 0 .48-.04.75-.11s.52-.22.75-.43.42-.52.58-.93c.15-.41.22-.95.22-1.62l1.56.74c0 .85-.17 1.65-.52 2.4s-.87 1.35-1.57 1.81-1.57.69-2.63.69m3.5-.32v-3.58h-.34v-7.22h2.74v10.8zm5.18 4.8v-15.6h2.4v7.4h.34v8.2zm5.32-4.5c-1.07 0-1.97-.25-2.69-.75s-1.26-1.18-1.62-2.04q-.54-1.29-.54-2.91c0-1.62.18-2.05.54-2.91q.54-1.29 1.59-2.04c.7-.5 1.56-.75 2.59-.75s1.93.25 2.7.74 1.36 1.17 1.79 2.03.63 1.83.63 2.93-.21 2.05-.62 2.91c-.42.86-1 1.54-1.75 2.04s-1.62.75-2.61.75zm-.44-2.42c.59 0 1.07-.15 1.44-.44s.65-.69.83-1.19.27-1.05.27-1.66-.09-1.15-.28-1.64c-.19-.5-.47-.89-.86-1.19s-.89-.44-1.5-.44c-.57 0-1.03.14-1.38.41s-.61.66-.77 1.15-.24 1.07-.24 1.72.08 1.23.24 1.72.42.88.79 1.15.85.41 1.46.41"/></g><defs><clipPath id="a"><path fill="#fff" d="M15 11h120.27v78.75H15z"/></clipPath></defs></svg>