<svg xmlns="http://www.w3.org/2000/svg" fill="none" viewBox="0 0 150 100"><g clip-path="url(#clip0_5_77)"><rect width="36" height="13" x="23" y="18" fill="#FF9F00" rx="6.5"/><path fill="#fff" d="M28.7 28.5v-7.2h2.33l.35.005c.177.003.347.015.51.035.58.07 1.072.272 1.475.605.403.333.71.757.92 1.27.21.513.315 1.075.315 1.685 0 .61-.105 1.172-.315 1.685-.21.513-.517.937-.92 1.27-.403.333-.895.535-1.475.605-.163.02-.333.032-.51.035l-.35.005zm1.38-1.28h.95c.09 0 .212-.002.365-.005a2.94 2.94 0 0 0 .415-.045 1.32 1.32 0 0 0 .765-.44c.2-.23.347-.507.44-.83a3.46 3.46 0 0 0 .145-1c0-.36-.05-.702-.15-1.025a2.119 2.119 0 0 0-.445-.82 1.333 1.333 0 0 0-.755-.425 2.192 2.192 0 0 0-.415-.045 17.95 17.95 0 0 0-.365-.005h-.95zm5.024 1.28 2.2-7.2h2.03l2.2 7.2h-1.4l-1.96-6.35h.26l-1.93 6.35zm1.32-1.5v-1.27h3.8V27zm7.08 1.5v-5.93h-2.27V21.3h5.9v1.27h-2.27v5.93zm3.739 0 2.2-7.2h2.03l2.2 7.2h-1.4l-1.96-6.35h.26l-1.93 6.35zm1.32-1.5v-1.27h3.8V27z"/></g><g clip-path="url(#a)"><path stroke="#AAA" stroke-linecap="round" stroke-width="4.64" d="M17.32 17.88c0-2.52 2.11-4.56 4.71-4.56h106.2c2.6 0 4.71 2.04 4.71 4.56M132.95 82.87c0 2.52-2.11 4.56-4.71 4.56H22.03c-2.6 0-4.71-2.04-4.71-4.56" opacity=".55"/><path fill="#AAA" d="M52.34 56.63c-.91 0-1.77-.16-2.59-.48-.82-.32-1.54-.8-2.17-1.44-.63-.63-1.13-1.42-1.49-2.35-.36-.93-.54-2.01-.54-3.23 0-1.59.31-2.95.92-4.06.61-1.12 1.43-1.97 2.46-2.56 1.03-.59 2.17-.88 3.43-.88 1.85 0 3.31.43 4.37 1.29 1.06.86 1.77 2.08 2.13 3.65l-2.78.4c-.26-.84-.69-1.51-1.28-2.01-.59-.5-1.34-.76-2.26-.76-.91-.01-1.67.18-2.28.59-.61.41-1.06.98-1.37 1.73-.3.75-.45 1.62-.45 2.62s.15 1.87.45 2.6c.3.73.76 1.3 1.37 1.71.61.41 1.37.62 2.28.63.62.01 1.18-.09 1.68-.32s.93-.58 1.28-1.07c.35-.49.59-1.11.74-1.87h-2.28v-2.1h5.18c.01.09.02.24.03.46.01.22 0 .35 0 .38 0 1.38-.28 2.6-.84 3.67a6.142 6.142 0 0 1-2.37 2.5c-1.02.6-2.22.91-3.61.91zM61.16 56.33v-10.8h2.4v2.64l-.26-.34c.14-.37.33-.71.56-1.02.23-.31.52-.56.86-.76.26-.16.54-.29.85-.38.31-.09.62-.15.95-.17.33-.02.65-.01.98.03v2.54c-.3-.09-.65-.12-1.04-.1-.4.03-.75.12-1.08.28-.32.15-.59.34-.81.58-.22.24-.39.53-.5.86-.11.33-.17.7-.17 1.12v5.52zM74.05 56.63c-1.09 0-2.04-.24-2.86-.73a5.115 5.115 0 0 1-1.92-2.02c-.46-.86-.69-1.84-.69-2.96 0-1.12.23-2.12.7-2.97.47-.85 1.11-1.53 1.93-2 .82-.48 1.76-.72 2.83-.72s2.04.24 2.87.73c.82.49 1.46 1.16 1.92 2.01.46.86.69 1.84.69 2.96 0 1.12-.23 2.11-.7 2.97-.46.86-1.11 1.53-1.93 2.01-.82.48-1.78.72-2.86.72zm0-2.54c.87 0 1.53-.29 1.96-.88.43-.59.65-1.35.65-2.28 0-.93-.22-1.73-.66-2.3-.44-.57-1.08-.86-1.95-.86-.59 0-1.08.13-1.46.4-.38.27-.66.64-.84 1.11-.18.47-.28 1.02-.28 1.65 0 .97.22 1.74.66 2.31.44.57 1.08.85 1.92.85M85.75 56.65c-.85 0-1.54-.14-2.07-.43-.53-.29-.95-.65-1.24-1.09-.3-.44-.51-.9-.64-1.38-.13-.48-.2-.91-.23-1.3s-.04-.68-.04-.86v-6.06h2.76v5.1c0 .25.01.56.04.95.03.39.11.77.25 1.16.14.39.37.71.68.97.32.26.77.39 1.35.39.23 0 .48-.04.75-.11s.52-.22.75-.43c.23-.21.42-.52.58-.93.15-.41.22-.95.22-1.62l1.56.74c0 .85-.17 1.65-.52 2.4s-.87 1.35-1.57 1.81c-.7.46-1.57.69-2.63.69m3.5-.32v-3.58h-.34v-7.22h2.74v10.8zM94.43 61.13v-15.6h2.4v7.4h.34v8.2zm5.32-4.5c-1.07 0-1.97-.25-2.69-.75s-1.26-1.18-1.62-2.04c-.36-.86-.54-1.83-.54-2.91s.18-2.05.54-2.91c.36-.86.89-1.54 1.59-2.04.7-.5 1.56-.75 2.59-.75 1.03 0 1.93.25 2.7.74.77.49 1.36 1.17 1.79 2.03.43.86.63 1.83.63 2.93s-.21 2.05-.62 2.91c-.42.86-1 1.54-1.75 2.04s-1.62.75-2.61.75zm-.44-2.42c.59 0 1.07-.15 1.44-.44.37-.29.65-.69.83-1.19.18-.5.27-1.05.27-1.66 0-.61-.09-1.15-.28-1.64-.19-.5-.47-.89-.86-1.19-.39-.3-.89-.44-1.5-.44-.57 0-1.03.14-1.38.41-.35.27-.61.66-.77 1.15-.16.49-.24 1.07-.24 1.72 0 .65.08 1.23.24 1.72.16.49.42.88.79 1.15.37.27.85.41 1.46.41"/></g><defs><clipPath id="a"><path fill="#fff" d="M15 11h120.27v78.75H15z"/></clipPath></defs></svg>