<svg xmlns="http://www.w3.org/2000/svg" fill="none" viewBox="0 0 150 100"><g clip-path="url(#a)"><path fill="#AAA" fill-opacity=".75" d="M131.64 9H19a5 5 0 0 0-5 5v71.19a5 5 0 0 0 5 5h112.64a5 5 0 0 0 5-5V14a5 5 0 0 0-5-5" opacity=".55"/><path stroke="#AAA" stroke-linecap="round" stroke-linejoin="round" stroke-width="3.49" d="m24 53-3-3 3-3m102 0 3 3-3 3" opacity=".75"/><g opacity=".55"><path fill="#fff" d="M88.554 30H33.446A2.446 2.446 0 0 0 31 32.446v34.829a2.446 2.446 0 0 0 2.446 2.446h55.108A2.446 2.446 0 0 0 91 67.275V32.446A2.446 2.446 0 0 0 88.554 30"/><path stroke="#AAA" stroke-linecap="round" stroke-linejoin="bevel" stroke-width="6" d="M41.403 42.457h35.62"/><path stroke="#AAA" stroke-linecap="round" stroke-linejoin="bevel" stroke-width="4" d="M64.23 53.079h7.927m-31.55 0h17.604m-3.244 7.243h14.495m-28.855 0h8.532"/></g></g><defs><clipPath id="a"><path fill="#fff" d="M14 9h122.64v81.19H14z"/></clipPath></defs></svg>