<svg xmlns="http://www.w3.org/2000/svg" fill="none" viewBox="0 0 150 100"><path stroke="#AAA" stroke-dasharray="5 5" stroke-linecap="round" stroke-width="2" d="M16 15a4 4 0 0 1 4-4h111a3 3 0 0 1 3 3v72a3 3 0 0 1-3 3H19a3 3 0 0 1-3-3z"/><g clip-path="url(#a)"><rect width="36" height="13" x="23" y="18" fill="#FF9F00" rx="6.5"/><path fill="#fff" d="M28.7 28.5v-7.2h2.33l.35.005q.266.005.51.035.87.105 1.475.605t.92 1.27.315 1.685-.315 1.685-.92 1.27-1.475.605q-.244.03-.51.035l-.35.005zm1.38-1.28h.95q.135 0 .365-.005a3 3 0 0 0 .415-.045 1.32 1.32 0 0 0 .765-.44q.3-.345.44-.83a3.5 3.5 0 0 0 .145-1q0-.54-.15-1.025a2.1 2.1 0 0 0-.445-.82 1.33 1.33 0 0 0-.755-.425 2 2 0 0 0-.415-.045l-.365-.005h-.95zm5.024 1.28 2.2-7.2h2.03l2.2 7.2h-1.4l-1.96-6.35h.26l-1.93 6.35zm1.32-1.5v-1.27h3.8V27zm7.08 1.5v-5.93h-2.27V21.3h5.9v1.27h-2.27v5.93zm3.739 0 2.2-7.2h2.03l2.2 7.2h-1.4l-1.96-6.35h.26l-1.93 6.35zm1.32-1.5v-1.27h3.8V27z"/></g><g stroke="#AAA" stroke-linecap="round" stroke-linejoin="round" stroke-width="3" clip-path="url(#b)" opacity=".75"><path d="M56.5 51.61v-4.56c0-2.51 2.04-4.55 4.56-4.55h4.56M56.5 69.84v4.56c0 2.52 2.04 4.56 4.56 4.56h4.56M83.84 42.5h4.56c2.52 0 4.56 2.04 4.56 4.56v4.56m-9.12 27.33h4.56c2.52 0 4.56-2.04 4.56-4.56v-4.56M74.73 58.45v.02m0 15.92L66.76 63c-2.44-4.4-.84-9.95 3.56-12.39s9.95-.84 12.39 3.56a9.1 9.1 0 0 1 0 8.82l-7.97 11.39"/></g><defs><clipPath id="a"><rect width="36" height="13" x="23" y="18" fill="#fff" rx="6.5"/></clipPath><clipPath id="b"><path fill="#fff" d="M55 41h39.45v39.45H55z"/></clipPath></defs></svg>