<svg xmlns="http://www.w3.org/2000/svg" fill="none" viewBox="0 0 150 100"><g fill="#AAA" clip-path="url(#a)"><path d="M24 58.64V41.36h3.26v7.1h7.73v-7.1h3.26v17.28h-3.26v-7.13h-7.73v7.13zm23.64.36c-1.33 0-2.5-.29-3.51-.86a6.27 6.27 0 0 1-2.38-2.36c-.57-1-.86-2.15-.86-3.45 0-1.42.28-2.65.84-3.7s1.33-1.86 2.32-2.44c.98-.58 2.12-.87 3.4-.87 1.36 0 2.52.32 3.47.96s1.66 1.54 2.11 2.7.62 2.52.48 4.09h-3.23v-1.2q0-1.98-.63-2.85c-.42-.58-1.11-.87-2.06-.87-1.11 0-1.93.34-2.45 1.01-.52.68-.79 1.67-.79 2.99 0 1.21.26 2.14.79 2.8q.78.99 2.31.99c.64 0 1.19-.14 1.64-.42.46-.28.8-.68 1.04-1.21l3.26.94q-.735 1.77-2.31 2.76c-1.05.66-2.2.98-3.45.98zm-4.3-5.93v-2.42h8.59v2.42zM59.57 59c-.93 0-1.71-.18-2.36-.53-.64-.36-1.13-.83-1.46-1.43s-.5-1.25-.5-1.97c0-.6.09-1.15.28-1.64.18-.5.48-.93.89-1.31s.97-.7 1.66-.95c.48-.18 1.05-.33 1.72-.47s1.42-.27 2.26-.39 1.76-.26 2.77-.41l-1.18.65c0-.77-.18-1.33-.55-1.69s-.98-.54-1.85-.54c-.48 0-.98.12-1.5.35s-.88.64-1.09 1.24l-2.95-.94c.33-1.07.94-1.94 1.85-2.62.9-.67 2.14-1.01 3.7-1.01 1.14 0 2.16.18 3.05.53s1.56.96 2.02 1.82c.26.48.41.96.46 1.44s.07 1.02.07 1.61v7.92H64V56l.41.55c-.63.87-1.31 1.5-2.05 1.89-.73.39-1.66.58-2.78.58zm.7-2.57c.6 0 1.11-.11 1.52-.32s.74-.45.98-.73c.24-.27.41-.5.5-.68.17-.35.27-.76.29-1.23.03-.47.04-.86.04-1.17l.96.24c-.97.16-1.75.29-2.35.4s-1.08.21-1.45.29c-.37.09-.69.18-.97.29-.32.13-.58.27-.77.41-.2.15-.34.31-.43.49s-.14.37-.14.59c0 .3.07.55.22.76s.36.37.63.49.6.17.97.17M75.21 59c-1.19 0-2.24-.3-3.13-.9-.9-.6-1.59-1.42-2.09-2.45s-.75-2.2-.75-3.49.25-2.49.76-3.52 1.22-1.84 2.14-2.43 2-.89 3.24-.89 2.27.3 3.11.9 1.48 1.42 1.91 2.45.65 2.2.65 3.49-.22 2.46-.65 3.49c-.44 1.03-1.09 1.85-1.95 2.45s-1.94.9-3.23.9zm.53-2.9c.73 0 1.31-.16 1.75-.49s.75-.79.94-1.38.29-1.28.29-2.06-.1-1.47-.29-2.06-.5-1.05-.92-1.38-.97-.49-1.65-.49c-.73 0-1.33.18-1.79.53-.47.36-.81.83-1.04 1.43s-.34 1.25-.34 1.97.11 1.39.32 1.99c.22.6.55 1.07 1 1.42s1.02.53 1.73.53zm2.98 2.54v-8.88h-.41v-8.4h3.29v17.28zm6.48 0V41h3.26v17.64zm7.1-14.76V41h3.26v2.88zm0 14.76V45.68h3.26v12.96zm6.84 0V45.68h2.9v4.3h.41v8.66zm8.86 0v-6.12c0-.3-.02-.67-.05-1.13s-.13-.92-.3-1.39-.44-.85-.82-1.16-.92-.47-1.61-.47c-.28 0-.58.04-.9.13q-.48.135-.9.51c-.42.375-.51.62-.69 1.11s-.27 1.14-.27 1.94l-1.87-.89c0-1.02.21-1.98.62-2.88a5.13 5.13 0 0 1 1.88-2.17c.84-.55 1.89-.83 3.16-.83 1.02 0 1.84.17 2.48.52.64.34 1.14.78 1.49 1.31.36.53.61 1.08.76 1.65s.24 1.09.28 1.57c.03.47.05.82.05 1.03v7.27zm12.21.36c-1.33 0-2.5-.29-3.51-.86a6.27 6.27 0 0 1-2.38-2.36c-.57-1-.86-2.15-.86-3.45 0-1.42.28-2.65.84-3.7s1.33-1.86 2.32-2.44c.98-.58 2.12-.87 3.4-.87 1.36 0 2.52.32 3.47.96s1.66 1.54 2.11 2.7.62 2.52.48 4.09h-3.23v-1.2q0-1.98-.63-2.85c-.42-.58-1.11-.87-2.06-.87-1.11 0-1.93.34-2.45 1.01-.52.68-.79 1.67-.79 2.99 0 1.21.26 2.14.79 2.8q.78.99 2.31.99c.64 0 1.19-.14 1.64-.42.46-.28.8-.68 1.04-1.21l3.26.94q-.735 1.77-2.31 2.76c-1.05.66-2.2.98-3.45.98zm-4.3-5.93v-2.42h8.59v2.42z"/></g><defs><clipPath id="a"><path fill="#fff" d="M24 41h102.13v18H24z"/></clipPath></defs></svg>