<svg viewBox="0 0 150 100" fill="none" xmlns="http://www.w3.org/2000/svg">
<g id="headline">
<g id="Ebene_1" clip-path="url(#clip0_5_329)">
<path id="Vector" d="M24 58.64V41.36H27.26V48.46H34.99V41.36H38.25V58.64H34.99V51.51H27.26V58.64H24Z" fill="#AAAAAA"/>
<path id="Vector_2" d="M47.64 59C46.31 59 45.14 58.71 44.13 58.14C43.12 57.57 42.33 56.78 41.75 55.78C41.18 54.78 40.89 53.63 40.89 52.33C40.89 50.91 41.17 49.68 41.73 48.63C42.29 47.58 43.06 46.77 44.05 46.19C45.03 45.61 46.17 45.32 47.45 45.32C48.81 45.32 49.97 45.64 50.92 46.28C51.87 46.92 52.58 47.82 53.03 48.98C53.48 50.14 53.65 51.5 53.51 53.07H50.28V51.87C50.28 50.55 50.07 49.6 49.65 49.02C49.23 48.44 48.54 48.15 47.59 48.15C46.48 48.15 45.66 48.49 45.14 49.16C44.62 49.84 44.35 50.83 44.35 52.15C44.35 53.36 44.61 54.29 45.14 54.95C45.66 55.61 46.43 55.94 47.45 55.94C48.09 55.94 48.64 55.8 49.09 55.52C49.55 55.24 49.89 54.84 50.13 54.31L53.39 55.25C52.9 56.43 52.13 57.35 51.08 58.01C50.03 58.67 48.88 58.99 47.63 58.99L47.64 59ZM43.34 53.07V50.65H51.93V53.07H43.34Z" fill="#AAAAAA"/>
<path id="Vector_3" d="M59.57 59C58.64 59 57.86 58.82 57.21 58.47C56.57 58.11 56.08 57.64 55.75 57.04C55.42 56.44 55.25 55.79 55.25 55.07C55.25 54.47 55.34 53.92 55.53 53.43C55.71 52.93 56.01 52.5 56.42 52.12C56.83 51.74 57.39 51.42 58.08 51.17C58.56 50.99 59.13 50.84 59.8 50.7C60.47 50.56 61.22 50.43 62.06 50.31C62.9 50.19 63.82 50.05 64.83 49.9L63.65 50.55C63.65 49.78 63.47 49.22 63.1 48.86C62.73 48.5 62.12 48.32 61.25 48.32C60.77 48.32 60.27 48.44 59.75 48.67C59.23 48.9 58.87 49.31 58.66 49.91L55.71 48.97C56.04 47.9 56.65 47.03 57.56 46.35C58.46 45.68 59.7 45.34 61.26 45.34C62.4 45.34 63.42 45.52 64.31 45.87C65.2 46.22 65.87 46.83 66.33 47.69C66.59 48.17 66.74 48.65 66.79 49.13C66.84 49.61 66.86 50.15 66.86 50.74V58.66H64V56L64.41 56.55C63.78 57.42 63.1 58.05 62.36 58.44C61.63 58.83 60.7 59.02 59.58 59.02L59.57 59ZM60.27 56.43C60.87 56.43 61.38 56.32 61.79 56.11C62.2 55.9 62.53 55.66 62.77 55.38C63.01 55.11 63.18 54.88 63.27 54.7C63.44 54.35 63.54 53.94 63.56 53.47C63.59 53 63.6 52.61 63.6 52.3L64.56 52.54C63.59 52.7 62.81 52.83 62.21 52.94C61.61 53.05 61.13 53.15 60.76 53.23C60.39 53.32 60.07 53.41 59.79 53.52C59.47 53.65 59.21 53.79 59.02 53.93C58.82 54.08 58.68 54.24 58.59 54.42C58.5 54.6 58.45 54.79 58.45 55.01C58.45 55.31 58.52 55.56 58.67 55.77C58.82 55.98 59.03 56.14 59.3 56.26C59.57 56.38 59.9 56.43 60.27 56.43Z" fill="#AAAAAA"/>
<path id="Vector_4" d="M75.21 59C74.02 59 72.97 58.7 72.08 58.1C71.18 57.5 70.49 56.68 69.99 55.65C69.49 54.62 69.24 53.45 69.24 52.16C69.24 50.87 69.49 49.67 70 48.64C70.51 47.61 71.22 46.8 72.14 46.21C73.06 45.62 74.14 45.32 75.38 45.32C76.62 45.32 77.65 45.62 78.49 46.22C79.33 46.82 79.97 47.64 80.4 48.67C80.83 49.7 81.05 50.87 81.05 52.16C81.05 53.45 80.83 54.62 80.4 55.65C79.96 56.68 79.31 57.5 78.45 58.1C77.59 58.7 76.51 59 75.22 59H75.21ZM75.74 56.1C76.47 56.1 77.05 55.94 77.49 55.61C77.93 55.28 78.24 54.82 78.43 54.23C78.62 53.64 78.72 52.95 78.72 52.17C78.72 51.39 78.62 50.7 78.43 50.11C78.24 49.52 77.93 49.06 77.51 48.73C77.09 48.4 76.54 48.24 75.86 48.24C75.13 48.24 74.53 48.42 74.07 48.77C73.6 49.13 73.26 49.6 73.03 50.2C72.8 50.8 72.69 51.45 72.69 52.17C72.69 52.89 72.8 53.56 73.01 54.16C73.23 54.76 73.56 55.23 74.01 55.58C74.46 55.93 75.03 56.11 75.74 56.11V56.1ZM78.72 58.64V49.76H78.31V41.36H81.6V58.64H78.72Z" fill="#AAAAAA"/>
<path id="Vector_5" d="M85.2 58.64V41H88.46V58.64H85.2Z" fill="#AAAAAA"/>
<path id="Vector_6" d="M92.3 43.88V41H95.56V43.88H92.3ZM92.3 58.64V45.68H95.56V58.64H92.3Z" fill="#AAAAAA"/>
<path id="Vector_7" d="M99.14 58.64V45.68H102.04V49.98H102.45V58.64H99.14ZM108 58.64V52.52C108 52.22 107.98 51.85 107.95 51.39C107.92 50.93 107.82 50.47 107.65 50C107.48 49.53 107.21 49.15 106.83 48.84C106.45 48.53 105.91 48.37 105.22 48.37C104.94 48.37 104.64 48.41 104.32 48.5C104 48.59 103.7 48.76 103.42 49.01C103.14 49.26 102.91 49.63 102.73 50.12C102.55 50.61 102.46 51.26 102.46 52.06L100.59 51.17C100.59 50.15 100.8 49.19 101.21 48.29C101.63 47.39 102.25 46.67 103.09 46.12C103.93 45.57 104.98 45.29 106.25 45.29C107.27 45.29 108.09 45.46 108.73 45.81C109.37 46.15 109.87 46.59 110.22 47.12C110.58 47.65 110.83 48.2 110.98 48.77C111.13 49.34 111.22 49.86 111.26 50.34C111.29 50.81 111.31 51.16 111.31 51.37V58.64H108Z" fill="#AAAAAA"/>
<path id="Vector_8" d="M120.21 59C118.88 59 117.71 58.71 116.7 58.14C115.69 57.57 114.9 56.78 114.32 55.78C113.75 54.78 113.46 53.63 113.46 52.33C113.46 50.91 113.74 49.68 114.3 48.63C114.86 47.58 115.63 46.77 116.62 46.19C117.6 45.61 118.74 45.32 120.02 45.32C121.38 45.32 122.54 45.64 123.49 46.28C124.44 46.92 125.15 47.82 125.6 48.98C126.05 50.14 126.22 51.5 126.08 53.07H122.85V51.87C122.85 50.55 122.64 49.6 122.22 49.02C121.8 48.44 121.11 48.15 120.16 48.15C119.05 48.15 118.23 48.49 117.71 49.16C117.19 49.84 116.92 50.83 116.92 52.15C116.92 53.36 117.18 54.29 117.71 54.95C118.23 55.61 119 55.94 120.02 55.94C120.66 55.94 121.21 55.8 121.66 55.52C122.12 55.24 122.46 54.84 122.7 54.31L125.96 55.25C125.47 56.43 124.7 57.35 123.65 58.01C122.6 58.67 121.45 58.99 120.2 58.99L120.21 59ZM115.91 53.07V50.65H124.5V53.07H115.91Z" fill="#AAAAAA"/>
</g>
</g>
<defs>
<clipPath id="clip0_5_329">
<rect width="102.13" height="18" fill="white" transform="translate(24 41)"/>
</clipPath>
</defs>
</svg>
