<svg xmlns="http://www.w3.org/2000/svg" fill="none" viewBox="0 0 150 100"><path stroke="#AAA" stroke-dasharray="5 5" stroke-linecap="round" stroke-width="2" d="M16 15a4 4 0 0 1 4-4h111a3 3 0 0 1 3 3v72a3 3 0 0 1-3 3H19a3 3 0 0 1-3-3z"/><g clip-path="url(#a)"><rect width="36" height="13" x="23" y="18" fill="#FF9F00" rx="6.5"/><path fill="#fff" d="M28.7 28.5v-7.2h2.33l.35.005q.266.005.51.035.87.105 1.475.605t.92 1.27.315 1.685-.315 1.685-.92 1.27-1.475.605q-.244.03-.51.035l-.35.005zm1.38-1.28h.95q.135 0 .365-.005a3 3 0 0 0 .415-.045 1.32 1.32 0 0 0 .765-.44q.3-.345.44-.83a3.5 3.5 0 0 0 .145-1q0-.54-.15-1.025a2.1 2.1 0 0 0-.445-.82 1.33 1.33 0 0 0-.755-.425 2 2 0 0 0-.415-.045l-.365-.005h-.95zm5.024 1.28 2.2-7.2h2.03l2.2 7.2h-1.4l-1.96-6.35h.26l-1.93 6.35zm1.32-1.5v-1.27h3.8V27zm7.08 1.5v-5.93h-2.27V21.3h5.9v1.27h-2.27v5.93zm3.739 0 2.2-7.2h2.03l2.2 7.2h-1.4l-1.96-6.35h.26l-1.93 6.35zm1.32-1.5v-1.27h3.8V27z"/></g><g clip-path="url(#b)"><path fill="#AAA" d="M124.36 43.75c.38 0 .69.31.69.69v34.6c0 .38-.31.69-.69.69H26.44c-.38 0-.69-.31-.69-.69v-34.6c0-.38.31-.69.69-.69zm0-2.75H26.44A3.44 3.44 0 0 0 23 44.44v34.6c0 1.9 1.54 3.44 3.44 3.44h97.92c1.9 0 3.44-1.54 3.44-3.44v-34.6c0-1.9-1.54-3.44-3.44-3.44" opacity=".75"/><path fill="#AAA" fill-opacity=".75" d="M124.36 41H26.44A3.44 3.44 0 0 0 23 44.44v34.6c0 1.9 1.54 3.44 3.44 3.44h97.92c1.9 0 3.44-1.54 3.44-3.44v-34.6c0-1.9-1.54-3.44-3.44-3.44" opacity=".25"/><path stroke="#AAA" stroke-width="3" d="M25.76 61.74h99.28" opacity=".75"/><path stroke="#AAA" stroke-linecap="round" stroke-linejoin="round" stroke-width="2" d="m32.31 52.11 3.44 4 6.31-7.34m-9.75 21.55 3.44 4 6.31-7.34"/></g><defs><clipPath id="a"><rect width="36" height="13" x="23" y="18" fill="#fff" rx="6.5"/></clipPath><clipPath id="b"><path fill="#fff" d="M23 41h104.8v41.48H23z"/></clipPath></defs></svg>