<svg xmlns="http://www.w3.org/2000/svg" fill="none" viewBox="0 0 150 100"><g clip-path="url(#a)"><path fill="#AAA" d="M75.04 83.06c18.247 0 33.04-15.012 33.04-33.53S93.287 16 75.04 16C56.792 16 42 31.012 42 49.53s14.792 33.53 33.04 33.53" opacity=".55"/><path stroke="#fff" stroke-miterlimit="10" stroke-width="4" d="m76.99 29.54 5.17 10.48c.32.64.93 1.09 1.64 1.19l11.56 1.68c1.78.26 2.49 2.45 1.2 3.71l-8.37 8.15c-.51.5-.75 1.22-.63 1.92l1.97 11.51c.3 1.78-1.56 3.13-3.15 2.29l-10.34-5.44c-.63-.33-1.39-.33-2.02 0l-10.34 5.44c-1.59.84-3.46-.52-3.15-2.29l1.97-11.51c.12-.71-.11-1.42-.63-1.92L53.5 46.6c-1.29-1.26-.58-3.45 1.2-3.71l11.56-1.68c.71-.1 1.32-.55 1.64-1.19l5.17-10.48c.8-1.62 3.1-1.62 3.9 0z" opacity=".75"/></g><defs><clipPath id="a"><path fill="#fff" d="M42 16h66.09v67.06H42z"/></clipPath></defs></svg>