<svg xmlns="http://www.w3.org/2000/svg" fill="none" viewBox="0 0 150 100"><g clip-path="url(#a)" opacity=".75"><g fill="#AAA" opacity=".55"><path d="M131.64 10H19a4 4 0 0 0-4 4v71.19a4 4 0 0 0 4 4h112.64a4 4 0 0 0 4-4V14a4 4 0 0 0-4-4"/><path d="M131.64 11c1.65 0 3 1.35 3 3v71.19c0 1.65-1.35 3-3 3H19c-1.65 0-3-1.35-3-3V14c0-1.65 1.35-3 3-3zm0-2H19c-2.76 0-5 2.24-5 5v71.19c0 2.76 2.24 5 5 5h112.64c2.76 0 5-2.24 5-5V14c0-2.76-2.24-5-5-5"/></g><path fill="#fff" d="M91.83 47.87c5.457 0 9.88-4.423 9.88-9.88s-4.423-9.88-9.88-9.88-9.88 4.423-9.88 9.88 4.423 9.88 9.88 9.88" opacity=".45"/><path fill="#AAA" d="m72.1 90.19 26.58-26.72a9.15 9.15 0 0 1 12.98 0l18.95 19.05 5.38 5.2a4.95 4.95 0 0 1-4.29 2.47H72.04" opacity=".65"/><path fill="#AAA" d="M97.64 90.19H19.27A5.27 5.27 0 0 1 14 84.92v-6.84c0-.07.03-.14.08-.19l1-.97 27.63-27.63a10.363 10.363 0 0 1 14.66 0l40.88 40.88h-.61z"/></g><g clip-path="url(#clip0_5_77)"><rect width="36" height="13" x="23" y="18" fill="#FF9F00" rx="6.5"/><path fill="#fff" d="M28.7 28.5v-7.2h2.33l.35.005q.266.005.51.035.87.105 1.475.605t.92 1.27.315 1.685-.315 1.685-.92 1.27-1.475.605q-.244.03-.51.035l-.35.005zm1.38-1.28h.95q.135 0 .365-.005a3 3 0 0 0 .415-.045 1.32 1.32 0 0 0 .765-.44q.3-.345.44-.83a3.5 3.5 0 0 0 .145-1q0-.54-.15-1.025a2.1 2.1 0 0 0-.445-.82 1.33 1.33 0 0 0-.755-.425 2 2 0 0 0-.415-.045l-.365-.005h-.95zm5.024 1.28 2.2-7.2h2.03l2.2 7.2h-1.4l-1.96-6.35h.26l-1.93 6.35zm1.32-1.5v-1.27h3.8V27zm7.08 1.5v-5.93h-2.27V21.3h5.9v1.27h-2.27v5.93zm3.739 0 2.2-7.2h2.03l2.2 7.2h-1.4l-1.96-6.35h.26l-1.93 6.35zm1.32-1.5v-1.27h3.8V27z"/></g><defs><clipPath id="a"><path fill="#fff" d="M14 9h122.64v81.19H14z"/></clipPath></defs></svg>