<svg xmlns="http://www.w3.org/2000/svg" fill="none" viewBox="0 0 150 100"><path fill="#AAA" d="M129.8 34H19.98A1.98 1.98 0 0 0 18 35.98v9.72a1.98 1.98 0 0 0 1.98 1.98H129.8a1.98 1.98 0 0 0 1.98-1.98v-9.72A1.98 1.98 0 0 0 129.8 34" opacity=".55"/><path stroke="#AAA" stroke-linecap="round" stroke-linejoin="bevel" stroke-width="5.14" d="M26 41h18m19.25-.16h23.28M104 41h20"/><g filter="url(#a)"><path fill="#D0D0D0" d="M94.627 28H55.153c-1.31 0-2.373.946-2.373 2.113v40.774c0 1.167 1.063 2.113 2.373 2.113h39.474c1.31 0 2.373-.946 2.373-2.114V30.115C97 28.946 95.938 28 94.627 28"/></g><path stroke="#888" stroke-linecap="round" stroke-linejoin="bevel" stroke-width="3.91" d="M60 35.72h25.38"/><path stroke="#AAA" stroke-linecap="round" stroke-linejoin="bevel" stroke-width="3.91" d="M60 46h24M60 56h30M60 66h24" opacity=".75"/><defs><filter id="a" width="48.22" height="49" x="50.78" y="26" color-interpolation-filters="sRGB" filterUnits="userSpaceOnUse"><feFlood flood-opacity="0" result="BackgroundImageFix"/><feColorMatrix in="SourceAlpha" result="hardAlpha" values="0 0 0 0 0 0 0 0 0 0 0 0 0 0 0 0 0 0 127 0"/><feOffset/><feGaussianBlur stdDeviation="1"/><feComposite in2="hardAlpha" operator="out"/><feColorMatrix values="0 0 0 0 0 0 0 0 0 0 0 0 0 0 0 0 0 0 0.25 0"/><feBlend in2="BackgroundImageFix" result="effect1_dropShadow_12_76"/><feBlend in="SourceGraphic" in2="effect1_dropShadow_12_76" result="shape"/></filter></defs></svg>