<svg xmlns="http://www.w3.org/2000/svg" fill="none" viewBox="0 0 150 100"><g clip-path="url(#a)"><path fill="#AAA" d="M47.15 15.72H19.38A2.38 2.38 0 0 0 17 18.1v64.76a2.38 2.38 0 0 0 2.38 2.38h27.77a2.38 2.38 0 0 0 2.38-2.38V18.1a2.38 2.38 0 0 0-2.38-2.38m38.61 0H57.99a2.38 2.38 0 0 0-2.38 2.38v64.76a2.38 2.38 0 0 0 2.38 2.38h27.77a2.38 2.38 0 0 0 2.38-2.38V18.1a2.38 2.38 0 0 0-2.38-2.38" opacity=".55"/><path fill="#AAA" d="M130.2 9H97.06a2.84 2.84 0 0 0-2.84 2.84v77.28a2.84 2.84 0 0 0 2.84 2.84h33.14a2.84 2.84 0 0 0 2.84-2.84V11.84A2.84 2.84 0 0 0 130.2 9" opacity=".75"/><path fill="#fff" d="M115.87 59.48h-4.52V52.8h-6.72v-4.6h6.72v-6.72h4.52v6.72h6.75v4.6h-6.75z" opacity=".75"/></g><defs><clipPath id="a"><path fill="#fff" d="M17 9h116.04v82.96H17z"/></clipPath></defs></svg>