<svg xmlns="http://www.w3.org/2000/svg" fill="none" viewBox="0 0 150 100"><rect width="113" height="20" x="19" y="71" fill="#AAA" opacity=".25" rx="2"/><rect width="113" height="12" x="19" y="10" fill="#AAA" opacity=".55" rx="2"/><path stroke="#AAA" stroke-linecap="round" stroke-linejoin="bevel" stroke-width="4" d="M40 16h11m13 0h14m11 0h13"/><path fill="#AAA" d="M29 19a3 3 0 1 0 0-6 3 3 0 0 0 0 6"/><g stroke="#AAA" stroke-linecap="round"><path stroke-linejoin="bevel" stroke-width="3" d="M25 77h16"/><path stroke-linejoin="bevel" stroke-width="2" d="M28 82h13"/><path stroke-linejoin="round" d="m24.05 83 .872-.805a.23.23 0 0 0 0-.344L24 81"/><path stroke-linejoin="bevel" stroke-width="2" d="M28 86h11"/><path stroke-linejoin="round" d="m24.05 87 .872-.805a.23.23 0 0 0 0-.344L24 85"/></g><g stroke="#AAA" stroke-linecap="round"><path stroke-linejoin="bevel" stroke-width="3" d="M50 77h16"/><path stroke-linejoin="bevel" stroke-width="2" d="M53 82h13"/><path stroke-linejoin="round" d="m49.05 83 .872-.805a.23.23 0 0 0 0-.344L49 81"/><path stroke-linejoin="bevel" stroke-width="2" d="M53 86h11"/><path stroke-linejoin="round" d="m49.05 87 .872-.805a.23.23 0 0 0 0-.344L49 85"/></g><g stroke="#AAA" stroke-linecap="round"><path stroke-linejoin="bevel" stroke-width="3" d="M75 77h16"/><path stroke-linejoin="bevel" stroke-width="2" d="M78 82h13"/><path stroke-linejoin="round" d="m74.05 83 .872-.805a.23.23 0 0 0 0-.344L74 81"/><path stroke-linejoin="bevel" stroke-width="2" d="M78 86h11"/><path stroke-linejoin="round" d="m74.05 87 .872-.805a.23.23 0 0 0 0-.344L74 85"/></g><rect width="29" height="32" x="19" y="28" fill="#AAA" opacity=".15" rx="2"/><path stroke="#AAA" stroke-linecap="round" stroke-linejoin="bevel" stroke-width="2" d="M34.105 45H45m-23 0h8.474m3.631 4H45m-23 0h8.474m3.631 4H45m-23 0h8.474m3.631 4H45m-23 0h8.474M22 41h17"/><g opacity=".75"><path fill="#fff" d="M44.677 30h-22.67c-.556 0-1.007.193-1.007.431v6.138c0 .238.45.431 1.006.431h22.671c.556 0 1.007-.193 1.007-.431V30.43c0-.238-.45-.431-1.007-.431"/><path fill="#AAA" d="M36.666 33.35c1.098 0 1.988-.38 1.988-.851 0-.47-.89-.852-1.988-.852s-1.989.381-1.989.852c0 .47.89.852 1.989.852" opacity=".66"/><path fill="#AAA" d="m32.693 37 5.35-2.305c.721-.31 1.894-.31 2.614 0l3.815 1.643 1.083.447c-.172.127-.496.213-.863.213H32.684" opacity=".65"/><path fill="#AAA" d="M37.834 37H22.06c-.587 0-1.059-.204-1.059-.454v-.59s.005-.012.014-.016l.2-.084 5.561-2.383c.816-.349 2.137-.349 2.952 0l8.226 3.525h-.124z"/></g><rect width="29" height="32" x="51" y="28" fill="#AAA" opacity=".15" rx="2"/><path stroke="#AAA" stroke-linecap="round" stroke-linejoin="bevel" stroke-width="2" d="M66.105 45H77m-23 0h8.474m3.631 4H77m-23 0h8.474m3.631 4H77m-23 0h8.474m3.631 4H77m-23 0h8.474M54 41h17"/><g opacity=".75"><path fill="#fff" d="M76.677 30h-22.67c-.556 0-1.007.193-1.007.431v6.138c0 .238.45.431 1.006.431h22.671c.556 0 1.007-.193 1.007-.431V30.43c0-.238-.45-.431-1.007-.431"/><path fill="#AAA" d="M68.666 33.35c1.098 0 1.988-.38 1.988-.851 0-.47-.89-.852-1.988-.852-1.099 0-1.989.381-1.989.852 0 .47.89.852 1.989.852" opacity=".66"/><path fill="#AAA" d="m64.693 37 5.35-2.305c.721-.31 1.894-.31 2.614 0l3.815 1.643 1.083.447c-.172.127-.496.213-.863.213H64.684" opacity=".65"/><path fill="#AAA" d="M69.834 37H54.06c-.587 0-1.059-.204-1.059-.454v-.59s.005-.012.014-.016l.2-.084 5.561-2.383c.816-.349 2.136-.349 2.952 0l8.226 3.525h-.124z"/></g><rect width="29" height="32" x="83" y="28" fill="#AAA" opacity=".15" rx="2"/><path stroke="#AAA" stroke-linecap="round" stroke-linejoin="bevel" stroke-width="2" d="M98.105 45H109m-23 0h8.474m3.631 4H109m-23 0h8.474m3.631 4H109m-23 0h8.474m3.631 4H109m-23 0h8.474M86 41h17"/><g opacity=".75"><path fill="#fff" d="M108.677 30h-22.67c-.556 0-1.007.193-1.007.431v6.138c0 .238.45.431 1.006.431h22.671c.556 0 1.007-.193 1.007-.431V30.43c0-.238-.451-.431-1.007-.431"/><path fill="#AAA" d="M100.666 33.35c1.098 0 1.988-.38 1.988-.851 0-.47-.89-.852-1.988-.852-1.099 0-1.989.381-1.989.852 0 .47.89.852 1.989.852" opacity=".66"/><path fill="#AAA" d="m96.693 37 5.351-2.305c.72-.31 1.893-.31 2.613 0l3.815 1.643 1.083.447c-.172.127-.496.213-.863.213H96.684" opacity=".65"/><path fill="#AAA" d="M101.834 37H86.059c-.587 0-1.059-.204-1.059-.454v-.59s.005-.012.014-.016l.2-.084 5.561-2.383c.816-.349 2.136-.349 2.952 0l8.226 3.525h-.124z"/></g></svg>