<svg xmlns="http://www.w3.org/2000/svg" fill="none" viewBox="0 0 150 100"><rect width="113" height="20" x="19" y="71" fill="#AAA" opacity=".25" rx="2"/><rect width="113" height="30" x="19" y="39" fill="#AAA" opacity=".15" rx="2"/><rect width="113" height="13" x="19" y="24" fill="#AAA" opacity=".45" rx="2"/><rect width="113" height="12" x="19" y="10" fill="#AAA" opacity=".55" rx="2"/><path stroke="#AAA" stroke-linecap="round" stroke-linejoin="bevel" stroke-width="4" d="M40 16h11m13 0h14m11 0h13"/><path fill="#AAA" d="M29 19a3 3 0 1 0 0-6 3 3 0 0 0 0 6"/><path stroke="#AAA" stroke-linecap="round" stroke-linejoin="bevel" stroke-width="3" d="M50 44h8m-33 0h18m-2 5h14m-30 0h10"/><g opacity=".75"><path fill="#fff" d="M49.293 33.816H19V27h30.293c.39 0 .707.317.707.707v5.407c0 .39-.317.707-.707.707z" opacity=".55"/></g><path stroke="#fff" stroke-linecap="round" stroke-linejoin="bevel" stroke-width="2" d="M22.69 30.52h23.62"/><g stroke="#AAA" stroke-linecap="round"><path stroke-linejoin="bevel" stroke-width="3" d="M25 77h16"/><path stroke-linejoin="bevel" stroke-width="2" d="M28 82h13"/><path stroke-linejoin="round" d="m24.05 83 .872-.805a.23.23 0 0 0 0-.344L24 81"/><path stroke-linejoin="bevel" stroke-width="2" d="M28 86h11"/><path stroke-linejoin="round" d="m24.05 87 .872-.805a.23.23 0 0 0 0-.344L24 85"/></g><g stroke="#AAA" stroke-linecap="round"><path stroke-linejoin="bevel" stroke-width="3" d="M50 77h16"/><path stroke-linejoin="bevel" stroke-width="2" d="M53 82h13"/><path stroke-linejoin="round" d="m49.05 83 .872-.805a.23.23 0 0 0 0-.344L49 81"/><path stroke-linejoin="bevel" stroke-width="2" d="M53 86h11"/><path stroke-linejoin="round" d="m49.05 87 .872-.805a.23.23 0 0 0 0-.344L49 85"/></g><g stroke="#AAA" stroke-linecap="round"><path stroke-linejoin="bevel" stroke-width="3" d="M75 77h16"/><path stroke-linejoin="bevel" stroke-width="2" d="M78 82h13"/><path stroke-linejoin="round" d="m74.05 83 .872-.805a.23.23 0 0 0 0-.344L74 81"/><path stroke-linejoin="bevel" stroke-width="2" d="M78 86h11"/><path stroke-linejoin="round" d="m74.05 87 .872-.805a.23.23 0 0 0 0-.344L74 85"/></g></svg>