<svg viewBox="0 0 150 100" fill="none" xmlns="http://www.w3.org/2000/svg">
<g id="page">
<g id="Group 20">
<rect id="Rectangle 8" opacity="0.25" x="19" y="71" width="113" height="20" rx="2" fill="#AAAAAA"/>
<rect id="Rectangle 9" opacity="0.15" x="19" y="39" width="113" height="30" rx="2" fill="#AAAAAA"/>
<rect id="Rectangle 7" opacity="0.45" x="19" y="24" width="113" height="13" rx="2" fill="#AAAAAA"/>
<g id="Group 13">
<rect id="Rectangle 6" opacity="0.55" x="19" y="10" width="113" height="12" rx="2" fill="#AAAAAA"/>
<path id="Vector" d="M40 16L51 16" stroke="#AAAAAA" stroke-width="4" stroke-linecap="round" stroke-linejoin="bevel"/>
<path id="Vector_2" d="M64 16L78 16" stroke="#AAAAAA" stroke-width="4" stroke-linecap="round" stroke-linejoin="bevel"/>
<path id="Vector_3" d="M89 16L102 16" stroke="#AAAAAA" stroke-width="4" stroke-linecap="round" stroke-linejoin="bevel"/>
<path id="Vector_4" d="M29 19C30.6569 19 32 17.6569 32 16C32 14.3431 30.6569 13 29 13C27.3431 13 26 14.3431 26 16C26 17.6569 27.3431 19 29 19Z" fill="#AAAAAA"/>
</g>
<g id="Group 14">
<path id="Vector_5" d="M50 44H58" stroke="#AAAAAA" stroke-width="3" stroke-linecap="round" stroke-linejoin="bevel"/>
<path id="Vector_6" d="M25 44H43" stroke="#AAAAAA" stroke-width="3" stroke-linecap="round" stroke-linejoin="bevel"/>
<path id="Vector_7" d="M41 49H55" stroke="#AAAAAA" stroke-width="3" stroke-linecap="round" stroke-linejoin="bevel"/>
<path id="Vector_8" d="M25 49H35" stroke="#AAAAAA" stroke-width="3" stroke-linecap="round" stroke-linejoin="bevel"/>
</g>
<g id="Group 12">
<g id="Group" opacity="0.75">
<g id="Group_2" opacity="0.55">
<path id="Vector_9" d="M49.2934 33.8163H19V27H49.2934C49.6827 27 50 27.3173 50 27.7066V33.1144C50 33.5038 49.6827 33.8211 49.2934 33.8211V33.8163Z" fill="white"/>
</g>
</g>
<path id="Vector_10" d="M22.6905 30.5207H46.3095" stroke="white" stroke-width="2" stroke-linecap="round" stroke-linejoin="bevel"/>
</g>
<g id="Group 17">
<path id="Vector_11" d="M25 77H41" stroke="#AAAAAA" stroke-width="3" stroke-linecap="round" stroke-linejoin="bevel"/>
<g id="Group 15">
<path id="Vector_12" d="M28 82H41" stroke="#AAAAAA" stroke-width="2" stroke-linecap="round" stroke-linejoin="bevel"/>
<path id="Vector_13" d="M24.0494 83L24.9218 82.1949C25.0261 82.0987 25.0261 81.9418 24.9218 81.8506L24 81" stroke="#AAAAAA" stroke-linecap="round" stroke-linejoin="round"/>
</g>
<g id="Group 16">
<path id="Vector_14" d="M28 86H39" stroke="#AAAAAA" stroke-width="2" stroke-linecap="round" stroke-linejoin="bevel"/>
<path id="Vector_15" d="M24.0494 87L24.9218 86.1949C25.0261 86.0987 25.0261 85.9418 24.9218 85.8506L24 85" stroke="#AAAAAA" stroke-linecap="round" stroke-linejoin="round"/>
</g>
</g>
<g id="Group 18">
<path id="Vector_16" d="M50 77H66" stroke="#AAAAAA" stroke-width="3" stroke-linecap="round" stroke-linejoin="bevel"/>
<g id="Group 15_2">
<path id="Vector_17" d="M53 82H66" stroke="#AAAAAA" stroke-width="2" stroke-linecap="round" stroke-linejoin="bevel"/>
<path id="Vector_18" d="M49.0494 83L49.9218 82.1949C50.0261 82.0987 50.0261 81.9418 49.9218 81.8506L49 81" stroke="#AAAAAA" stroke-linecap="round" stroke-linejoin="round"/>
</g>
<g id="Group 16_2">
<path id="Vector_19" d="M53 86H64" stroke="#AAAAAA" stroke-width="2" stroke-linecap="round" stroke-linejoin="bevel"/>
<path id="Vector_20" d="M49.0494 87L49.9218 86.1949C50.0261 86.0987 50.0261 85.9418 49.9218 85.8506L49 85" stroke="#AAAAAA" stroke-linecap="round" stroke-linejoin="round"/>
</g>
</g>
<g id="Group 19">
<path id="Vector_21" d="M75 77H91" stroke="#AAAAAA" stroke-width="3" stroke-linecap="round" stroke-linejoin="bevel"/>
<g id="Group 15_3">
<path id="Vector_22" d="M78 82H91" stroke="#AAAAAA" stroke-width="2" stroke-linecap="round" stroke-linejoin="bevel"/>
<path id="Vector_23" d="M74.0494 83L74.9218 82.1949C75.0261 82.0987 75.0261 81.9418 74.9218 81.8506L74 81" stroke="#AAAAAA" stroke-linecap="round" stroke-linejoin="round"/>
</g>
<g id="Group 16_3">
<path id="Vector_24" d="M78 86H89" stroke="#AAAAAA" stroke-width="2" stroke-linecap="round" stroke-linejoin="bevel"/>
<path id="Vector_25" d="M74.0494 87L74.9218 86.1949C75.0261 86.0987 75.0261 85.9418 74.9218 85.8506L74 85" stroke="#AAAAAA" stroke-linecap="round" stroke-linejoin="round"/>
</g>
</g>
</g>
</g>
</svg>
