<svg viewBox="0 0 150 100" fill="none" xmlns="http://www.w3.org/2000/svg">
<g id="group">
<g id="Ebene_1" clip-path="url(#clip0_5_260)">
<path id="Vector" opacity="0.55" d="M17.32 17.88C17.32 15.36 19.43 13.32 22.03 13.32H128.23C130.83 13.32 132.94 15.36 132.94 17.88" stroke="#AAAAAA" stroke-width="4.64" stroke-linecap="round"/>
<path id="Vector_2" opacity="0.55" d="M132.95 82.87C132.95 85.39 130.84 87.43 128.24 87.43H22.03C19.43 87.43 17.32 85.39 17.32 82.87" stroke="#AAAAAA" stroke-width="4.64" stroke-linecap="round"/>
<path id="Vector_3" d="M52.34 56.63C51.43 56.63 50.57 56.47 49.75 56.15C48.93 55.83 48.21 55.35 47.58 54.71C46.95 54.08 46.45 53.29 46.09 52.36C45.73 51.43 45.55 50.35 45.55 49.13C45.55 47.54 45.86 46.18 46.47 45.07C47.08 43.95 47.9 43.1 48.93 42.51C49.96 41.92 51.1 41.63 52.36 41.63C54.21 41.63 55.67 42.06 56.73 42.92C57.79 43.78 58.5 45 58.86 46.57L56.08 46.97C55.82 46.13 55.39 45.46 54.8 44.96C54.21 44.46 53.46 44.2 52.54 44.2C51.63 44.19 50.87 44.38 50.26 44.79C49.65 45.2 49.2 45.77 48.89 46.52C48.59 47.27 48.44 48.14 48.44 49.14C48.44 50.14 48.59 51.01 48.89 51.74C49.19 52.47 49.65 53.04 50.26 53.45C50.87 53.86 51.63 54.07 52.54 54.08C53.16 54.09 53.72 53.99 54.22 53.76C54.72 53.53 55.15 53.18 55.5 52.69C55.85 52.2 56.09 51.58 56.24 50.82H53.96V48.72H59.14C59.15 48.81 59.16 48.96 59.17 49.18C59.18 49.4 59.17 49.53 59.17 49.56C59.17 50.94 58.89 52.16 58.33 53.23C57.77 54.3 56.98 55.13 55.96 55.73C54.94 56.33 53.74 56.64 52.35 56.64L52.34 56.63Z" fill="#AAAAAA"/>
<path id="Vector_4" d="M61.16 56.33V45.53H63.56V48.17L63.3 47.83C63.44 47.46 63.63 47.12 63.86 46.81C64.09 46.5 64.38 46.25 64.72 46.05C64.98 45.89 65.26 45.76 65.57 45.67C65.88 45.58 66.19 45.52 66.52 45.5C66.85 45.48 67.17 45.49 67.5 45.53V48.07C67.2 47.98 66.85 47.95 66.46 47.97C66.06 48 65.71 48.09 65.38 48.25C65.06 48.4 64.79 48.59 64.57 48.83C64.35 49.07 64.18 49.36 64.07 49.69C63.96 50.02 63.9 50.39 63.9 50.81V56.33H61.16Z" fill="#AAAAAA"/>
<path id="Vector_5" d="M74.05 56.63C72.96 56.63 72.01 56.39 71.19 55.9C70.37 55.41 69.73 54.74 69.27 53.88C68.81 53.02 68.58 52.04 68.58 50.92C68.58 49.8 68.81 48.8 69.28 47.95C69.75 47.1 70.39 46.42 71.21 45.95C72.03 45.47 72.97 45.23 74.04 45.23C75.11 45.23 76.08 45.47 76.91 45.96C77.73 46.45 78.37 47.12 78.83 47.97C79.29 48.83 79.52 49.81 79.52 50.93C79.52 52.05 79.29 53.04 78.82 53.9C78.36 54.76 77.71 55.43 76.89 55.91C76.07 56.39 75.11 56.63 74.03 56.63H74.05ZM74.05 54.09C74.92 54.09 75.58 53.8 76.01 53.21C76.44 52.62 76.66 51.86 76.66 50.93C76.66 50 76.44 49.2 76 48.63C75.56 48.06 74.92 47.77 74.05 47.77C73.46 47.77 72.97 47.9 72.59 48.17C72.21 48.44 71.93 48.81 71.75 49.28C71.57 49.75 71.47 50.3 71.47 50.93C71.47 51.9 71.69 52.67 72.13 53.24C72.57 53.81 73.21 54.09 74.05 54.09Z" fill="#AAAAAA"/>
<path id="Vector_6" d="M85.75 56.65C84.9 56.65 84.21 56.51 83.68 56.22C83.15 55.93 82.73 55.57 82.44 55.13C82.14 54.69 81.93 54.23 81.8 53.75C81.67 53.27 81.6 52.84 81.57 52.45C81.54 52.06 81.53 51.77 81.53 51.59V45.53H84.29V50.63C84.29 50.88 84.3 51.19 84.33 51.58C84.36 51.97 84.44 52.35 84.58 52.74C84.72 53.13 84.95 53.45 85.26 53.71C85.58 53.97 86.03 54.1 86.61 54.1C86.84 54.1 87.09 54.06 87.36 53.99C87.63 53.92 87.88 53.77 88.11 53.56C88.34 53.35 88.53 53.04 88.69 52.63C88.84 52.22 88.91 51.68 88.91 51.01L90.47 51.75C90.47 52.6 90.3 53.4 89.95 54.15C89.6 54.9 89.08 55.5 88.38 55.96C87.68 56.42 86.81 56.65 85.75 56.65ZM89.25 56.33V52.75H88.91V45.53H91.65V56.33H89.25Z" fill="#AAAAAA"/>
<path id="Vector_7" d="M94.43 61.13V45.53H96.83V52.93H97.17V61.13H94.43ZM99.75 56.63C98.68 56.63 97.78 56.38 97.06 55.88C96.34 55.38 95.8 54.7 95.44 53.84C95.08 52.98 94.9 52.01 94.9 50.93C94.9 49.85 95.08 48.88 95.44 48.02C95.8 47.16 96.33 46.48 97.03 45.98C97.73 45.48 98.59 45.23 99.62 45.23C100.65 45.23 101.55 45.48 102.32 45.97C103.09 46.46 103.68 47.14 104.11 48C104.54 48.86 104.74 49.83 104.74 50.93C104.74 52.03 104.53 52.98 104.12 53.84C103.7 54.7 103.12 55.38 102.37 55.88C101.62 56.38 100.75 56.63 99.76 56.63H99.75ZM99.31 54.21C99.9 54.21 100.38 54.06 100.75 53.77C101.12 53.48 101.4 53.08 101.58 52.58C101.76 52.08 101.85 51.53 101.85 50.92C101.85 50.31 101.76 49.77 101.57 49.28C101.38 48.78 101.1 48.39 100.71 48.09C100.32 47.79 99.82 47.65 99.21 47.65C98.64 47.65 98.18 47.79 97.83 48.06C97.48 48.33 97.22 48.72 97.06 49.21C96.9 49.7 96.82 50.28 96.82 50.93C96.82 51.58 96.9 52.16 97.06 52.65C97.22 53.14 97.48 53.53 97.85 53.8C98.22 54.07 98.7 54.21 99.31 54.21Z" fill="#AAAAAA"/>
</g>
</g>
<defs>
<clipPath id="clip0_5_260">
<rect width="120.27" height="78.75" fill="white" transform="translate(15 11)"/>
</clipPath>
</defs>
</svg>
