<?xml version="1.0" encoding="UTF-8" standalone="no"?>
<svg
   fill="none"
   viewBox="0 0 150 100"
   version="1.1"
   id="svg7"
   xmlns="http://www.w3.org/2000/svg"
   xmlns:svg="http://www.w3.org/2000/svg">
  <defs
     id="defs7">
    <clipPath
       id="a">
      <rect
         width="36"
         height="13"
         x="23"
         y="18"
         fill="#ffffff"
         rx="6.5"
         id="rect4" />
    </clipPath>
  </defs>
  <g
     stroke="#AAA"
     stroke-linecap="round"
     id="g6">
    <path
       stroke-linejoin="bevel"
       stroke-width="3.75"
       d="M32.86 58.532h17.722"
       id="path1" />
    <path
       stroke-linejoin="round"
       stroke-width="2"
       d="m24.114 61 2.013-2.013a.604.604 0 0 0 0-.86L24 56"
       id="path2" />
    <path
       stroke-linejoin="bevel"
       stroke-width="3.75"
       d="M67.86 58.532h15.19"
       id="path3" />
    <path
       stroke-linejoin="round"
       stroke-width="2"
       d="m59.114 61 2.013-2.013a.604.604 0 0 0 0-.86L59 56"
       id="path4" />
    <path
       stroke-linejoin="bevel"
       stroke-width="3.75"
       d="M100.304 58.494h24.842"
       id="path5" />
    <path
       stroke-linejoin="round"
       stroke-width="2"
       d="m92.114 61 2.013-2.013a.604.604 0 0 0 0-.86L92 56"
       id="path6" />
  </g>
  <path
     fill="#AAA"
     d="M38.84 49v-8.64h3.456c.616 0 1.114.124 1.494.372.38.244.658.552.834.924.176.372.264.748.264 1.128 0 .484-.11.886-.33 1.206-.216.32-.514.534-.894.642v-.3c.54.112.944.362 1.212.75.272.388.408.822.408 1.302 0 .516-.096.97-.288 1.362-.188.392-.476.7-.864.924-.388.22-.876.33-1.464.33zm1.656-1.536H42.5c.22 0 .416-.046.588-.138.172-.096.306-.228.402-.396.1-.172.15-.374.15-.606 0-.204-.042-.386-.126-.546a.899.899 0 0 0-.384-.378 1.255 1.255 0 0 0-.63-.144h-2.004zm0-3.732h1.776a1.2 1.2 0 0 0 .492-.096.765.765 0 0 0 .342-.294.98.98 0 0 0 .126-.522.952.952 0 0 0-.246-.666c-.164-.18-.402-.27-.714-.27h-1.776zM46.481 49v-6.48h1.44v1.584l-.156-.204a2.39 2.39 0 0 1 .336-.612c.14-.184.312-.336.516-.456.156-.096.326-.17.51-.222.184-.056.374-.09.57-.102a2.89 2.89 0 0 1 .588.012v1.524a1.657 1.657 0 0 0-.63-.054c-.236.016-.45.07-.642.162a1.453 1.453 0 0 0-.786.87 2.025 2.025 0 0 0-.102.666V49zm7.84.18c-.664 0-1.25-.142-1.758-.426a3.15 3.15 0 0 1-1.188-1.182c-.284-.504-.426-1.08-.426-1.728 0-.708.14-1.324.42-1.848.28-.524.666-.93 1.158-1.218.492-.292 1.058-.438 1.698-.438.68 0 1.258.16 1.734.48.476.32.828.77 1.056 1.35.228.58.308 1.262.24 2.046H55.64v-.6c0-.66-.106-1.134-.318-1.422-.208-.292-.55-.438-1.026-.438-.556 0-.966.17-1.23.51-.26.336-.39.834-.39 1.494 0 .604.13 1.072.39 1.404.264.328.65.492 1.158.492.32 0 .594-.07.822-.21a1.34 1.34 0 0 0 .522-.606l1.632.468a2.866 2.866 0 0 1-1.158 1.38 3.183 3.183 0 0 1-1.722.492m-2.148-2.964v-1.212h4.296v1.212zm8.12 2.964c-.465 0-.859-.088-1.183-.264a1.877 1.877 0 0 1-.732-.714 2.03 2.03 0 0 1-.246-.99c0-.3.046-.574.138-.822.092-.248.24-.466.444-.654.208-.192.486-.352.834-.48.24-.088.526-.166.858-.234a19.21 19.21 0 0 1 1.128-.192l1.386-.21-.588.324c0-.384-.092-.666-.276-.846-.184-.18-.492-.27-.924-.27-.24 0-.49.058-.75.174-.26.116-.442.322-.546.618l-1.476-.468c.164-.536.472-.972.924-1.308.452-.336 1.068-.504 1.848-.504.572 0 1.08.088 1.524.264.444.176.78.48 1.008.912.128.24.204.48.228.72.024.24.036.508.036.804V49H62.5v-1.332l.204.276c-.316.436-.658.752-1.026.948-.364.192-.826.288-1.386.288m.347-1.284c.3 0 .552-.052.756-.156.208-.108.372-.23.492-.366.124-.136.208-.25.252-.342.084-.176.132-.38.144-.612a8.98 8.98 0 0 0 .024-.588l.48.12c-.484.08-.876.148-1.176.204-.3.052-.542.1-.726.144a4.235 4.235 0 0 0-.486.144c-.16.064-.29.134-.39.21a.756.756 0 0 0-.216.24.648.648 0 0 0-.066.294c0 .148.036.276.108.384a.724.724 0 0 0 .318.24c.136.056.298.084.486.084m7.476 1.284c-.596 0-1.118-.15-1.566-.45a3.049 3.049 0 0 1-1.05-1.224c-.248-.516-.372-1.098-.372-1.746 0-.66.126-1.246.378-1.758a3 3 0 0 1 1.074-1.218c.46-.296 1-.444 1.62-.444.616 0 1.134.15 1.554.45.42.3.738.708.954 1.224.216.516.324 1.098.324 1.746 0 .648-.11 1.23-.33 1.746a2.74 2.74 0 0 1-.972 1.224c-.432.3-.97.45-1.614.45m.264-1.452c.364 0 .654-.082.87-.246.22-.164.378-.394.474-.69a3.35 3.35 0 0 0 .144-1.032 3.35 3.35 0 0 0-.144-1.032 1.383 1.383 0 0 0-.462-.69c-.208-.164-.482-.246-.822-.246-.364 0-.664.09-.9.27a1.554 1.554 0 0 0-.516.714 2.76 2.76 0 0 0-.168.984c0 .364.054.696.162.996.108.296.274.532.498.708.224.176.512.264.864.264M69.868 49v-4.44h-.204v-4.2h1.644V49zm5.976.18c-.672 0-1.248-.15-1.728-.45a2.97 2.97 0 0 1-1.104-1.224c-.256-.516-.384-1.098-.384-1.746 0-.656.132-1.242.396-1.758a3.04 3.04 0 0 1 1.128-1.218c.484-.296 1.056-.444 1.716-.444.764 0 1.404.194 1.92.582.52.384.852.91.996 1.578l-1.632.432a1.48 1.48 0 0 0-.504-.786 1.256 1.256 0 0 0-.804-.282c-.344 0-.626.084-.846.252-.22.164-.382.39-.486.678a2.797 2.797 0 0 0-.156.966c0 .564.124 1.022.372 1.374.252.348.624.522 1.116.522.368 0 .648-.084.84-.252.192-.168.336-.408.432-.72l1.668.348c-.184.688-.532 1.218-1.044 1.59-.512.372-1.144.558-1.896.558m4.14-.18v-6.48h1.44v1.584l-.156-.204a2.39 2.39 0 0 1 .337-.612c.14-.184.311-.336.516-.456.156-.096.326-.17.51-.222.183-.056.373-.09.57-.102a2.89 2.89 0 0 1 .588.012v1.524a1.657 1.657 0 0 0-.63-.054c-.237.016-.45.07-.643.162a1.453 1.453 0 0 0-.785.87 2.025 2.025 0 0 0-.102.666V49zm7.358.192c-.508 0-.922-.086-1.242-.258-.32-.172-.57-.39-.75-.654a2.768 2.768 0 0 1-.378-.822 4.232 4.232 0 0 1-.138-.786 8.556 8.556 0 0 1-.024-.516V42.52h1.656v3.06c0 .148.008.338.024.57.016.228.066.458.15.69.084.232.22.426.408.582.192.156.462.234.81.234.14 0 .29-.022.45-.066.16-.044.31-.128.45-.252.14-.128.254-.314.342-.558.092-.248.138-.572.138-.972l.936.444c0 .512-.104.992-.312 1.44-.208.448-.522.81-.942 1.086-.416.276-.942.414-1.578.414m2.1-.192v-2.148h-.204V42.52h1.644V49zm10.917 0v-3.828c0-.428-.102-.76-.306-.996-.2-.24-.478-.36-.834-.36-.228 0-.426.054-.594.162-.168.104-.3.252-.396.444a1.47 1.47 0 0 0-.138.654l-.684-.456c0-.444.104-.836.312-1.176.212-.34.494-.604.846-.792a2.45 2.45 0 0 1 1.182-.288c.74 0 1.298.22 1.674.66.38.436.57 1.008.57 1.716V49zm-7.812 0v-6.48h1.44v2.148h.204V49zm3.912 0v-3.828c0-.428-.102-.76-.306-.996-.2-.24-.478-.36-.834-.36-.34 0-.614.118-.822.354-.204.232-.306.534-.306.906l-.684-.48c0-.424.106-.804.318-1.14.212-.336.496-.602.852-.798a2.48 2.48 0 0 1 1.206-.294c.508 0 .924.108 1.248.324.328.216.57.504.726.864.156.36.234.756.234 1.188V49zm10.272.18c-.644 0-1.182-.15-1.614-.45a2.779 2.779 0 0 1-.978-1.224c-.216-.516-.324-1.098-.324-1.746 0-.648.108-1.23.324-1.746.216-.516.534-.924.954-1.224.42-.3.938-.45 1.554-.45.62 0 1.16.148 1.62.444.46.296.816.702 1.068 1.218.256.512.384 1.098.384 1.758 0 .648-.126 1.23-.378 1.746a3.005 3.005 0 0 1-1.044 1.224c-.448.3-.97.45-1.566.45m-3.192-.18v-8.64h1.644v4.2h-.204V49zm2.928-1.272c.352 0 .64-.088.864-.264.224-.176.39-.412.498-.708.108-.3.162-.632.162-.996 0-.36-.056-.688-.168-.984a1.537 1.537 0 0 0-.522-.714c-.232-.18-.53-.27-.894-.27-.34 0-.616.082-.828.246a1.4 1.4 0 0 0-.456.69 3.35 3.35 0 0 0-.144 1.032c0 .392.048.736.144 1.032.096.296.252.526.468.69.22.164.512.246.876.246"
     id="path7" />
  <path
     stroke="#aaaaaa"
     stroke-dasharray="5, 5"
     stroke-linecap="round"
     stroke-width="2"
     d="m 16,15 a 4,4 0 0 1 4,-4 h 111 a 3,3 0 0 1 3,3 v 72 a 3,3 0 0 1 -3,3 H 19 a 3,3 0 0 1 -3,-3 z"
     id="path1-1" />
  <g
     clip-path="url(#a)"
     id="g2">
    <rect
       width="36"
       height="13"
       x="23"
       y="18"
       fill="#ff9f00"
       rx="6.5"
       id="rect1" />
    <path
       fill="#ffffff"
       d="m 28.7,28.5 v -7.2 h 2.33 l 0.35,0.005 c 0.177,0.003 0.347,0.015 0.51,0.035 0.58,0.07 1.072,0.272 1.475,0.605 0.403,0.333 0.71,0.757 0.92,1.27 0.21,0.513 0.315,1.075 0.315,1.685 0,0.61 -0.105,1.172 -0.315,1.685 -0.21,0.513 -0.517,0.937 -0.92,1.27 -0.403,0.333 -0.895,0.535 -1.475,0.605 -0.163,0.02 -0.333,0.032 -0.51,0.035 L 31.03,28.5 Z m 1.38,-1.28 h 0.95 c 0.09,0 0.212,-0.002 0.365,-0.005 A 2.94,2.94 0 0 0 31.81,27.17 c 0.313,-0.063 0.568,-0.21 0.765,-0.44 0.2,-0.23 0.347,-0.507 0.44,-0.83 0.097,-0.323 0.145,-0.657 0.145,-1 0,-0.36 -0.05,-0.702 -0.15,-1.025 A 2.119,2.119 0 0 0 32.565,23.055 1.333,1.333 0 0 0 31.81,22.63 2.192,2.192 0 0 0 31.395,22.585 17.95,17.95 0 0 0 31.03,22.58 h -0.95 z m 5.024,1.28 2.2,-7.2 h 2.03 l 2.2,7.2 h -1.4 l -1.96,-6.35 h 0.26 l -1.93,6.35 z m 1.32,-1.5 v -1.27 h 3.8 V 27 Z m 7.08,1.5 v -5.93 h -2.27 V 21.3 h 5.9 v 1.27 h -2.27 v 5.93 z m 3.739,0 2.2,-7.2 h 2.03 l 2.2,7.2 h -1.4 l -1.96,-6.35 h 0.26 l -1.93,6.35 z m 1.32,-1.5 v -1.27 h 3.8 V 27 Z"
       id="path2-6" />
  </g>
</svg>
