<?xml version="1.0" encoding="UTF-8" standalone="no"?>
<svg
   viewBox="0 0 150 100"
   fill="none"
   version="1.1"
   id="svg3"
   xmlns="http://www.w3.org/2000/svg"
   xmlns:svg="http://www.w3.org/2000/svg">
  <path
     id="path16"
     d="m 26,60 c -1.659998,0 -3,1.340002 -3,3 v 15.919922 c 0,1.659998 1.340002,3 3,3 h 98.80078 c 1.66,0 3,-1.340002 3,-3 V 63 c 0,-1.659998 -1.34,-3 -3,-3 z"
     style="fill:#aaaaaa;fill-opacity:0.24;stroke:none" />
  <path
     id="Vector-6"
     d="m 26,60 c -1.659998,0 -3,1.340002 -3,3 v 15.919922 c 0,1.659998 1.340002,3 3,3 h 98.80078 c 1.66,0 3,-1.340002 3,-3 V 63 c 0,-1.659998 -1.34,-3 -3,-3 z m 0,2 h 74.01758 c 0.13078,6.661372 0.1301,11.631313 0,17.919922 H 26 c -0.549999,0 -1,-0.450001 -1,-1 V 63 c 0,-0.549999 0.450001,-1 1,-1 z"
     style="fill:#aaaaaa;fill-opacity:1;stroke:none" />
  <path
     id="Rectangle 1"
     d="m 16,15 c 0,-2.2091 1.7909,-4 4,-4 h 111 c 1.657,0 3,1.3431 3,3 v 72 c 0,1.6569 -1.343,3 -3,3 H 19 c -1.6569,0 -3,-1.3431 -3,-3 z"
     stroke="#aaaaaa"
     stroke-width="2"
     stroke-linecap="round"
     stroke-dasharray="5, 5" />
  <g
     clip-path="url(#a)"
     id="g2">
    <rect
       width="36"
       height="13"
       x="23"
       y="18"
       fill="#ff9f00"
       rx="6.5"
       id="rect1" />
    <path
       fill="#ffffff"
       d="m 28.7,28.5 v -7.2 h 2.33 l 0.35,0.005 c 0.177,0.003 0.347,0.015 0.51,0.035 0.58,0.07 1.072,0.272 1.475,0.605 0.403,0.333 0.71,0.757 0.92,1.27 0.21,0.513 0.315,1.075 0.315,1.685 0,0.61 -0.105,1.172 -0.315,1.685 -0.21,0.513 -0.517,0.937 -0.92,1.27 -0.403,0.333 -0.895,0.535 -1.475,0.605 -0.163,0.02 -0.333,0.032 -0.51,0.035 L 31.03,28.5 Z m 1.38,-1.28 h 0.95 c 0.09,0 0.212,-0.002 0.365,-0.005 A 2.94,2.94 0 0 0 31.81,27.17 c 0.313,-0.063 0.568,-0.21 0.765,-0.44 0.2,-0.23 0.347,-0.507 0.44,-0.83 0.097,-0.323 0.145,-0.657 0.145,-1 0,-0.36 -0.05,-0.702 -0.15,-1.025 A 2.119,2.119 0 0 0 32.565,23.055 1.333,1.333 0 0 0 31.81,22.63 2.192,2.192 0 0 0 31.395,22.585 17.95,17.95 0 0 0 31.03,22.58 h -0.95 z m 5.024,1.28 2.2,-7.2 h 2.03 l 2.2,7.2 h -1.4 l -1.96,-6.35 h 0.26 l -1.93,6.35 z m 1.32,-1.5 v -1.27 h 3.8 V 27 Z m 7.08,1.5 v -5.93 h -2.27 V 21.3 h 5.9 v 1.27 h -2.27 v 5.93 z m 3.739,0 2.2,-7.2 h 2.03 l 2.2,7.2 h -1.4 l -1.96,-6.35 h 0.26 l -1.93,6.35 z m 1.32,-1.5 v -1.27 h 3.8 V 27 Z"
       id="path2" />
  </g>
  <g
     id="path1">
    <path
       style="color:#000000;fill:#fefefd;-inkscape-stroke:none"
       d="m 116.84834,72.615585 a 5.1404483,5.1404483 0 1 0 -1.1048,1.105592 h -7.9e-4 q 0.0348,0.04745 0.0775,0.09095 l 3.04473,3.044728 a 0.7910001,0.7910001 0 0 0 1.11904,-1.118246 l -3.04473,-3.044727 a 0.79083821,0.79083821 0 0 0 -0.091,-0.07908 z m 0.20404,-3.039982 a 4.3496101,4.3496101 0 1 1 -8.69922,0 4.3496101,4.3496101 0 0 1 8.69922,0"
       id="path12" />
    <path
       d="m 112.68945,63.892578 c -3.17034,-0.05718 -6.0232,3.015244 -5.64304,6.182916 0.23944,2.603811 2.44465,4.905564 5.07391,5.120512 1.22368,0.120583 2.4688,-0.219382 3.50273,-0.87374 1.00023,0.993329 1.98697,2.000857 2.99574,2.985195 0.72326,0.663 1.97968,0.120806 2.0962,-0.820306 0.14249,-0.799269 -0.58855,-1.278639 -1.06269,-1.78798 -0.73436,-0.734361 -1.46872,-1.468721 -2.20308,-2.203081 1.14124,-1.730944 1.20223,-4.106963 0.0748,-5.859579 -1.01171,-1.650562 -2.89584,-2.730155 -4.8346,-2.743937 z m 0.0137,1.833984 c 1.58381,-0.03403 3.21349,0.952646 3.66057,2.520485 0.46765,1.549008 0.11263,3.47704 -1.28106,4.440945 -1.75799,1.279672 -4.61461,0.876275 -5.72778,-1.066103 -0.71673,-1.320183 -0.68868,-3.067665 0.14978,-4.327346 0.70682,-1.030598 1.97015,-1.573972 3.19849,-1.567981 z m 3.65429,7.027344 c -0.0117,0.208279 0.15115,0.580515 -0.2034,0.466797 -0.37912,0.09567 0.21549,-0.337245 0.2034,-0.466797 z m 0.61719,0.683594 c 0.88542,0.884766 1.77083,1.769531 2.65625,2.654297 0.32396,0.623108 -0.51965,0.545274 -0.71377,0.110449 -0.78421,-0.784212 -1.56843,-1.568425 -2.35264,-2.352637 0.10833,-0.171933 0.23653,-0.304925 0.41016,-0.412109 z"
       style="fill:#ffffff"
       id="path14" />
  </g>
  <defs
     id="defs3">
    <clipPath
       id="clip0_4_344">
      <rect
         x="23"
         y="18"
         width="67"
         height="13"
         rx="6.5"
         fill="white"
         id="rect2" />
    </clipPath>
    <clipPath
       id="a">
      <rect
         width="36"
         height="13"
         x="23"
         y="18"
         fill="#ffffff"
         rx="6.5"
         id="rect3-8" />
    </clipPath>
    <clipPath
       clipPathUnits="userSpaceOnUse"
       id="clipPath3">
      <g
         id="g4">
        <rect
           width="104.8"
           height="21.92"
           fill="#ffffff"
           id="rect4"
           x="23"
           y="60" />
      </g>
    </clipPath>
    <clipPath
       clipPathUnits="userSpaceOnUse"
       id="clipPath4">
      <g
         id="g5">
        <rect
           width="104.8"
           height="21.92"
           fill="#ffffff"
           id="rect5"
           x="23"
           y="60" />
      </g>
    </clipPath>
    <clipPath
       clipPathUnits="userSpaceOnUse"
       id="clipPath5">
      <g
         id="g6">
        <rect
           width="104.8"
           height="21.92"
           fill="#ffffff"
           id="rect6"
           x="23"
           y="60" />
      </g>
    </clipPath>
    <clipPath
       clipPathUnits="userSpaceOnUse"
       id="clipPath6">
      <g
         id="g7">
        <rect
           width="104.8"
           height="21.92"
           fill="#ffffff"
           id="rect7"
           x="23"
           y="60" />
      </g>
    </clipPath>
    <clipPath
       clipPathUnits="userSpaceOnUse"
       id="clipPath7">
      <g
         id="g8">
        <rect
           width="104.8"
           height="21.92"
           fill="#ffffff"
           id="rect8"
           x="23"
           y="60" />
      </g>
    </clipPath>
    <clipPath
       clipPathUnits="userSpaceOnUse"
       id="clipPath8">
      <g
         id="g9">
        <rect
           width="104.8"
           height="21.92"
           fill="#ffffff"
           id="rect9"
           x="23"
           y="60" />
      </g>
    </clipPath>
    <clipPath
       clipPathUnits="userSpaceOnUse"
       id="clipPath9">
      <g
         id="g10">
        <rect
           width="104.8"
           height="21.92"
           fill="#ffffff"
           id="rect10"
           x="23"
           y="60" />
      </g>
    </clipPath>
    <clipPath
       clipPathUnits="userSpaceOnUse"
       id="clipPath1">
      <g
         id="g12">
        <g
           id="g3">
          <rect
             width="104.8"
             height="21.92"
             fill="#ffffff"
             id="rect3"
             x="23"
             y="60" />
        </g>
      </g>
    </clipPath>
    <clipPath
       clipPathUnits="userSpaceOnUse"
       id="clipPath13">
      <g
         id="g15">
        <g
           id="g14"
           transform="translate(0,-24)">
          <rect
             width="104.8"
             height="21.92"
             fill="#ffffff"
             id="rect13"
             x="23"
             y="60" />
        </g>
      </g>
    </clipPath>
  </defs>
  <path
     style="color:#000000;fill:#aaaaaa;stroke-linecap:round;stroke-linejoin:round;-inkscape-stroke:none"
     d="m 63.830078,63.289062 a 1,1 0 0 0 -1,1 v 13.021485 a 1,1 0 0 0 1,1 1,1 0 0 0 1,-1 V 64.289062 a 1,1 0 0 0 -1,-1 z"
     id="Vector_8"
     transform="translate(-34)" />
</svg>
