<svg xmlns="http://www.w3.org/2000/svg" fill="none" viewBox="0 0 150 100"><path d="M26 60c-1.66 0-3 1.34-3 3v15.92c0 1.66 1.34 3 3 3h98.8c1.66 0 3-1.34 3-3V63c0-1.66-1.34-3-3-3z" style="fill:#aaa;fill-opacity:.24;stroke:none"/><path d="M26 60c-1.66 0-3 1.34-3 3v15.92c0 1.66 1.34 3 3 3h98.8c1.66 0 3-1.34 3-3V63c0-1.66-1.34-3-3-3zm0 2h74.018c.13 6.661.13 11.631 0 17.92H26c-.55 0-1-.45-1-1V63c0-.55.45-1 1-1" style="fill:#aaa;fill-opacity:1;stroke:none"/><path stroke="#aaa" stroke-dasharray="5, 5" stroke-linecap="round" stroke-width="2" d="M16 15a4 4 0 0 1 4-4h111a3 3 0 0 1 3 3v72a3 3 0 0 1-3 3H19a3 3 0 0 1-3-3z"/><g clip-path="url(#a)"><rect width="36" height="13" x="23" y="18" fill="#ff9f00" rx="6.5"/><path fill="#fff" d="M28.7 28.5v-7.2h2.33l.35.005q.266.005.51.035.87.105 1.475.605t.92 1.27.315 1.685-.315 1.685-.92 1.27-1.475.605q-.244.03-.51.035l-.35.005Zm1.38-1.28h.95q.135 0 .365-.005a3 3 0 0 0 .415-.045 1.32 1.32 0 0 0 .765-.44q.3-.345.44-.83a3.5 3.5 0 0 0 .145-1q0-.54-.15-1.025a2.1 2.1 0 0 0-.445-.82 1.33 1.33 0 0 0-.755-.425 2 2 0 0 0-.415-.045l-.365-.005h-.95zm5.024 1.28 2.2-7.2h2.03l2.2 7.2h-1.4l-1.96-6.35h.26l-1.93 6.35zm1.32-1.5v-1.27h3.8V27Zm7.08 1.5v-5.93h-2.27V21.3h5.9v1.27h-2.27v5.93zm3.739 0 2.2-7.2h2.03l2.2 7.2h-1.4l-1.96-6.35h.26l-1.93 6.35zm1.32-1.5v-1.27h3.8V27Z"/></g><path d="M116.848 72.616a5.14 5.14 0 1 0-1.104 1.105h-.001q.035.048.077.091l3.045 3.045a.791.791 0 0 0 1.119-1.118l-3.045-3.045a1 1 0 0 0-.09-.08zm.204-3.04a4.35 4.35 0 1 1-8.699 0 4.35 4.35 0 0 1 8.7 0" style="color:#000;fill:#fefefd;-inkscape-stroke:none"/><path d="M112.69 63.893c-3.17-.058-6.024 3.015-5.644 6.182.24 2.604 2.445 4.906 5.074 5.121 1.224.12 2.47-.22 3.503-.874 1 .994 1.987 2.001 2.996 2.985.723.663 1.98.121 2.096-.82.142-.8-.589-1.278-1.063-1.788l-2.203-2.203c1.141-1.73 1.202-4.107.075-5.86-1.012-1.65-2.896-2.73-4.835-2.743m.013 1.834c1.584-.034 3.214.952 3.66 2.52.468 1.55.113 3.477-1.28 4.441-1.758 1.28-4.615.876-5.728-1.066-.717-1.32-.689-3.068.15-4.327.706-1.031 1.97-1.574 3.198-1.568m3.654 7.027c-.011.208.152.58-.203.467-.38.095.216-.338.203-.467m.618.683 2.656 2.655c.324.623-.52.545-.714.11l-2.353-2.352c.109-.172.237-.305.41-.412" style="fill:#fff"/><defs><clipPath id="a"><rect width="36" height="13" x="23" y="18" fill="#fff" rx="6.5"/></clipPath></defs><path d="M63.83 63.29a1 1 0 0 0-1 1v13.02a1 1 0 0 0 1 1 1 1 0 0 0 1-1V64.29a1 1 0 0 0-1-1" style="color:#000;fill:#aaa;stroke-linecap:round;stroke-linejoin:round;-inkscape-stroke:none" transform="translate(-34)"/></svg>