<svg xmlns="http://www.w3.org/2000/svg" fill="none" viewBox="0 0 150 100"><g stroke="#AAA" stroke-linecap="round"><path stroke-linejoin="bevel" stroke-width="3.75" d="M32.86 58.532h17.722"/><path stroke-linejoin="round" stroke-width="2" d="m24.114 61 2.013-2.013a.604.604 0 0 0 0-.86L24 56"/><path stroke-linejoin="bevel" stroke-width="3.75" d="M67.86 58.532h15.19"/><path stroke-linejoin="round" stroke-width="2" d="m59.114 61 2.013-2.013a.604.604 0 0 0 0-.86L59 56"/><path stroke-linejoin="bevel" stroke-width="3.75" d="M100.304 58.494h24.842"/><path stroke-linejoin="round" stroke-width="2" d="m92.114 61 2.013-2.013a.604.604 0 0 0 0-.86L92 56"/></g><path fill="#AAA" d="M38.84 49v-8.64h3.456q.924 0 1.494.372.57.366.834.924t.264 1.128q0 .726-.33 1.206-.324.48-.894.642v-.3q.81.168 1.212.75.408.582.408 1.302 0 .774-.288 1.362-.282.588-.864.924-.582.33-1.464.33zm1.656-1.536H42.5q.33 0 .588-.138.258-.144.402-.396.15-.258.15-.606 0-.306-.126-.546a.9.9 0 0 0-.384-.378 1.25 1.25 0 0 0-.63-.144h-2.004zm0-3.732h1.776a1.2 1.2 0 0 0 .492-.096.77.77 0 0 0 .342-.294 1 1 0 0 0 .126-.522.95.95 0 0 0-.246-.666q-.246-.27-.714-.27h-1.776zM46.481 49v-6.48h1.44v1.584l-.156-.204a2.4 2.4 0 0 1 .336-.612q.21-.276.516-.456.234-.144.51-.222.276-.084.57-.102a3 3 0 0 1 .588.012v1.524a1.7 1.7 0 0 0-.63-.054q-.354.024-.642.162a1.45 1.45 0 0 0-.786.87 2 2 0 0 0-.102.666V49zm7.84.18q-.996 0-1.758-.426a3.15 3.15 0 0 1-1.188-1.182q-.426-.756-.426-1.728 0-1.062.42-1.848t1.158-1.218q.738-.438 1.698-.438 1.02 0 1.734.48t1.056 1.35.24 2.046H55.64v-.6q0-.99-.318-1.422-.312-.438-1.026-.438-.834 0-1.23.51-.39.504-.39 1.494 0 .906.39 1.404.396.492 1.158.492.48 0 .822-.21a1.34 1.34 0 0 0 .522-.606l1.632.468a2.87 2.87 0 0 1-1.158 1.38 3.2 3.2 0 0 1-1.722.492m-2.148-2.964v-1.212h4.296v1.212zm8.12 2.964q-.697 0-1.183-.264a1.9 1.9 0 0 1-.732-.714 2.03 2.03 0 0 1-.246-.99q0-.45.138-.822t.444-.654q.312-.288.834-.48.36-.132.858-.234a19 19 0 0 1 1.128-.192l1.386-.21-.588.324q0-.576-.276-.846t-.924-.27q-.36 0-.75.174t-.546.618l-1.476-.468q.246-.804.924-1.308t1.848-.504q.858 0 1.524.264t1.008.912q.192.36.228.72t.036.804V49H62.5v-1.332l.204.276q-.474.654-1.026.948-.546.288-1.386.288m.347-1.284q.45 0 .756-.156.312-.162.492-.366.186-.204.252-.342.126-.264.144-.612a9 9 0 0 0 .024-.588l.48.12q-.726.12-1.176.204-.45.078-.726.144a4 4 0 0 0-.486.144q-.24.096-.39.21a.8.8 0 0 0-.216.24.65.65 0 0 0-.066.294q0 .222.108.384a.7.7 0 0 0 .318.24q.204.084.486.084m7.476 1.284q-.894 0-1.566-.45a3.05 3.05 0 0 1-1.05-1.224q-.372-.774-.372-1.746 0-.99.378-1.758a3 3 0 0 1 1.074-1.218q.69-.444 1.62-.444.924 0 1.554.45t.954 1.224.324 1.746-.33 1.746a2.74 2.74 0 0 1-.972 1.224q-.648.45-1.614.45m.264-1.452q.546 0 .87-.246.33-.246.474-.69a3.4 3.4 0 0 0 .144-1.032 3.4 3.4 0 0 0-.144-1.032 1.4 1.4 0 0 0-.462-.69q-.312-.246-.822-.246-.546 0-.9.27a1.55 1.55 0 0 0-.516.714 2.8 2.8 0 0 0-.168.984q0 .546.162.996.162.444.498.708t.864.264M69.868 49v-4.44h-.204v-4.2h1.644V49zm5.976.18q-1.008 0-1.728-.45a2.97 2.97 0 0 1-1.104-1.224q-.384-.774-.384-1.746 0-.984.396-1.758a3.04 3.04 0 0 1 1.128-1.218q.726-.444 1.716-.444 1.146 0 1.92.582.78.576.996 1.578l-1.632.432a1.48 1.48 0 0 0-.504-.786 1.26 1.26 0 0 0-.804-.282q-.516 0-.846.252-.33.246-.486.678a2.8 2.8 0 0 0-.156.966q0 .846.372 1.374.378.522 1.116.522.552 0 .84-.252t.432-.72l1.668.348q-.276 1.032-1.044 1.59t-1.896.558m4.14-.18v-6.48h1.44v1.584l-.156-.204a2.4 2.4 0 0 1 .337-.612q.21-.276.516-.456.234-.144.51-.222a2.5 2.5 0 0 1 .57-.102 3 3 0 0 1 .588.012v1.524a1.7 1.7 0 0 0-.63-.054 1.8 1.8 0 0 0-.643.162 1.45 1.45 0 0 0-.785.87 2 2 0 0 0-.102.666V49zm7.358.192q-.762 0-1.242-.258t-.75-.654a2.8 2.8 0 0 1-.378-.822 4 4 0 0 1-.138-.786 9 9 0 0 1-.024-.516V42.52h1.656v3.06q0 .222.024.57.024.342.15.69t.408.582q.288.234.81.234.21 0 .45-.066t.45-.252q.21-.192.342-.558.138-.372.138-.972l.936.444q0 .768-.312 1.44t-.942 1.086q-.624.414-1.578.414m2.1-.192v-2.148h-.204V42.52h1.644V49zm10.917 0v-3.828q0-.642-.306-.996-.3-.36-.834-.36-.342 0-.594.162-.252.156-.396.444a1.5 1.5 0 0 0-.138.654l-.684-.456q0-.666.312-1.176.318-.51.846-.792a2.45 2.45 0 0 1 1.182-.288q1.11 0 1.674.66.57.654.57 1.716V49zm-7.812 0v-6.48h1.44v2.148h.204V49zm3.912 0v-3.828q0-.642-.306-.996-.3-.36-.834-.36-.51 0-.822.354-.306.348-.306.906l-.684-.48q0-.636.318-1.14t.852-.798a2.5 2.5 0 0 1 1.206-.294q.762 0 1.248.324.492.324.726.864t.234 1.188V49zm10.272.18q-.966 0-1.614-.45a2.8 2.8 0 0 1-.978-1.224q-.324-.774-.324-1.746t.324-1.746.954-1.224 1.554-.45q.93 0 1.62.444t1.068 1.218q.384.768.384 1.758 0 .972-.378 1.746a3 3 0 0 1-1.044 1.224q-.672.45-1.566.45m-3.192-.18v-8.64h1.644v4.2h-.204V49zm2.928-1.272q.528 0 .864-.264t.498-.708q.162-.45.162-.996 0-.54-.168-.984a1.54 1.54 0 0 0-.522-.714q-.348-.27-.894-.27-.51 0-.828.246a1.4 1.4 0 0 0-.456.69 3.4 3.4 0 0 0-.144 1.032q0 .588.144 1.032t.468.69q.33.246.876.246"/></svg>