<svg xmlns="http://www.w3.org/2000/svg" fill="none" viewBox="0 0 150 100"><rect width="113" height="20" x="19" y="71" fill="#AAA" opacity=".25" rx="2"/><rect width="113" height="12" x="19" y="10" fill="#AAA" opacity=".55" rx="2"/><path stroke="#AAA" stroke-linecap="round" stroke-linejoin="bevel" stroke-width="4" d="M40 16h11m13 0h14m11 0h13"/><path fill="#AAA" d="M29 19a3 3 0 1 0 0-6 3 3 0 0 0 0 6"/><g stroke="#AAA" stroke-linecap="round"><path stroke-linejoin="bevel" stroke-width="3" d="M25 77h16"/><path stroke-linejoin="bevel" stroke-width="2" d="M28 82h13"/><path stroke-linejoin="round" d="m24.05 83 .872-.805a.23.23 0 0 0 0-.344L24 81"/><path stroke-linejoin="bevel" stroke-width="2" d="M28 86h11"/><path stroke-linejoin="round" d="m24.05 87 .872-.805a.23.23 0 0 0 0-.344L24 85"/></g><g stroke="#AAA" stroke-linecap="round"><path stroke-linejoin="bevel" stroke-width="3" d="M50 77h16"/><path stroke-linejoin="bevel" stroke-width="2" d="M53 82h13"/><path stroke-linejoin="round" d="m49.05 83 .872-.805a.23.23 0 0 0 0-.344L49 81"/><path stroke-linejoin="bevel" stroke-width="2" d="M53 86h11"/><path stroke-linejoin="round" d="m49.05 87 .872-.805a.23.23 0 0 0 0-.344L49 85"/></g><g stroke="#AAA" stroke-linecap="round"><path stroke-linejoin="bevel" stroke-width="3" d="M75 77h16"/><path stroke-linejoin="bevel" stroke-width="2" d="M78 82h13"/><path stroke-linejoin="round" d="m74.05 83 .872-.805a.23.23 0 0 0 0-.344L74 81"/><path stroke-linejoin="bevel" stroke-width="2" d="M78 86h11"/><path stroke-linejoin="round" d="m74.05 87 .872-.805a.23.23 0 0 0 0-.344L74 85"/></g><rect width="30" height="31" x="19" y="28" fill="#AAA" opacity=".15" rx="2"/><path stroke="#AAA" stroke-linecap="round" stroke-linejoin="bevel" stroke-width="2" d="M33 55h9m-19 0h7"/><path stroke="#AAA" stroke-linecap="round" stroke-linejoin="bevel" stroke-width="3" d="M23 51h8"/><g opacity=".75"><path fill="#fff" d="M45.637 30h-23.59c-.578 0-1.047.469-1.047 1.047v14.906c0 .578.469 1.047 1.047 1.047h23.59c.578 0 1.047-.469 1.047-1.047V31.047c0-.578-.47-1.047-1.047-1.047"/><path fill="#AAA" d="M37.3 38.138a2.07 2.07 0 1 0 0-4.139 2.07 2.07 0 0 0 0 4.139" opacity=".66"/><path fill="#AAA" d="m33.167 47 5.567-5.597a1.917 1.917 0 0 1 2.72 0l3.97 3.99 1.126 1.086a1.04 1.04 0 0 1-.898.516H33.157" opacity=".65"/><path fill="#AAA" d="M38.516 47H22.102c-.61 0-1.102-.496-1.102-1.102v-1.434s.005-.03.015-.04l.208-.203 5.786-5.785a2.17 2.17 0 0 1 3.072 0l8.56 8.559h-.13z"/></g><rect width="30" height="31" x="52" y="28" fill="#AAA" opacity=".15" rx="2"/><path stroke="#AAA" stroke-linecap="round" stroke-linejoin="bevel" stroke-width="2" d="M66 55h9m-19 0h7"/><path stroke="#AAA" stroke-linecap="round" stroke-linejoin="bevel" stroke-width="3" d="M56 51h8"/><g opacity=".75"><path fill="#fff" d="M78.637 30h-23.59c-.578 0-1.047.469-1.047 1.047v14.906c0 .578.469 1.047 1.047 1.047h23.59c.578 0 1.047-.469 1.047-1.047V31.047c0-.578-.47-1.047-1.047-1.047"/><path fill="#AAA" d="M70.3 38.138a2.07 2.07 0 1 0 0-4.139 2.07 2.07 0 0 0 0 4.139" opacity=".66"/><path fill="#AAA" d="m66.167 47 5.567-5.597a1.917 1.917 0 0 1 2.72 0l3.97 3.99 1.126 1.086a1.04 1.04 0 0 1-.898.516H66.157" opacity=".65"/><path fill="#AAA" d="M71.516 47H55.102c-.61 0-1.102-.496-1.102-1.102v-1.434s.005-.03.015-.04l.208-.203 5.786-5.785a2.17 2.17 0 0 1 3.072 0l8.56 8.559h-.13z"/></g><rect width="30" height="31" x="85" y="28" fill="#AAA" opacity=".15" rx="2"/><path stroke="#AAA" stroke-linecap="round" stroke-linejoin="bevel" stroke-width="2" d="M99 55h9m-19 0h7"/><path stroke="#AAA" stroke-linecap="round" stroke-linejoin="bevel" stroke-width="3" d="M89 51h8"/><g opacity=".75"><path fill="#fff" d="M111.637 30h-23.59c-.578 0-1.047.469-1.047 1.047v14.906c0 .578.469 1.047 1.047 1.047h23.59c.578 0 1.047-.469 1.047-1.047V31.047c0-.578-.469-1.047-1.047-1.047"/><path fill="#AAA" d="M103.3 38.138a2.07 2.07 0 1 0 0-4.14 2.07 2.07 0 0 0 0 4.14" opacity=".66"/><path fill="#AAA" d="m99.167 47 5.567-5.597a1.92 1.92 0 0 1 2.72 0l3.969 3.99 1.127 1.086a1.04 1.04 0 0 1-.899.516H99.157" opacity=".65"/><path fill="#AAA" d="M104.516 47H88.102c-.61 0-1.102-.496-1.102-1.102v-1.434s.005-.03.015-.04l.208-.203 5.786-5.785a2.17 2.17 0 0 1 3.072 0l8.559 8.559h-.129z"/></g></svg>