<?xml version="1.0" encoding="UTF-8"?><svg id="Ebene_1" xmlns="http://www.w3.org/2000/svg" viewBox="0 0 150 100"><defs><style>.cls-1{opacity:.5;}.cls-2{opacity:.75;}.cls-3{fill:#aaa;}.cls-3,.cls-4{stroke-width:0px;}.cls-4{fill:#fff;}</style></defs><g class="cls-2"><rect class="cls-3" x="23.6" y="40.04" width="102.8" height="19.92" rx="2" ry="2"/><path class="cls-3" d="m124.4,41.04c.55,0,1,.45,1,1v15.92c0,.55-.45,1-1,1H25.6c-.55,0-1-.45-1-1v-15.92c0-.55.45-1,1-1h98.8m0-2H25.6c-1.66,0-3,1.34-3,3v15.92c0,1.66,1.34,3,3,3h98.8c1.66,0,3-1.34,3-3v-15.92c0-1.66-1.34-3-3-3h0Z"/></g><path class="cls-4" d="m54.36,55.23c-.86,0-1.61-.19-2.23-.56-.63-.38-1.11-.9-1.45-1.58s-.51-1.46-.51-2.36.17-1.68.51-2.36c.34-.68.82-1.2,1.45-1.58.63-.38,1.37-.56,2.23-.56.99,0,1.83.25,2.5.74s1.15,1.16,1.42,2l-1.64.46c-.16-.52-.43-.93-.81-1.22-.38-.29-.87-.43-1.47-.43-.55,0-1,.12-1.37.37s-.64.59-.83,1.03c-.18.44-.28.97-.28,1.57s.09,1.12.28,1.57c.18.44.46.79.83,1.03s.82.37,1.37.37c.6,0,1.09-.15,1.47-.44.38-.29.65-.7.81-1.22l1.64.46c-.28.84-.75,1.51-1.42,2-.67.49-1.51.74-2.5.74Z"/><path class="cls-4" d="m59.6,55.06v-8.64h1.45v4.44h.2v4.2h-1.66Zm4.43,0v-3.06c0-.15,0-.34-.02-.57-.02-.23-.07-.46-.15-.69-.08-.23-.22-.43-.41-.58-.19-.16-.46-.23-.81-.23-.14,0-.29.02-.45.07s-.31.13-.45.25-.25.31-.34.56-.13.57-.13.97l-.94-.44c0-.51.1-.99.31-1.44s.52-.81.94-1.09c.42-.28.95-.41,1.58-.41.51,0,.92.09,1.24.26s.57.39.75.65.3.54.38.83c.08.29.12.55.14.78.02.24.02.41.02.52v3.64h-1.66Z"/><path class="cls-4" d="m70.25,55.23c-.66,0-1.25-.14-1.75-.43s-.9-.68-1.19-1.18-.43-1.08-.43-1.73c0-.71.14-1.32.42-1.85.28-.52.67-.93,1.16-1.22.49-.29,1.06-.44,1.7-.44.68,0,1.26.16,1.73.48.48.32.83.77,1.06,1.35.23.58.31,1.26.24,2.05h-1.61v-.6c0-.66-.1-1.13-.31-1.42s-.55-.44-1.03-.44c-.56,0-.96.17-1.23.51-.26.34-.39.84-.39,1.5,0,.6.13,1.07.39,1.4.26.33.65.5,1.16.5.32,0,.59-.07.82-.21.23-.14.4-.34.52-.61l1.63.47c-.24.59-.63,1.05-1.16,1.38-.53.33-1.1.49-1.73.49Zm-2.15-2.96v-1.21h4.3v1.21h-4.3Z"/><path class="cls-4" d="m77.39,55.23c-.67,0-1.25-.15-1.73-.45-.48-.3-.85-.71-1.1-1.22-.26-.52-.38-1.1-.38-1.75s.13-1.24.4-1.76.64-.92,1.12-1.22,1.06-.44,1.72-.44c.76,0,1.41.19,1.92.58.52.39.85.91.99,1.58l-1.63.43c-.1-.34-.26-.6-.5-.79-.24-.19-.51-.28-.81-.28-.34,0-.63.08-.85.25-.22.17-.38.39-.49.68-.1.29-.16.61-.16.97,0,.56.12,1.02.38,1.37.25.35.62.53,1.11.53.37,0,.65-.08.84-.25.19-.17.34-.41.43-.72l1.67.35c-.18.69-.53,1.22-1.04,1.59s-1.14.56-1.9.56Z"/><path class="cls-4" d="m81.52,55.06v-8.64h1.67v5.28l2.2-3.12h2.02l-2.34,3.24,2.5,3.24h-2.12l-2.24-3.12v3.12h-1.67Z"/><path class="cls-4" d="m90.95,55.23c-.65,0-1.22-.15-1.72-.44s-.88-.7-1.15-1.21c-.27-.51-.41-1.11-.41-1.77s.14-1.27.42-1.79c.28-.51.67-.92,1.16-1.2.49-.29,1.06-.43,1.7-.43s1.22.15,1.72.44c.49.29.88.7,1.16,1.21.28.51.41,1.1.41,1.77s-.14,1.27-.42,1.78-.66.92-1.16,1.21-1.06.43-1.71.43Zm0-1.52c.52,0,.92-.18,1.17-.53s.39-.81.39-1.37-.13-1.04-.39-1.38-.65-.52-1.17-.52c-.36,0-.65.08-.88.24-.23.16-.4.38-.51.67-.11.28-.17.61-.17.99,0,.58.13,1.04.39,1.38.26.34.65.51,1.16.51Z"/><path class="cls-4" d="m97.97,55.25c-.51,0-.92-.09-1.24-.26s-.57-.39-.75-.65c-.18-.26-.3-.54-.38-.83s-.12-.55-.14-.78c-.02-.24-.02-.41-.02-.52v-3.64h1.66v3.06c0,.15,0,.34.02.57.02.23.07.46.15.69.08.23.22.43.41.58s.46.23.81.23c.14,0,.29-.02.45-.07s.31-.13.45-.25.25-.31.34-.56.14-.57.14-.97l.94.44c0,.51-.1.99-.31,1.44-.21.45-.52.81-.94,1.09-.42.28-.95.41-1.58.41Zm2.1-.19v-2.15h-.2v-4.33h1.64v6.48h-1.44Z"/><path class="cls-4" d="m102.47,49.84v-1.26h4.61v1.26h-4.61Zm4.61,5.22c-.45.08-.89.12-1.32.11-.43-.01-.81-.09-1.15-.23-.34-.14-.59-.37-.77-.69-.16-.3-.24-.6-.25-.9,0-.31-.01-.65-.01-1.04v-5.53h1.63v5.44c0,.25,0,.48,0,.68s.05.36.12.48c.14.23.37.35.69.37.32.02.67,0,1.05-.05v1.36Z"/><g class="cls-1"><path class="cls-3" d="m116,72.31c-.12,0-.23-.05-.31-.13l-4.86-4.86-1.96,3.38c-.08.14-.24.23-.41.22-.17-.01-.31-.12-.37-.27l-5.58-14.03c-.06-.16-.03-.35.1-.47.12-.12.31-.16.47-.1l14.03,5.58c.16.06.26.21.27.37.01.17-.07.33-.22.41l-3.38,1.96,4.86,4.86c.08.08.13.19.13.31,0,.12-.05.23-.13.31-.02.02-2.34,2.34-2.34,2.34-.08.08-.19.13-.31.13Zm-5.26-6.13c.11,0,.23.05.31.13l4.95,4.95c.45-.45,1.27-1.27,1.72-1.72l-4.95-4.95c-.1-.1-.14-.23-.12-.36s.1-.25.21-.32l3.09-1.8-12.26-4.87,4.87,12.26,1.8-3.09c.07-.12.19-.2.32-.21.02,0,.04,0,.06,0Z"/></g><g class="cls-2"><path class="cls-4" d="m110.77,66.24c.12,0,.23.05.31.13l5.03,5.03c.45-.45,1.29-1.29,1.75-1.75l-5.03-5.03c-.1-.1-.14-.23-.13-.37s.1-.26.22-.33l3.14-1.83-12.45-4.95,4.95,12.45,1.83-3.14c.07-.12.19-.2.33-.22.02,0,.04,0,.06,0Z"/></g><path class="cls-4" d="m46.19,45.87c-.24-.32-.61-.51-1.01-.51h-9.65l-2.66-2.01c-.17-.12-.4-.09-.52.07-.12.17-.09.4.07.52l2.61,1.97v7.62c-.63.17-1.1.74-1.1,1.42,0,.81.66,1.47,1.47,1.47.65,0,1.21-.43,1.4-1.02h4.77c.19.59.75,1.02,1.4,1.02.81,0,1.47-.66,1.47-1.47s-.66-1.47-1.47-1.47c-.71,0-1.3.5-1.44,1.17h-4.68c-.11-.55-.53-.98-1.07-1.12v-.93h7.59c.79,0,1.47-.51,1.7-1.26l1.32-4.36c.12-.39.05-.79-.19-1.12Zm-10.13,8.8c.04.09.07.19.07.3,0,.17-.06.33-.16.45-.13.17-.34.27-.56.27-.4,0-.72-.32-.72-.72,0-.26.14-.49.35-.62.11-.07.24-.11.37-.11s.27.04.37.11c.12.08.22.19.28.32Zm6.91-.42c.4,0,.72.32.72.72s-.32.72-.72.72c-.23,0-.43-.11-.56-.27-.1-.12-.16-.28-.16-.45,0-.11.02-.21.07-.3.11-.25.37-.42.66-.42Zm2.7-7.47l-1.32,4.36c-.13.44-.53.73-.98.73h-7.59v-5.76h9.4c.16,0,.31.08.41.21.1.13.13.3.08.46Z"/></svg>