<svg xmlns="http://www.w3.org/2000/svg" fill="none" viewBox="0 0 150 100"><path fill="#AAA" d="M119.877 78.947a.65.65 0 0 1-.456-.192l-7.145-7.145-2.882 4.97a.66.66 0 0 1-.603.323.63.63 0 0 1-.544-.397l-8.203-20.627a.635.635 0 0 1 .147-.691.66.66 0 0 1 .691-.148l20.627 8.205a.62.62 0 0 1 .397.543.63.63 0 0 1-.323.603l-4.97 2.882 7.146 7.145a.65.65 0 0 1 .191.456.65.65 0 0 1-.191.456l-3.441 3.44a.64.64 0 0 1-.456.191zm-7.733-9.013a.67.67 0 0 1 .455.191l7.278 7.278 2.529-2.529-7.278-7.278a.6.6 0 0 1-.176-.529.7.7 0 0 1 .309-.47l4.543-2.647-18.026-7.16 7.161 18.025 2.646-4.543a.61.61 0 0 1 .47-.309h.089z" opacity=".5"/><g clip-path="url(#a)"><g fill="#AAA" opacity=".75"><path d="M124.8 40H26a2 2 0 0 0-2 2v15.92a2 2 0 0 0 2 2h98.8a2 2 0 0 0 2-2V42a2 2 0 0 0-2-2"/><path d="M124.8 41c.55 0 1 .45 1 1v15.92c0 .55-.45 1-1 1H26c-.55 0-1-.45-1-1V42c0-.55.45-1 1-1zm0-2H26c-1.66 0-3 1.34-3 3v15.92c0 1.66 1.34 3 3 3h98.8c1.66 0 3-1.34 3-3V42c0-1.66-1.34-3-3-3"/></g><path fill="#fff" d="M50.548 55.18q-1.296 0-2.238-.564a3.8 3.8 0 0 1-1.446-1.578q-.504-1.014-.504-2.358t.504-2.358a3.8 3.8 0 0 1 1.446-1.578q.942-.564 2.238-.564 1.488 0 2.496.738 1.014.738 1.428 1.998l-1.644.456q-.24-.786-.81-1.218-.57-.438-1.47-.438-.822 0-1.374.366a2.24 2.24 0 0 0-.822 1.032q-.276.666-.276 1.566t.276 1.566.822 1.032q.552.366 1.374.366.9 0 1.47-.438t.81-1.218l1.644.456q-.414 1.26-1.428 1.998-1.008.738-2.496.738m9.661-.18v-3.06q0-.222-.024-.564a2.6 2.6 0 0 0-.15-.696 1.3 1.3 0 0 0-.414-.582q-.282-.234-.804-.234-.21 0-.45.066t-.45.258q-.21.186-.348.552-.132.366-.132.972l-.936-.444q0-.768.312-1.44t.936-1.086q.63-.414 1.584-.414.762 0 1.242.258t.744.654q.27.396.384.828.114.426.138.78t.024.516V55zm-4.428 0v-8.64h1.452v4.44h.204V55zm10.653.18q-.996 0-1.758-.426a3.15 3.15 0 0 1-1.188-1.182q-.426-.756-.426-1.728 0-1.062.42-1.848t1.158-1.218q.738-.438 1.698-.438 1.02 0 1.734.48t1.056 1.35.24 2.046h-1.614v-.6q0-.99-.318-1.422-.312-.438-1.026-.438-.834 0-1.23.51-.39.504-.39 1.494 0 .906.39 1.404.396.492 1.158.492.48 0 .822-.21a1.34 1.34 0 0 0 .522-.606l1.632.468a2.87 2.87 0 0 1-1.158 1.38 3.2 3.2 0 0 1-1.722.492m-2.148-2.964v-1.212h4.296v1.212zm9.293 2.964q-1.008 0-1.728-.45a2.97 2.97 0 0 1-1.104-1.224q-.384-.774-.384-1.746 0-.984.396-1.758a3.04 3.04 0 0 1 1.128-1.218q.726-.444 1.716-.444 1.146 0 1.92.582.78.576.996 1.578l-1.632.432a1.48 1.48 0 0 0-.504-.786 1.26 1.26 0 0 0-.804-.282q-.516 0-.846.252-.33.246-.486.678a2.8 2.8 0 0 0-.156.966q0 .846.372 1.374.378.522 1.116.522.552 0 .84-.252t.432-.72l1.668.348q-.276 1.032-1.044 1.59t-1.896.558m4.128-.18.012-8.64h1.656v5.28l2.196-3.12h2.016l-2.34 3.24L83.743 55h-2.124l-2.244-3.12V55zm9.432.18q-.978 0-1.716-.438a3.07 3.07 0 0 1-1.152-1.206q-.408-.774-.408-1.776 0-1.014.42-1.782.42-.774 1.158-1.206t1.698-.432q.978 0 1.716.438.744.438 1.158 1.212.414.768.414 1.77 0 1.008-.42 1.782a3.05 3.05 0 0 1-1.158 1.206q-.738.432-1.71.432m0-1.524q.786 0 1.17-.528.39-.534.39-1.368 0-.864-.396-1.38-.39-.516-1.164-.516-.534 0-.876.24t-.51.666a2.8 2.8 0 0 0-.162.99q0 .87.39 1.386.396.51 1.158.51m7.02 1.536q-.763 0-1.243-.258t-.75-.654a2.8 2.8 0 0 1-.378-.822 4 4 0 0 1-.138-.786 9 9 0 0 1-.024-.516V48.52h1.656v3.06q0 .222.024.57.024.342.15.69t.408.582q.288.234.81.234.21 0 .45-.066t.45-.252q.21-.192.342-.558.138-.372.138-.972l.936.444q0 .768-.312 1.44t-.942 1.086q-.624.414-1.578.414m2.1-.192v-2.148h-.205V48.52h1.644V55zm7.004 0q-.672.126-1.32.108a3.2 3.2 0 0 1-1.152-.222 1.56 1.56 0 0 1-.768-.69 2 2 0 0 1-.252-.9 41 41 0 0 1-.012-1.044V46.72h1.632v5.436q0 .378.006.684.012.3.126.48.216.342.69.372t1.05-.048zm-4.608-5.22v-1.26h4.608v1.26z"/><g clip-path="url(#b)"><path fill="#fff" d="M40.773 46.364a1.16 1.16 0 0 0-.927-.465h-8.861l-2.44-1.825a.33.33 0 0 0-.478.063.34.34 0 0 0 .064.475l2.395 1.798v6.953a1.35 1.35 0 0 0-1.01 1.296c0 .739.606 1.341 1.35 1.341.596 0 1.11-.392 1.284-.93h4.376c.174.538.688.93 1.284.93.743 0 1.348-.602 1.348-1.341 0-.74-.605-1.342-1.348-1.342-.652 0-1.193.456-1.321 1.068h-4.293a1.33 1.33 0 0 0-.982-1.022v-.849h6.963c.724 0 1.348-.465 1.56-1.15l1.21-3.978c.11-.356.046-.72-.174-1.022m-9.302 8.03a.64.64 0 0 1-.082.684.65.65 0 0 1-.514.247.656.656 0 0 1-.34-1.223c.1-.064.22-.1.34-.1.119 0 .247.036.339.1.11.073.202.173.257.292m6.339-.383a.656.656 0 1 1 0 1.314.663.663 0 0 1-.66-.657c0-.1.018-.192.064-.274a.66.66 0 0 1 .605-.383zm2.477-6.817-1.211 3.979a.93.93 0 0 1-.9.666h-6.962v-5.256h8.623a.477.477 0 0 1 .45.612"/></g></g><path fill="#fff" fill-opacity=".75" d="M112.188 70.022a.65.65 0 0 1 .456.191l7.395 7.396 2.573-2.573-7.396-7.395a.68.68 0 0 1-.191-.544.63.63 0 0 1 .324-.486l4.616-2.69-18.304-7.278 7.278 18.305 2.69-4.617a.67.67 0 0 1 .485-.324h.088z" opacity=".75"/><defs><clipPath id="a"><path fill="#fff" d="M23 39h104.8v21.92H23z"/></clipPath><clipPath id="b"><path fill="#fff" d="M29 41h20v19H29z"/></clipPath></defs></svg>