<svg xmlns="http://www.w3.org/2000/svg" fill="none" viewBox="0 0 150 100"><path stroke="#AAA" stroke-dasharray="5 5" stroke-linecap="round" stroke-width="2" d="M16 15a4 4 0 0 1 4-4h111a3 3 0 0 1 3 3v72a3 3 0 0 1-3 3H19a3 3 0 0 1-3-3z"/><g clip-path="url(#a)"><rect width="67" height="13" x="23" y="18" fill="#FF9F00" rx="6.5"/><path fill="#fff" d="M28.7 28.5v-7.2h2.33l.35.005c.177.003.347.015.51.035.58.07 1.072.272 1.475.605.403.333.71.757.92 1.27.21.513.315 1.075.315 1.685 0 .61-.105 1.172-.315 1.685-.21.513-.517.937-.92 1.27-.403.333-.895.535-1.475.605-.163.02-.333.032-.51.035l-.35.005zm1.38-1.28h.95c.09 0 .212-.002.365-.005a2.94 2.94 0 0 0 .415-.045c.313-.063.568-.21.765-.44.2-.23.347-.507.44-.83.097-.323.145-.657.145-1 0-.36-.05-.702-.15-1.025a2.119 2.119 0 0 0-.445-.82 1.333 1.333 0 0 0-.755-.425 2.192 2.192 0 0 0-.415-.045 17.95 17.95 0 0 0-.365-.005h-.95zm5.024 1.28 2.2-7.2h2.03l2.2 7.2h-1.4l-1.96-6.35h.26l-1.93 6.35zm1.32-1.5v-1.27h3.8V27zm7.08 1.5v-5.93h-2.27V21.3h5.9v1.27h-2.27v5.93zm3.739 0 2.2-7.2h2.03l2.2 7.2h-1.4l-1.96-6.35h.26l-1.93 6.35zm1.32-1.5v-1.27h3.8V27zm8.008 1.5v-7.2h4.4v1.36h-3.04v1.56h2.44v1.36h-2.44v2.92zm8.393.15c-.72 0-1.342-.157-1.865-.47a3.153 3.153 0 0 1-1.205-1.315c-.28-.563-.42-1.218-.42-1.965 0-.747.14-1.402.42-1.965a3.153 3.153 0 0 1 1.205-1.315c.523-.313 1.145-.47 1.865-.47s1.34.157 1.86.47a3.11 3.11 0 0 1 1.205 1.315c.283.563.425 1.218.425 1.965 0 .747-.142 1.402-.425 1.965a3.11 3.11 0 0 1-1.205 1.315c-.52.313-1.14.47-1.86.47m0-1.28c.457.007.837-.092 1.14-.295a1.83 1.83 0 0 0 .68-.865c.153-.373.23-.81.23-1.31s-.077-.933-.23-1.3a1.835 1.835 0 0 0-.68-.855c-.303-.203-.683-.308-1.14-.315-.457-.007-.837.092-1.14.295a1.86 1.86 0 0 0-.685.865c-.15.373-.225.81-.225 1.31s.075.933.225 1.3c.153.367.381.652.685.855.303.203.683.308 1.14.315m4.488 1.13v-7.2h3.04c.07 0 .163.003.28.01.12.003.227.013.32.03.43.067.782.208 1.055.425.277.217.48.49.61.82.13.327.195.692.195 1.095 0 .603-.15 1.12-.45 1.55-.3.427-.77.69-1.41.79l-.6.04h-1.68v2.44zm4.06 0-1.42-2.93 1.4-.27 1.56 3.2zm-2.7-3.71h1.62c.07 0 .147-.003.23-.01.083-.007.16-.02.23-.04a.829.829 0 0 0 .425-.25c.1-.12.168-.252.205-.395.04-.147.06-.285.06-.415s-.02-.267-.06-.41a.956.956 0 0 0-.205-.395.813.813 0 0 0-.425-.255 1.182 1.182 0 0 0-.23-.04 2.886 2.886 0 0 0-.23-.01h-1.62zm5.34 3.71v-7.2h1.22l2.38 4.78 2.38-4.78h1.22v7.2h-1.27v-4.3l-2.09 4.3h-.48l-2.09-4.3v4.3z"/></g><g stroke="#BFBFBF" stroke-linecap="round" stroke-linejoin="round" stroke-width="3" clip-path="url(#b)"><path d="M64.297 70.022c-5.153 0-9.315-4.009-9.315-8.975 0-4.966 4.182-8.975 9.315-8.975 1.21-5.445 7.076-8.975 13.101-7.878 6.025 1.097 9.91 6.422 8.701 11.867h1.982c3.825 0 6.937 3.131 6.937 6.98 0 3.85-3.112 6.981-6.937 6.981H86.1"/><path d="m68.261 64.039 5.946-5.984 5.946 5.984M74.207 58.055v17.95"/></g><defs><clipPath id="a"><rect width="67" height="13" x="23" y="18" fill="#fff" rx="6.5"/></clipPath><clipPath id="b"><path fill="#fff" d="M53 42h44v36H53z"/></clipPath></defs></svg>