<svg xmlns="http://www.w3.org/2000/svg" fill="none" viewBox="0 0 150 100"><path stroke="#AAA" stroke-dasharray="5 5" stroke-linecap="round" stroke-width="2" d="M16 15a4 4 0 0 1 4-4h111a3 3 0 0 1 3 3v72a3 3 0 0 1-3 3H19a3 3 0 0 1-3-3z"/><g clip-path="url(#a)"><rect width="67" height="13" x="23" y="18" fill="#FF9F00" rx="6.5"/><path fill="#fff" d="M28.7 28.5v-7.2h2.33l.35.005q.266.005.51.035.87.105 1.475.605t.92 1.27.315 1.685-.315 1.685-.92 1.27-1.475.605q-.244.03-.51.035l-.35.005zm1.38-1.28h.95q.135 0 .365-.005a3 3 0 0 0 .415-.045 1.32 1.32 0 0 0 .765-.44q.3-.345.44-.83a3.5 3.5 0 0 0 .145-1q0-.54-.15-1.025a2.1 2.1 0 0 0-.445-.82 1.33 1.33 0 0 0-.755-.425 2 2 0 0 0-.415-.045l-.365-.005h-.95zm5.024 1.28 2.2-7.2h2.03l2.2 7.2h-1.4l-1.96-6.35h.26l-1.93 6.35zm1.32-1.5v-1.27h3.8V27zm7.08 1.5v-5.93h-2.27V21.3h5.9v1.27h-2.27v5.93zm3.739 0 2.2-7.2h2.03l2.2 7.2h-1.4l-1.96-6.35h.26l-1.93 6.35zm1.32-1.5v-1.27h3.8V27zm8.008 1.5v-7.2h4.4v1.36h-3.04v1.56h2.44v1.36h-2.44v2.92zm8.393.15q-1.08 0-1.865-.47a3.15 3.15 0 0 1-1.205-1.315q-.42-.844-.42-1.965t.42-1.965a3.15 3.15 0 0 1 1.205-1.315q.785-.47 1.865-.47c1.08 0 1.34.157 1.86.47a3.1 3.1 0 0 1 1.205 1.315q.425.845.425 1.965t-.425 1.965a3.1 3.1 0 0 1-1.205 1.315q-.78.47-1.86.47m0-1.28q.686.01 1.14-.295a1.83 1.83 0 0 0 .68-.865q.23-.56.23-1.31c0-.75-.077-.933-.23-1.3a1.84 1.84 0 0 0-.68-.855q-.454-.304-1.14-.315-.686-.01-1.14.295a1.86 1.86 0 0 0-.685.865q-.225.56-.225 1.31c0 .75.075.933.225 1.3q.23.55.685.855.454.305 1.14.315m4.488 1.13v-7.2h3.04q.105 0 .28.01.18.005.32.03.645.1 1.055.425.415.325.61.82.195.49.195 1.095 0 .905-.45 1.55-.45.64-1.41.79l-.6.04h-1.68v2.44zm4.06 0-1.42-2.93 1.4-.27 1.56 3.2zm-2.7-3.71h1.62q.105 0 .23-.01t.23-.04a.83.83 0 0 0 .425-.25q.15-.18.205-.395.06-.22.06-.415c0-.195-.02-.267-.06-.41a.96.96 0 0 0-.205-.395.8.8 0 0 0-.425-.255 1.2 1.2 0 0 0-.23-.04 3 3 0 0 0-.23-.01h-1.62zm5.34 3.71v-7.2h1.22l2.38 4.78 2.38-4.78h1.22v7.2h-1.27v-4.3l-2.09 4.3h-.48l-2.09-4.3v4.3z"/></g><g stroke="#BFBFBF" stroke-linecap="round" stroke-linejoin="round" stroke-width="3" clip-path="url(#b)"><path d="M64.297 70.022c-5.153 0-9.315-4.009-9.315-8.975s4.182-8.975 9.315-8.975c1.21-5.445 7.076-8.975 13.101-7.878s9.91 6.422 8.701 11.867h1.982c3.825 0 6.937 3.131 6.937 6.98s-3.112 6.981-6.937 6.981H86.1"/><path d="m68.261 64.039 5.946-5.984 5.946 5.984m-5.946-5.984v17.95"/></g><defs><clipPath id="a"><rect width="67" height="13" x="23" y="18" fill="#fff" rx="6.5"/></clipPath><clipPath id="b"><path fill="#fff" d="M53 42h44v36H53z"/></clipPath></defs></svg>