<svg xmlns="http://www.w3.org/2000/svg" fill="none" viewBox="0 0 150 100"><path stroke="#AAA" stroke-dasharray="5 5" stroke-linecap="round" stroke-width="2" d="M16 15a4 4 0 0 1 4-4h111a3 3 0 0 1 3 3v72a3 3 0 0 1-3 3H19a3 3 0 0 1-3-3z"/><g clip-path="url(#a)"><rect width="36" height="13" x="23" y="18" fill="#FF9F00" rx="6.5"/><path fill="#fff" d="M28.7 28.5v-7.2h2.33l.35.005q.266.005.51.035.87.105 1.475.605t.92 1.27.315 1.685-.315 1.685-.92 1.27-1.475.605q-.244.03-.51.035l-.35.005zm1.38-1.28h.95q.135 0 .365-.005a3 3 0 0 0 .415-.045 1.32 1.32 0 0 0 .765-.44q.3-.345.44-.83a3.5 3.5 0 0 0 .145-1q0-.54-.15-1.025a2.1 2.1 0 0 0-.445-.82 1.33 1.33 0 0 0-.755-.425 2 2 0 0 0-.415-.045l-.365-.005h-.95zm5.024 1.28 2.2-7.2h2.03l2.2 7.2h-1.4l-1.96-6.35h.26l-1.93 6.35zm1.32-1.5v-1.27h3.8V27zm7.08 1.5v-5.93h-2.27V21.3h5.9v1.27h-2.27v5.93zm3.739 0 2.2-7.2h2.03l2.2 7.2h-1.4l-1.96-6.35h.26l-1.93 6.35zm1.32-1.5v-1.27h3.8V27z"/></g><g clip-path="url(#b)"><path stroke="#AAA" stroke-linecap="round" stroke-linejoin="bevel" stroke-width="5.63" d="M59.88 54.56h34.79"/><path stroke="#AAA" stroke-linecap="round" stroke-linejoin="bevel" stroke-width="3.75" d="M58.88 63.07h26.13m-26.13 6.82H79.6"/><path fill="#AAA" d="M58.84 45.82v-8.64h1.63v7.12h3.72v1.52zm8.17.18c-.46 0-.86-.09-1.18-.27a1.85 1.85 0 0 1-.73-.71c-.16-.29-.25-.63-.25-.99 0-.3.05-.57.14-.82q.135-.375.45-.66c.21-.19.48-.35.83-.48.24-.09.53-.17.86-.23.33-.07.71-.13 1.13-.2.42-.06.88-.13 1.39-.21l-.59.32c0-.38-.09-.67-.28-.85-.18-.18-.49-.27-.92-.27-.24 0-.49.06-.75.17-.26.12-.44.32-.55.62l-1.48-.47c.16-.54.47-.97.92-1.31s1.07-.5 1.85-.5c.57 0 1.08.09 1.52.26.44.18.78.48 1.01.91.13.24.2.48.23.72.02.24.04.51.04.8v3.96h-1.43v-1.33l.2.28c-.32.44-.66.75-1.02.94-.37.19-.83.29-1.39.29zm.35-1.28c.3 0 .55-.05.76-.16s.37-.23.49-.36.21-.25.25-.34c.08-.18.13-.38.15-.62.01-.23.02-.43.02-.58l.48.12c-.48.08-.88.15-1.18.2s-.54.1-.73.15c-.18.04-.35.09-.49.14q-.24.09-.39.21a.7.7 0 0 0-.22.24.68.68 0 0 0 .04.67c.07.11.18.19.32.24.14.06.3.08.49.08zm4.83 1.1v-8.64h1.64v4.2h-.2v4.44zm3.19.18c-.64 0-1.18-.15-1.61-.45s-.76-.71-.98-1.22c-.22-.52-.33-1.1-.33-1.75s.11-1.23.32-1.75c.22-.52.53-.92.95-1.22s.94-.45 1.55-.45 1.16.15 1.62.44.82.7 1.07 1.21.38 1.1.38 1.76-.12 1.23-.38 1.75c-.25.52-.6.92-1.05 1.22s-.97.45-1.57.45zm-.26-1.45c.35 0 .64-.09.86-.26.22-.18.39-.41.5-.71s.16-.63.16-.99-.06-.69-.17-.99-.29-.54-.52-.71q-.345-.27-.9-.27c-.34 0-.62.08-.83.25s-.36.39-.46.69-.14.64-.14 1.03.05.74.14 1.03.25.53.47.69.51.25.87.25zM82.7 46c-.66 0-1.25-.14-1.75-.43s-.9-.68-1.19-1.18-.43-1.08-.43-1.73c0-.71.14-1.32.42-1.85.28-.52.67-.93 1.16-1.22s1.06-.44 1.7-.44c.68 0 1.26.16 1.73.48.48.32.83.77 1.06 1.35s.31 1.26.24 2.05h-1.61v-.6c0-.66-.1-1.13-.31-1.42s-.55-.44-1.03-.44c-.56 0-.96.17-1.23.51q-.39.51-.39 1.5c0 .6.13 1.07.39 1.4s.65.5 1.16.5c.32 0 .59-.07.82-.21s.4-.34.52-.61l1.63.47c-.24.59-.63 1.05-1.16 1.38s-1.1.49-1.73.49m-2.15-2.96v-1.21h4.3v1.21zm6.56 2.78V37h1.63v8.82z"/></g><defs><clipPath id="a"><rect width="36" height="13" x="23" y="18" fill="#fff" rx="6.5"/></clipPath><clipPath id="b"><path fill="#fff" d="M57 37h40.49v34.77H57z"/></clipPath></defs></svg>