<svg xmlns="http://www.w3.org/2000/svg" fill="none" viewBox="0 0 150 100"><g fill="#AAA" fill-opacity=".75" clip-path="url(#a)"><path d="M131.64 9H19a5 5 0 0 0-5 5v71.19a5 5 0 0 0 5 5h112.64a5 5 0 0 0 5-5V14a5 5 0 0 0-5-5" opacity=".55"/><path d="M58.55 9h73.09c2.76 0 5 2.24 5 5v71.19c0 2.76-2.24 5-5 5H26.36z" opacity=".55"/><path d="M78.55 9h53.09c2.76 0 5 2.24 5 5v71.19c0 2.76-2.24 5-5 5H46.36z" opacity=".55"/><path d="M98.55 9h33.09c2.76 0 5 2.24 5 5v71.19c0 2.76-2.24 5-5 5H66.36z"/></g><defs><clipPath id="a"><path fill="#fff" d="M14 9h122.64v81.19H14z"/></clipPath></defs></svg>