<svg xmlns="http://www.w3.org/2000/svg" fill="none" viewBox="0 0 150 100"><g clip-path="url(#a)" opacity=".75"><g fill="#AAA" opacity=".55"><path d="M131.64 10H19a4 4 0 0 0-4 4v71.19a4 4 0 0 0 4 4h112.64a4 4 0 0 0 4-4V14a4 4 0 0 0-4-4"/><path d="M131.64 11c1.65 0 3 1.35 3 3v71.19c0 1.65-1.35 3-3 3H19c-1.65 0-3-1.35-3-3V14c0-1.65 1.35-3 3-3zm0-2H19c-2.76 0-5 2.24-5 5v71.19c0 2.76 2.24 5 5 5h112.64c2.76 0 5-2.24 5-5V14c0-2.76-2.24-5-5-5"/></g><path fill="#fff" d="M91.83 47.87c5.457 0 9.88-4.423 9.88-9.88s-4.423-9.88-9.88-9.88-9.88 4.423-9.88 9.88 4.423 9.88 9.88 9.88" opacity=".45"/><path fill="#AAA" d="m72.1 90.19 26.58-26.72a9.15 9.15 0 0 1 12.98 0l18.95 19.05 5.38 5.2a4.95 4.95 0 0 1-4.29 2.47H72.04" opacity=".65"/><path fill="#AAA" d="M97.64 90.19H19.27A5.27 5.27 0 0 1 14 84.92v-6.84c0-.07.03-.14.08-.19l1-.97 27.63-27.63a10.363 10.363 0 0 1 14.66 0l40.88 40.88h-.61z"/></g><defs><clipPath id="a"><path fill="#fff" d="M14 9h122.64v81.19H14z"/></clipPath></defs></svg>