<svg viewBox="0 0 150 100" fill="none" xmlns="http://www.w3.org/2000/svg">
<g id="vimeo">
<g id="Ebene_1" clip-path="url(#clip0_6_644)">
<path id="Vector" opacity="0.55" d="M75.04 83.06C93.2875 83.06 108.08 68.0481 108.08 49.53C108.08 31.0119 93.2875 16 75.04 16C56.7925 16 42 31.0119 42 49.53C42 68.0481 56.7925 83.06 75.04 83.06Z" fill="#AAAAAA"/>
<path id="Vector_2" opacity="0.75" d="M96.23 40.08C96.29 42.27 95.84 44.31 95.08 46.28C93.75 49.7 91.81 52.77 89.68 55.73C86.73 59.82 83.65 63.8 79.75 67.06C77.84 68.66 75.78 69.99 73.27 70.51C71.52 70.87 70.05 70.4 68.83 69.19C67.08 67.46 66.05 65.3 65.38 62.98C64.13 58.65 62.98 54.29 61.77 49.94C61.37 48.5 60.88 47.1 60.18 45.78C60.03 45.5 59.87 45.22 59.7 44.96C58.66 43.42 57.95 43.26 56.37 44.24C55.81 44.59 55.25 44.95 54.72 45.33C54.42 45.54 54.23 45.55 54 45.24C53.52 44.59 53.02 43.96 52.51 43.33C52.31 43.08 52.26 42.88 52.54 42.65C55.65 40.04 58.45 37.08 61.83 34.78C63.05 33.95 64.32 33.24 65.9 33.29C67.49 33.34 68.73 33.99 69.65 35.26C70.7 36.7 71.14 38.37 71.43 40.09C72.1 44.05 72.62 48.04 73.63 51.95C73.97 53.25 74.35 54.54 75.01 55.72C75.83 57.16 76.72 57.35 77.84 56.16C80.28 53.57 82.11 50.58 83.29 47.22C83.55 46.47 83.58 45.69 83.54 44.91C83.46 43.41 82.59 42.53 81.09 42.41C80.05 42.33 79.04 42.48 78.05 42.82C77.6 42.97 77.38 42.9 77.56 42.36C78.52 39.54 79.86 36.96 82.28 35.09C85.12 32.9 88.37 32.36 91.81 33.16C94.45 33.77 95.55 35.8 96.01 38.26C96.12 38.88 96.17 39.51 96.24 40.08H96.23Z" fill="white"/>
</g>
</g>
<defs>
<clipPath id="clip0_6_644">
<rect width="66.09" height="67.06" fill="white" transform="translate(42 16)"/>
</clipPath>
</defs>
</svg>
