<svg xmlns="http://www.w3.org/2000/svg" fill="none" viewBox="0 0 150 100"><g clip-path="url(#a)"><path fill="#AAA" d="M75.04 83.06c18.247 0 33.04-15.012 33.04-33.53S93.287 16 75.04 16C56.792 16 42 31.012 42 49.53s14.792 33.53 33.04 33.53" opacity=".55"/><path fill="#fff" d="M96.23 40.08c.06 2.19-.39 4.23-1.15 6.2-1.33 3.42-3.27 6.49-5.4 9.45-2.95 4.09-6.03 8.07-9.93 11.33-1.91 1.6-3.97 2.93-6.48 3.45-1.75.36-3.22-.11-4.44-1.32-1.75-1.73-2.78-3.89-3.45-6.21-1.25-4.33-2.4-8.69-3.61-13.04-.4-1.44-.89-2.84-1.59-4.16-.15-.28-.31-.56-.48-.82-1.04-1.54-1.75-1.7-3.33-.72-.56.35-1.12.71-1.65 1.09-.3.21-.49.22-.72-.09-.48-.65-.98-1.28-1.49-1.91-.2-.25-.25-.45.03-.68 3.11-2.61 5.91-5.57 9.29-7.87 1.22-.83 2.49-1.54 4.07-1.49 1.59.05 2.83.7 3.75 1.97 1.05 1.44 1.49 3.11 1.78 4.83.67 3.96 1.19 7.95 2.2 11.86.34 1.3.72 2.59 1.38 3.77.82 1.44 1.71 1.63 2.83.44 2.44-2.59 4.27-5.58 5.45-8.94.26-.75.29-1.53.25-2.31-.08-1.5-.95-2.38-2.45-2.5-1.04-.08-2.05.07-3.04.41-.45.15-.67.08-.49-.46.96-2.82 2.3-5.4 4.72-7.27 2.84-2.19 6.09-2.73 9.53-1.93 2.64.61 3.74 2.64 4.2 5.1.11.62.16 1.25.23 1.82z" opacity=".75"/></g><defs><clipPath id="a"><path fill="#fff" d="M42 16h66.09v67.06H42z"/></clipPath></defs></svg>