<svg viewBox="0 0 30 30" fill="none" xmlns="http://www.w3.org/2000/svg">
<path d="M4.70789 25.6344C3.952 25.7962 3.3062 25.0758 3.54933 24.3421L4.21695 22.3271C4.31422 22.0335 4.26681 21.7133 4.10976 21.4469C3.12478 19.7758 2.78892 17.8537 3.16477 15.9856C3.57213 13.9609 4.78784 12.1374 6.58585 10.8541C8.38386 9.57082 10.6418 8.91508 12.9399 9.00882C15.238 9.10256 17.4198 9.9394 19.0797 11.3637C20.7396 12.7881 21.7647 14.703 21.9642 16.7525C22.1638 18.8019 21.5243 20.8465 20.1646 22.5059C18.805 24.1654 16.8177 25.3268 14.5723 25.7744C12.442 26.1989 10.2169 25.9535 8.27022 25.0851C8.06584 24.9939 7.83832 24.9644 7.61947 25.0112L4.70789 25.6344Z" fill="white"/>
<path d="M14.5 4C14.5 4.39782 14.658 4.77936 14.9393 5.06066C15.2206 5.34196 15.6022 5.5 16 5.5C15.6022 5.5 15.2206 5.65804 14.9393 5.93934C14.658 6.22064 14.5 6.60218 14.5 7C14.5 6.60218 14.342 6.22064 14.0607 5.93934C13.7794 5.65804 13.3978 5.5 13 5.5C13.3978 5.5 13.7794 5.34196 14.0607 5.06066C14.342 4.77936 14.5 4.39782 14.5 4Z" fill="white" stroke="white" stroke-width="2" stroke-linecap="round" stroke-linejoin="round"/>
<path d="M23 6C23 6.79565 23.3161 7.55871 23.8787 8.12132C24.4413 8.68393 25.2044 9 26 9C25.2044 9 24.4413 9.31607 23.8787 9.87868C23.3161 10.4413 23 11.2044 23 12C23 11.2044 22.6839 10.4413 22.1213 9.87868C21.5587 9.31607 20.7956 9 20 9C20.7956 9 21.5587 8.68393 22.1213 8.12132C22.6839 7.55871 23 6.79565 23 6Z" fill="white" stroke="white" stroke-width="2" stroke-linecap="round" stroke-linejoin="round"/>
</svg>
