<?xml version="1.0" encoding="utf-8"?>
<!-- Generator: Adobe Illustrator 28.0.0, SVG Export Plug-In . SVG Version: 6.00 Build 0)  -->
<svg version="1.1" id="Ebene_1" xmlns="http://www.w3.org/2000/svg" xmlns:xlink="http://www.w3.org/1999/xlink" x="0px" y="0px"
	 viewBox="0 0 166 31.7" style="enable-background:new 0 0 166 31.7;" xml:space="preserve">
<style type="text/css">
	.st0{fill:#FFFFFF;}
</style>
<g>
	<path class="st0" d="M17.8,11.1l2.4,2.4c1,1,0.9,2.7-0.1,3.8l-3,3L14,17.2c-0.6-0.6-1.6-0.6-2.2,0l-6.5,6.5l4.5,4.5
		c1.4,1.4,3.8,1.3,5.2-0.1l8.3-8.4c2.2-2.3,2.3-5.8,0.2-8l-3.2-3.2L17.8,11.1z M10.1,1.9l-8.4,8.5c-2.2,2.2-2.3,5.7-0.2,7.9l3.2,3.2
		l2.4-2.4l-2.4-2.4c-1-1-1-2.6,0-3.6L8,9.8l3,3.1c0.6,0.6,1.6,0.6,2.2,0l6.5-6.5l-4.4-4.5C13.9,0.4,11.6,0.5,10.1,1.9z M49.5,15
		c0,1.8-0.3,3.3-0.8,4.6c-0.5,1.3-1.3,2.4-2.4,3.3c-1,0.9-2.3,1.5-3.7,1.9c-1.5,0.4-3.1,0.7-4.9,0.7c-0.8,0-1.8,0-2.9-0.1
		c-1.1-0.1-2.2-0.2-3.3-0.4V5c1.1-0.2,2.2-0.3,3.3-0.4c1.1-0.1,2.2-0.1,3-0.1c1.7,0,3.4,0.2,4.8,0.6c1.4,0.4,2.7,1,3.7,1.9
		s1.8,1.9,2.4,3.3C49.2,11.5,49.5,13.1,49.5,15z M36.1,21.5c0.2,0,0.5,0,0.7,0.1c0.3,0,0.6,0,1,0c2.3,0,4-0.6,5.1-1.7
		c1.1-1.2,1.7-2.8,1.7-4.8c0-2.2-0.5-3.8-1.6-4.9C42,9,40.3,8.5,38,8.5c-0.3,0-0.6,0-1,0c-0.3,0-0.7,0-0.9,0.1L36.1,21.5L36.1,21.5z
		 M116.1,9.6c-0.5-0.1-1.1-0.1-1.7-0.2c-0.6-0.1-1.1-0.1-1.7-0.1c-1.3,0-2.4,0.2-3.4,0.5c-1,0.4-1.8,0.9-2.5,1.5
		c-0.7,0.7-1.2,1.5-1.5,2.4s-0.5,2-0.5,3.2c0,2.3,0.6,4.1,1.7,5.4c1.1,1.3,2.8,1.9,5,1.9c0.6,0,1.1-0.1,1.7-0.2
		c0.5-0.1,1-0.3,1.5-0.5v0.6c0,0.9-0.3,1.6-0.8,2.2c-0.5,0.5-1.4,0.8-2.7,0.8c-1,0-1.8-0.1-2.6-0.2c-0.8-0.1-1.5-0.4-2.2-0.7
		l-0.8,3.7c0.8,0.3,1.7,0.5,2.6,0.7c0.9,0.2,1.9,0.3,2.9,0.3c2.7,0,4.7-0.6,6-1.9c1.3-1.2,1.9-3.2,1.9-5.7V10.2
		c-0.4-0.1-0.9-0.2-1.3-0.3C117.1,9.8,116.6,9.7,116.1,9.6z M114.6,20.1c-0.3,0.1-0.6,0.3-1,0.4c-0.4,0.1-0.8,0.2-1.3,0.2
		c-2,0-3-1.2-3-3.7c0-1.2,0.3-2.2,0.9-3c0.6-0.8,1.4-1.2,2.6-1.2c0.4,0,0.7,0,1,0.1c0.3,0,0.5,0.1,0.8,0.1L114.6,20.1L114.6,20.1z
		 M57.1,9.3c1.3,0,2.4,0.1,3.3,0.4c0.9,0.3,1.6,0.7,2.2,1.2c0.5,0.5,0.9,1.2,1.1,2c0.2,0.8,0.3,1.9,0.3,2.9v8.9
		c-0.6,0.1-1.5,0.3-2.7,0.5c-1.1,0.2-2.5,0.3-4.2,0.3c-1,0-1.9-0.1-2.8-0.3c-0.8-0.2-1.6-0.4-2.2-0.8c-0.6-0.4-1.1-0.9-1.4-1.5
		c-0.3-0.6-0.5-1.4-0.5-2.4c0-0.9,0.2-2.3,0.6-2.9c0.4-0.6,0.9-1.1,1.5-1.5c0.6-0.4,1.3-0.6,2.2-0.8c0.8-0.2,1.6-0.2,2.5-0.2
		c0.6,0,1.1,0,1.6,0.1c0.5,0,0.8,0.1,1.1,0.2c0,0-0.1-0.7-0.2-0.9c0-0.2-0.1-0.4-0.5-0.9c-0.5-0.4-1.3-0.7-2.4-0.7
		c-0.8,0-1.5,0.1-2.3,0.2c-0.7,0.1-2.1,0.6-2.6,0.8l-0.5-3.5c0.8-0.3,1.3-0.5,1.6-0.6c0.4-0.1,0.8-0.2,1.3-0.2
		c0.5-0.1,1-0.1,1.5-0.2C56.1,9.4,56.6,9.3,57.1,9.3z M57.5,22.2c0.4,0,0.9,0,1.3,0c0.4,0,0.7,0,1-0.1v-3.5c-0.2,0-0.5-0.1-0.8-0.1
		c-0.4,0-0.7-0.1-1-0.1c-0.4,0-0.8,0-1.2,0.1c-0.4,0-0.7,0.1-1,0.3c-0.3,0.1-0.5,0.3-0.6,0.5c-0.2,0.2-0.2,0.8-0.2,1.2
		c0,0.7,0.2,1.1,0.7,1.4C56,22.1,56.6,22.2,57.5,22.2z M95.9,9.3c1.3,0,2.4,0.1,3.3,0.4c0.9,0.3,1.6,0.7,2.2,1.2
		c0.5,0.5,0.9,1.2,1.1,2c0.2,0.8,0.3,1.9,0.3,2.9v8.9c-0.6,0.1-1.5,0.3-2.7,0.5c-1.1,0.2-2.5,0.3-4.2,0.3c-1,0-1.9-0.1-2.8-0.3
		c-0.8-0.2-1.6-0.4-2.2-0.8c-0.6-0.4-1.1-0.9-1.4-1.5c-0.3-0.6-0.5-1.4-0.5-2.4c0-0.9,0.2-2.3,0.6-2.9c0.4-0.6,0.9-1.1,1.5-1.5
		c0.6-0.4,1.3-0.6,2.2-0.8c0.8-0.2,1.6-0.2,2.5-0.2c0.6,0,1.1,0,1.6,0.1c0.5,0,0.8,0.1,1.1,0.2c0,0-0.1-0.7-0.2-0.9
		c0-0.2-0.1-0.4-0.5-0.9c-0.5-0.4-1.3-0.7-2.4-0.7c-0.8,0-1.5,0.1-2.3,0.2c-0.7,0.1-2.1,0.6-2.6,0.8l-0.5-3.5
		c0.8-0.3,1.3-0.5,1.6-0.6c0.4-0.1,0.8-0.2,1.3-0.2c0.5-0.1,1-0.1,1.5-0.2C94.9,9.4,95.5,9.3,95.9,9.3z M96.3,22.2
		c0.4,0,0.9,0,1.3,0s0.7,0,1-0.1v-3.5c-0.2,0-0.5-0.1-0.8-0.1c-0.4,0-0.7-0.1-1-0.1c-0.4,0-0.8,0-1.2,0.1c-0.4,0-0.7,0.1-1,0.3
		c-0.3,0.1-0.5,0.3-0.6,0.5c-0.2,0.2-0.2,0.8-0.2,1.2c0,0.7,0.2,1.1,0.7,1.4C94.9,22.1,95.5,22.2,96.3,22.2z M143.3,9.3
		c1.3,0,2.4,0.1,3.3,0.4c0.9,0.3,1.6,0.7,2.2,1.2c0.5,0.5,0.9,1.2,1.1,2c0.2,0.8,0.3,1.9,0.3,2.9v8.9c-0.6,0.1-1.5,0.3-2.7,0.5
		c-1.1,0.2-2.5,0.3-4.2,0.3c-1,0-1.9-0.1-2.8-0.3c-0.8-0.2-1.6-0.4-2.2-0.8c-0.6-0.4-1.1-0.9-1.4-1.5c-0.3-0.6-0.5-1.4-0.5-2.4
		c0-0.9,0.2-2.3,0.6-2.9c0.4-0.6,0.9-1.1,1.5-1.5c0.6-0.4,1.3-0.6,2.2-0.8c0.8-0.2,1.6-0.2,2.5-0.2c0.6,0,1.1,0,1.6,0.1
		c0.5,0,0.8,0.1,1.1,0.2c0,0-0.1-0.7-0.2-0.9c0-0.2-0.1-0.4-0.5-0.9c-0.5-0.4-1.3-0.7-2.4-0.7c-0.8,0-1.5,0.1-2.3,0.2
		c-0.7,0.1-2.1,0.6-2.6,0.8l-0.5-3.5c0.8-0.3,1.3-0.5,1.6-0.6c0.4-0.1,0.8-0.2,1.3-0.2c0.5-0.1,1-0.1,1.5-0.2
		C142.3,9.4,142.8,9.3,143.3,9.3z M143.7,22.2c0.4,0,0.9,0,1.3,0s0.7,0,1-0.1v-3.5c-0.2,0-0.5-0.1-0.8-0.1c-0.4,0-0.7-0.1-1-0.1
		c-0.4,0-0.8,0-1.2,0.1c-0.4,0-0.7,0.1-1,0.3c-0.3,0.1-0.5,0.3-0.6,0.5c-0.2,0.2-0.2,0.8-0.2,1.2c0,0.7,0.2,1.1,0.7,1.4
		C142.2,22.1,142.8,22.2,143.7,22.2z M70.5,19.1v5.9h-4.3v-9.5c0-0.9,0.1-1.7,0.3-2.5s0.5-1.4,1-1.9c0.5-0.6,1.1-1,1.8-1.2
		c0.8-0.3,1.7-0.5,3-0.5c0.9,0,1.7,0.1,2.4,0.2c0.6,0.2,1.2,0.3,1.7,0.5l-0.6,3.2c-0.4-0.2-0.9-0.3-1.3-0.4c-0.5-0.1-1-0.1-1.4-0.1
		c-1,0-1.6,0.3-1.9,0.8s-0.5,1.6-0.5,2.5v-0.1L70.5,19.1z M77.5,7.3H82l0,1.9h4.1v3.4h-4l0,5.7c0,0.9,0.2,2.1,0.5,2.6
		c0.3,0.5,1,0.8,2,0.8c0.5,0,1,0,1.5-0.1c0.5-0.1,1-0.2,1.4-0.4l0.6,3.4c-0.5,0.2-1.1,0.4-1.8,0.5c-0.6,0.2-1.5,0.2-2.4,0.2
		c-1.2,0-2.2-0.2-3.1-0.5c-0.8-0.3-1.5-0.7-1.9-1.3c-0.5-0.6-0.8-1.2-1-2.1c-0.2-0.8-0.3-1.7-0.3-2.7L77.5,7.3z M121.3,10.1
		c0.7-0.2,1.7-0.4,2.9-0.5c1.2-0.2,2.4-0.3,3.7-0.3c1.3,0,2.4,0.2,3.3,0.5c0.9,0.3,1.5,0.8,2.1,1.4c0.5,0.6,0.9,1.3,1.1,2.2
		c0.2,0.8,0.3,1.7,0.3,2.7v8.9h-4.4v-8.5c0-1.3-0.2-2.3-0.5-2.9c-0.3-0.6-1.1-0.9-2.1-0.9c-0.3,0-0.7,0-1,0c-0.3,0-0.7,0.1-0.9,0.1
		v12.1h-4.4V10.1z M152.6,10.1c0.7-0.2,1.7-0.4,2.9-0.5c1.2-0.2,2.4-0.3,3.7-0.3s2.4,0.2,3.3,0.5c0.9,0.3,1.5,0.8,2.1,1.4
		c0.5,0.6,0.9,1.3,1.1,2.2c0.2,0.8,0.3,1.7,0.3,2.7v8.9h-4.4v-8.5c0-1.3-0.2-2.3-0.5-2.9c-0.3-0.6-1.1-0.9-2.1-0.9c-0.3,0-0.7,0-1,0
		c-0.3,0-0.7,0.1-0.9,0.1v12.1h-4.4V10.1z"/>
</g>
</svg>
