<?xml version="1.0" encoding="utf-8"?>
<svg class="path" version="1.1" id="Ebene_1" xmlns="http://www.w3.org/2000/svg" xmlns:xlink="http://www.w3.org/1999/xlink" x="0px" y="0px"
	 viewBox="0 0 200 160" style="enable-background:new 0 0 200 160;" xml:space="preserve">
<style type="text/css">
	.path {
			stroke-dasharray: 500;
			animation: dash 6s 1 linear;
			animation-fill-mode: forwards;
			animation-iteration-count: 1;
		}
		@keyframes dash {
			from{
			stroke-dashoffset: 500;
			fill: transparent;
			opacity: 0.5;
			}
			to {
			stroke-dashoffset: 0;
			fill: #f7931e;
			opacity: 1;
			}
		}
	.st0{fill:#272D37;stroke:#3A4353;stroke-width:3;stroke-linejoin:round;stroke-miterlimit:10;}
	.st1{fill:#3A4353;stroke:#3A4353;stroke-width:3;stroke-linejoin:round;stroke-miterlimit:10;}
	.st2{opacity:0.1;fill:none;stroke:#3A4353;stroke-miterlimit:10;}
	.st3{fill:none;stroke:#3A4353;stroke-width:2;stroke-miterlimit:10;}
	.st4{fill:none;stroke:#3A4353;stroke-width:2;stroke-miterlimit:10;stroke-dasharray:7.68,3.84;}
	.st5{fill:none;stroke:#3A4353;stroke-width:2;stroke-miterlimit:10;stroke-dasharray:7.7619,3.881;}
	.st6{opacity:0.25;}
	.st7{fill:#FFFFFF;stroke:#3A4353;stroke-miterlimit:10;}
	.st8{fill:#426698;stroke:#3A4353;stroke-miterlimit:10;}
	.st9{opacity:0.1;}
	.st10{opacity:5.000000e-02;fill:#FFFFFF;stroke:#3A4353;stroke-miterlimit:10;}
	.st11{opacity:0.25;fill:#426698;stroke:#3A4353;stroke-miterlimit:10;}
	.st12{opacity:0.1;fill:#FFFFFF;stroke:#3A4353;stroke-miterlimit:10;}
	.st13{fill:none;stroke:#3A4353;stroke-miterlimit:10;}
	.st14{fill:none;stroke:#426698;stroke-width:2;stroke-miterlimit:10;}
	.st15{fill:#3A4353;stroke:#426698;stroke-width:2;stroke-miterlimit:10;}
	.st16{fill:#426698;}
</style>
<g>
	<g>
		<path class="st0" d="M142,135.6c-1,0.6-2.1,1-3.3,1h-75c-3.3,0-6-2.7-6-6V52v-4.3l25-25h18.6h37.4c3.3,0,6,2.7,6,6v97"/>
		<polygon class="st1" points="57.6,47.7 82.6,47.7 82.6,22.7 		"/>
	</g>
	<polygon class="st2" points="58.5,47.9 83.5,47.9 83.5,21.9 	"/>
	<g>
		<g>
			<line class="st3" x1="57.5" y1="125.4" x2="53.5" y2="125.4"/>
			<path class="st4" d="M49.7,125.4h-7c-3.3,0-6-2.7-6-6v-80c0-3.3,2.7-6,6-6h19"/>
			<line class="st3" x1="63.5" y1="33.4" x2="67.5" y2="33.4"/>
		</g>
	</g>
	<g>
		<g>
			<line class="st3" x1="144.8" y1="33.4" x2="148.8" y2="33.4"/>
			<path class="st5" d="M152.6,33.4h7c3.3,0,6,2.7,6,6v80c0,3.3-2.7,6-6,6h-8.7"/>
			<line class="st3" x1="149" y1="125.4" x2="145" y2="125.4"/>
		</g>
	</g>
	<g class="st6">
		<line class="st7" x1="74.1" y1="64.7" x2="128.1" y2="64.7"/>
		<path class="st8" d="M128.1,66.7h-54c-1.1,0-2-0.9-2-2s0.9-2,2-2h54c1.1,0,2,0.9,2,2S129.2,66.7,128.1,66.7z"/>
	</g>
	<g class="st9">
		<path class="st7" d="M92,74.7H74.1c-1.1,0-2-0.9-2-2s0.9-2,2-2h24.5L92,74.7z"/>
	</g>
	<polygon class="st10" points="96.6,80.7 121.2,80.7 125.1,84.7 92.8,84.7 	"/>
	<path class="st11" d="M83.9,84.7h-9.8c-1.1,0-2-0.9-2-2s0.9-2,2-2H86L83.9,84.7z"/>
	<path class="st12" d="M81.8,92.7h-7.6c-1.1,0-2-0.9-2-2s0.9-2,2-2h8.5L81.8,92.7z"/>
	<path class="st10" d="M90.5,88.7h19.6c1.1,0,2,0.9,2,2s-0.9,2-2,2H89.5L90.5,88.7z"/>
	<path class="st11" d="M82.2,102.7h-8.1c-1.1,0-2-0.9-2-2s0.9-2,2-2h7.2L82.2,102.7z"/>
	<polygon class="st10" points="127.2,102.7 90,102.7 89.1,98.7 128.1,98.7 	"/>
	<path class="st10" d="M92,106.7h18.1c1.1,0,2,0.9,2,2s-0.9,2-2,2H95.2L92,106.7z"/>
	<path class="st12" d="M85.5,110.7H74.1c-1.1,0-2-0.9-2-2s0.9-2,2-2h9.4L85.5,110.7z"/>
	<circle class="st3" cx="30" cy="21.4" r="5.5"/>
	<circle class="st13" cx="20" cy="35.4" r="2"/>
	<circle class="st3" cx="171" cy="138.4" r="5.5"/>
	<circle class="st13" cx="180" cy="120.4" r="2"/>
	<g>
		<ellipse class="st14" cx="108.8" cy="96.2" rx="19.8" ry="19.8"/>
		<path class="st15" d="M155.4,136.8l-24.5-24.5c7.8-10.7,6.8-25.7-2.8-35.4c-10.7-10.7-28-10.7-38.6,0c-10.7,10.7-10.7,28,0,38.6
			c9.6,9.6,24.7,10.6,35.4,2.8l24.5,24.5c1.7,1.7,4.4,1.7,6.1,0C157.1,141.2,157.1,138.4,155.4,136.8z M122.8,110.2
			c-4.9,4.9-11.7,6.7-18,5.4c-3.8-0.7-7.4-2.5-10.4-5.5c-7.7-7.7-7.7-20.3,0-28c4.9-4.9,11.7-6.7,18-5.4c3.8,0.7,7.4,2.5,10.4,5.5
			C130.6,90,130.6,102.5,122.8,110.2z"/>
	</g>
	<g>
		<path class="st16" d="M101.8,90.8c0-0.9,0.3-1.9,0.9-2.9c0.6-1,1.5-1.8,2.7-2.4c1.2-0.6,2.5-1,4.1-1c1.4,0,2.7,0.3,3.8,0.8
			c1.1,0.5,2,1.3,2.6,2.2c0.6,0.9,0.9,1.9,0.9,3c0,0.8-0.2,1.6-0.5,2.2c-0.3,0.6-0.8,1.2-1.2,1.7c-0.5,0.5-1.3,1.2-2.5,2.3
			c-0.3,0.3-0.6,0.6-0.8,0.8c-0.2,0.2-0.4,0.4-0.5,0.6c-0.1,0.2-0.2,0.4-0.2,0.6c-0.1,0.2-0.1,0.5-0.2,1c-0.2,1-0.8,1.6-1.8,1.6
			c-0.5,0-1-0.2-1.3-0.5c-0.4-0.3-0.5-0.8-0.5-1.5c0-0.8,0.1-1.6,0.4-2.2c0.3-0.6,0.6-1.1,1-1.6c0.4-0.5,1-1,1.7-1.6
			c0.6-0.6,1.1-1,1.4-1.3c0.3-0.3,0.5-0.6,0.7-0.9c0.2-0.3,0.3-0.7,0.3-1.1c0-0.8-0.3-1.5-0.9-2c-0.6-0.5-1.4-0.8-2.3-0.8
			c-1.1,0-1.9,0.3-2.4,0.8c-0.5,0.6-1,1.4-1.3,2.4c-0.3,1.1-1,1.7-1.9,1.7c-0.6,0-1-0.2-1.4-0.6C102,91.7,101.8,91.3,101.8,90.8z
			 M109.1,109c-0.6,0-1.1-0.2-1.6-0.6c-0.5-0.4-0.7-0.9-0.7-1.6c0-0.6,0.2-1.2,0.7-1.6c0.4-0.4,1-0.6,1.6-0.6c0.6,0,1.2,0.2,1.6,0.6
			c0.4,0.4,0.6,1,0.6,1.6c0,0.7-0.2,1.2-0.7,1.6C110.2,108.8,109.7,109,109.1,109z"/>
	</g>
	<circle class="st13" cx="52" cy="23.4" r="2"/>
</g>
</svg>
