<?xml version="1.0" encoding="utf-8"?>
<svg class="path" version="1.1" id="Ebene_1" xmlns="http://www.w3.org/2000/svg" xmlns:xlink="http://www.w3.org/1999/xlink" x="0px" y="0px"
	 viewBox="0 0 190 160" style="enable-background:new 0 0 190 160;" xml:space="preserve">
<style type="text/css">
	.path {
			stroke-dasharray: 500;
			animation: dash 6s 1 linear;
			animation-fill-mode: forwards;
			animation-iteration-count: 12;
		}
		@keyframes dash {
			from{
			stroke-dashoffset: 500;
			fill: transparent;
			opacity: 0.5;
			}
			to {
			stroke-dashoffset: 0;
			fill: #f7931e;
			opacity: 1;
			}
		}
	.st0{fill:#FFFFFF;stroke:#CCCCCC;stroke-width:2;stroke-miterlimit:10;}
	.st1{fill:none;stroke:#CCCCCC;stroke-width:2;stroke-miterlimit:10;}
	.st2{fill:#EEEEEE;}
	.st3{fill:#CCCCCC;}
	.st4{fill:none;stroke:#CCCCCC;stroke-linecap:round;stroke-miterlimit:10;}
	.st5{fill:#FFFFFF;stroke:#CCCCCC;stroke-miterlimit:10;}
	.st6{fill:none;stroke:#CCCCCC;stroke-width:2;stroke-linecap:round;stroke-miterlimit:10;}
	.st7{fill:#FFFFFF;stroke:#CCCCCC;stroke-width:2;stroke-linecap:round;stroke-miterlimit:10;}
</style>
<g>
	<path class="st0" d="M68.5,93.2c0,0-7.2,6.3-9.7,9c-2.5,2.7-4.7,5.4-3.5,8.2c1.2,2.7-1.5-5.4-9-5.4s-5,8.1-4,10.9
		c1.5,4,7.2,12.2,12.2,12.2s3-2.7,4.2-4.1c1.2-1.4,1.2-4.1,5-6.8c3.7-2.7,3.7-2.7,6.2-2.7s22.5,0,22.5,0h0.8c0,0,20,0,22.5,0
		s2.5,0,6.2,2.7c3.7,2.7,3.7,5.4,5,6.8c1.2,1.4,1.2,4.1,6.2,4.1s9.8-8.2,11.2-12.2c1-2.8,2.5-10.9-5-10.9c-7.5,0-10.2,8.2-9,5.4
		c1.2-2.7-1-5.4-3.5-8.2c-2.5-2.7-9.7-9-9.7-9"/>
	<path class="st1" d="M117.8,69.2c0,0,2.1-13.4-0.3-16.3S106.9,49,106.9,49H94h-1.4H79.7c0,0-8.3,1-10.6,3.9C66.8,55.8,68,68,68,68"
		/>
	<path class="st0" d="M109.8,82.4L106,92.6l-0.6,3.5l-0.6,3.7l6.3,1.5l4.1-5.5c0,0,3.2-4.8,4.3-8.7c1.3-4.4,2-12.5,0.7-19.8
		c-1.2-7.1-8.9-10.8-8.9-10.8l-1.5-0.3l-8.9,5.8l-7.6,1.5l-8.9-1.5l-6.3-4.4h-2.5c0,0-7.6,2.5-8.9,9.6c-1.3,7.3,0.5,16.6,1.7,20.9
		c1.1,3.9,3.3,8.7,3.3,8.7l6.3,4.4h5.1l-0.9-4.9L82,94.1l-5.1-11.6l6.9,17l21.3-1.2l3-11.6L109.8,82.4z"/>
	<g>
		<ellipse class="st0" cx="94" cy="42.6" rx="21.9" ry="21.6"/>
		<path class="st2" d="M111.7,46c0,9.2-7.2,14.6-17.3,14.6S77,55.2,77,46s7.2-15.6,17.3-15.6S111.7,36.8,111.7,46z"/>
		<g>
			<path class="st3" d="M92.7,52.3c-0.3-0.1-1,0.1-1.1,0.3c-0.3,0.8,0.5,1.9,1.8,2.2c1.3,0.3,2.7-0.2,3.5-0.6c1-0.5,1.3-1.7,0.7-2.2
				C97.5,52.1,95,53.4,92.7,52.3z"/>
			<ellipse class="st3" cx="88" cy="46.6" rx="1.5" ry="1.5"/>
			<ellipse class="st3" cx="101.1" cy="46.8" rx="1.5" ry="1.5"/>
		</g>
	</g>
	<g>
		<path class="st0" d="M112.4,124.1H73.7c-1.4,0-2.5-1.1-2.5-2.5l-2.5-21.2c0-1.4,1.1-2.5,2.5-2.5h43.7c1.4,0,2.5,1.1,2.5,2.5
			l-2.5,21.2C114.9,123,113.8,124.1,112.4,124.1z"/>
		<path class="st0" d="M113.9,127.5H72.2c-0.6,0-1-0.4-1-1v-1.7c0-0.6,0.4-1,1-1h41.7c0.6,0,1,0.4,1,1v1.7
			C114.9,127.1,114.5,127.5,113.9,127.5z"/>
	</g>
	<path class="st4" d="M64.5,105.5c0,0-0.2-2.6-2.7-3.5c-2.5-0.9-3.6-0.1-3.6-0.1"/>
	<path class="st4" d="M121.6,105.5c0,0,0.1-2.4,2.4-3.4c2.3-1,3.3-0.3,3.3-0.3"/>
	<circle class="st5" cx="133.5" cy="36.5" r="2"/>
	<circle class="st5" cx="146.5" cy="44.5" r="2"/>
	<circle class="st5" cx="36.5" cy="50.5" r="2"/>
	<circle class="st0" cx="48.5" cy="55.5" r="5.5"/>
	<circle class="st5" cx="55.5" cy="43.5" r="2"/>
	<g>
		<path class="st6" d="M119.6,93.3c0,0,12.2,3.1,16.1-1.4c4-4.5-6.4-8.1-3.8-14.9c2.6-6.8,9.9-5.9,14.8-5.3"/>
		<g>
			<path class="st7" d="M149.7,74.9c-1.6-0.2-3.4-1.6-3.2-3c0.2-1.4,2.3-2.2,3.9-2L149.7,74.9z"/>
			<line class="st6" x1="150.9" y1="71" x2="153.4" y2="71.3"/>
			<line class="st6" x1="150.5" y1="73.7" x2="153.1" y2="74.1"/>
		</g>
	</g>
	<path class="st2" d="M103.1,88.5c-0.2,0.8-0.8,2.6-1.9,3.1c-1.1,0.5-14.3-0.1-14.3-0.1S85.1,91,84.4,90c-0.7-1-2.4-8-2.4-8
		s-1-4,0.3-5.7c0.5-0.6,8-2.3,10.7-2.3c2.8,0,10.1,1.7,11,2c0.9,0.3,1.1,1.7,1.1,3C105,81,103.3,87.8,103.1,88.5z"/>
	<path class="st0" d="M39,108.5c0.4,2.3,1.7,6.5,3,9c1.9,3.6,7.2,9.4,11,11c1.9,0.8,6.5-0.6,8-2c1.9-1.7,3-5,2-7
		c-1.1-2.2-4.9-5.4-6-7c-2-3-2.8-6.7-4-9c-1-1.9-3-4-6-5c-1.4-0.5-5,0-7,2C38.5,101.9,38.6,106.5,39,108.5z"/>
	<path class="st0" d="M37,110.8c0.4,2.3,1.7,6.5,3,9c1.9,3.6,7.2,9.4,11,11c1.9,0.8,6.5-0.6,8-2c1.9-1.7,3-5,2-7
		c-1.1-2.2-4.9-5.4-6-7c-2-3-2.8-6.7-4-9c-1-1.9-3-4-6-5c-1.4-0.5-5,0-7,2C36.5,104.2,36.6,108.8,37,110.8z"/>
	<path class="st0" d="M147.4,108.5c-0.4,2.3-1.7,6.5-3,9c-1.9,3.6-7.2,9.4-11,11c-1.9,0.8-6.5-0.6-8-2c-1.9-1.7-3-5-2-7
		c1.1-2.2,4.9-5.4,6-7c2-3,2.8-6.7,4-9c1-1.9,3-4,6-5c1.4-0.5,5,0,7,2C147.8,101.9,147.7,106.5,147.4,108.5z"/>
	<path class="st0" d="M149.4,110.8c-0.4,2.3-1.7,6.5-3,9c-1.9,3.6-7.2,9.4-11,11c-1.9,0.8-6.5-0.6-8-2c-1.9-1.7-3-5-2-7
		c1.1-2.2,4.9-5.4,6-7c2-3,2.8-6.7,4-9c1-1.9,3-4,6-5c1.4-0.5,5,0,7,2C149.8,104.2,149.7,108.8,149.4,110.8z"/>
</g>
</svg>
