<svg width="46" height="24" viewBox="0 0 46 24" fill="none" xmlns="http://www.w3.org/2000/svg">
<path d="M38.7842 8.85113L40.8156 10.9087C41.6621 11.7802 41.6137 13.1842 40.7189 14.104L38.5665 16.2827L35.9546 13.6441C35.4226 13.1115 34.5762 13.1115 34.0683 13.6441L28.4334 19.3085L32.2061 23.1332C33.3911 24.3435 35.3742 24.2709 36.6076 23.0121L43.621 15.9195C45.5073 13.983 45.5799 10.9813 43.7903 9.19004L41.1058 6.47888L38.7842 8.85113Z" fill="white"/>
<path d="M32.5203 0.95974L25.4344 8.17339C23.5964 10.0373 23.4997 13.0148 25.2893 14.8303L27.9496 17.5172L30.1261 15.3144L28.1189 13.281C27.2724 12.4096 27.2724 11.0782 28.1189 10.231L30.5373 7.76185L33.1008 10.3762C33.6328 10.9088 34.4793 10.9088 34.9629 10.3762L40.5978 4.7118L36.8977 0.911338C35.7126 -0.347417 33.7537 -0.274808 32.5203 0.95974Z" fill="white"/>
<path d="M13.8965 5.89648L8.60358 11.1894C8.27028 11.5227 8.10358 11.6894 8.10358 11.8965C8.10358 12.1036 8.27028 12.2703 8.60358 12.6036L13.8965 17.8965" stroke="#272727" stroke-width="1.5" stroke-linecap="round" stroke-linejoin="round"/>
<path d="M13.8965 5.89648L8.60358 11.1894C8.27028 11.5227 8.10358 11.6894 8.10358 11.8965C8.10358 12.1036 8.27028 12.2703 8.60358 12.6036L13.8965 17.8965" stroke="white" stroke-width="1.5" stroke-linecap="round" stroke-linejoin="round"/>
</svg>
