<?xml version="1.0" encoding="utf-8"?>
<!-- Generator: Adobe Illustrator 28.0.0, SVG Export Plug-In . SVG Version: 6.00 Build 0)  -->
<svg version="1.1" id="Ebene_1" xmlns="http://www.w3.org/2000/svg" xmlns:xlink="http://www.w3.org/1999/xlink" x="0px" y="0px"
	 viewBox="0 0 921 152" style="enable-background:new 0 0 921 152;" xml:space="preserve">
<style type="text/css">
	.st0{fill:#FFFFFF;}
	.st1{fill:#495054;}
	.st2{fill:#E35E3B;}
</style>
<g>
	<rect y="0" class="st0" width="920.1" height="152"/>
	<path class="st1" d="M93.5,56.3l12.7,12.9c5.3,5.4,5,14.2-0.6,20l-13.5,13.6L75.8,86.3c-3.3-3.3-8.6-3.3-11.8,0l-35.3,35.4
		l23.6,23.9c7.4,7.6,19.8,7.1,27.5-0.8l43.9-44.3c11.8-12.1,12.3-30.9,1.1-42.1L108,41.5L93.5,56.3z"/>
	<path class="st2" d="M54.3,7L10,52.1C-1.5,63.7-2.1,82.3,9.1,93.7l16.6,16.8l13.6-13.8L26.8,84c-5.3-5.4-5.3-13.8,0-19.1l15.1-15.4
		l16,16.3c3.3,3.3,8.6,3.3,11.6,0l35.3-35.4L81.7,6.7C74.3-1.2,62-0.7,54.3,7z"/>
	<path class="st1" d="M303.6,125.6c-4.1,1.1-9.4,2.1-15.6,3c-6.2,0.9-13.2,1.4-20.1,1.4c-7.1,0-13.2-0.9-17.7-2.7
		c-4.8-1.8-8.5-4.4-11.3-7.7c-2.9-3.2-4.8-7.1-6.1-12c-1.2-4.7-1.8-9.5-1.8-15.1V48.3h23.8v41.9c0,7.3,1.1,12.4,3,15.9
		c2,3.3,5.7,4.8,11.3,4.8c1.8,0,3.3,0,5.4-0.2c2-0.2,3.8-0.3,5.1-0.6V48.3h23.8L303.6,125.6z"/>
	<path class="st1" d="M344.5,112.3c4.4,0,7.4-0.3,9.4-1.2c1.8-0.9,2.7-2.3,2.7-4.7c0-1.8-1.2-3.3-3.3-4.8c-2.3-1.4-6.1-2.9-10.9-4.7
		c-3.8-1.2-7.1-2.7-10.3-4.1c-3-1.4-5.7-3-7.7-5.1c-2.1-2-3.8-4.2-4.8-7.1c-1.2-2.7-1.8-6.1-1.8-10c0-7.4,3-13.3,8.9-18
		c5.7-4.2,14.1-6.5,24.2-6.5c5.1,0,10,0.3,14.5,1.2c4.8,0.9,8.5,1.8,11.2,2.9l-4.2,17.7c-2.9-0.9-5.7-1.8-9.1-2.4
		c-3.2-0.8-7-1.1-10.9-1.1c-7.4,0-11.2,2-11.2,5.9c0,0.9,0.2,1.8,0.6,2.4c0.3,0.8,0.9,1.4,2,2c0.9,0.8,2.3,1.4,3.9,2.1
		c1.7,0.8,3.8,1.7,6.2,2.4c5.3,1.8,9.4,3.5,12.9,5.3c3.3,1.8,6.2,3.8,8,5.7c2,2.1,3.3,4.2,4.2,7.1c0.9,2.4,1.2,5.4,1.2,8.8
		c0,8-3.2,13.9-9.4,18c-6.2,4.1-15,6.1-26.5,6.1c-7.4,0-13.6-0.6-18.6-1.8c-4.8-1.2-8.5-2.1-10.3-3l4.1-18.5
		c4.1,1.7,8.3,2.7,12.6,3.5C336.3,111.7,340.5,112.3,344.5,112.3z"/>
	<path class="st1" d="M391.8,34.7h23.8l0.2,10.1h21.5V63h-21.3l-0.2,30.3c0,4.8,0.9,10.9,2.7,13.9c1.8,2.9,5.3,4.2,10.4,4.2
		c2.4,0,5.1-0.2,8-0.8c2.7-0.6,5.1-1.1,7.4-2l3.3,17.7c-2.9,1.1-6.1,2.1-9.4,2.9c-3.3,0.9-7.7,1.2-12.9,1.2
		c-6.5,0-11.8-0.9-16.2-2.4c-4.2-1.7-7.7-3.9-10.3-7.1c-2.4-3.2-4.4-6.5-5.3-10.9c-1.1-4.2-1.7-9.1-1.7-14.2L391.8,34.7z"/>
	<path class="st2" d="M734.5,44.5c7.1,0,12.9,0.8,17.6,2.3c4.8,1.7,8.5,3.8,11.3,6.5c2.9,2.9,4.8,6.2,6.1,10.4
		c1.2,4.1,1.8,10.1,1.8,15.3v47.2c-3.3,0.8-8,1.7-14.2,2.4c-6.1,0.9-13.3,1.4-22.1,1.4c-5.4,0-10.3-0.6-14.7-1.4
		c-4.4-0.9-8.3-2.3-11.3-4.4s-5.7-4.8-7.4-8.2c-1.8-3.3-2.7-7.4-2.7-12.4c0-4.7,1.1-12,3-15.3c2-3.2,4.7-5.9,8-7.7
		c3.3-2,7.1-3.3,11.3-4.1c4.2-0.9,8.5-1.2,13.2-1.2c3.2,0,5.7,0.2,8.3,0.3c2.4,0.2,4.4,0.6,5.7,1.1c0,0-0.6-3.9-0.9-5
		c-0.2-1.1-0.3-2.3-2.9-4.7c-2.4-2.3-6.8-3.5-12.6-3.5c-4.1,0-8,0.3-12,0.9c-3.9,0.6-10.9,3-13.6,4.1L703.7,50
		c4.1-1.8,6.8-2.4,8.5-3c2.1-0.6,4.4-0.9,7-1.2c2.6-0.3,5.1-0.8,7.7-0.9C729.2,45,732.1,44.5,734.5,44.5z M736.6,112.6
		c2.3,0,4.7,0,6.8-0.2c2.1-0.2,3.9-0.2,5.1-0.6V93.2c-0.9-0.2-2.4-0.3-4.2-0.6c-2-0.2-3.8-0.3-5.3-0.3c-2.3,0-4.4,0.2-6.2,0.3
		c-2,0.2-3.8,0.8-5.1,1.4c-1.4,0.8-2.7,1.7-3.3,2.9c-0.9,1.2-1.2,4.4-1.2,6.2c0,3.5,1.2,6.1,3.8,7.3
		C728.9,112,732.1,112.6,736.6,112.6z"/>
	<path class="st2" d="M784,33.8h23.8v11h21.5V63h-21.5v29.2c0,4.8,0.9,10.9,2.7,13.9c1.8,2.9,5.3,4.2,10.4,4.2c2.4,0,5.1-0.2,8-0.8
		c2.7-0.6,5.1-1.1,7.4-2l3.3,17.7c-2.9,1.1-6.1,2.1-9.4,2.9c-3.3,0.9-7.7,1.2-12.9,1.2c-6.5,0-11.8-0.9-16.2-2.4
		c-4.2-1.7-7.7-3.9-10.3-7.1c-2.4-3-4.4-6.5-5.3-10.9c-1.1-4.2-1.7-9.1-1.7-14.2V33.8z"/>
	<path class="st1" d="M192.9,75.5V21.8h23.8v74c0,5.1-0.6,10-1.7,14.2c-1.1,4.2-2.9,8-5.3,10.9c-2.4,3-6.1,5.3-10.3,7.1
		c-4.2,1.7-9.8,2.4-16.2,2.4c-5.1,0-9.4-0.3-12.9-1.2c-3.3-0.9-6.8-1.8-9.4-2.9l3.3-17.7c2.3,0.9,4.8,1.4,7.4,2
		c2.7,0.6,5.3,0.8,8,0.8c5.3,0,8.9-1.4,10.4-4.2c1.8-2.9,2.7-9.1,2.7-13.9v0.6V75.5z"/>
	<path class="st2" d="M662,94.1v-0.5c0,4.8,0.9,10.9,2.7,13.9c1.8,2.9,5.3,4.2,10.4,4.2c2.4,0,5.3-0.2,8-0.8c2.9-0.6,3.3-1.1,5.7-2
		l3.3,17.7c-3,1.2-4.2,2-7.7,2.9c-3.5,0.9-7.7,1.2-12.9,1.2c-6.5,0-11.8-0.9-16.2-2.4c-4.2-1.7-7.7-3.9-10.3-7.1
		c-2.4-3-4.4-6.5-5.3-10.9c-1.1-4.2-1.7-9.1-1.7-14.2V33.8h23.6v42.5L662,94.1z"/>
	<path class="st2" d="M482.9,42.6c1.2-0.2,2.7-0.2,4.1-0.3c1.7-0.2,3.2-0.2,4.8-0.2c8,0,13.6,0,18,3.3c3.9,2.7,6.2,5.9,6.2,11
		c0,5.3-2.3,13.9-6.1,16.5c-3.3,2.4-8.3,3.2-15,3.3v17.1l2.3,3c0.6,0.6,1.1,1.2,2,2.4l2.3,3c1.7,2.1,3.3,4.2,4.8,6.4l15.4,20.4h27.1
		c-2-3.9-3.9-8-6.2-12c-2.1-4.1-4.7-8-7-11.5c-2.3-3.8-4.8-7.3-7.1-10.6c-2.4-3.3-4.8-6.5-7.1-9.1c6.8-2.7,11.8-6.2,15.4-10.9
		c3.3-4.7,5.3-10.6,5.3-18.2c0-12-4.4-20.6-13.2-26.3c-9.1-5.4-25.3-8.5-41.8-8.5c-4.7,0-10,0.2-15.4,0.8c-5.8,0.3-8,1.1-13.3,2.1
		v104.1h24.7V76.1L482.9,42.6z"/>
	<path class="st2" d="M843.3,86.9c0-7.3,1.1-13.5,3.3-19.2c2.1-5.4,5.1-10,8.5-13.6c3.3-3.5,7.7-6.4,12.3-8.2
		c4.7-1.8,9.4-2.9,14.5-2.9c11.3,0,20.6,3.5,27.2,10.6c6.8,7.1,10,17.5,10,31.5c0,1.4,0,2.9-0.2,4.4c-0.2,1.5-0.2,3-0.3,4.2h-51.9
		c0.6,4.8,2.7,8.5,6.8,11.3c3.9,2.9,9.1,4.2,15.6,4.2c4.2,0,8.3-0.3,12.3-1.2c4.1-0.8,7.4-1.8,10-2.9l3,19.1
		c-1.2,0.6-2.9,1.2-4.8,1.8c-2.1,0.6-4.4,1.2-7,1.7c-2.4,0.6-5.3,0.9-8,1.2c-2.9,0.3-5.7,0.6-8.5,0.6c-7.1,0-13.6-1.1-19.1-3.2
		s-10-5.1-13.3-9.1c-3.3-3.8-6.2-8.2-7.7-13.3C844.2,98.4,843.3,92.9,843.3,86.9z M897.2,78c-0.2-2-0.3-3.9-1.1-5.7
		c-0.6-1.8-1.4-3.5-2.7-5.1c-1.2-1.4-2.7-2.7-4.4-3.5c-1.8-0.9-4.1-1.4-6.8-1.4c-2.7,0-4.8,0.3-6.8,1.2c-1.8,0.9-3.3,2-4.7,3.5
		c-1.2,1.7-2.1,3.2-2.9,5c-0.8,2-1.2,3.9-1.4,5.9L897.2,78z"/>
	<path class="st2" d="M550.4,86.9c0-7.3,1.1-13.5,3.3-19.2c2.1-5.4,5.1-10,8.5-13.6c3.3-3.5,7.7-6.4,12.3-8.2
		c4.7-1.8,9.4-2.9,14.5-2.9c11.3,0,20.6,3.5,27.2,10.6c6.8,7.1,10,17.5,10,31.5c0,1.4,0,2.9-0.2,4.4c-0.2,1.5-0.2,3-0.3,4.2h-51.9
		c0.6,4.8,2.7,8.5,6.8,11.3c3.9,2.9,9.1,4.2,15.6,4.2c4.2,0,8.3-0.3,12.3-1.2c4.1-0.8,7.4-1.8,10-2.9l3,19.1
		c-1.2,0.6-2.9,1.2-4.8,1.8c-2.1,0.6-4.4,1.2-7,1.7c-2.4,0.6-5.3,0.9-8,1.2c-2.9,0.3-5.7,0.6-8.5,0.6c-7.1,0-13.6-1.1-19.1-3.2
		c-5.4-2.1-10-5.1-13.3-9.1c-3.3-3.8-6.2-8.2-7.7-13.3C551.3,98.4,550.4,92.9,550.4,86.9z M604.3,78c-0.2-2-0.3-3.9-1.1-5.7
		c-0.6-1.8-1.4-3.5-2.7-5.1c-1.2-1.4-2.7-2.7-4.4-3.5c-1.8-0.9-4.1-1.4-6.8-1.4c-2.7,0-4.8,0.3-6.8,1.2c-1.8,0.9-3.3,2-4.7,3.5
		c-1.2,1.8-2.1,3.2-2.9,5c-0.8,2-1.2,3.9-1.4,5.9L604.3,78z"/>
</g>
</svg>
