<svg width="816" height="152" viewBox="0 0 816 152" fill="none" xmlns="http://www.w3.org/2000/svg">
<path d="M283.548 26.2124C283.548 30.4486 282.186 33.6259 279.462 36.1979C276.739 38.6185 273.41 39.6777 269.93 39.6777C266.147 39.6777 262.969 38.6185 260.397 36.1979C257.825 33.7772 256.311 30.5999 256.311 26.2124C256.311 21.9763 257.673 18.7993 260.397 16.2274C263.121 13.8067 266.449 12.7476 269.93 12.7476C273.713 12.7476 276.89 13.8067 279.462 16.2274C282.337 18.6481 283.548 21.825 283.548 26.2124ZM281.429 130.301H258.581V49.3602H281.429V130.301Z" fill="white"/>
<path d="M200.477 21.6738C216.365 21.6738 228.773 24.6996 237.247 30.2974C245.871 35.8952 250.108 45.1241 250.108 57.984C250.108 70.9951 245.871 80.0728 237.095 85.8219C228.319 91.571 215.911 94.4455 199.872 94.4455H192.155V130.453H168.097V24.6997C173.393 23.6406 178.991 22.8842 184.741 22.4303C190.945 21.6738 196.089 21.6738 200.477 21.6738ZM201.991 41.9472C200.175 41.9472 198.662 41.947 196.846 42.0983C195.03 42.2496 193.668 42.2495 192.458 42.4008V73.4157H200.175C208.648 73.4157 214.852 72.2054 219.089 70.0873C223.326 67.8179 225.444 63.5817 225.444 57.53C225.444 54.3529 224.99 52.0835 223.628 49.9654C222.418 47.8473 221.056 46.4859 219.089 45.2756C216.971 44.0652 214.701 43.1575 211.675 42.7037C208.649 42.4011 205.471 41.9472 201.991 41.9472Z" fill="white"/>
<path d="M321.225 113.659C325.613 113.659 328.639 113.357 330.455 112.449C332.271 111.541 333.027 110.029 333.027 107.759C333.027 105.792 331.816 104.279 329.547 102.918C327.277 101.556 323.645 99.892 318.803 98.2277C315.172 96.8661 311.843 95.6557 308.665 93.9915C305.639 92.6299 303.067 90.8145 300.949 88.8477C298.83 86.8809 297.166 84.4602 296.106 81.5856C294.896 78.7111 294.291 75.3825 294.291 71.6002C294.291 64.0356 297.317 58.1354 303.067 53.5966C308.817 49.2092 316.988 46.9396 327.126 46.9396C332.27 46.9396 337.113 47.2422 341.803 48.15C346.494 49.0577 350.277 49.9657 353 51.0248L348.763 68.8769C345.888 67.9691 343.014 67.0616 339.836 66.4565C336.659 65.7 333.027 65.3975 328.942 65.3975C321.527 65.3975 317.744 67.3641 317.744 71.2977C317.744 72.2055 317.896 73.1134 318.198 73.7185C318.501 74.475 319.106 75.08 320.165 75.8365C321.073 76.5929 322.435 77.198 323.948 77.9544C325.461 78.7109 327.58 79.4676 330.303 80.5267C335.599 82.4935 339.836 84.1575 343.316 85.973C346.645 87.7885 349.52 89.604 351.336 91.7221C353.303 93.8402 354.665 96.1097 355.572 98.6817C356.48 101.254 356.783 104.128 356.783 107.608C356.783 115.475 353.605 121.678 347.553 125.611C341.349 129.696 332.422 131.814 321.225 131.814C313.81 131.814 307.606 131.058 302.613 129.848C297.771 128.637 294.139 127.578 292.324 126.671L296.409 108.062C300.495 109.575 304.58 110.936 308.817 111.693C312.902 113.357 316.988 113.659 321.225 113.659Z" fill="white"/>
<path d="M779.098 113.659C783.486 113.659 786.512 113.357 788.328 112.449C790.143 111.541 790.9 110.029 790.9 107.759C790.9 105.792 789.69 104.279 787.42 102.918C785.15 101.556 781.519 99.892 776.677 98.2277C773.045 96.8661 769.716 95.6557 766.539 93.9915C763.513 92.6299 760.94 90.8145 758.822 88.8477C756.703 86.8809 755.039 84.4602 753.98 81.5856C752.769 78.7111 752.164 75.3825 752.164 71.6002C752.164 64.0356 755.191 58.1354 760.94 53.5966C766.69 49.2092 774.861 46.9396 784.999 46.9396C790.143 46.9396 794.985 47.2422 799.676 48.15C804.367 49.0577 808.15 49.9657 810.873 51.0248L806.637 68.8769C803.762 67.9691 800.886 67.0616 797.709 66.4565C794.531 65.7 790.9 65.3975 786.815 65.3975C779.4 65.3975 775.618 67.3641 775.618 71.2977C775.618 72.2055 775.769 73.1134 776.072 73.7185C776.374 74.475 776.979 75.08 778.038 75.8365C778.946 76.5929 780.308 77.198 781.821 77.9544C783.334 78.7109 785.453 79.4676 788.177 80.5267C793.472 82.4935 797.709 84.1575 801.189 85.973C804.518 87.7885 807.393 89.604 809.209 91.7221C811.176 93.8402 812.538 96.1097 813.446 98.6817C814.353 101.254 814.656 104.128 814.656 107.608C814.656 115.475 811.478 121.678 805.426 125.611C799.222 129.696 790.295 131.814 779.098 131.814C771.684 131.814 765.48 131.058 760.486 129.848C755.493 128.637 752.013 127.578 750.197 126.671L754.282 108.062C758.368 109.575 762.453 110.936 766.69 111.693C770.775 113.357 775.012 113.659 779.098 113.659Z" fill="white"/>
<path d="M400.966 47.2423C407.927 47.2423 413.828 47.9987 418.519 49.5116C423.209 51.0246 426.992 53.1424 429.716 56.0169C432.591 58.8914 434.406 62.2202 435.617 66.1538C436.827 70.0873 437.433 76.1387 437.433 80.9801V127.276C434.104 128.032 429.413 128.789 423.209 129.696C417.308 130.604 409.894 131.058 401.269 131.058C395.821 131.058 390.98 130.604 386.591 129.696C382.203 128.789 378.421 127.427 375.243 125.309C372.065 123.191 369.645 120.619 367.829 117.29C366.013 113.962 365.257 109.877 365.257 105.187C365.257 100.648 366.316 93.3863 368.283 90.3605C370.25 87.3346 372.822 84.6114 376.151 82.7959C379.48 80.8291 383.111 79.4672 387.348 78.7107C391.585 77.8029 395.973 77.5007 400.512 77.5007C403.69 77.5007 406.262 77.6519 408.683 77.8032C411.104 77.9545 413.071 78.257 414.433 78.8621C414.433 78.8621 413.979 75.0799 413.525 74.0209C413.374 72.9618 413.223 71.7515 410.65 69.4821C408.229 67.2127 403.993 66.0023 398.091 66.0023C394.006 66.0023 390.072 66.305 386.137 66.9102C382.355 67.3641 375.243 69.936 372.519 70.995L369.645 52.84C373.73 51.0245 376.302 50.4193 378.269 49.8142C380.388 49.3603 382.657 48.9063 385.078 48.6037C387.499 48.3012 390.223 47.8471 392.795 47.6958C395.519 47.3933 398.394 47.2423 400.966 47.2423ZM402.933 113.811C405.203 113.811 407.473 113.811 409.591 113.659C411.709 113.508 413.374 113.508 414.736 113.205V94.7478C413.828 94.5965 412.315 94.4451 410.499 94.2938C408.532 94.1425 406.867 93.9913 405.203 93.9913C402.933 93.9913 400.815 94.1425 398.848 94.2938C396.881 94.4451 395.216 95.0505 393.703 95.6557C392.341 96.4121 391.131 97.1685 390.223 98.5301C389.315 99.8917 389.013 102.918 389.013 104.733C389.013 108.213 390.223 110.633 392.644 111.995C395.216 113.205 398.545 113.811 402.933 113.811Z" fill="white"/>
<path d="M566.504 47.2423C573.464 47.2423 579.365 47.9987 584.056 49.5116C588.746 51.0246 592.53 53.1424 595.253 56.0169C597.977 58.8914 599.944 62.2202 601.154 66.1538C602.365 70.0873 602.97 76.1387 602.97 80.9801V127.276C599.641 128.032 594.95 128.789 588.747 129.696C582.845 130.604 575.431 131.058 566.806 131.058C561.359 131.058 556.517 130.604 552.129 129.696C547.741 128.789 543.958 127.427 540.78 125.309C537.603 123.191 535.182 120.619 533.366 117.29C531.55 113.962 530.794 109.877 530.794 105.187C530.794 100.648 531.853 93.3863 533.82 90.3605C535.787 87.3346 538.359 84.6114 541.688 82.7959C545.017 80.8291 548.649 79.4672 552.885 78.7107C557.122 77.8029 561.51 77.5007 566.05 77.5007C569.227 77.5007 571.799 77.6519 574.22 77.8032C576.641 77.9545 578.609 78.257 579.97 78.8621C579.97 78.8621 579.516 75.0799 579.062 74.0209C578.911 72.9618 578.76 71.7515 576.188 69.4821C573.767 67.2127 569.53 66.0023 563.628 66.0023C559.543 66.0023 555.609 66.305 551.675 66.9102C547.892 67.3641 540.78 69.936 538.057 70.995L535.181 52.84C539.267 51.0245 541.84 50.4193 543.807 49.8142C545.925 49.3603 548.195 48.9063 550.616 48.6037C553.037 48.3012 555.76 47.8471 558.332 47.6958C561.056 47.3933 563.931 47.2423 566.504 47.2423ZM568.47 113.811C570.74 113.811 573.01 113.811 575.128 113.659C577.247 113.508 578.911 113.508 580.273 113.205V94.7478C579.365 94.5965 577.852 94.4451 576.036 94.2938C574.069 94.1425 572.405 93.9913 570.74 93.9913C568.47 93.9913 566.352 94.1425 564.385 94.2938C562.418 94.4451 560.754 95.0505 559.241 95.6557C557.879 96.4121 556.668 97.1685 555.76 98.5301C554.852 99.8917 554.55 102.918 554.55 104.733C554.55 108.213 555.76 110.633 558.181 111.995C560.754 113.205 564.082 113.811 568.47 113.811Z" fill="white"/>
<path d="M639.133 95.3528V94.8992C639.133 99.5892 640.041 105.641 641.705 108.364C643.521 111.239 647.001 112.6 652.297 112.6C654.718 112.6 657.593 112.449 660.165 111.844C663.04 111.39 663.494 110.785 665.764 109.877L669.093 127.276C666.066 128.486 664.856 129.242 661.376 130.15C657.896 131.058 653.659 131.36 648.514 131.36C642.008 131.36 636.712 130.453 632.324 128.94C628.087 127.427 624.606 125.158 622.185 122.132C619.764 119.106 617.797 115.626 616.889 111.39C615.83 107.154 615.376 102.615 615.376 97.4711V32.5666H638.981V77.6517V95.3528H639.133Z" fill="white"/>
<path d="M670.758 89.7551C670.758 82.493 671.817 76.4415 674.087 70.9949C676.205 65.5484 679.231 61.1608 682.711 57.6811C686.192 54.2014 690.428 51.3267 694.968 49.6625C699.507 47.847 704.5 46.7881 709.342 46.7881C720.691 46.7881 729.921 50.2678 736.276 57.3786C742.934 64.3381 746.262 74.6258 746.262 88.2421C746.262 89.6038 746.263 91.1169 746.111 92.6298C745.96 94.1428 745.96 95.6554 745.809 96.8657H694.211C694.665 101.556 696.783 105.338 700.869 108.062C704.652 110.936 709.948 112.298 716.454 112.298C720.691 112.298 724.625 111.995 728.71 111.087C732.796 110.331 736.125 109.272 738.546 108.213L741.572 126.822C740.361 127.276 738.697 128.032 736.73 128.637C734.612 129.091 732.342 129.848 729.921 130.15C727.5 130.604 724.625 131.058 721.901 131.361C719.178 131.663 716.152 131.814 713.277 131.814C706.014 131.814 699.81 130.755 694.363 128.637C688.915 126.519 684.527 123.494 681.047 119.863C677.567 116.231 674.843 111.844 673.33 106.7C671.666 101.102 670.758 95.6555 670.758 89.7551ZM724.322 80.98C724.171 79.0132 724.02 77.1978 723.263 75.3823C722.809 73.5668 721.901 71.9026 720.691 70.541C719.48 69.1793 718.119 67.9689 716.303 67.0612C714.487 66.1534 712.217 65.6997 709.645 65.6997C707.073 65.6997 704.954 66.0023 702.987 66.9101C701.172 67.8179 699.659 68.8766 698.448 70.3895C697.238 71.9025 696.329 73.567 695.573 75.2312C694.816 77.198 694.363 79.0132 694.211 80.98H724.322Z" fill="white"/>
<path d="M481.767 111.541C485.096 111.541 487.668 111.239 490.241 110.633C492.359 110.18 494.024 109.272 495.386 108.213C496.747 107.154 497.504 106.095 497.958 104.884C498.412 103.523 498.866 101.859 498.866 100.497C498.866 97.0173 497.352 94.1428 494.024 91.8734C490.846 89.4527 485.096 87.1832 477.228 84.4599C473.748 83.4009 470.419 81.8879 466.939 80.2237C463.458 78.7107 460.432 76.7441 457.86 74.3234C455.287 71.9028 452.715 69.1794 451.202 65.5484C449.689 62.22 448.781 57.9839 448.781 53.1426C448.781 48.3013 449.689 44.0652 451.353 39.9803C453.32 36.198 455.742 32.7183 459.07 30.1463C462.399 27.5744 466.485 25.3051 471.327 23.7921C476.017 22.2792 481.465 21.6738 487.214 21.6738C494.175 21.6738 500.379 22.5817 505.675 24.0947C510.819 25.6076 515.207 27.2716 518.536 29.2384L511.727 47.9988C508.701 46.4859 505.523 44.9727 501.892 43.9137C498.26 42.8546 494.024 42.4007 488.879 42.4007C483.28 42.4007 479.195 43.3086 476.623 44.8215C474.202 46.3345 472.991 48.9065 472.991 52.0836C472.991 54.0504 473.445 55.5633 474.353 56.9249C475.261 58.2865 476.471 59.3456 478.136 60.4047C479.649 61.4637 481.616 62.3715 484.037 63.4305C486.155 64.3383 488.576 64.9433 491.3 66.0024C496.747 67.9692 501.438 70.0871 505.524 71.9026C509.609 73.8694 512.938 76.2901 515.51 78.7107C518.082 81.2827 520.201 84.3085 521.411 87.7882C522.773 91.268 523.379 95.6556 523.379 100.799C523.379 110.633 519.898 118.198 513.089 123.796C506.28 129.242 495.839 131.966 481.918 131.966C477.228 131.966 472.991 131.663 469.511 131.058C465.879 130.604 462.55 129.999 459.676 129.091C456.649 128.183 454.228 127.578 452.11 126.671C450.143 125.763 448.327 124.704 446.965 124.25L453.623 105.338C456.801 106.851 460.584 108.667 465.123 110.028C469.36 111.087 475.11 111.541 481.767 111.541Z" fill="white"/>
<path d="M94.7097 55.2605L107.42 68.1203C112.716 73.5669 112.413 82.3421 106.815 88.0912L91.2294 103.826L74.8875 87.3348C71.5586 84.0063 66.2627 84.0063 63.0851 87.3348L28.8883 121.678L52.4932 145.582C59.9075 153.147 72.3152 152.693 80.0322 144.826L123.913 100.497C135.716 88.3938 136.17 69.6334 124.972 58.4378L108.176 41.4931L94.7097 55.2605Z" fill="white"/>
<path d="M54.3093 6.99835L9.97481 52.0835C-1.52496 63.733 -2.13036 82.3419 9.06679 93.6888L25.7112 110.482L38.2702 97.7736L25.7112 85.0652C20.4152 79.6187 20.4152 71.2975 25.7112 66.0023L42.9609 48.4522L59 64.7919C62.3289 68.1203 67.6249 68.1203 70.6512 64.7919L104.848 30.4486L81.6969 6.69584C74.4339 -1.17135 62.1776 -0.717545 54.3093 6.99835Z" fill="white"/>
</svg>
