<svg width="673" height="152" viewBox="0 0 673 152" fill="none" xmlns="http://www.w3.org/2000/svg">
<path d="M202.799 111.834C206.129 111.834 208.853 111.531 211.275 110.926C213.394 110.321 215.21 109.564 216.421 108.505C217.783 107.445 218.54 106.386 219.145 105.176C219.751 103.814 220.053 102.149 220.053 100.787C220.053 97.3063 218.389 94.4311 215.059 92.1611C211.88 89.7398 205.978 87.3185 198.107 84.7459C194.626 83.6866 191.145 82.0219 187.664 80.5085C184.183 78.9952 181.156 77.0279 178.432 74.4553C175.707 72.034 173.286 69.3102 171.772 65.527C170.107 62.1977 169.351 57.9603 169.351 52.9664C169.351 47.9725 170.259 43.7352 172.075 39.6493C174.043 35.7147 176.464 32.3854 179.794 29.6615C183.124 26.9375 187.21 24.6676 192.205 23.3056C197.048 21.641 202.497 21.187 208.248 21.187C215.362 21.187 221.567 22.0949 226.864 23.6082C232.01 25.2729 236.399 26.7862 239.729 28.7535L232.767 47.6699C229.74 46.0052 226.562 44.6433 222.778 43.584C218.994 42.5247 214.756 41.9192 209.61 41.9192C204.01 41.9192 199.924 42.8273 197.199 44.3407C194.778 46.0053 193.416 48.4265 193.416 51.6044C193.416 53.5717 194.021 55.0851 194.778 56.5984C195.686 57.9604 196.897 59.0196 198.713 60.0789C200.378 61.1382 202.194 62.0462 204.767 63.1055C206.886 64.0135 209.307 64.7702 212.032 65.8295C217.48 67.7968 222.324 69.9155 226.41 71.8828C230.497 73.8501 233.826 76.2713 236.551 78.8439C239.275 81.5679 241.394 84.4431 242.605 88.0751C243.967 91.5557 244.572 96.0957 244.572 101.241C244.572 111.229 241.091 118.795 234.129 124.394C227.167 129.842 216.724 132.718 202.648 132.718C197.805 132.718 193.567 132.415 190.086 131.81C186.302 131.204 182.972 130.75 180.097 129.843C177.07 128.935 174.648 128.178 172.529 127.421C170.562 126.513 168.594 125.454 167.383 125L174.043 105.932C177.221 107.597 181.156 109.261 185.697 110.775C190.237 111.229 195.989 111.834 202.799 111.834Z" fill="#495054"/>
<path d="M249.113 89.5885C249.113 83.5353 250.173 78.2387 252.14 72.9421C254.108 67.7968 256.681 63.4084 260.465 59.4738C263.946 55.5392 268.486 52.5125 273.632 50.3939C278.778 48.2753 284.681 47.0645 291.189 47.0645C295.427 47.0645 299.513 47.3673 302.994 48.1239C306.475 49.0319 310.108 50.0912 313.437 51.4532L308.594 69.7642C306.475 68.8562 304.054 68.0995 301.481 67.6455C299.059 66.8889 296.032 66.7376 292.854 66.7376C286.194 66.7376 281.048 68.7048 277.87 72.9421C274.54 77.1794 272.724 82.6273 272.724 89.5885C272.724 96.8524 274.389 102.452 277.567 106.538C280.594 110.624 286.194 112.591 294.065 112.591C296.789 112.591 299.665 112.288 303.146 111.683C306.324 111.078 309.2 110.321 312.075 109.262L315.254 128.027C312.529 129.086 309.2 129.994 305.265 131.053C301.178 131.961 296.789 132.113 292.097 132.113C284.681 132.113 278.475 131.053 273.027 128.783C267.881 126.665 263.492 123.638 259.859 119.703C256.529 115.92 253.805 111.38 252.292 106.386C250.021 101.393 249.113 95.7931 249.113 89.5885Z" fill="#495054"/>
<path d="M407.427 26.0295C407.427 30.2668 406.064 33.4449 403.34 36.0175C400.616 38.4388 397.286 39.498 393.805 39.498C390.021 39.498 386.843 38.4388 384.27 36.0175C381.697 33.5962 380.183 30.4181 380.183 26.0295C380.183 21.7922 381.545 18.6143 384.27 16.0417C386.994 13.6204 390.324 12.5612 393.805 12.5612C397.589 12.5612 400.767 13.6204 403.34 16.0417C406.216 18.6143 407.427 21.7922 407.427 26.0295ZM405.61 130.145H382.756V49.1832H405.61V130.145Z" fill="#495054"/>
<path d="M444.508 130.145C439.362 119.855 434.065 108.051 428.616 94.1284C423.168 80.5085 418.173 65.3754 413.178 49.3343H437.395C438.454 53.4203 439.514 57.6577 440.876 62.5003C442.238 67.3429 443.903 71.7313 445.265 76.7253C446.93 81.5679 448.292 86.2593 449.654 90.4965C451.319 95.0365 452.681 99.1224 454.043 102.906C455.405 99.1224 456.768 95.1878 458.433 90.4965C460.097 85.9566 461.46 81.4165 462.973 76.7253C464.638 71.8826 466 67.1915 467.362 62.5003C468.725 57.6577 469.784 53.4203 470.844 49.3343H494.606C489.611 65.3754 484.617 80.5085 479.168 94.1284C473.719 107.748 468.573 119.855 463.276 130.145H444.508Z" fill="#495054"/>
<path d="M527.449 26.0295C527.449 30.2668 526.087 33.4449 523.363 36.0175C520.638 38.4388 517.308 39.498 513.827 39.498C510.043 39.498 506.865 38.4388 504.292 36.0175C501.719 33.5962 500.205 30.4181 500.205 26.0295C500.205 21.7922 501.567 18.6143 504.292 16.0417C507.016 13.6204 510.346 12.5612 513.827 12.5612C517.611 12.5612 520.789 13.6204 523.363 16.0417C526.087 18.6143 527.449 21.7922 527.449 26.0295ZM525.33 130.145H502.475V49.1832H525.33V130.145Z" fill="#495054"/>
<path d="M671.384 89.5885C671.384 95.9444 670.476 101.846 668.66 106.992C666.692 112.137 664.119 116.677 660.638 120.46C657.157 124.243 653.071 126.967 648.076 129.086C643.082 131.205 637.784 132.113 631.579 132.113C625.525 132.113 620.228 131.053 615.536 129.086C610.541 127.119 606.454 124.092 602.973 120.46C599.492 116.677 596.768 112.137 594.8 106.992C592.833 101.846 591.773 95.7931 591.773 89.5885C591.773 83.2326 592.833 77.3307 594.8 72.1854C596.768 67.0402 599.644 62.6517 603.125 58.8684C606.606 55.0851 610.844 52.361 615.687 50.2424C620.682 48.2751 625.828 47.2158 631.579 47.2158C637.633 47.2158 642.779 48.2751 647.622 50.2424C652.465 52.2097 656.703 55.2365 660.184 58.8684C663.665 62.6517 666.39 67.0402 668.357 72.1854C670.476 77.482 671.384 83.0813 671.384 89.5885ZM647.925 89.5885C647.925 82.476 646.563 77.028 643.687 72.9421C640.66 68.8561 637.028 66.8888 631.579 66.8888C626.433 66.8888 622.346 68.8561 619.319 72.9421C616.292 77.028 615.082 82.476 615.082 89.5885C615.082 96.7011 616.444 102.149 619.319 106.235C622.346 110.472 626.282 112.44 631.579 112.44C636.876 112.44 640.811 110.472 643.687 106.235C646.714 102.3 647.925 96.7011 647.925 89.5885Z" fill="#495054"/>
<path d="M539.405 40.2545H562.259L562.411 49.7884H582.995V66.7374H562.411L562.259 97.0036C562.259 101.544 563.167 107.294 564.681 110.17C566.346 113.045 569.827 114.255 574.821 114.255C577.243 114.255 579.816 114.104 582.389 113.499C584.811 112.893 587.384 112.439 589.503 111.531L592.681 128.178C589.957 129.237 587.081 130.145 583.6 130.902C580.27 131.81 576.184 131.961 571.189 131.961C564.984 131.961 559.838 131.053 555.6 129.54C551.513 127.875 548.184 125.757 545.913 123.033C543.492 120.006 541.675 116.828 540.767 112.742C539.708 108.656 539.103 104.267 539.103 99.4249L539.405 40.2545Z" fill="#495054"/>
<path d="M345.675 99.1224V130.145H322.821V79.9034C322.821 74.9095 323.426 70.6722 324.486 66.5862C325.545 62.5003 327.21 59.1709 329.632 56.2957C332.054 53.269 335.232 51.1505 339.318 49.7885C343.405 48.1239 348.551 47.3673 354.908 47.3673C359.902 47.3673 363.989 47.6699 367.319 48.4265C370.649 49.3345 373.676 50.0912 376.4 51.1506L373.221 67.797C371.103 66.889 368.681 66.4349 366.108 65.8296C363.686 65.2243 360.962 65.0729 358.54 65.0729C353.394 65.0729 350.065 66.4348 348.4 69.1588C346.735 71.8828 345.978 77.7848 345.978 82.3247V81.7193V99.2737L345.675 99.1224Z" fill="#495054"/>
<path d="M93.5234 56.2957L106.237 69.1588C111.534 74.6068 111.232 83.3841 105.632 89.1346L92.1612 102.754L75.8152 86.2593C72.4854 82.93 67.1881 82.93 64.0097 86.2593L28.7446 121.671L52.3556 145.581C59.7718 153.148 72.1827 152.694 79.9017 144.824L123.794 100.484C135.599 88.378 136.053 69.6129 124.853 58.4144L108.053 41.4654L93.5234 56.2957Z" fill="#495054"/>
<path d="M54.3233 7.11331L9.97706 52.2099C-1.52572 63.8624 -2.13109 82.476 9.06898 93.8258L25.7177 110.623L39.3394 96.8524L26.7772 84.1406C21.4799 78.6927 21.4799 70.3696 26.7772 65.073L41.9124 49.6374L57.9558 65.981C61.2855 69.3102 66.5829 69.3102 69.6099 65.981L104.875 30.5696L81.7181 6.81072C74.3018 -1.2098 62.0422 -0.75588 54.3233 7.11331Z" fill="#426698"/>
</svg>
