<svg xmlns="http://www.w3.org/2000/svg" fill="none" viewBox="0 0 150 100"><g clip-path="url(#a)"><path fill="#AAA" d="M118.04 33H32.79A2.79 2.79 0 0 0 30 35.79v28.6a2.79 2.79 0 0 0 2.79 2.79h85.25a2.79 2.79 0 0 0 2.79-2.79v-28.6a2.79 2.79 0 0 0-2.79-2.79" opacity=".55"/><path fill="#fff" d="M45.67 53.48c4.606 0 8.34-3.792 8.34-8.47s-3.734-8.47-8.34-8.47-8.34 3.792-8.34 8.47 3.734 8.47 8.34 8.47" opacity=".66"/><path stroke="#AAA" stroke-linecap="round" stroke-linejoin="bevel" stroke-width="5.63" d="M62.66 42.34h14.45m9.57 0h26.74"/><path stroke="#AAA" stroke-linecap="round" stroke-linejoin="bevel" stroke-width="3.75" d="M61.66 50.85H87.8m-26.14 6.82h20.73"/><path fill="#AAA" d="M50.88 51.62c-1.22-1.46-3.04-2.39-5.06-2.39s-3.98 1-5.2 2.55l-1.08-1.04c1.49-1.85 3.75-3.03 6.28-3.03s4.64 1.11 6.13 2.86z"/><path stroke="#AAA" stroke-width="1.63" d="M45.75 47.72a3.26 3.26 0 1 0 0-6.52 3.26 3.26 0 0 0 0 6.52Z"/></g><g clip-path="url(#clip0_5_77)"><rect width="36" height="13" x="23" y="18" fill="#FF9F00" rx="6.5"/><path fill="#fff" d="M28.7 28.5v-7.2h2.33l.35.005q.266.005.51.035.87.105 1.475.605t.92 1.27.315 1.685-.315 1.685-.92 1.27-1.475.605q-.244.03-.51.035l-.35.005zm1.38-1.28h.95q.135 0 .365-.005a3 3 0 0 0 .415-.045 1.32 1.32 0 0 0 .765-.44q.3-.345.44-.83a3.5 3.5 0 0 0 .145-1q0-.54-.15-1.025a2.1 2.1 0 0 0-.445-.82 1.33 1.33 0 0 0-.755-.425 2 2 0 0 0-.415-.045l-.365-.005h-.95zm5.024 1.28 2.2-7.2h2.03l2.2 7.2h-1.4l-1.96-6.35h.26l-1.93 6.35zm1.32-1.5v-1.27h3.8V27zm7.08 1.5v-5.93h-2.27V21.3h5.9v1.27h-2.27v5.93zm3.739 0 2.2-7.2h2.03l2.2 7.2h-1.4l-1.96-6.35h.26l-1.93 6.35zm1.32-1.5v-1.27h3.8V27z"/></g><defs><clipPath id="a"><path fill="#fff" d="M30 33h90.83v34.18H30z"/></clipPath></defs></svg>