<?xml version="1.0" encoding="UTF-8"?><svg id="Ebene_1" xmlns="http://www.w3.org/2000/svg" viewBox="0 0 150 100"><defs><style>.cls-1{opacity:.5;}.cls-2{opacity:.75;}.cls-3{fill:#aaa;}.cls-3,.cls-4{stroke-width:0px;}.cls-4{fill:#fff;}</style></defs><g class="cls-2"><rect class="cls-3" x="23.6" y="40.04" width="102.8" height="19.92" rx="2" ry="2"/><path class="cls-3" d="m124.4,41.04c.55,0,1,.45,1,1v15.92c0,.55-.45,1-1,1H25.6c-.55,0-1-.45-1-1v-15.92c0-.55.45-1,1-1h98.8m0-2H25.6c-1.66,0-3,1.34-3,3v15.92c0,1.66,1.34,3,3,3h98.8c1.66,0,3-1.34,3-3v-15.92c0-1.66-1.34-3-3-3h0Z"/></g><path class="cls-4" d="m55.66,55.06v-8.64h3.46c.62,0,1.11.12,1.49.37s.66.56.83.93c.18.37.26.75.26,1.13,0,.48-.11.89-.33,1.21-.22.32-.52.53-.9.64v-.3c.54.11.95.36,1.21.75.27.39.41.82.41,1.3,0,.52-.1.97-.29,1.36-.19.39-.48.7-.87.92s-.88.33-1.46.33h-3.83Zm1.66-5.27h1.78c.18,0,.35-.03.49-.1.14-.06.26-.16.34-.3s.13-.31.13-.52c0-.26-.08-.49-.25-.67-.16-.18-.4-.27-.71-.27h-1.78v1.85Zm0,3.73h2c.22,0,.42-.05.59-.14s.31-.23.41-.4c.1-.17.15-.37.15-.6,0-.2-.04-.39-.13-.55s-.21-.29-.38-.38c-.17-.09-.38-.14-.63-.14h-2v2.21Z"/><path class="cls-4" d="m65.71,55.25c-.51,0-.92-.09-1.24-.26s-.57-.39-.75-.65c-.18-.26-.3-.54-.38-.83s-.12-.55-.14-.78c-.02-.24-.02-.41-.02-.52v-3.64h1.66v3.06c0,.15,0,.34.02.57.02.23.07.46.15.69.08.23.22.43.41.58s.46.23.81.23c.14,0,.29-.02.45-.07s.31-.13.45-.25.25-.31.34-.56.14-.57.14-.97l.94.44c0,.51-.1.99-.31,1.44-.21.45-.52.81-.94,1.09-.42.28-.95.41-1.58.41Zm2.1-.19v-2.15h-.2v-4.33h1.64v6.48h-1.44Z"/><path class="cls-4" d="m70.21,49.84v-1.26h4.61v1.26h-4.61Zm4.61,5.22c-.45.08-.89.12-1.32.11-.43-.01-.81-.09-1.15-.23-.34-.14-.59-.37-.77-.69-.16-.3-.24-.6-.25-.9,0-.31-.01-.65-.01-1.04v-5.53h1.63v5.44c0,.25,0,.48,0,.68s.05.36.12.48c.14.23.37.35.69.37.32.02.67,0,1.05-.05v1.36Zm0-5.22v-1.26h4.61v1.26h-4.61Zm4.61,5.22c-.45.08-.89.12-1.32.11-.43-.01-.81-.09-1.15-.23-.34-.14-.6-.37-.77-.69-.16-.3-.24-.6-.25-.9s-.01-.65-.01-1.04v-5.53h1.63v5.44c0,.25,0,.48,0,.68s.05.36.12.48c.14.23.37.35.69.37.32.02.67,0,1.05-.05v1.36Z"/><path class="cls-4" d="m83.78,55.23c-.65,0-1.22-.15-1.72-.44s-.88-.7-1.15-1.21c-.27-.51-.41-1.11-.41-1.77s.14-1.27.42-1.79c.28-.51.67-.92,1.16-1.2.49-.29,1.06-.43,1.7-.43s1.22.15,1.72.44c.49.29.88.7,1.16,1.21.28.51.41,1.1.41,1.77s-.14,1.27-.42,1.78-.66.92-1.16,1.21-1.06.43-1.71.43Zm0-1.52c.52,0,.92-.18,1.17-.53s.39-.81.39-1.37-.13-1.04-.39-1.38-.65-.52-1.17-.52c-.36,0-.65.08-.88.24-.23.16-.4.38-.51.67-.11.28-.17.61-.17.99,0,.58.13,1.04.39,1.38.26.34.65.51,1.16.51Z"/><path class="cls-4" d="m88.38,55.06v-6.48h1.45v2.15h.2v4.33h-1.66Zm4.43,0v-3.06c0-.15,0-.34-.02-.57-.02-.23-.07-.46-.15-.69-.08-.23-.22-.43-.41-.58-.19-.16-.46-.23-.81-.23-.14,0-.29.02-.45.07s-.31.13-.45.25-.25.31-.34.56-.13.57-.13.97l-.94-.44c0-.51.1-.99.31-1.44s.52-.81.94-1.09c.42-.28.95-.41,1.58-.41.51,0,.92.09,1.24.26s.57.39.75.65.3.54.38.83c.08.29.12.55.14.78.02.24.02.41.02.52v3.64h-1.66Z"/><g class="cls-1"><path class="cls-3" d="m116,72.31c-.12,0-.23-.05-.31-.13l-4.86-4.86-1.96,3.38c-.08.14-.24.23-.41.22-.17-.01-.31-.12-.37-.27l-5.58-14.03c-.06-.16-.03-.35.1-.47.12-.12.31-.16.47-.1l14.03,5.58c.16.06.26.21.27.37.01.17-.07.33-.22.41l-3.38,1.96,4.86,4.86c.08.08.13.19.13.31,0,.12-.05.23-.13.31-.02.02-2.34,2.34-2.34,2.34-.08.08-.19.13-.31.13Zm-5.26-6.13c.11,0,.23.05.31.13l4.95,4.95c.45-.45,1.27-1.27,1.72-1.72l-4.95-4.95c-.1-.1-.14-.23-.12-.36s.1-.25.21-.32l3.09-1.8-12.26-4.87,4.87,12.26,1.8-3.09c.07-.12.19-.2.32-.21.02,0,.04,0,.06,0Z"/></g><g class="cls-2"><path class="cls-4" d="m110.77,66.24c.12,0,.23.05.31.13l5.03,5.03c.45-.45,1.29-1.29,1.75-1.75l-5.03-5.03c-.1-.1-.14-.23-.13-.37s.1-.26.22-.33l3.14-1.83-12.45-4.95,4.95,12.45,1.83-3.14c.07-.12.19-.2.33-.22.02,0,.04,0,.06,0Z"/></g></svg>