<svg xmlns="http://www.w3.org/2000/svg" fill="none" viewBox="0 0 150 100"><path fill="#AAA" d="M119.877 78.947a.65.65 0 0 1-.456-.192l-7.145-7.145-2.882 4.97a.66.66 0 0 1-.603.323.63.63 0 0 1-.544-.397l-8.203-20.627a.635.635 0 0 1 .147-.691.66.66 0 0 1 .691-.148l20.627 8.205a.62.62 0 0 1 .397.543.63.63 0 0 1-.323.603l-4.97 2.882 7.146 7.145a.65.65 0 0 1 .191.456.65.65 0 0 1-.191.456l-3.441 3.44a.64.64 0 0 1-.456.191zm-7.733-9.013a.67.67 0 0 1 .455.191l7.278 7.278 2.529-2.529-7.278-7.278a.6.6 0 0 1-.176-.529.7.7 0 0 1 .309-.47l4.543-2.647-18.026-7.16 7.161 18.025 2.646-4.543a.61.61 0 0 1 .47-.309h.089z" opacity=".5"/><g clip-path="url(#a)"><g fill="#AAA" opacity=".75"><path d="M124.8 40H26a2 2 0 0 0-2 2v15.92a2 2 0 0 0 2 2h98.8a2 2 0 0 0 2-2V42a2 2 0 0 0-2-2"/><path d="M124.8 41c.55 0 1 .45 1 1v15.92c0 .55-.45 1-1 1H26c-.55 0-1-.45-1-1V42c0-.55.45-1 1-1zm0-2H26c-1.66 0-3 1.34-3 3v15.92c0 1.66 1.34 3 3 3h98.8c1.66 0 3-1.34 3-3V42c0-1.66-1.34-3-3-3"/></g><path fill="#fff" d="M55.84 55v-8.64h3.456q.924 0 1.494.372.57.366.834.924t.264 1.128q0 .726-.33 1.206-.324.48-.894.642v-.3q.81.168 1.212.75.408.582.408 1.302 0 .774-.288 1.362-.282.588-.864.924-.582.33-1.464.33zm1.656-1.536H59.5q.33 0 .588-.138.258-.144.402-.396.15-.258.15-.606 0-.306-.126-.546a.9.9 0 0 0-.384-.378 1.25 1.25 0 0 0-.63-.144h-2.004zm0-3.732h1.776a1.2 1.2 0 0 0 .492-.096.77.77 0 0 0 .342-.294 1 1 0 0 0 .126-.522.95.95 0 0 0-.246-.666q-.246-.27-.714-.27h-1.776zm8.397 5.46q-.762 0-1.242-.258t-.75-.654a2.8 2.8 0 0 1-.378-.822 4 4 0 0 1-.138-.786 9 9 0 0 1-.024-.516V48.52h1.656v3.06q0 .222.024.57.024.342.15.69t.408.582q.288.234.81.234.21 0 .45-.066t.45-.252q.21-.192.342-.558.138-.372.138-.972l.936.444q0 .768-.312 1.44t-.942 1.086q-.624.414-1.578.414m2.1-.192v-2.148h-.204V48.52h1.644V55zm7.005 0q-.674.126-1.32.108a3.2 3.2 0 0 1-1.153-.222 1.56 1.56 0 0 1-.768-.69 2 2 0 0 1-.252-.9 41 41 0 0 1-.011-1.044V46.72h1.632v5.436q0 .378.005.684.012.3.126.48.216.342.69.372t1.05-.048zm-4.609-5.22v-1.26h4.609v1.26zM79.607 55q-.672.126-1.32.108a3.2 3.2 0 0 1-1.153-.222 1.56 1.56 0 0 1-.767-.69 2 2 0 0 1-.252-.9 41 41 0 0 1-.013-1.044V46.72h1.633v5.436q0 .378.006.684.012.3.126.48.216.342.69.372t1.05-.048zm-4.608-5.22v-1.26h4.608v1.26zm8.965 5.4q-.978 0-1.716-.438a3.07 3.07 0 0 1-1.152-1.206q-.408-.774-.408-1.776 0-1.014.42-1.782.42-.774 1.158-1.206t1.698-.432q.978 0 1.716.438.744.438 1.158 1.212.414.768.414 1.77 0 1.008-.42 1.782a3.05 3.05 0 0 1-1.158 1.206q-.738.432-1.71.432m0-1.524q.786 0 1.17-.528.39-.534.39-1.368 0-.864-.396-1.38-.39-.516-1.164-.516-.534 0-.876.24t-.51.666a2.8 2.8 0 0 0-.162.99q0 .87.39 1.386.396.51 1.158.51M92.987 55v-3.06q0-.222-.024-.564a2.6 2.6 0 0 0-.15-.696 1.3 1.3 0 0 0-.415-.582q-.282-.234-.803-.234-.21 0-.45.066t-.45.258q-.21.186-.348.552-.132.366-.132.972l-.937-.444q0-.768.313-1.44.312-.672.936-1.086.63-.414 1.584-.414.76 0 1.242.258.48.258.744.654.27.396.384.828.114.426.138.78t.023.516V55zm-4.428 0v-6.48h1.451v2.148h.204V55z"/></g><path fill="#fff" fill-opacity=".75" d="M112.188 70.022a.65.65 0 0 1 .456.191l7.395 7.396 2.573-2.573-7.396-7.395a.68.68 0 0 1-.191-.544.63.63 0 0 1 .324-.486l4.616-2.69-18.304-7.278 7.278 18.305 2.69-4.617a.67.67 0 0 1 .485-.324h.088z" opacity=".75"/><defs><clipPath id="a"><path fill="#fff" d="M23 39h104.8v21.92H23z"/></clipPath></defs></svg>