<svg xmlns="http://www.w3.org/2000/svg" fill="none" viewBox="0 0 150 100"><path stroke="#AAA" stroke-dasharray="5 5" stroke-linecap="round" stroke-width="2" d="M16 15a4 4 0 0 1 4-4h111a3 3 0 0 1 3 3v72a3 3 0 0 1-3 3H19a3 3 0 0 1-3-3z"/><g clip-path="url(#a)"><rect width="67" height="13" x="23" y="18" fill="#FF9F00" rx="6.5"/><path fill="#fff" d="M28.7 28.5v-7.2h2.33l.35.005q.266.005.51.035.87.105 1.475.605t.92 1.27.315 1.685-.315 1.685-.92 1.27-1.475.605q-.244.03-.51.035l-.35.005zm1.38-1.28h.95q.135 0 .365-.005a3 3 0 0 0 .415-.045 1.32 1.32 0 0 0 .765-.44q.3-.345.44-.83a3.5 3.5 0 0 0 .145-1q0-.54-.15-1.025a2.1 2.1 0 0 0-.445-.82 1.33 1.33 0 0 0-.755-.425 2 2 0 0 0-.415-.045l-.365-.005h-.95zm5.024 1.28 2.2-7.2h2.03l2.2 7.2h-1.4l-1.96-6.35h.26l-1.93 6.35zm1.32-1.5v-1.27h3.8V27zm7.08 1.5v-5.93h-2.27V21.3h5.9v1.27h-2.27v5.93zm3.739 0 2.2-7.2h2.03l2.2 7.2h-1.4l-1.96-6.35h.26l-1.93 6.35zm1.32-1.5v-1.27h3.8V27zm8.008 1.5v-7.2h4.4v1.36h-3.04v1.56h2.44v1.36h-2.44v2.92zm8.393.15q-1.08 0-1.865-.47a3.15 3.15 0 0 1-1.205-1.315q-.42-.844-.42-1.965t.42-1.965a3.15 3.15 0 0 1 1.205-1.315q.785-.47 1.865-.47c1.08 0 1.34.157 1.86.47a3.1 3.1 0 0 1 1.205 1.315q.425.845.425 1.965t-.425 1.965a3.1 3.1 0 0 1-1.205 1.315q-.78.47-1.86.47m0-1.28q.686.01 1.14-.295a1.83 1.83 0 0 0 .68-.865q.23-.56.23-1.31c0-.75-.077-.933-.23-1.3a1.84 1.84 0 0 0-.68-.855q-.454-.304-1.14-.315-.686-.01-1.14.295a1.86 1.86 0 0 0-.685.865q-.225.56-.225 1.31c0 .75.075.933.225 1.3q.23.55.685.855.454.305 1.14.315m4.488 1.13v-7.2h3.04q.105 0 .28.01.18.005.32.03.645.1 1.055.425.415.325.61.82.195.49.195 1.095 0 .905-.45 1.55-.45.64-1.41.79l-.6.04h-1.68v2.44zm4.06 0-1.42-2.93 1.4-.27 1.56 3.2zm-2.7-3.71h1.62q.105 0 .23-.01t.23-.04a.83.83 0 0 0 .425-.25q.15-.18.205-.395.06-.22.06-.415c0-.195-.02-.267-.06-.41a.96.96 0 0 0-.205-.395.8.8 0 0 0-.425-.255 1.2 1.2 0 0 0-.23-.04 3 3 0 0 0-.23-.01h-1.62zm5.34 3.71v-7.2h1.22l2.38 4.78 2.38-4.78h1.22v7.2h-1.27v-4.3l-2.09 4.3h-.48l-2.09-4.3v4.3z"/></g><g fill="#AAA" opacity=".75"><path d="M124.8 61H26a2 2 0 0 0-2 2v15.92a2 2 0 0 0 2 2h98.8a2 2 0 0 0 2-2V63a2 2 0 0 0-2-2"/><path d="M124.8 62c.55 0 1 .45 1 1v15.92c0 .55-.45 1-1 1H26c-.55 0-1-.45-1-1V63c0-.55.45-1 1-1zm0-2H26c-1.66 0-3 1.34-3 3v15.92c0 1.66 1.34 3 3 3h98.8c1.66 0 3-1.34 3-3V63c0-1.66-1.34-3-3-3"/></g><path fill="#fff" d="M57.104 75.18q-.96 0-1.734-.336a3.3 3.3 0 0 1-1.266-.972 3.2 3.2 0 0 1-.624-1.512l1.704-.252q.18.744.744 1.146t1.284.402q.402 0 .78-.126t.618-.372a.82.82 0 0 0 .246-.606.8.8 0 0 0-.042-.252.6.6 0 0 0-.126-.234 1 1 0 0 0-.258-.204 2 2 0 0 0-.414-.174l-2.244-.66a7 7 0 0 1-.588-.204 2.6 2.6 0 0 1-.642-.378 2 2 0 0 1-.522-.648q-.204-.408-.204-1.026 0-.87.438-1.446t1.17-.858a4.4 4.4 0 0 1 1.62-.276q.894.012 1.596.306t1.176.858q.474.558.684 1.368l-1.764.3a1.56 1.56 0 0 0-.354-.708 1.7 1.7 0 0 0-.618-.438 2 2 0 0 0-.744-.162 2 2 0 0 0-.726.108 1.4 1.4 0 0 0-.552.336.74.74 0 0 0-.21.528q0 .282.174.462.174.174.438.282t.54.18l1.5.408q.336.09.744.24.408.144.78.408.378.258.618.684.246.426.246 1.08 0 .696-.294 1.218-.288.516-.78.858-.492.336-1.116.504a5 5 0 0 1-1.278.168m7.199.012q-.762 0-1.242-.258t-.75-.654a2.8 2.8 0 0 1-.378-.822 4 4 0 0 1-.138-.786 9 9 0 0 1-.024-.516V68.52h1.656v3.06q0 .222.024.57.024.342.15.69t.408.582q.288.234.81.234.21 0 .45-.066t.45-.252q.21-.192.342-.558.138-.372.138-.972l.936.444q0 .768-.312 1.44t-.942 1.086q-.624.414-1.578.414m2.1-.192v-2.148h-.204V68.52h1.644V75zm6.297.18q-.966 0-1.614-.45a2.8 2.8 0 0 1-.978-1.224q-.324-.774-.324-1.746t.324-1.746.954-1.224 1.554-.45q.93 0 1.62.444t1.068 1.218q.384.768.384 1.758 0 .972-.378 1.746a3 3 0 0 1-1.044 1.224q-.672.45-1.566.45M69.508 75v-8.64h1.644v4.2h-.204V75zm2.928-1.272q.528 0 .864-.264t.498-.708q.162-.45.162-.996 0-.54-.168-.984a1.54 1.54 0 0 0-.522-.714q-.348-.27-.894-.27-.51 0-.828.246a1.4 1.4 0 0 0-.456.69 3.4 3.4 0 0 0-.144 1.032q0 .588.144 1.032t.468.69q.33.246.876.246M84.808 75v-3.828q0-.642-.306-.996-.3-.36-.834-.36-.342 0-.594.162-.252.156-.396.444a1.5 1.5 0 0 0-.138.654l-.684-.456q0-.666.312-1.176.318-.51.846-.792a2.45 2.45 0 0 1 1.182-.288q1.11 0 1.674.66.57.654.57 1.716V75zm-7.812 0v-6.48h1.44v2.148h.204V75zm3.912 0v-3.828q0-.642-.306-.996-.3-.36-.834-.36-.51 0-.822.354-.306.348-.306.906l-.684-.48q0-.636.318-1.14t.852-.798a2.5 2.5 0 0 1 1.206-.294q.762 0 1.248.324.492.324.726.864t.234 1.188V75zm7.212-7.38v-1.44h1.632v1.44zm0 7.38v-6.48h1.632V75zm7.319 0q-.672.126-1.32.108a3.2 3.2 0 0 1-1.152-.222 1.56 1.56 0 0 1-.768-.69 2 2 0 0 1-.252-.9 41 41 0 0 1-.012-1.044V66.72h1.632v5.436q0 .378.006.684.012.3.126.48.216.342.69.372t1.05-.048zm-4.608-5.22v-1.26h4.608v1.26z"/><defs><clipPath id="a"><rect width="67" height="13" x="23" y="18" fill="#fff" rx="6.5"/></clipPath></defs></svg>