<?xml version="1.0" encoding="utf-8"?>
<svg version="1.1" class="path"  id="Ebene_1" xmlns="http://www.w3.org/2000/svg" xmlns:xlink="http://www.w3.org/1999/xlink" x="0px" y="0px"
	 viewBox="0 0 200 160" style="enable-background:new 0 0 200 160;" xml:space="preserve">
<style type="text/css">
	.path {
		stroke-dasharray: 500;
		animation: dash 9s 1 linear;
		animation-fill-mode: forwards;
		animation-iteration-count: 3;
	}
	@keyframes dash {
		from{
		stroke-dashoffset: 500;
		fill: transparent;
		opacity: 0.1;
		}
		to {
		stroke-dashoffset: 0;
		fill: transparent;
		opacity: 1;
		}
	}
	.st0{fill:none;stroke:#cccccc;stroke-width:1.2;stroke-miterlimit:10;stroke-dasharray:500;}
	.st1{fill:none;stroke:#ffffff;stroke-width:1.2;stroke-linecap:round;stroke-miterlimit:10;stroke-dasharray:500;}
	.st2{fill:none;stroke:#ffffff;stroke-width:1.2;stroke-miterlimit:10;stroke-dasharray:500;}
	.st3{fill:#ffffff;}
	.st4{fill:#none;stroke:#ffffff;stroke-width:1.2;stroke-miterlimit:10;stroke-dasharray:500;}
</style>
<path class="st0" d="M75.5,76.5l7.2,17.9"/>
<path class="st0" d="M78,56.3c0,0-2.5,0.8-3.7,2.4s-1.2,4.7-1.2,4.7 M90.6,113c0,0,1.6,1.7,4,1.7s34.5-9.5,34.5-9.5 M134.6,88.6
	c0.5-0.1-6.7-23.9-6.7-23.9 M122.7,49.9c-0.2-0.5-0.7-3.7-3.1-3.5c-2.4,0.1-9.3,0.4-9.3,0.4"/>
<path class="st1" d="M134.4,89.2c0,0,12.2,3.1,16.1-1.4c4-4.5-6.4-8.1-3.8-14.9s9.9-5.9,14.8-5.3"/>
<path class="st1" d="M164.4,70.7c-1.6-0.2-3.4-1.6-3.2-3s2.3-2.2,3.9-2L164.4,70.7z"/>
<path class="st1" d="M165.6,66.9l2.6,0.3 M165.2,69.6l2.6,0.4"/>
<path class="st2" d="M133.4,36.1c1-0.7,2.1-4.3,4.1-7.2c2.4-3.6,7.2-7.1,9.5-7.1c2.4,0,4.8,1.2,3.6,3.6s-4.8,3.6-6,4.8
	c-1.2,1.2,1.2,1.2,1.2,1.2s3.6-2.4,8.3-3.6c4.8-1.2,6,0,6,1.2s0,3.6-3.6,4.8s-4.8,2.4-4.8,2.4v1.2c0,0,3.6-1.2,5.9-1.2
	c2.4,0,6.3,0.6,4.8,3.6c-1.2,2.4-3.6,2.4-6,2.4h-4.8c0,0,0,2.4-2.4,4.8s-3.6,2.4-3.6,2.4s1.2,1.2,0,2.4s-1.2,2.4-1.2,2.4
	s-3.6,1.2-7.2,0s-4.8-3.6-5.9-4.8c-0.6-0.6-0.9-1.5-1-2.2c-0.2-0.7-0.2-1.3-0.2-1.3s1.2-1.2,1.2-2.4c0-0.3-0.1-0.5-0.3-0.5h-0.3
	c-0.6,0-1.6,0.1-3-0.6c-2.4-1.2-3.6-4.8-1.2-6c2.4-1.2,4.8-1.2,6,0C132.9,36.3,133.2,36.3,133.4,36.1z M150.6,129
	c2.4,1.2,2.4,5.9,1.2,8.3c-1.2,2.4-6,6-9.5,6c-3.6,0-8.5-3.4-11.9-6c-4.8-3.6-8.3-11.9-6-15.5c1.8-2.7,4.9-3.3,6.4-3.5
	c-0.2,0.4-0.4,1-0.4,2.1c0,2.7,1.3,4.1,5.4,5.4s4,1.4,6.7,1.4s2.8-1.4,2.8-1.4l0.6-0.4C145.8,125.4,148.2,127.8,150.6,129z"/>
<path class="st2" d="M86.5,93.1c3.4-0.5,7.3,0.1,8.2,0.1c1.2,0,4.8-3.6,11.9-6s21.4-2.4,21.4-2.4s2.7,1.8,6.6,3.9l1.8,0.9
	c4.8,2.4,9.5,7.1,11.9,10.7s2.4,9.5,2.4,14.3s-4.8,10.7-4.8,10.7l-0.6,0.4c0,0-0.1,1.4-2.8,1.4s-2.7,0-6.7-1.4s-5.4-2.7-5.4-5.4
	c0-1,0.2-1.7,0.4-2.1c0.5-0.1,0.8-0.1,0.8-0.1s0.7-0.8,1.2-2.4c1.2-3.6-0.1-3.8-1.2-7.1c-0.6-1.8-1.2-3-2.1-4
	c-0.9-1.1-2.1-1.9-3.9-3.1c-3.6-2.4-7.2-1.2-7.2-1.2s-2.4,1.2-7.1,2.4c-4.8,1.2-7.2,1.2-7.2,1.2s-3.6,2.4-8.3,4.8
	c-3.8,1.9-4.6,1.5-5.3,4.2c-0.2,0.7-0.4,1.7-0.7,2.9c-1.2,6,1.2,11.9,1.2,11.9s-3.6-1.2-6-2.4s-3.6-2.4-6-4.8
	c-1.2-1.2-1.2-4.8-3.6-7.2c-2.4-2.4-4.8-2.4-4.8-2.4s1.2-3.6,2.4-7.1c1.2-3.6,6-7.2,9.5-9.5C83.7,93.7,85.1,93.3,86.5,93.1
	L86.5,93.1z"/>
<path class="st2" d="M92.2,129c0,0,2.4,5.9-0.5,8.9l-0.8,0.8c1.3-1.5,2.3-4.1-2.3-5c-5.9-1.2-13.1-8.3-13.1-8.3s-3.6-4.8-7.2-7.1
	c-3.6-2.4-7.1,0-9.5,3.6c-0.7,1.1-0.7,2.6-0.1,4.4c-0.7-1.3-1.1-2.5-1.1-3.2c0-2.4,1.2-6,4.8-9.5c3.6-3.6,8.3-2.4,8.3-2.4
	s2.4,0,4.8,2.4s2.4,6,3.6,7.2c2.4,2.4,3.6,3.6,6,4.8c2.4,1.2,6,2.4,6,2.4L92.2,129z"/>
<path class="st2" d="M88.6,133.7c4.6,0.9,3.6,3.5,2.3,5c-2.8,2.5-7,3.9-11.8,3.4c-3.5-0.4-6.5-1.3-9.2-2.9c-0.6-0.4-1.1-0.7-1.7-1.1
	c-0.1-0.1-0.2-0.1-0.2-0.2c-0.7-0.5-1.3-1.1-1.9-1.7c-2.6-2.6-5.6-6.8-7.2-9.9c-0.6-1.8-0.6-3.3,0.1-4.4c2.4-3.6,6-6,9.5-3.6
	c3.6,2.4,7.2,7.1,7.2,7.1S82.7,132.5,88.6,133.7z M67.2,43.2c4.8,3.6-4.2,6.5-5.9,8.3c-0.9,0.9-1.2,3.1-1.2,4.8
	c0,1.2,3.6,2.4,3.6,2.4v2.4c0,1.2-1.5,3.9-2.4,4.8c-1.2,1.2-2.2,2.4-7.2,2.4h-3.6L49.3,67v-2.4c0,0-1.2-1.2-2.4-1.2S44.5,61,44.5,61
	s-3.3,1.6-4.8,2.4c-2.6,1.3-5.4-0.9-6-2.4c-0.6-1.6,1.2-4.8,3.6-4.8c2.4,0,6-1.2,6-1.2l-1.2-1.2c-1.2-1.2-3.5-2.2-4.8-2.4
	c-1.5-0.2-4.8,0-3.6-4.8c1.3-4.6,7.3-1,7.3-1l5.9,3.6l1.2-1.2c0,0-0.7-1.9-1.2-2.4C45.5,44,41,42,44.6,37.2s7.1,3.6,7.1,3.6l3.6,5.9
	l2.4,1.2C57.7,48,62.4,39.6,67.2,43.2z"/>
<path class="st2" d="M73.2,63.4h3.6c2.4,0,3.6-1.2,3.6-1.2l2.4-2.4l1.2-1.2c1.2-1.2,3.6-3.6,10.7-6c7.2-2.4,11.9-2.4,14.3-2.4h3.6
	c0,0,3.9,0.8,4.8,0c1.2-1.2,3.6,1.2,3.6,1.2s1-0.3,2.1-0.6c1-0.3,2.1-0.5,2.6-0.5c1.2,0,2.4-2.4,2.4-3.6c0-1.2,2.4-1.2,2.4-1.2
	s0,0.6,0.2,1.3c0.1,0.8,0.4,1.6,1,2.2c1.2,1.2,2.4,3.6,5.9,4.8c3.6,1.2,7.2,0,7.2,0V55c0,0-1.4,3.1-4.8,4.8
	c-2.4,1.2-7.1,4.8-11.9,4.8H121V67c0,2.4,3.6,8.3,4.8,10.7c1.2,2.4,2.4,2.4,2.4,3.6v3.6c0,0-14.3,0-21.4,2.4s-10.7,6-11.9,6
	c-0.8,0-4.7-0.6-8.2-0.1c0.3-0.8,0.8-2.8-0.2-5.4c-1.5-3.7-4.4-3.7-4.4-6.2s-1.5-6.2-1.5-6.2L80.1,75c-1.1,0.6-2.6,1.1-4.6,1.4
	c-0.7,0.1-1.5,0.1-2.4,0.1c-7.1,0-9.5,0-13.1-1.2s-9.5-4.8-9.5-5.9v-1.2h3.6c4.9,0,6-1.2,7.2-2.4c0.8-0.8,2.4-3.6,2.4-4.8l0.7-0.8
	c0,0,0.5-0.4,1.7,0.8s2.4,2.4,4.8,2.4C70.9,63.4,73.2,63.4,73.2,63.4z"/>
<path class="st1" d="M146.8,99.2c0,0-3.4-1.2-7,0s-3.6,2.4-3.6,2.4 M74.4,102.2c0,0,2.4-0.6,4.8,1.8l1.2,1.2 M149.2,119.4
	c0,0-1,1.2-5.8,1.2s-7.1-1.2-7.1-1.2 M73.2,63.4c0,0,1.2,2.4,0,4.8L72,70.6 M120.8,52.1v3c0,2.4,1.2,3.6,1.2,3.6"/>
<path class="st2" d="M130.9,42.6c0,0,1.2,0,2.4,1.2s1.2,2.4,2.4,2.4 M132.7,36c0,0,2,0,3,1.8"/>
<path class="st1" d="M90.8,110.8c-2.4-3.6-3.4-3.2-3.4-3.2"/>
<path class="st2" d="M109.9,49.8c0.9-2.2,1.4-3.6,1.4-6.1c0-10.2-8.5-18.5-19-18.5s-19,8.3-19,18.5c0,6.9,3.8,12.8,9.5,16
	c0,0,5.5-5.5,11.5-7.5S109.9,49.8,109.9,49.8z"/>
<path class="st2" d="M106.2,49.2c0.7-1.7,1.1-3.6,1.1-5.5c0-8-6.7-14.5-15-14.5s-15,6.5-15,14.5c0,5.4,3,10,7.5,12.5
	c0,0,4.8-3.4,9.5-5C99.1,49.7,106.2,49.2,106.2,49.2z"/>
<path class="st3" d="M94.4,45.8c0.3,0,0.9-0.4,0.9-0.6c0-0.9-1-1.6-2.2-1.6s-2.4,0.9-3,1.5c-0.7,0.7-0.7,2,0,2.2
	C90.1,47.2,92,45.4,94.4,45.8z"/>
<path class="st2" d="M116,73.8c0,1.2,1.2,3.6,0,4.8c-1.2,1.2-21.4,7.2-21.4,7.2s-2.4,0-3.6-1.2s-3.6-10.7-3.6-10.7s-1.2-6-1.2-7.2
	s11.9-4.8,11.9-4.8s9.5-2.4,10.7-2.4s1.2,0,2.4,1.2S116,72.6,116,73.8z"/>
<circle class="st2" cx="33.8" cy="106.8" r="2"/>
<circle class="st2" cx="109.8" cy="122.8" r="2"/>
<circle class="st2" cx="45.8" cy="111.8" r="5.5"/>
<circle class="st2" cx="52.8" cy="99.8" r="2"/>
<circle class="st4" cx="104.8" cy="18.8" r="2"/>
<circle class="st4" cx="119.8" cy="19.8" r="2"/>
<circle class="st2" cx="102.8" cy="130.8" r="2"/>
<circle class="st3" cx="84.7" cy="40.8" r="1.4"/>
<circle class="st3" cx="96.6" cy="37.7" r="1.4"/>
</svg>
