<svg viewBox="0 0 150 100" fill="none" xmlns="http://www.w3.org/2000/svg">
<g id="product">
<rect id="Rectangle 9" opacity="0.15" x="19" y="24" width="113" height="23" rx="2" fill="#AAAAAA"/>
<rect id="Rectangle 10" opacity="0.15" x="19" y="49" width="113" height="12" rx="2" fill="#AAAAAA"/>
<rect id="Rectangle 11" opacity="0.15" x="19" y="63" width="113" height="11" rx="2" fill="#AAAAAA"/>
<rect id="Rectangle 8" opacity="0.25" x="19" y="76" width="113" height="14" rx="2" fill="#AAAAAA"/>
<g id="Group 13">
<rect id="Rectangle 6" opacity="0.55" x="19" y="10" width="113" height="12" rx="2" fill="#AAAAAA"/>
<path id="Vector" d="M40 16L51 16" stroke="#AAAAAA" stroke-width="4" stroke-linecap="round" stroke-linejoin="bevel"/>
<path id="Vector_2" d="M64 16L78 16" stroke="#AAAAAA" stroke-width="4" stroke-linecap="round" stroke-linejoin="bevel"/>
<path id="Vector_3" d="M89 16L102 16" stroke="#AAAAAA" stroke-width="4" stroke-linecap="round" stroke-linejoin="bevel"/>
<path id="Vector_4" d="M29 19C30.6569 19 32 17.6569 32 16C32 14.3431 30.6569 13 29 13C27.3431 13 26 14.3431 26 16C26 17.6569 27.3431 19 29 19Z" fill="#AAAAAA"/>
</g>
<g id="Group 14">
<path id="Vector_5" d="M43.697 53H50" stroke="#AAAAAA" stroke-width="2" stroke-linecap="round" stroke-linejoin="bevel"/>
<path id="Vector_6" d="M24 53H38.1818" stroke="#AAAAAA" stroke-width="2" stroke-linecap="round" stroke-linejoin="bevel"/>
<path id="Vector_7" d="M36.6061 57H47.6364" stroke="#AAAAAA" stroke-width="2" stroke-linecap="round" stroke-linejoin="bevel"/>
<path id="Vector_8" d="M24 57H31.8788" stroke="#AAAAAA" stroke-width="2" stroke-linecap="round" stroke-linejoin="bevel"/>
</g>
<g id="Group 22">
<path id="Vector_9" d="M97.697 67H104" stroke="#AAAAAA" stroke-width="2" stroke-linecap="round" stroke-linejoin="bevel"/>
<path id="Vector_10" d="M78 67H92.1818" stroke="#AAAAAA" stroke-width="2" stroke-linecap="round" stroke-linejoin="bevel"/>
<path id="Vector_11" d="M90.6061 71H101.636" stroke="#AAAAAA" stroke-width="2" stroke-linecap="round" stroke-linejoin="bevel"/>
<path id="Vector_12" d="M78 71H85.8788" stroke="#AAAAAA" stroke-width="2" stroke-linecap="round" stroke-linejoin="bevel"/>
</g>
<g id="Group 21">
<path id="Vector_13" d="M85 42H91" stroke="#AAAAAA" stroke-width="3" stroke-linecap="round" stroke-linejoin="bevel"/>
<path id="Vector_14" d="M69 42H80" stroke="#AAAAAA" stroke-width="3" stroke-linecap="round" stroke-linejoin="bevel"/>
<path id="Vector_15" d="M56 42H64" stroke="#AAAAAA" stroke-width="3" stroke-linecap="round" stroke-linejoin="bevel"/>
</g>
<g id="Group 17">
<g id="Group 15">
<path id="Vector_16" d="M28 82H41" stroke="#AAAAAA" stroke-width="2" stroke-linecap="round" stroke-linejoin="bevel"/>
<path id="Vector_17" d="M24.0494 83L24.9218 82.1949C25.0261 82.0987 25.0261 81.9418 24.9218 81.8506L24 81" stroke="#AAAAAA" stroke-linecap="round" stroke-linejoin="round"/>
</g>
<g id="Group 16">
<path id="Vector_18" d="M28 86H39" stroke="#AAAAAA" stroke-width="2" stroke-linecap="round" stroke-linejoin="bevel"/>
<path id="Vector_19" d="M24.0494 87L24.9218 86.1949C25.0261 86.0987 25.0261 85.9418 24.9218 85.8506L24 85" stroke="#AAAAAA" stroke-linecap="round" stroke-linejoin="round"/>
</g>
</g>
<g id="Group 18">
<g id="Group 15_2">
<path id="Vector_20" d="M53 82H66" stroke="#AAAAAA" stroke-width="2" stroke-linecap="round" stroke-linejoin="bevel"/>
<path id="Vector_21" d="M49.0494 83L49.9218 82.1949C50.0261 82.0987 50.0261 81.9418 49.9218 81.8506L49 81" stroke="#AAAAAA" stroke-linecap="round" stroke-linejoin="round"/>
</g>
<g id="Group 16_2">
<path id="Vector_22" d="M53 86H64" stroke="#AAAAAA" stroke-width="2" stroke-linecap="round" stroke-linejoin="bevel"/>
<path id="Vector_23" d="M49.0494 87L49.9218 86.1949C50.0261 86.0987 50.0261 85.9418 49.9218 85.8506L49 85" stroke="#AAAAAA" stroke-linecap="round" stroke-linejoin="round"/>
</g>
</g>
<g id="Group 19">
<g id="Group 15_3">
<path id="Vector_24" d="M78 82H91" stroke="#AAAAAA" stroke-width="2" stroke-linecap="round" stroke-linejoin="bevel"/>
<path id="Vector_25" d="M74.0494 83L74.9218 82.1949C75.0261 82.0987 75.0261 81.9418 74.9218 81.8506L74 81" stroke="#AAAAAA" stroke-linecap="round" stroke-linejoin="round"/>
</g>
<g id="Group 16_3">
<path id="Vector_26" d="M78 86H89" stroke="#AAAAAA" stroke-width="2" stroke-linecap="round" stroke-linejoin="bevel"/>
<path id="Vector_27" d="M74.0494 87L74.9218 86.1949C75.0261 86.0987 75.0261 85.9418 74.9218 85.8506L74 85" stroke="#AAAAAA" stroke-linecap="round" stroke-linejoin="round"/>
</g>
</g>
<g id="Group" opacity="0.75">
<path id="Vector_28" d="M47.6366 27H24.047C23.4688 27 23 27.4688 23 28.047V42.953C23 43.5312 23.4688 44 24.047 44H47.6366C48.2148 44 48.6836 43.5312 48.6836 42.953V28.047C48.6836 27.4688 48.2148 27 47.6366 27Z" fill="white"/>
<path id="Vector_29" opacity="0.66" d="M39.3004 35.1378C40.4432 35.1378 41.3696 34.2114 41.3696 33.0686C41.3696 31.9258 40.4432 30.9994 39.3004 30.9994C38.1576 30.9994 37.2312 31.9258 37.2312 33.0686C37.2312 34.2114 38.1576 35.1378 39.3004 35.1378Z" fill="#AAAAAA"/>
<path id="Vector_30" opacity="0.65" d="M35.167 44L40.7344 38.4028C41.4837 37.6486 42.7043 37.6486 43.4536 38.4028L47.4232 42.3923L48.5496 43.479C48.371 43.7866 48.0336 43.995 47.6515 43.995H35.157" fill="#AAAAAA"/>
<path id="Vector_31" d="M40.5161 44H24.1016C23.4912 44 23 43.5038 23 42.8984V41.4644C23 41.4644 23.005 41.4346 23.0149 41.4247L23.2233 41.2212L29.009 35.4355C29.8576 34.587 31.232 34.587 32.0806 35.4355L40.6401 43.995H40.5111L40.5161 44Z" fill="#AAAAAA"/>
</g>
</g>
</svg>
